<svg xmlns="http://www.w3.org/2000/svg" width="1600" height="1600" viewBox="0 0 1600 1600" version="1.1"><path d="M 863.456 187.273 C 864.448 188.798, 865.767 190.373, 866.387 190.773 C 868.288 191.999, 876.846 201.983, 879.989 206.639 C 885.194 214.350, 889.051 224.258, 893.174 240.500 C 893.765 242.830, 893.972 250.764, 893.669 259.500 C 893.048 277.442, 892.093 280.589, 880.470 303 C 874.697 314.133, 860.129 329.009, 846.447 337.743 C 841.821 340.696, 831.258 345.805, 828.500 346.423 C 826.850 346.792, 824.704 347.692, 823.731 348.422 C 822.064 349.672, 821.956 354.688, 821.856 434.874 C 821.792 486.265, 821.384 520, 820.825 520 C 819.247 520, 813.762 516.932, 807.500 512.547 C 799.722 507.100, 799 506.699, 799 507.821 C 799 510.009, 818.664 523, 821.976 523 C 823.888 523, 823.922 521.515, 823.979 437.282 C 824.010 390.137, 824.365 351.251, 824.768 350.868 C 825.171 350.485, 828.425 349.224, 832 348.065 C 849.002 342.554, 870.792 324.055, 881.855 305.740 C 887.631 296.178, 892.201 285.767, 894.666 276.559 C 896.989 267.880, 896.966 246.725, 894.623 237.500 C 892.545 229.318, 888.713 218.280, 886.395 213.797 C 882.548 206.357, 869.768 190.784, 863.575 185.990 C 861.689 184.530, 861.687 184.555, 863.456 187.273 M 711.065 292.750 C 712.737 297.278, 717.298 306.035, 717.749 305.584 C 718.230 305.104, 711.215 290, 710.511 290 C 710.257 290, 710.506 291.238, 711.065 292.750 M 725 316.108 C 725 317.123, 739.141 331.432, 744.925 336.271 C 747.757 338.640, 767.762 349, 769.504 349 C 770.262 349, 771.143 349.423, 771.462 349.939 C 771.782 350.456, 772.313 380.493, 772.643 416.689 C 772.973 452.885, 773.413 482.688, 773.622 482.917 C 773.830 483.146, 774 453.403, 774 416.822 C 774 342.216, 774.674 348.579, 766.500 345.982 C 764.300 345.282, 762.275 344.391, 762 344.002 C 761.725 343.612, 759.021 341.990, 755.991 340.397 C 747.001 335.670, 742.109 331.964, 733.321 323.226 C 728.745 318.675, 725 315.472, 725 316.108 M 464.002 363.250 C 464.002 363.387, 466.928 366.601, 470.503 370.392 C 476.606 376.863, 486 390.826, 486 393.427 C 486 394.072, 486.392 395.028, 486.871 395.550 C 487.351 396.072, 488.588 399.200, 489.621 402.500 C 491.189 407.507, 491.495 411.644, 491.469 427.500 C 491.439 445.262, 491.260 447.084, 488.719 455.457 C 485.021 467.639, 485.089 472.753, 489 476.500 C 490.650 478.081, 492 478.866, 492 478.244 C 492 477.622, 491.056 476.452, 489.902 475.644 C 488.094 474.377, 487.872 473.440, 488.293 468.837 C 488.561 465.902, 489.680 460.077, 490.780 455.894 C 493.359 446.085, 493.964 441.795, 494.569 429 C 494.996 419.962, 494.688 416.898, 492.356 407 C 490.866 400.675, 489.365 395.275, 489.021 395 C 488.677 394.725, 487.593 392.776, 486.612 390.668 C 484.787 386.747, 482.737 383.536, 477.563 376.496 C 472.357 369.412, 463.989 361.238, 464.002 363.250 M 1249 363.184 C 1249 363.456, 1251.468 366.339, 1254.485 369.589 C 1257.502 372.840, 1259.977 375.868, 1259.985 376.317 C 1259.993 376.766, 1261.110 378.589, 1262.467 380.368 C 1264.639 383.216, 1266.444 386.854, 1271.463 398.500 C 1279.106 416.237, 1279.100 439.807, 1271.446 458.567 C 1265.329 473.560, 1261.517 479.535, 1252.026 489 C 1238.864 502.126, 1224.642 510.068, 1208.185 513.482 C 1194.298 516.363, 1170.731 515.036, 1158.487 510.683 C 1156.280 509.898, 1152.680 508.954, 1150.487 508.585 L 1146.500 507.913 1132.500 521.584 C 1124.800 529.102, 1090.450 563.123, 1056.167 597.186 C 1021.883 631.249, 992.756 659.610, 991.438 660.210 C 988.434 661.579, 985.398 659.580, 972 647.418 C 966.775 642.675, 961.244 637.659, 959.708 636.272 C 958.172 634.886, 956.677 633.990, 956.385 634.281 C 956.094 634.573, 958.633 637.442, 962.029 640.656 C 965.425 643.870, 969.852 648.075, 971.868 650 C 973.883 651.925, 978.575 655.912, 982.295 658.859 C 988.855 664.057, 989.153 664.179, 992.197 662.919 C 994.010 662.168, 1021.449 635.625, 1057.180 600.059 C 1145.950 511.699, 1146.035 511.616, 1147.849 511.305 C 1148.757 511.149, 1151.525 511.649, 1154 512.414 C 1168.833 517.005, 1177.633 518.228, 1192.694 517.793 C 1205.471 517.424, 1208.566 516.997, 1215.275 514.682 C 1247.890 503.422, 1264.935 486.277, 1276.095 453.500 C 1279.370 443.882, 1279.498 442.946, 1279.441 429 C 1279.380 414.187, 1278.552 410.062, 1272.915 396.500 C 1272.229 394.850, 1271.592 393.275, 1271.500 393 C 1270.162 389.007, 1266.200 382.331, 1260.323 374.164 C 1257.487 370.224, 1249 361.994, 1249 363.184 M 321.722 435.956 C 321.019 438.644, 322.021 445.895, 323.196 446.621 C 323.753 446.965, 323.845 444.669, 323.428 440.846 C 322.640 433.628, 322.463 433.121, 321.722 435.956 M 330.679 470.750 C 332.597 476.200, 335.135 480.788, 337.414 482.924 C 338.836 484.258, 340 485.773, 340 486.291 C 340 487.681, 351.819 498.701, 359.186 504.179 C 362.155 506.387, 368.278 509.647, 371 510.470 C 371.275 510.553, 373.100 511.322, 375.056 512.179 C 383.799 516.007, 392.284 517.384, 407.500 517.442 C 421.202 517.495, 423.322 517.253, 432 514.647 C 437.225 513.078, 443.185 511.728, 445.244 511.647 C 447.491 511.559, 448.991 511, 448.994 510.250 C 449.002 508.491, 441.533 508.669, 436.108 510.559 C 419.595 516.309, 395.334 516.401, 378.500 510.778 C 360.210 504.669, 342.516 490.088, 334.292 474.348 C 331.641 469.274, 329.360 467.002, 330.679 470.750 M 781 495.430 C 781 496.255, 781.984 497.456, 783.187 498.100 C 784.390 498.744, 786.237 500.075, 787.292 501.057 C 788.347 502.040, 790.513 503.384, 792.105 504.044 C 793.697 504.703, 795 505.590, 795 506.014 C 795 506.439, 795.675 507.045, 796.500 507.362 C 797.325 507.678, 798 507.533, 798 507.039 C 798 506.120, 789.471 500, 788.190 500 C 787.800 500, 786.932 499.121, 786.261 498.046 C 784.489 495.210, 781 493.474, 781 495.430 M 449.500 513 C 449.160 513.550, 449.524 514, 450.308 514 C 451.093 514, 453.819 516.326, 456.366 519.168 C 458.913 522.010, 461.311 524.023, 461.693 523.640 C 462.296 523.037, 451.738 512, 450.558 512 C 450.316 512, 449.840 512.450, 449.500 513 M 475 537.384 C 475 538.361, 485.989 549.345, 486.476 548.855 C 486.941 548.386, 484.323 545.404, 479.183 540.547 C 476.882 538.373, 475 536.950, 475 537.384 M 490.750 554.061 C 493.087 556.267, 495 558.399, 495 558.799 C 495 559.198, 496.203 560.420, 497.673 561.513 C 499.144 562.606, 501.394 564.620, 502.673 565.990 C 503.953 567.359, 505 568.069, 505 567.567 C 505 566.287, 488.767 549.995, 487.521 550.025 C 486.960 550.039, 488.413 551.855, 490.750 554.061 M 753.500 553.487 C 755.700 555.462, 758.850 557.999, 760.500 559.123 C 762.150 560.247, 761.250 559.090, 758.500 556.551 C 755.750 554.012, 752.600 551.475, 751.500 550.914 C 750.400 550.354, 751.300 551.511, 753.500 553.487 M 506 568.593 C 506 569.119, 509.375 572.903, 513.500 577 C 517.625 581.097, 521 584.010, 521 583.473 C 521 582.936, 517.625 579.153, 513.500 575.066 C 509.375 570.980, 506 568.067, 506 568.593 M 596.740 581.753 L 602.981 587.500 603.037 613.500 C 603.142 662.249, 603.297 659, 600.858 659 C 597.550 659, 590.117 652.174, 554.750 616.659 C 536.737 598.571, 522 584.157, 522 584.629 C 522 585.100, 524.887 588.414, 528.416 591.993 C 549.212 613.083, 581.866 646.367, 584 648.650 C 588.718 653.697, 598.085 660.983, 600.697 661.639 C 605.787 662.916, 605.914 661.942, 605.698 623.257 L 605.500 587.755 599 581.894 C 595.425 578.670, 592.050 576.027, 591.500 576.020 C 590.950 576.013, 593.308 578.593, 596.740 581.753 M 806.500 598.589 C 812.406 604.385, 815 606.434, 815 605.303 C 815 604.748, 812.188 602.128, 808.750 599.479 C 802.899 594.971, 802.755 594.914, 806.500 598.589 M 665.124 717.500 C 664.998 728.500, 664.898 741.100, 664.902 745.500 C 664.906 749.900, 664.936 812.121, 664.969 883.768 C 665.009 969.895, 665.381 1015.678, 666.068 1018.882 C 666.640 1021.548, 667.231 1024.802, 667.381 1026.114 C 667.532 1027.426, 668.585 1030.300, 669.720 1032.500 C 670.856 1034.700, 671.735 1036.725, 671.673 1037 C 671.544 1037.570, 676.856 1045.383, 679.644 1048.724 C 680.665 1049.948, 682.591 1052.444, 683.924 1054.271 C 689.707 1062.198, 703.208 1068.830, 715.300 1069.683 C 729.681 1070.698, 742.616 1066.907, 754.231 1058.273 C 757.983 1055.484, 791.905 1026.959, 797.500 1021.888 C 799.150 1020.393, 804.360 1015.868, 809.079 1011.834 C 831.432 992.723, 838.916 986.254, 844 981.649 C 855.984 970.792, 857.711 969.271, 863.492 964.473 C 866.788 961.738, 871.391 957.749, 873.720 955.608 C 882.050 947.954, 885.556 944.839, 889.384 941.693 C 893.457 938.344, 909.681 924.401, 911.638 922.567 C 913.154 921.146, 919.824 915.530, 929 907.947 C 933.125 904.539, 937.401 900.794, 938.502 899.625 C 939.603 898.456, 941.853 896.451, 943.502 895.168 C 945.151 893.886, 948.525 890.953, 951 888.650 C 953.475 886.347, 963.360 877.721, 972.966 869.481 C 994.855 850.706, 1001.837 843.638, 1007.551 834.470 C 1014.897 822.685, 1016.437 817.401, 1016.434 804 C 1016.432 796.601, 1015.924 791.074, 1015.008 788.500 C 1014.226 786.300, 1013.547 784.275, 1013.499 784 C 1013.251 782.557, 1006.555 772.034, 1003.978 769.038 C 1000.198 764.643, 1000.077 766.019, 1003.818 770.856 C 1016.105 786.745, 1017.991 809.554, 1008.494 827.415 C 1001.488 840.592, 995.873 846.403, 962.998 874.500 C 957.850 878.900, 950.897 884.975, 947.547 888 C 935.918 898.502, 926.733 906.478, 900.570 928.795 C 886.578 940.730, 879.535 946.837, 875.944 950.145 C 874.539 951.440, 868.689 956.518, 862.944 961.428 C 857.200 966.339, 850.925 971.825, 849 973.618 C 847.075 975.412, 841.225 980.573, 836 985.087 C 830.775 989.602, 823.800 995.635, 820.500 998.494 C 795.191 1020.424, 792.466 1022.754, 775.500 1036.976 C 752.004 1056.671, 748.897 1058.981, 741 1062.623 C 731.208 1067.140, 715.898 1068.347, 705.932 1065.387 C 699.850 1063.581, 688.849 1056.775, 684.915 1052.385 C 681.662 1048.755, 673.862 1037.304, 672.389 1033.996 C 671.777 1032.623, 670.514 1029.744, 669.582 1027.597 C 666.597 1020.725, 665.862 999, 666.418 934 C 666.707 900.175, 666.585 833.125, 666.148 785 C 665.711 736.875, 665.250 706.500, 665.124 717.500 M 265.783 709.673 C 270.291 711.268, 275.525 710.618, 271.500 708.963 C 270.400 708.511, 267.700 708.144, 265.500 708.149 L 261.500 708.158 265.783 709.673 M 274 710.883 C 274 711.270, 276.587 712.434, 279.750 713.470 C 282.913 714.506, 285.928 715.724, 286.450 716.177 C 286.972 716.630, 288.027 717, 288.794 717 C 291.966 717, 316 736.451, 316 739.018 C 316 739.558, 316.434 740, 316.965 740 C 318.307 740, 325.991 751.989, 330.423 761 C 332.453 765.125, 334.661 769.058, 335.331 769.739 C 336.287 770.711, 363.342 770.991, 460.693 771.035 C 528.985 771.067, 586.216 771.488, 587.904 771.973 C 589.592 772.457, 591.199 772.487, 591.475 772.040 C 592.752 769.974, 572.454 769.590, 459.500 769.547 C 392.950 769.521, 337.939 769.137, 337.254 768.694 C 336.569 768.250, 334.476 764.571, 332.604 760.519 C 329.668 754.163, 325.190 746.750, 321.541 742.202 C 318.897 738.906, 303.985 724.769, 299.708 721.504 C 297.085 719.500, 292.437 716.716, 289.380 715.317 C 283.109 712.445, 274 709.820, 274 710.883 M 1390.978 719.802 C 1392.341 720.736, 1394.254 722.288, 1395.228 723.250 C 1396.203 724.212, 1397.229 725, 1397.509 725 C 1397.788 725, 1399.418 726.237, 1401.129 727.750 C 1421.434 745.695, 1431.429 762.960, 1435.489 787.099 C 1437.183 797.171, 1437.187 798.285, 1435.566 809.483 C 1432.370 831.569, 1424.190 848.573, 1409.929 862.777 C 1402.506 870.170, 1396.235 874.489, 1384.266 880.455 C 1369.050 888.039, 1362.787 889.500, 1345.500 889.500 C 1330.416 889.500, 1326.451 888.897, 1315.229 884.893 C 1302.428 880.326, 1291.704 873.122, 1281.280 862.085 C 1277.858 858.463, 1275.046 856.062, 1275.030 856.750 C 1274.992 858.336, 1290.238 874, 1291.820 874 C 1292.469 874, 1293 874.353, 1293 874.784 C 1293 875.216, 1294.463 876.431, 1296.250 877.484 C 1298.037 878.538, 1300.372 880.210, 1301.439 881.200 C 1302.505 882.190, 1303.900 883, 1304.540 883 C 1305.179 883, 1307.810 884.121, 1310.387 885.491 C 1319.344 890.253, 1330.919 892.409, 1346.542 892.223 C 1358.344 892.083, 1362.004 891.644, 1369.492 889.474 C 1397.071 881.482, 1421.220 860.827, 1431.283 836.624 C 1436.441 824.218, 1438.158 816.397, 1438.733 802.682 C 1439.227 790.890, 1439.047 789.008, 1436.478 779.182 C 1433.907 769.347, 1431.198 761.745, 1428.930 758 C 1428.430 757.175, 1427.129 754.855, 1426.039 752.845 C 1421.967 745.337, 1397.805 721, 1394.423 721 C 1393.775 721, 1392.685 720.325, 1392 719.500 C 1391.315 718.675, 1390.248 718.024, 1389.628 718.052 C 1389.007 718.081, 1389.615 718.869, 1390.978 719.802 M 1083.987 769.833 C 1083.444 770.017, 1083.052 771.142, 1083.116 772.333 C 1083.207 774.024, 1083.332 774.116, 1083.689 772.750 C 1084.096 771.192, 1085.702 770.991, 1098.323 770.921 C 1106.120 770.878, 1112.050 770.664, 1111.500 770.446 C 1110.227 769.943, 1085.306 769.388, 1083.987 769.833 M 1140 770.064 C 1135.325 770.374, 1150.175 770.614, 1173 770.599 C 1195.825 770.583, 1209.325 770.444, 1203 770.290 C 1176.325 769.640, 1147.925 769.538, 1140 770.064 M 1237.500 770.049 L 1225.500 770.598 1240.250 770.799 C 1248.362 770.909, 1255 770.826, 1255 770.613 C 1255 769.732, 1248.798 769.532, 1237.500 770.049 M 594.322 773.444 C 597.912 776.166, 598.815 782.550, 598.653 804.087 L 598.500 824.500 487 824.256 C 425.675 824.122, 366.950 824.347, 356.500 824.756 L 337.500 825.500 332.485 835 C 319.529 859.545, 308.781 870.946, 290 880.067 C 274.827 887.436, 265.794 889.473, 248.500 889.424 C 235.424 889.387, 233.921 889.179, 225.733 886.269 C 209.391 880.461, 195.806 871.382, 185.853 859.618 C 182.541 855.703, 178.955 850.925, 177.885 849 C 176.815 847.075, 174.804 843.475, 173.416 841 C 170.871 836.461, 167.505 827.257, 164.586 816.846 C 162.743 810.274, 162.349 783.843, 164.028 779.426 C 164.989 776.898, 164.662 775.005, 163.470 776.197 C 162.770 776.896, 161.072 786.966, 160.383 794.500 C 159.187 807.578, 164.445 829.542, 172.192 843.821 C 180.688 859.482, 187.731 867.478, 201.517 877.114 C 217.791 888.489, 230.429 892.500, 250 892.500 C 264.842 892.500, 275.672 890.106, 289 883.880 C 310.020 874.060, 321.125 862.722, 334.412 837.513 C 337.017 832.570, 339.678 828.190, 340.324 827.778 C 340.971 827.367, 399.949 827.024, 471.388 827.015 L 601.275 827 600.795 802.065 C 600.389 780.940, 600.059 776.738, 598.635 774.565 C 597.645 773.055, 596.038 772.013, 594.727 772.032 C 592.619 772.062, 592.598 772.138, 594.322 773.444 M 1082.646 777.750 C 1082.377 778.712, 1082.009 790.075, 1081.828 803 L 1081.500 826.500 1170 827.030 C 1218.675 827.321, 1258.608 827.658, 1258.740 827.780 C 1258.873 827.901, 1260.830 831.855, 1263.089 836.568 C 1265.349 841.280, 1267.407 844.926, 1267.663 844.670 C 1267.919 844.414, 1266.524 841.020, 1264.564 837.127 C 1262.604 833.235, 1261 829.419, 1261 828.647 C 1261 827.876, 1260.388 826.737, 1259.640 826.116 C 1258.653 825.297, 1234.404 824.988, 1171.222 824.989 C 1102.669 824.989, 1084.070 824.725, 1083.723 823.745 C 1083.481 823.060, 1083.511 812.038, 1083.789 799.250 C 1084.252 777.981, 1083.985 772.958, 1082.646 777.750 M 987 948.401 C 987 949.079, 998.244 960.399, 1022.307 983.947 C 1027.054 988.593, 1031.186 992.148, 1031.488 991.846 C 1032.065 991.268, 1027.681 986.774, 1005.783 965.500 C 989.736 949.910, 987 947.419, 987 948.401 M 596.074 952.522 C 594.740 953.830, 593.367 954.727, 593.024 954.515 C 592.681 954.303, 591.856 955, 591.192 956.065 C 589.547 958.698, 590.623 958.495, 594.182 955.500 C 597.461 952.741, 600.185 952.313, 601.832 954.298 C 603.068 955.787, 603.689 1010.605, 602.525 1015.500 C 602.133 1017.150, 601.202 1019.850, 600.455 1021.500 C 599.709 1023.150, 577.433 1046.100, 550.954 1072.500 C 524.474 1098.900, 498.989 1124.748, 494.321 1129.939 C 485.914 1139.288, 485.837 1139.422, 486.273 1143.939 C 486.515 1146.448, 487.740 1151.650, 488.996 1155.500 C 491.032 1161.743, 491.288 1164.555, 491.358 1181.500 C 491.435 1200.047, 491.369 1200.679, 488.594 1208 C 482.883 1223.063, 478.384 1230.518, 469.080 1240.332 C 460.890 1248.972, 444.802 1258.083, 430.500 1262.183 C 420.037 1265.181, 399.475 1265.428, 388 1262.693 C 371.194 1258.687, 353.038 1246.753, 342.435 1232.745 C 338.045 1226.945, 330.958 1213.444, 330.495 1210 C 330.384 1209.175, 329.225 1205.125, 327.919 1201 C 325.875 1194.544, 325.544 1191.481, 325.540 1179 C 325.536 1166.971, 325.915 1163.178, 327.767 1156.739 C 330.237 1148.152, 330.556 1145.466, 328.746 1148.500 C 328.089 1149.600, 327.534 1150.725, 327.511 1151 C 327.488 1151.275, 327.198 1151.950, 326.866 1152.500 C 326.307 1153.426, 325.061 1158.777, 324.305 1163.500 C 323.501 1168.516, 323.888 1196.343, 324.795 1198.778 C 325.352 1200.275, 326.364 1203.649, 327.042 1206.276 C 327.720 1208.902, 328.663 1211.291, 329.137 1211.585 C 329.612 1211.878, 330 1212.950, 330 1213.966 C 330 1217.476, 335.715 1228.522, 340.820 1234.879 C 358.630 1257.053, 381.588 1268, 410.283 1268 C 425.052 1268, 433.407 1265.832, 449.228 1257.894 C 459.791 1252.594, 465.091 1248.853, 471.743 1242 C 481.213 1232.244, 488.414 1219.659, 492.174 1206.299 C 495.643 1193.968, 495.302 1168.749, 491.478 1154.932 C 489.135 1146.467, 488.700 1143.331, 489.453 1140.332 C 489.920 1138.469, 508.318 1119.340, 545.325 1082.239 C 575.671 1051.815, 601.625 1025.028, 603 1022.712 L 605.500 1018.501 605.500 986.288 C 605.500 958.957, 605.273 953.859, 604 952.645 C 601.277 950.048, 598.639 950.007, 596.074 952.522 M 954 985.514 C 954 985.910, 960.163 992.469, 967.695 1000.089 C 975.227 1007.709, 981.775 1014.633, 982.246 1015.475 C 982.951 1016.735, 987.150 1021.019, 997.951 1031.500 C 998.518 1032.050, 1004.499 1038.326, 1011.241 1045.446 C 1026.643 1061.712, 1067.727 1103, 1068.510 1103 C 1068.832 1103, 1070.262 1104.237, 1071.688 1105.750 C 1073.114 1107.263, 1074.105 1107.967, 1073.890 1107.315 C 1073.676 1106.663, 1059.325 1091.752, 1042 1074.179 C 1024.675 1056.606, 1006.114 1037.564, 1000.753 1031.864 C 977.971 1007.641, 954 983.876, 954 985.514 M 1073.525 1031.847 C 1076.811 1035.062, 1079.676 1037.549, 1079.890 1037.373 C 1080.592 1036.798, 1073.534 1029.172, 1072.219 1029.085 C 1071.514 1029.038, 1070.678 1028.325, 1070.362 1027.500 C 1070.045 1026.675, 1069.283 1026, 1068.668 1026 C 1068.054 1026, 1070.239 1028.631, 1073.525 1031.847 M 485 1063.108 C 480.875 1067.433, 476.628 1071.878, 475.561 1072.986 C 474.495 1074.094, 473.258 1075, 472.811 1075 C 472.365 1075, 472 1075.675, 472 1076.500 C 472 1077.325, 471.422 1078, 470.715 1078 C 470.008 1078, 467.871 1079.903, 465.965 1082.229 C 464.059 1084.555, 460.363 1088.691, 457.750 1091.420 C 455.137 1094.149, 453 1096.521, 453 1096.691 C 453 1098.023, 455.761 1095.571, 464.757 1086.250 C 470.464 1080.338, 479.688 1070.888, 485.256 1065.250 C 490.824 1059.612, 494.732 1055.055, 493.940 1055.122 C 493.148 1055.189, 489.125 1058.782, 485 1063.108 M 1101.405 1058.846 C 1102.440 1060.520, 1141.970 1099.490, 1142.973 1099.824 C 1145.321 1100.607, 1143.361 1098.412, 1130.866 1086.267 C 1123.642 1079.245, 1114.177 1070.013, 1109.831 1065.750 C 1102.683 1058.738, 1099.959 1056.506, 1101.405 1058.846 M 819 1080.800 C 819 1081.240, 819.563 1082.162, 820.250 1082.850 C 821.223 1083.822, 821.611 1103.316, 822 1170.800 L 822.500 1257.500 826 1257.641 C 828.569 1257.744, 828.774 1257.661, 826.772 1257.327 L 824.045 1256.871 823.990 1174.686 C 823.940 1098.258, 823.677 1082.904, 822.382 1080.809 C 821.735 1079.762, 819 1079.755, 819 1080.800 M 406.500 1092.076 L 401.500 1092.686 406 1092.958 C 408.475 1093.107, 412.800 1093.364, 415.611 1093.529 C 418.421 1093.694, 422.429 1094.301, 424.517 1094.877 C 428.375 1095.942, 430.469 1095.569, 429.493 1093.989 C 428.499 1092.380, 413.942 1091.169, 406.500 1092.076 M 1203.118 1092.901 C 1202.034 1093.591, 1202.196 1093.913, 1203.868 1094.391 C 1205.041 1094.726, 1206.900 1095.255, 1208 1095.567 C 1209.391 1095.962, 1210 1095.657, 1210 1094.567 C 1210 1093.705, 1209.362 1093, 1208.582 1093 C 1207.802 1093, 1206.564 1092.780, 1205.832 1092.511 C 1205.099 1092.241, 1203.878 1092.417, 1203.118 1092.901 M 378.273 1096.890 C 376.498 1097.776, 375.035 1098.838, 375.023 1099.250 C 374.985 1100.493, 377.491 1100.096, 379.559 1098.532 C 380.626 1097.724, 382.363 1097.049, 383.417 1097.032 C 384.471 1097.014, 385.020 1096.687, 384.638 1096.304 C 383.408 1095.074, 381.576 1095.243, 378.273 1096.890 M 432 1095.702 C 432 1097.010, 444.324 1100.185, 448.005 1099.826 C 449.843 1099.647, 451.552 1098.874, 451.803 1098.109 C 452.148 1097.059, 451.623 1096.878, 449.662 1097.370 C 448.232 1097.729, 444.911 1097.525, 442.281 1096.917 C 434.545 1095.129, 432 1094.829, 432 1095.702 M 1075 1108.458 C 1075 1108.710, 1081.627 1115.421, 1089.727 1123.370 C 1103.938 1137.317, 1104.455 1137.968, 1104.455 1141.912 C 1104.455 1144.161, 1104.802 1146, 1105.227 1146 C 1105.652 1146, 1106 1144.034, 1106 1141.631 C 1106 1137.594, 1105.537 1136.815, 1099.908 1131.381 C 1096.558 1128.146, 1089.920 1121.565, 1085.158 1116.756 C 1077.438 1108.959, 1075 1106.968, 1075 1108.458 M 775.946 1113.555 L 772.500 1117.110 772.201 1184.805 L 771.903 1252.500 769.495 1254.750 C 768.171 1255.987, 766.448 1257, 765.666 1257 C 763.355 1257, 757 1259.943, 757 1261.013 C 757 1261.556, 757.125 1262, 757.279 1262 C 758.527 1262, 771.468 1255.955, 772.526 1254.878 C 773.631 1253.753, 773.937 1240.988, 774.190 1185.330 C 774.498 1117.687, 774.516 1117.143, 776.601 1114.830 C 778.816 1112.375, 780.366 1110, 779.755 1110 C 779.556 1110, 777.842 1111.600, 775.946 1113.555 M 1246.653 1117.250 C 1262.653 1134.246, 1270.410 1151.426, 1271.684 1172.688 C 1272.397 1184.584, 1270.413 1199.751, 1267 1208.500 C 1259.435 1227.890, 1248.308 1241.387, 1231.397 1251.685 C 1214.956 1261.697, 1199.921 1265.593, 1181.058 1264.729 C 1165.002 1263.994, 1157.419 1261.970, 1145.656 1255.280 C 1134.417 1248.888, 1127.576 1243.001, 1119.002 1232.342 C 1112.743 1224.562, 1110.590 1224.322, 1116.250 1232.035 C 1123.959 1242.542, 1143.377 1259, 1148.063 1259 C 1149.128 1259, 1150 1259.402, 1150 1259.894 C 1150 1261.422, 1162.602 1265.920, 1170.230 1267.114 C 1179.261 1268.527, 1198.386 1267.687, 1206.439 1265.523 C 1221.902 1261.367, 1235.644 1253.734, 1247.502 1242.714 C 1252.221 1238.329, 1257.379 1232.856, 1258.964 1230.553 C 1271.746 1211.974, 1277.752 1184.362, 1273.479 1163.815 C 1271.057 1152.170, 1265.072 1136.129, 1262.790 1135.167 C 1262.356 1134.983, 1262 1134.169, 1262 1133.358 C 1262 1132.546, 1261.594 1132.133, 1261.097 1132.440 C 1260.601 1132.747, 1259.697 1131.570, 1259.089 1129.824 C 1257.985 1126.658, 1257.621 1126.155, 1252.336 1120.500 C 1250.794 1118.850, 1249.649 1117.129, 1249.791 1116.676 C 1249.933 1116.222, 1249.601 1116.128, 1249.054 1116.467 C 1248.506 1116.805, 1247.064 1115.939, 1245.849 1114.541 C 1244.634 1113.143, 1243.205 1112, 1242.675 1112 C 1242.144 1112, 1243.934 1114.362, 1246.653 1117.250 M 345.896 1120.376 C 341.884 1124.354, 337.623 1130.113, 335.508 1134.416 C 334.403 1136.662, 332.938 1139.095, 332.250 1139.821 C 331.563 1140.548, 331 1142.086, 331 1143.238 C 331 1145.895, 331.143 1145.728, 335.063 1138.500 C 338.767 1131.672, 342.701 1125.823, 346.434 1121.594 C 347.845 1119.996, 349 1118.534, 349 1118.344 C 349 1117.576, 348.175 1118.116, 345.896 1120.376 M 1103 1204.313 C 1103 1205.098, 1105.698 1212.320, 1107.609 1216.651 C 1108.374 1218.384, 1109 1220.104, 1109 1220.473 C 1109 1220.841, 1109.762 1221.898, 1110.694 1222.821 C 1112.009 1224.124, 1112.249 1224.164, 1111.765 1223 C 1105.900 1208.884, 1103 1202.701, 1103 1204.313 M 832 1259.111 C 832 1259.951, 838.368 1263, 840.122 1263 C 842.472 1263, 840.520 1261.312, 836.500 1259.866 C 834.025 1258.976, 832 1258.636, 832 1259.111 M 744.951 1267.331 C 741.751 1268.799, 740.655 1269.734, 731.003 1279.235 C 726.681 1283.489, 722.857 1287.876, 722.505 1288.985 C 722.153 1290.093, 721.516 1291, 721.090 1291 C 720.664 1291, 719.467 1292.575, 718.430 1294.500 C 717.393 1296.425, 716.233 1298, 715.852 1298 C 715.471 1298, 714.869 1299.319, 714.515 1300.931 C 714.161 1302.543, 713.300 1304.336, 712.601 1304.917 C 711.901 1305.497, 710.724 1307.890, 709.985 1310.236 C 709.245 1312.581, 708.293 1314.970, 707.869 1315.544 C 707.444 1316.118, 706.363 1321.518, 705.465 1327.544 C 701.591 1353.539, 707.270 1378.925, 721.416 1398.842 C 733.933 1416.466, 751.544 1428.628, 774.716 1435.651 C 782.521 1438.017, 785.172 1438.317, 798.500 1438.343 C 813.600 1438.372, 815.590 1438.058, 829.765 1433.412 C 842.622 1429.197, 857.904 1419.263, 869.538 1407.557 C 877.070 1399.980, 879.458 1396.748, 883.862 1388.173 C 890.351 1375.540, 892.519 1369.369, 894.596 1357.615 C 898.591 1335.011, 891.385 1305.446, 878.072 1289.818 C 869.657 1279.941, 856.430 1268.161, 853.015 1267.503 C 849.974 1266.917, 850.595 1268.326, 854.250 1270.304 C 859.150 1272.957, 871.832 1284.278, 875.252 1289.054 C 887.568 1306.249, 891.909 1319.426, 892.708 1342.037 C 893.106 1353.314, 892.888 1355.507, 890.535 1363.874 C 887.723 1373.876, 880.340 1390.315, 876.106 1396 C 872.512 1400.826, 861.338 1412.024, 856.500 1415.647 C 850.179 1420.381, 837.138 1427.457, 829.500 1430.298 C 814.642 1435.825, 800.169 1437.153, 784.500 1434.429 C 769.255 1431.778, 756.754 1426.709, 743.815 1417.930 C 726.946 1406.486, 713.566 1385.334, 707.935 1361.211 C 705.248 1349.701, 705.285 1332.107, 708.018 1321.672 C 713.108 1302.241, 726.127 1283.077, 742.753 1270.545 C 745.639 1268.369, 748 1266.456, 748 1266.295 C 748 1265.929, 748.039 1265.915, 744.951 1267.331" stroke="none" fill="#dfba3f" fill-rule="evenodd"/><path d="M 786 162.030 C 787.065 162.739, 786.340 162.857, 783.500 162.439 C 774.236 161.072, 752 170.904, 737.995 182.559 C 725.706 192.786, 710.258 213.759, 711.561 218.448 C 711.953 219.859, 711.847 220.092, 711.222 219.195 C 710.587 218.283, 709.663 219.949, 708.157 224.723 C 705.674 232.588, 705.444 234.819, 707.560 230.500 C 708.369 228.850, 708.796 228.329, 708.511 229.343 C 708.225 230.356, 707.720 232.266, 707.389 233.586 C 707.058 234.906, 706.418 235.758, 705.967 235.480 C 704.851 234.790, 703.686 244.578, 703.584 255.500 C 703.484 266.263, 704.940 279.365, 705.932 276.629 C 706.472 275.142, 706.856 275.575, 707.805 278.745 C 709.363 283.944, 709.197 285.285, 707.464 281.500 C 706.708 279.850, 706.070 278.988, 706.045 279.585 C 705.988 280.965, 709.913 293.009, 711.068 295 C 712.245 297.027, 712.222 295.713, 711.025 292.565 C 709.058 287.392, 711.070 290.204, 714.486 297.404 C 718.318 305.477, 718.859 307.441, 716.426 304.441 C 714.019 301.473, 715.895 304.826, 720.354 311.460 C 722.557 314.738, 724.551 316.848, 724.784 316.149 C 725.100 315.201, 725.689 315.314, 727.104 316.594 C 729.132 318.429, 729.731 320.570, 727.900 319.438 C 725.302 317.833, 729.167 322.798, 734.175 327.500 L 739.500 332.499 734.059 326.774 C 731.066 323.626, 728.816 320.852, 729.059 320.611 C 729.301 320.370, 732.284 322.722, 735.687 325.837 C 742.973 332.507, 748.436 336.424, 755.991 340.397 C 759.021 341.990, 761.725 343.612, 762 344.002 C 762.275 344.391, 764.300 345.282, 766.500 345.982 C 774.686 348.583, 774.029 342.165, 773.766 416.905 C 773.541 481.216, 773.514 482.060, 772.989 441.500 L 772.446 399.500 772.495 442.500 C 772.521 466.150, 772.862 486.600, 773.252 487.944 C 773.641 489.289, 774.697 491.089, 775.597 491.944 C 777.103 493.376, 777.134 493.300, 775.981 491 L 774.729 488.500 777.364 490.924 C 778.814 492.258, 780.007 494.058, 780.015 494.924 C 780.028 496.240, 780.178 496.267, 780.927 495.084 C 781.647 493.946, 782.444 494.290, 784.988 496.834 C 786.729 498.575, 788.322 500, 788.527 500 C 789.919 500, 798 506.408, 798 507.512 C 798 508.265, 798.445 509.157, 798.989 509.493 C 799.576 509.856, 799.710 509.407, 799.319 508.388 C 798.537 506.350, 798.954 506.562, 807.500 512.547 C 813.762 516.932, 819.247 520, 820.825 520 C 821.384 520, 821.792 486.265, 821.856 434.874 C 821.956 354.688, 822.064 349.672, 823.731 348.422 C 824.704 347.692, 826.850 346.792, 828.500 346.423 C 831.258 345.805, 841.821 340.696, 846.447 337.743 C 860.129 329.009, 874.697 314.133, 880.470 303 C 892.093 280.589, 893.048 277.442, 893.669 259.500 C 893.972 250.764, 893.765 242.830, 893.174 240.500 C 889.051 224.258, 885.194 214.350, 879.989 206.639 C 876.846 201.983, 868.288 191.999, 866.387 190.773 C 865.767 190.373, 864.448 188.798, 863.456 187.273 C 861.686 184.555, 861.689 184.530, 863.575 186 C 864.634 186.825, 865.831 187.950, 866.235 188.500 C 866.724 189.167, 866.968 189.167, 866.967 188.500 C 866.965 187.950, 865.060 185.962, 862.732 184.083 C 860.404 182.204, 859.063 181.281, 859.750 182.033 C 861.775 184.248, 861.178 185.471, 859.024 183.521 C 857.937 182.538, 857.271 181.371, 857.544 180.929 C 857.818 180.486, 856.119 178.807, 853.771 177.197 C 848.343 173.476, 838.588 168.524, 839.458 169.932 C 839.825 170.526, 839.379 171, 838.452 171 C 837.414 171, 836.994 170.458, 837.338 169.562 C 838.023 167.776, 829.221 164.594, 826.492 165.641 C 825.329 166.088, 824.907 165.959, 825.324 165.286 C 826.244 163.796, 817.677 161.815, 813.180 162.479 C 810.419 162.886, 810 162.787, 811.500 162.081 C 812.858 161.443, 808.843 161.123, 799 161.086 C 789.026 161.048, 784.968 161.342, 786 162.030 M 1181 338.654 C 1178.525 338.880, 1175.825 339.346, 1175 339.691 C 1174.175 340.035, 1173.153 340.243, 1172.729 340.152 C 1172.304 340.060, 1168.817 340.700, 1164.979 341.573 C 1160.362 342.623, 1158 343.641, 1158 344.580 C 1158 345.361, 1157.523 346, 1156.941 346 C 1156.359 346, 1156.151 345.565, 1156.479 345.034 C 1156.808 344.502, 1155.061 344.814, 1152.599 345.727 C 1150.136 346.640, 1148.388 347.819, 1148.715 348.348 C 1149.047 348.885, 1148.784 348.984, 1148.119 348.573 C 1146.103 347.328, 1132.421 356.703, 1124.392 364.831 C 1111.845 377.534, 1103.727 391.571, 1099.312 408.198 C 1097.426 415.300, 1096.884 438.082, 1098.401 446.500 C 1099.206 450.970, 1099.391 451.235, 1100.137 449 C 1100.839 446.897, 1100.911 447.056, 1100.590 450 C 1100.371 452.018, 1101.219 456.464, 1102.594 460.500 C 1103.905 464.350, 1104.783 466.423, 1104.545 465.106 C 1103.988 462.026, 1105.652 463.659, 1106.474 467 C 1106.864 468.584, 1106.504 470.233, 1105.493 471.500 C 1103.936 473.451, 1103.912 473.438, 1104.526 471 C 1105.070 468.839, 1104.875 468.941, 1103.089 471.756 C 1101.952 473.546, 1092.493 483.643, 1082.068 494.193 C 1071.643 504.742, 1063.382 513.809, 1063.711 514.342 C 1064.040 514.874, 1063.846 515.023, 1063.280 514.673 C 1062.714 514.323, 1054.404 522.016, 1044.813 531.769 C 978.450 599.246, 965.725 612.703, 966.684 614.385 C 967.034 614.998, 966.948 615.162, 966.491 614.748 C 965.351 613.713, 962 616.916, 962 619.040 C 962 619.991, 960.763 621.562, 959.250 622.529 L 956.500 624.288 959 621.401 L 961.500 618.514 959.056 620.507 C 954.869 623.922, 952.065 627.426, 952.032 629.285 C 951.987 631.794, 954.406 635.189, 958.234 637.991 C 960.070 639.335, 960.899 639.642, 960.128 638.691 C 959.373 637.761, 959.182 637, 959.703 637 C 960.225 637, 965.343 641.279, 971.076 646.509 C 985.422 659.595, 988.396 661.596, 991.438 660.210 C 992.756 659.610, 1021.883 631.249, 1056.167 597.186 C 1090.450 563.123, 1124.800 529.102, 1132.500 521.584 L 1146.500 507.913 1150.487 508.585 C 1152.680 508.954, 1156.280 509.898, 1158.487 510.683 C 1170.731 515.036, 1194.298 516.363, 1208.185 513.482 C 1224.642 510.068, 1238.864 502.126, 1252.026 489 C 1261.517 479.535, 1265.329 473.560, 1271.446 458.567 C 1279.100 439.807, 1279.106 416.237, 1271.463 398.500 C 1266.444 386.854, 1264.639 383.216, 1262.467 380.368 C 1259.375 376.314, 1259.191 373.980, 1262.170 376.595 C 1264.196 378.374, 1264.184 378.286, 1261.982 375.250 C 1259.306 371.562, 1258.814 371.247, 1259.640 373.750 C 1259.958 374.712, 1257.694 372.840, 1254.609 369.589 C 1249.130 363.816, 1247.251 361.188, 1250.750 364.193 C 1254.402 367.329, 1255.364 367.127, 1252.221 363.884 C 1249.688 361.271, 1248.749 360.809, 1248.096 361.857 C 1247.506 362.802, 1247.043 362.878, 1246.566 362.107 C 1246.190 361.498, 1246.414 361, 1247.063 361 C 1248.848 361, 1246.506 358.496, 1242.525 356.147 C 1240.010 354.663, 1238.922 354.470, 1238.021 355.345 C 1237.113 356.228, 1236.912 356.028, 1237.166 354.500 C 1237.399 353.103, 1236.976 352.541, 1235.761 352.637 C 1234.804 352.712, 1234.217 352.458, 1234.456 352.071 C 1234.696 351.684, 1233.453 350.526, 1231.696 349.497 C 1228.949 347.890, 1228.693 347.865, 1229.872 349.314 C 1231.602 351.439, 1230.647 351.470, 1227.473 349.391 C 1226.122 348.505, 1225.233 347.432, 1225.497 347.004 C 1225.761 346.577, 1225.082 345.993, 1223.987 345.707 C 1222.893 345.421, 1222.249 345.595, 1222.558 346.093 C 1223.273 347.251, 1222.968 347.234, 1219.149 345.902 C 1217.417 345.298, 1216 344.209, 1216 343.482 C 1216 342.106, 1213.036 341.177, 1206.893 340.626 C 1204.917 340.448, 1202.890 340.050, 1202.390 339.741 C 1201.071 338.926, 1186.269 338.174, 1181 338.654 M 393 343 L 389.500 343.737 392.500 343.959 L 395.500 344.180 392.101 345.157 C 389.743 345.835, 388.495 345.801, 388.028 345.045 C 387.257 343.798, 377.127 346.633, 369.288 350.291 C 358.723 355.220, 340.221 369.930, 341.659 372.258 C 342.017 372.836, 341.860 373.032, 341.312 372.693 C 340.232 372.025, 331.644 383.796, 328.066 390.847 C 326.853 393.238, 326.112 395.849, 326.419 396.649 C 326.726 397.449, 326.602 397.872, 326.142 397.588 C 325.683 397.304, 324.564 399.749, 323.654 403.021 C 321.716 409.992, 321.683 410.314, 323 409.500 C 323.550 409.160, 324 409.632, 324 410.548 C 324 411.548, 323.452 412.004, 322.630 411.688 C 321.621 411.301, 321.096 412.525, 320.638 416.331 C 319.814 423.190, 319.834 433.403, 320.675 435.595 C 321.301 437.227, 321.404 437.215, 322.105 435.427 C 322.714 433.871, 322.875 434.077, 322.941 436.500 C 322.985 438.150, 323.312 441.257, 323.667 443.405 C 324.134 446.235, 323.994 447.114, 323.156 446.596 C 321.702 445.698, 321.693 445.553, 323.572 453.656 C 325.199 460.671, 327.539 466.212, 326.462 460.500 L 325.896 457.500 327.323 460 C 328.108 461.375, 329.055 463.625, 329.427 465 C 330.077 467.402, 330.043 467.424, 328.552 465.559 C 326.439 462.916, 326.603 463.887, 329.062 468.571 C 330.197 470.732, 330.886 471.712, 330.594 470.750 C 329.502 467.151, 331.596 469.189, 334.292 474.348 C 342.516 490.088, 360.210 504.669, 378.500 510.778 C 395.334 516.401, 419.595 516.309, 436.108 510.559 C 441.922 508.534, 449 508.485, 449 510.469 C 449 511.415, 448.378 511.737, 447.250 511.374 C 445.775 510.900, 445.736 510.980, 447 511.883 C 447.825 512.472, 449.356 512.688, 450.401 512.362 C 451.809 511.923, 452.153 512.159, 451.727 513.270 C 451.379 514.175, 452.373 515.908, 454.230 517.635 C 455.924 519.211, 456.988 519.938, 456.596 519.250 C 455.377 517.115, 457.535 517.876, 459.930 520.426 C 461.184 521.760, 461.952 523.269, 461.637 523.779 C 461.322 524.288, 461.761 525.559, 462.614 526.603 C 464.130 528.460, 464.150 528.459, 463.539 526.556 C 462.929 524.659, 462.963 524.657, 464.963 526.467 C 466.090 527.487, 466.800 528.533, 466.541 528.792 C 465.798 529.536, 467.952 533, 469.158 533 C 469.847 533, 469.756 532.359, 468.911 531.250 C 468.177 530.288, 469.022 530.822, 470.788 532.437 C 472.555 534.052, 474 535.585, 474 535.842 C 474 536.099, 473.100 535.495, 472 534.500 C 470.900 533.505, 470 533.110, 470 533.624 C 470 534.138, 472.925 537.457, 476.500 541 C 480.075 544.543, 483 547.117, 483 546.720 C 483 546.323, 481.135 544.188, 478.856 541.976 C 476.577 539.764, 474.901 537.766, 475.131 537.536 C 475.965 536.702, 484.990 546.208, 484.349 547.244 C 483.976 547.848, 484.161 548.018, 484.776 547.638 C 485.373 547.269, 486.144 547.425, 486.490 547.984 C 486.835 548.543, 486.546 549, 485.847 549 C 485.147 549, 486.781 551.240, 489.477 553.977 C 492.173 556.714, 494.559 558.774, 494.779 558.555 C 494.998 558.335, 493.326 556.482, 491.063 554.438 C 488.799 552.393, 487.195 550.471, 487.498 550.168 C 488.360 549.307, 499.088 560.329, 498.607 561.582 C 498.371 562.196, 506.780 571.204, 517.294 581.599 C 527.807 591.995, 535.529 599.392, 534.454 598.038 C 533.380 596.684, 531.600 594.786, 530.500 593.821 C 529.400 592.856, 528.916 592.052, 529.424 592.033 C 530.269 592.003, 566 627.858, 566 628.736 C 566 628.946, 565.438 628.780, 564.750 628.367 C 563.923 627.870, 563.971 628.197, 564.893 629.332 C 565.658 630.276, 566.505 630.828, 566.774 630.559 C 567.759 629.574, 571.139 632.196, 570.621 633.545 C 570.328 634.310, 570.587 635.245, 571.198 635.622 C 571.871 636.038, 572.028 635.854, 571.595 635.155 C 570.387 633.200, 572.452 633.879, 574.308 636.047 C 575.272 637.172, 575.752 638.592, 575.376 639.201 C 574.970 639.858, 575.146 640.028, 575.809 639.618 C 576.424 639.238, 577.860 639.860, 579 641 C 580.140 642.140, 580.762 643.576, 580.382 644.191 C 579.956 644.880, 580.145 645.029, 580.873 644.578 C 581.563 644.152, 583.189 645.032, 584.778 646.691 C 590.440 652.603, 598.796 659, 600.858 659 C 603.298 659, 603.144 662.213, 603.034 613.500 L 602.975 587.500 599.944 584.725 C 598.277 583.199, 597.154 581.560, 597.449 581.083 C 598.037 580.131, 585.391 567.870, 584.223 568.259 C 583.825 568.392, 583.355 568.050, 583.179 567.500 C 582.531 565.484, 579.704 563.065, 578.712 563.678 C 578.150 564.025, 577.968 563.861, 578.307 563.313 C 578.645 562.765, 577.297 560.783, 575.311 558.908 C 573.042 556.767, 571.937 556.170, 572.338 557.302 C 572.741 558.439, 572.587 558.863, 571.920 558.451 C 571.339 558.092, 571.085 557.220, 571.356 556.514 C 571.627 555.807, 570.621 554.053, 569.120 552.615 C 565.778 549.413, 563.972 549.152, 566.595 552.250 L 568.500 554.500 566.290 552.631 C 565.074 551.603, 564.174 550.253, 564.290 549.631 C 564.405 549.009, 563.904 548.624, 563.176 548.775 C 562.447 548.926, 562.139 548.584, 562.491 548.015 C 563.196 546.875, 557.564 541.700, 555.248 541.360 C 553.721 541.136, 550.536 537.218, 550.485 535.500 C 550.469 534.950, 549.565 534.631, 548.478 534.792 C 547.148 534.988, 546.905 534.808, 547.735 534.242 C 548.615 533.642, 547.387 531.838, 543.450 527.951 C 540.414 524.953, 537.721 522.612, 537.465 522.750 C 537.209 522.888, 537.044 522.733, 537.098 522.407 C 537.266 521.383, 531.730 516.049, 530.981 516.512 C 530.588 516.754, 529.420 515.959, 528.384 514.744 C 526.524 512.563, 526.526 512.553, 528.500 513.967 C 529.600 514.755, 528.494 513.285, 526.042 510.700 C 521.266 505.665, 520.445 505.110, 521.382 507.552 C 521.723 508.442, 521.555 508.843, 520.989 508.493 C 520.445 508.157, 520 507.109, 520 506.165 C 520 505.220, 512.800 497.285, 504 488.531 C 495.200 479.777, 488 473.043, 488 473.567 C 488 474.090, 488.900 475.081, 490 475.768 C 491.100 476.455, 492 477.547, 492 478.196 C 492 478.844, 490.650 478.081, 489 476.500 C 485.089 472.753, 485.021 467.639, 488.719 455.457 C 491.260 447.084, 491.439 445.262, 491.469 427.500 C 491.495 411.644, 491.189 407.507, 489.621 402.500 C 488.588 399.200, 487.351 396.073, 486.871 395.550 C 485.669 394.239, 485.770 390.740, 486.989 391.493 C 487.566 391.850, 487.716 391.424, 487.349 390.468 C 486.896 389.285, 486.516 389.165, 485.978 390.035 C 485.505 390.802, 483.923 389, 481.618 385.065 C 477.561 378.145, 477.239 377.144, 479.707 379.128 C 480.646 379.882, 480.143 378.813, 478.588 376.750 C 475.280 372.360, 474.215 371.808, 476.658 375.750 C 477.596 377.262, 475.160 375.150, 471.246 371.055 C 467.333 366.960, 464.213 363.135, 464.315 362.555 C 464.417 361.975, 463.773 361.618, 462.883 361.763 C 461.994 361.908, 460.644 361.261, 459.883 360.326 C 458.668 358.832, 458.713 358.705, 460.250 359.281 C 463.345 360.441, 462.128 359.251, 456.985 356.086 C 451.562 352.749, 450.489 352.365, 451.595 354.155 C 452.041 354.876, 451.869 355.037, 451.138 354.585 C 450.494 354.187, 450.180 353.517, 450.441 353.096 C 450.701 352.674, 449.359 351.588, 447.457 350.681 C 445.556 349.774, 444 349.465, 444 349.995 C 444 350.561, 442.960 350.483, 441.472 349.805 C 439.919 349.098, 439.372 348.388, 440.055 347.966 C 441.650 346.980, 433.011 345.038, 429.839 345.670 C 428.376 345.961, 426.351 345.718, 425.339 345.130 C 423.588 344.112, 423.596 344.054, 425.500 343.912 C 426.874 343.810, 426.562 343.525, 424.500 343 C 420.678 342.028, 397.620 342.028, 393 343 M 706.493 540.771 C 702.089 542.272, 696.394 544.731, 693.839 546.236 C 683.423 552.368, 672.904 564.485, 668.942 574.912 C 664.349 587, 664.075 592.395, 664.273 667.132 C 664.376 705.834, 664.694 728.500, 664.980 717.500 C 665.266 706.500, 665.832 741.375, 666.237 795 C 666.643 848.625, 666.719 915.450, 666.406 943.500 C 665.672 1009.401, 666.479 1022.075, 672.122 1033.236 C 673.353 1035.671, 673.215 1037.251, 671.845 1036.405 C 671.124 1035.959, 670.963 1036.131, 671.415 1036.862 C 671.813 1037.506, 672.535 1037.788, 673.019 1037.488 C 673.504 1037.188, 676.124 1040.219, 678.842 1044.222 C 684.559 1052.643, 687.391 1055.452, 695.047 1060.294 C 710.239 1069.901, 730.646 1069.364, 748 1058.898 C 751.729 1056.650, 757.865 1051.758, 775.500 1036.976 C 792.466 1022.754, 795.191 1020.424, 820.500 998.494 C 823.800 995.635, 830.775 989.602, 836 985.087 C 841.225 980.573, 847.075 975.412, 849 973.618 C 850.925 971.825, 857.200 966.339, 862.944 961.428 C 868.689 956.518, 874.539 951.440, 875.944 950.145 C 879.535 946.837, 886.578 940.730, 900.570 928.795 C 926.733 906.478, 935.918 898.502, 947.547 888 C 950.897 884.975, 957.850 878.900, 962.998 874.500 C 995.873 846.403, 1001.488 840.592, 1008.494 827.415 C 1017.991 809.554, 1016.105 786.745, 1003.818 770.856 C 999.838 765.709, 1000.317 764.921, 1004.591 769.583 L 1008.182 773.500 1005.107 769.376 C 1000.836 763.648, 980.466 744.884, 979.484 745.773 C 979.041 746.173, 978.972 745.988, 979.330 745.361 C 979.693 744.726, 978.434 743.043, 976.486 741.557 C 974.563 740.091, 969.955 736.223, 966.245 732.963 C 959.884 727.372, 956.986 725.551, 958.595 728.155 C 959.041 728.876, 958.869 729.037, 958.138 728.585 C 957.494 728.187, 957.195 727.494, 957.473 727.044 C 957.751 726.595, 957.298 725.662, 956.466 724.972 C 955.192 723.914, 955.064 724.002, 955.651 725.532 C 956.229 727.039, 955.978 726.978, 954.174 725.174 C 951.772 722.772, 951.312 721.489, 953.250 722.596 C 953.938 722.988, 953.183 721.894, 951.573 720.165 C 949.963 718.436, 948.389 717.278, 948.074 717.592 C 947.760 717.906, 948.370 718.797, 949.429 719.571 C 950.488 720.346, 951.129 721.204, 950.854 721.479 C 950.083 722.250, 945.886 717.993, 946.476 717.038 C 946.763 716.575, 944.208 713.789, 940.800 710.848 C 937.391 707.906, 934.943 706.063, 935.360 706.750 C 935.779 707.440, 935.644 708, 935.059 708 C 934.477 708, 934 707.416, 934 706.703 C 934 705.200, 926.881 697.980, 925.458 698.041 C 924.931 698.063, 926.058 699.413, 927.962 701.041 C 929.866 702.668, 930.991 703.986, 930.462 703.968 C 928.881 703.916, 923.842 699.065, 924.411 698.144 C 924.701 697.674, 923.755 696.213, 922.309 694.895 C 920.386 693.144, 919.843 692.957, 920.289 694.199 C 920.730 695.429, 920.482 695.738, 919.392 695.320 C 918.563 695.002, 918.109 694.158, 918.383 693.444 C 918.657 692.730, 918.277 691.645, 917.538 691.031 C 916.550 690.211, 916.096 690.212, 915.822 691.035 C 915.611 691.667, 914.590 691.148, 913.474 689.844 C 911.505 687.541, 911.505 687.538, 913.500 688.979 C 914.600 689.774, 914.178 688.978, 912.563 687.212 C 909.523 683.888, 906.701 682.671, 909.128 685.730 C 909.882 686.682, 909.097 686.345, 907.382 684.980 C 904.148 682.408, 903.600 680.746, 906.726 682.988 C 909.353 684.873, 903.706 679.686, 891.768 669.250 C 885.948 664.163, 880.807 660.016, 880.343 660.036 C 879.880 660.056, 880.832 661.161, 882.461 662.492 C 884.089 663.823, 885.184 665.150, 884.893 665.441 C 884.601 665.732, 882.819 664.334, 880.932 662.335 C 879.044 660.335, 878.063 659.019, 878.750 659.409 C 881.473 660.954, 879.717 658.952, 874.015 654.013 C 870.723 651.161, 867.235 648.711, 866.265 648.568 C 865.294 648.426, 864.480 647.677, 864.455 646.905 C 864.430 646.132, 863.834 645.624, 863.130 645.775 C 862.427 645.926, 862.110 645.631, 862.427 645.119 C 863.214 643.844, 853.825 636.180, 852.179 636.754 C 850.657 637.284, 846 633.259, 846 631.415 C 846 629.860, 840.104 624.818, 839.049 625.470 C 838.619 625.735, 837.420 624.951, 836.384 623.726 C 834.517 621.520, 834.519 621.514, 836.549 623 C 837.910 623.996, 837.801 623.739, 836.227 622.236 C 834.922 620.990, 833.469 620.210, 832.997 620.502 C 832.525 620.794, 831.813 620.506, 831.415 619.862 C 830.963 619.131, 831.124 618.959, 831.845 619.405 C 834.381 620.972, 832.798 618.993, 829.819 616.871 C 828.070 615.626, 826.992 615.178, 827.424 615.877 C 828.036 616.868, 827.746 616.858, 826.105 615.833 C 824.947 615.110, 824 613.758, 824 612.828 C 824 611.406, 818.588 606.516, 817 606.504 C 816.725 606.502, 816.602 606.194, 816.727 605.820 C 817.110 604.670, 801.020 591.869, 799.991 592.506 C 799.437 592.848, 799.290 592.407, 799.647 591.477 C 800.107 590.278, 799.775 589.935, 798.386 590.175 C 797.330 590.357, 796.602 589.975, 796.731 589.307 C 797.003 587.901, 790.007 581.878, 788.898 582.563 C 788.480 582.821, 787.813 582.506, 787.415 581.862 C 786.932 581.081, 787.159 580.941, 788.095 581.440 C 788.868 581.852, 787.250 580.137, 784.500 577.630 C 781.750 575.122, 778.914 573.274, 778.198 573.524 C 777.482 573.773, 777.147 573.572, 777.453 573.076 C 777.759 572.581, 776.095 570.693, 773.755 568.881 C 770.749 566.553, 770.087 566.275, 771.500 567.934 L 773.500 570.283 771.250 568.901 C 770.013 568.141, 769 566.769, 769 565.853 C 769 564.936, 766.638 562.253, 763.750 559.889 C 760.074 556.881, 759.250 556.456, 761 558.474 L 763.500 561.355 760.411 559.224 C 758.712 558.052, 756.687 556.285, 755.911 555.297 C 754.597 553.623, 754.637 553.601, 756.500 554.970 C 757.977 556.055, 757.866 555.728, 756.076 553.720 C 753.554 550.891, 751.818 549.871, 754 552.500 C 755.972 554.876, 753.522 554.242, 751.405 551.828 C 750.214 550.471, 750.063 549.980, 751 550.520 C 752.309 551.274, 752.319 551.161, 751.080 549.634 C 748.870 546.912, 741.194 542.762, 739.875 543.577 C 739.150 544.026, 738.956 543.881, 739.374 543.204 C 740.427 541.500, 727.765 537.997, 720.645 538.021 C 716.624 538.035, 711.733 538.986, 706.493 540.771 M 506 568.593 C 506 569.119, 509.375 572.903, 513.500 577 C 517.625 581.097, 521 584.010, 521 583.473 C 521 582.936, 517.625 579.153, 513.500 575.066 C 509.375 570.980, 506 568.067, 506 568.593 M 806.500 598.589 C 812.406 604.385, 815 606.434, 815 605.303 C 815 604.748, 812.188 602.128, 808.750 599.479 C 802.899 594.971, 802.755 594.914, 806.500 598.589 M 541.790 606.500 C 544.571 609.800, 549.919 615.425, 553.673 619 L 560.499 625.500 554.812 619.500 C 551.684 616.200, 546.337 610.575, 542.929 607 L 536.733 600.500 541.790 606.500 M 236 707.090 C 234.075 707.446, 233.400 707.824, 234.500 707.932 L 236.500 708.127 234.500 708.934 C 233.400 709.377, 230.981 710.072, 229.125 710.477 C 226.511 711.048, 225.928 710.926, 226.539 709.937 C 227.107 709.017, 226.840 708.847, 225.582 709.330 C 224.622 709.699, 223.397 710, 222.859 710 C 222.322 710, 222.111 710.371, 222.391 710.824 C 222.671 711.277, 221.910 711.615, 220.700 711.574 C 219.490 711.533, 218.583 711.975, 218.685 712.555 C 218.787 713.136, 217.549 714.109, 215.935 714.718 C 213.736 715.548, 212.992 715.535, 212.968 714.663 C 212.951 714.023, 212.276 714.374, 211.468 715.441 C 210.655 716.516, 210 716.822, 210 716.127 C 210 714.780, 204.616 717.438, 200 721.063 C 197.951 722.672, 197.861 722.917, 199.500 722.419 C 201.128 721.924, 201.221 722.012, 200 722.890 C 199.175 723.484, 197.814 723.976, 196.977 723.985 C 195.192 724.003, 181.883 737.349, 176.699 744.318 C 174.728 746.968, 173.346 749.737, 173.627 750.471 C 174.281 752.174, 170.211 760.249, 169.059 759.537 C 168.584 759.243, 167.747 760.239, 167.200 761.751 C 166.652 763.263, 165.873 765.400, 165.468 766.500 L 164.731 768.500 166.447 766.500 L 168.163 764.500 167.512 766.500 C 167.153 767.600, 166.605 769.762, 166.294 771.305 C 165.925 773.134, 165.254 773.928, 164.364 773.586 C 163.614 773.298, 163 773.686, 163 774.448 C 163 775.210, 163.478 775.993, 164.062 776.187 C 164.812 776.437, 164.812 777.364, 164.062 779.336 C 162.356 783.825, 162.724 810.207, 164.586 816.846 C 167.505 827.257, 170.871 836.461, 173.416 841 C 174.804 843.475, 176.815 847.075, 177.885 849 C 178.955 850.925, 182.541 855.703, 185.853 859.618 C 195.806 871.382, 209.391 880.461, 225.733 886.269 C 233.921 889.179, 235.424 889.387, 248.500 889.424 C 265.794 889.473, 274.827 887.436, 290 880.067 C 308.781 870.946, 319.529 859.545, 332.485 835 L 337.500 825.500 356.500 824.756 C 366.950 824.347, 425.675 824.122, 487 824.256 L 598.500 824.500 598.653 804.087 C 598.814 782.686, 597.827 775.602, 594.422 773.696 C 593.058 772.933, 593.006 772.611, 594.130 771.898 C 595.218 771.209, 595.152 771.027, 593.809 771.015 C 592.879 771.007, 591.877 771.390, 591.583 771.866 C 591.289 772.342, 589.799 772.476, 588.274 772.163 L 585.500 771.595 588.500 770.916 C 591.349 770.271, 591.370 770.231, 588.917 770.118 C 587.496 770.053, 586.087 770.246, 585.787 770.546 C 585.486 770.847, 529.285 771.067, 460.895 771.036 C 363.384 770.991, 336.287 770.711, 335.331 769.739 C 334.661 769.058, 332.453 765.125, 330.423 761 C 325.991 751.989, 318.307 740, 316.965 740 C 316.434 740, 316 739.298, 316 738.441 C 316 737.488, 316.486 737.153, 317.250 737.580 C 317.938 737.963, 315.588 735.290, 312.029 731.639 C 308.470 727.987, 305.344 725, 305.083 725 C 304.821 725, 306.134 726.575, 308 728.500 C 309.866 730.425, 310.909 732, 310.319 732 C 309.728 732, 308.711 731.356, 308.058 730.570 C 306.017 728.111, 290.234 717, 288.781 717 C 288.022 717, 286.972 716.630, 286.450 716.177 C 285.927 715.724, 282.913 714.506, 279.750 713.470 C 276.346 712.354, 274 711.008, 274 710.170 C 274 709.023, 273.715 708.992, 272.493 710.006 C 271.285 711.008, 270.045 710.992, 266.243 709.926 C 261.954 708.723, 261.739 708.528, 264 707.897 L 266.500 707.199 264 706.956 C 258.286 706.400, 239.243 706.491, 236 707.090 M 1335 706.696 C 1309.994 710.929, 1285.845 724.619, 1273.247 741.703 C 1266.922 750.279, 1260.833 762.309, 1261.607 764.700 C 1262.017 765.970, 1261.917 766.123, 1261.268 765.222 C 1260.577 764.262, 1260.059 764.574, 1259.195 766.472 C 1258.561 767.862, 1257.358 769, 1256.521 769 C 1255.685 769, 1255 769.450, 1255 770 C 1255 770.631, 1249.551 770.926, 1240.250 770.799 L 1225.500 770.598 1237.500 770 C 1244.100 769.671, 1226.775 769.415, 1199 769.431 C 1153.192 769.456, 1151.566 769.509, 1181.500 770 L 1214.500 770.541 1173 770.584 C 1150.175 770.608, 1135.325 770.345, 1140 770 C 1144.927 769.636, 1137.151 769.374, 1121.500 769.375 C 1105.432 769.377, 1098.144 769.630, 1103.500 770 C 1112.085 770.593, 1111.846 770.631, 1098.323 770.811 C 1085.757 770.979, 1084.095 771.199, 1083.689 772.750 C 1083.332 774.116, 1083.207 774.024, 1083.116 772.333 C 1083.052 771.142, 1083.461 769.938, 1084.025 769.658 C 1084.589 769.379, 1084.476 769.264, 1083.775 769.403 C 1083.025 769.551, 1082.387 771.477, 1082.225 774.078 C 1082.013 777.490, 1082.201 778.158, 1083.049 777 C 1083.854 775.900, 1084.032 781.774, 1083.715 799 C 1083.477 811.925, 1083.481 823.060, 1083.723 823.745 C 1084.070 824.725, 1102.669 824.989, 1171.222 824.989 C 1234.404 824.988, 1258.653 825.297, 1259.640 826.116 C 1260.388 826.737, 1261 827.876, 1261 828.647 C 1261 829.419, 1262.604 833.235, 1264.564 837.127 C 1266.524 841.020, 1267.919 844.414, 1267.664 844.670 C 1267.408 844.925, 1265.376 841.392, 1263.148 836.817 C 1260.920 832.243, 1259.076 829.138, 1259.049 829.917 C 1258.931 833.347, 1275.511 861, 1277.687 861 C 1278.029 861, 1277.565 860.177, 1276.655 859.171 C 1275.745 858.165, 1275.013 856.928, 1275.030 856.421 C 1275.046 855.915, 1277.858 858.463, 1281.280 862.085 C 1291.704 873.122, 1302.428 880.326, 1315.229 884.893 C 1326.451 888.897, 1330.416 889.500, 1345.500 889.500 C 1362.787 889.500, 1369.050 888.039, 1384.266 880.455 C 1396.235 874.489, 1402.506 870.170, 1409.929 862.777 C 1424.190 848.573, 1432.370 831.569, 1435.566 809.483 C 1437.187 798.285, 1437.183 797.171, 1435.489 787.099 C 1434.508 781.270, 1432.353 772.713, 1430.699 768.085 C 1427.212 758.328, 1418.526 744.776, 1411.095 737.500 C 1408.287 734.750, 1406.182 731.992, 1406.417 731.371 C 1406.652 730.750, 1405.192 728.725, 1403.172 726.871 L 1399.500 723.500 1402.946 727.250 C 1407.052 731.717, 1405.855 732.261, 1401.304 727.995 C 1399.547 726.348, 1397.634 725, 1397.054 725 C 1396.474 725, 1396 724.587, 1396 724.082 C 1396 723.576, 1394.401 722.175, 1392.447 720.967 C 1390.493 719.760, 1389.141 718.526, 1389.441 718.225 C 1389.742 717.925, 1390.813 718.426, 1391.823 719.339 C 1392.832 720.253, 1394.020 721, 1394.464 721 C 1394.907 721, 1394.097 720.078, 1392.664 718.951 C 1388.817 715.924, 1376.990 710.790, 1375.332 711.426 C 1374.542 711.729, 1374.139 711.584, 1374.436 711.104 C 1374.732 710.624, 1372.981 709.729, 1370.545 709.116 C 1365.455 707.834, 1362.277 707.785, 1366 709.046 C 1368.398 709.858, 1368.377 709.884, 1365.500 709.696 C 1363.850 709.588, 1362.639 709.050, 1362.809 708.500 C 1362.979 707.950, 1362.079 707.207, 1360.809 706.850 C 1358.273 706.136, 1338.988 706.020, 1335 706.696 M 664.485 879.500 C 664.485 949.900, 664.604 978.553, 664.750 943.172 C 664.896 907.792, 664.896 850.192, 664.750 815.172 C 664.604 780.153, 664.485 809.100, 664.485 879.500 M 374.750 769.740 C 378.188 769.936, 383.813 769.936, 387.250 769.740 C 390.688 769.545, 387.875 769.385, 381 769.385 C 374.125 769.385, 371.313 769.545, 374.750 769.740 M 1081.400 797.500 C 1081.401 805.750, 1081.556 808.992, 1081.744 804.704 C 1081.932 800.417, 1081.931 793.667, 1081.742 789.704 C 1081.552 785.742, 1081.399 789.250, 1081.400 797.500 M 975.974 949.250 C 970.347 954.862, 951 980.771, 951 982.694 C 951 983.522, 953.587 986.760, 956.750 989.891 C 959.913 993.021, 960.925 993.775, 959 991.565 C 957.075 989.356, 955.063 987.225, 954.529 986.829 C 953.995 986.433, 953.773 985.893, 954.036 985.630 C 954.973 984.694, 965.242 994.800, 964.528 995.955 C 964.102 996.644, 967.360 1000.600, 972.659 1005.829 L 981.500 1014.554 973.553 1006.308 C 969.182 1001.772, 965.860 997.806, 966.172 997.495 C 966.765 996.902, 984.145 1014.169, 1000.765 1031.864 C 1006.119 1037.564, 1024.675 1056.606, 1042 1074.179 C 1059.325 1091.752, 1073.734 1107.064, 1074.019 1108.206 C 1074.305 1109.348, 1075.655 1110.978, 1077.019 1111.828 L 1079.500 1113.375 1077.184 1111.087 C 1075.910 1109.829, 1075.127 1108.540, 1075.443 1108.224 C 1076.116 1107.551, 1085.971 1117.067, 1085.988 1118.405 C 1085.995 1118.903, 1084.987 1118.458, 1083.750 1117.416 C 1082.513 1116.374, 1081.725 1115.831, 1082 1116.210 C 1083.328 1118.038, 1104 1138.639, 1104 1138.134 C 1104 1137.815, 1101.188 1134.676, 1097.750 1131.159 C 1089.970 1123.199, 1091.762 1123.378, 1099.969 1131.381 C 1105.569 1136.842, 1106 1137.582, 1106 1141.738 C 1106 1145.176, 1105.674 1146.089, 1104.592 1145.674 C 1103.547 1145.273, 1102.601 1147.245, 1100.929 1153.317 C 1099.160 1159.738, 1098.656 1164.298, 1098.587 1174.500 C 1098.521 1184.403, 1098.798 1187.440, 1099.750 1187.250 C 1100.556 1187.089, 1100.975 1188.156, 1100.930 1190.250 C 1100.871 1192.974, 1100.720 1193.176, 1100 1191.500 C 1098.285 1187.509, 1099.016 1192.542, 1101.497 1201.802 C 1104.053 1211.342, 1107.921 1221.412, 1108.722 1220.612 C 1108.969 1220.365, 1108.507 1218.663, 1107.695 1216.831 C 1105.062 1210.890, 1102.907 1204.760, 1103.309 1204.358 C 1103.920 1203.747, 1111.521 1222.319, 1111.328 1223.950 C 1111.096 1225.898, 1113.449 1230.311, 1115.657 1232.073 C 1116.908 1233.071, 1116.778 1232.632, 1115.223 1230.615 C 1114 1229.028, 1113 1227.089, 1113 1226.306 C 1113 1225.522, 1115.701 1228.239, 1119.002 1232.342 C 1127.576 1243.001, 1134.417 1248.888, 1145.656 1255.280 C 1157.419 1261.970, 1165.002 1263.994, 1181.058 1264.729 C 1210.007 1266.055, 1236.932 1253.667, 1255.200 1230.615 C 1260.101 1224.431, 1266.627 1210.953, 1268.815 1202.500 C 1274.505 1180.508, 1272.110 1156.987, 1262.274 1138.267 C 1261.051 1135.939, 1260.294 1133.397, 1260.593 1132.618 C 1260.892 1131.839, 1260.661 1130.908, 1260.080 1130.549 C 1259.413 1130.137, 1259.258 1130.562, 1259.659 1131.698 C 1260.442 1133.919, 1259.638 1133.103, 1254.537 1126.500 C 1252.413 1123.750, 1248.627 1119.362, 1246.125 1116.750 C 1243.623 1114.138, 1242.095 1112, 1242.731 1112 C 1243.367 1112, 1244.479 1112.787, 1245.203 1113.750 C 1245.927 1114.713, 1247.640 1116.385, 1249.010 1117.466 C 1250.379 1118.547, 1248.826 1116.646, 1245.557 1113.242 C 1242.289 1109.838, 1239.364 1107.327, 1239.057 1107.663 C 1238.751 1107.999, 1239.063 1108.475, 1239.750 1108.720 C 1240.438 1108.966, 1241 1109.583, 1241 1110.092 C 1241 1110.601, 1240.104 1110.458, 1239.010 1109.774 C 1237.915 1109.091, 1237.128 1107.951, 1237.260 1107.242 C 1237.392 1106.533, 1236.034 1105.017, 1234.242 1103.873 C 1231.217 1101.942, 1231.033 1101.926, 1231.679 1103.647 C 1232.290 1105.276, 1232.172 1105.335, 1230.698 1104.137 C 1229.776 1103.387, 1229.239 1102.422, 1229.505 1101.991 C 1229.771 1101.561, 1229.316 1100.952, 1228.494 1100.636 C 1227.672 1100.321, 1227 1100.525, 1227 1101.090 C 1227 1101.656, 1226.543 1101.835, 1225.984 1101.490 C 1225.425 1101.144, 1225.197 1100.490, 1225.478 1100.036 C 1225.759 1099.581, 1225.345 1098.963, 1224.559 1098.661 C 1223.773 1098.359, 1222.961 1098.618, 1222.755 1099.236 C 1222.523 1099.932, 1221.641 1100.060, 1220.440 1099.573 C 1218.535 1098.799, 1218.536 1098.771, 1220.500 1097.963 C 1221.600 1097.511, 1221.974 1097.109, 1221.332 1097.070 C 1220.689 1097.032, 1219.378 1096.699, 1218.418 1096.330 C 1217.147 1095.843, 1216.891 1096.014, 1217.475 1096.960 C 1218.018 1097.838, 1217.828 1098.096, 1216.889 1097.755 C 1216.125 1097.477, 1215.597 1096.789, 1215.717 1096.225 C 1216.014 1094.818, 1210.849 1093.627, 1210.051 1094.918 C 1209.612 1095.629, 1208.201 1095.618, 1205.545 1094.885 C 1202.846 1094.140, 1202.083 1093.567, 1203.020 1092.988 C 1203.939 1092.420, 1203.280 1092.003, 1200.931 1091.665 C 1195.069 1090.822, 1192.893 1091.015, 1193.670 1092.311 C 1194.192 1093.180, 1193.976 1093.170, 1192.868 1092.274 C 1191.210 1090.933, 1187.542 1090.799, 1175.750 1091.649 C 1171.487 1091.957, 1168 1092.638, 1168 1093.163 C 1168 1093.688, 1168.520 1093.797, 1169.155 1093.405 C 1169.870 1092.962, 1170.038 1093.130, 1169.595 1093.845 C 1169.203 1094.480, 1167.982 1095, 1166.882 1095 C 1165.782 1095, 1165.160 1094.550, 1165.500 1094 C 1166.355 1092.617, 1165.691 1092.709, 1157.696 1095.091 C 1153.460 1096.352, 1151.162 1097.482, 1151.903 1097.940 C 1152.578 1098.357, 1151.076 1098.629, 1148.565 1098.545 C 1146.054 1098.460, 1144 1098.790, 1144 1099.279 C 1144 1101.235, 1141.158 1098.698, 1121.937 1079.587 C 1100.918 1058.688, 1099.455 1057.103, 1102.879 1058.935 C 1104.046 1059.560, 1105 1060.505, 1105 1061.035 C 1105 1061.566, 1105.563 1061.982, 1106.250 1061.959 C 1106.938 1061.937, 1105.953 1060.596, 1104.063 1058.980 C 1102.172 1057.364, 1100.425 1056.241, 1100.181 1056.486 C 1099.457 1057.209, 1096 1055.024, 1096 1053.842 C 1096 1053.153, 1096.641 1053.244, 1097.750 1054.089 C 1098.713 1054.823, 1098.194 1053.994, 1096.597 1052.247 C 1095 1050.500, 1093.313 1049.307, 1092.847 1049.595 C 1092.381 1049.882, 1092 1049.510, 1092 1048.767 C 1092 1047.098, 1083.640 1038.757, 1082.689 1039.477 C 1082.310 1039.765, 1082.235 1039.690, 1082.523 1039.311 C 1083.315 1038.265, 1074.913 1030.096, 1073.573 1030.610 C 1072.930 1030.857, 1071.335 1029.921, 1070.028 1028.529 C 1068.721 1027.138, 1068.018 1026, 1068.465 1026 C 1068.913 1026, 1069.855 1026.787, 1070.558 1027.748 C 1071.261 1028.710, 1072.094 1029.240, 1072.408 1028.926 C 1072.722 1028.611, 1071.564 1027.037, 1069.835 1025.427 C 1068.106 1023.817, 1067.012 1023.063, 1067.404 1023.750 C 1067.797 1024.438, 1067.730 1025, 1067.255 1025 C 1065.980 1025, 1059.870 1018.463, 1060.529 1017.804 C 1061.377 1016.956, 1037.113 994.812, 1036.054 995.467 C 1035.550 995.778, 1034.813 995.506, 1034.415 994.862 C 1033.963 994.131, 1034.124 993.959, 1034.845 994.405 C 1037.477 996.031, 1035.585 993.281, 1032.178 990.527 C 1029.296 988.197, 1028.933 988.066, 1030.500 989.923 C 1035.106 995.379, 1029.389 990.744, 1018.540 980.226 C 1011.636 973.534, 1007.195 968.493, 1007.610 967.822 C 1008.047 967.115, 1007.860 966.969, 1007.111 967.432 C 1006 968.118, 997.749 960.640, 993.965 955.517 C 992.519 953.560, 992.539 953.558, 995.500 955.327 L 998.500 957.119 996.146 955.065 C 994.851 953.935, 993.369 953.272, 992.852 953.591 C 991.763 954.264, 989 952.230, 989 950.755 C 989 950.205, 989.788 950.345, 990.750 951.067 C 991.712 951.788, 991.249 951.056, 989.719 949.439 C 987.555 947.152, 986.751 946.801, 986.094 947.857 C 985.506 948.802, 985.043 948.878, 984.566 948.107 C 984.190 947.498, 984.160 946.550, 984.500 946 C 984.848 945.438, 984.050 945, 982.677 945 C 981.140 945, 978.657 946.574, 975.974 949.250 M 594.182 955.500 C 590.737 958.399, 589.167 958.778, 591.077 956.250 C 591.804 955.288, 590.304 956.487, 587.743 958.916 C 585.182 961.344, 583.326 963.718, 583.618 964.190 C 583.910 964.663, 583.730 964.926, 583.218 964.775 C 582.706 964.624, 579.973 966.656, 577.144 969.290 C 572.162 973.930, 570.674 975.881, 573.250 974.399 C 573.976 973.981, 574.151 974.061, 573.667 974.590 C 573.208 975.090, 572.308 975.520, 571.667 975.545 C 571.025 975.570, 570.624 976.166, 570.775 976.870 C 570.926 977.573, 570.638 977.894, 570.134 977.583 C 569.050 976.913, 560.809 984.881, 561.473 985.956 C 561.724 986.362, 560.518 988, 558.794 989.597 L 555.659 992.500 557.982 989 C 559.637 986.506, 558.273 987.481, 553.237 992.389 C 549.350 996.178, 546.377 999.818, 546.630 1000.479 C 546.884 1001.139, 546.283 1002.314, 545.296 1003.090 C 543.624 1004.403, 543.603 1004.366, 545 1002.558 C 546.333 1000.832, 546.333 1000.714, 545 1001.497 C 543.180 1002.565, 540.517 1006.123, 540.507 1007.500 C 540.503 1008.050, 539.829 1008.500, 539.008 1008.500 C 538.187 1008.500, 536.698 1010.236, 535.699 1012.358 C 534.700 1014.480, 533.620 1015.953, 533.299 1015.632 C 532.978 1015.311, 533.334 1014.250, 534.090 1013.274 C 535.273 1011.748, 535.156 1011.764, 533.256 1013.384 C 532.041 1014.420, 531.331 1015.727, 531.678 1016.288 C 532.025 1016.850, 531.865 1017.035, 531.323 1016.699 C 530.780 1016.364, 528.192 1018.267, 525.570 1020.929 C 522.574 1023.971, 521.282 1025.927, 522.091 1026.197 C 522.902 1026.467, 521.921 1027.962, 519.443 1030.233 C 517.278 1032.217, 515.302 1033.635, 515.052 1033.385 C 514.801 1033.134, 515.812 1031.802, 517.298 1030.424 C 518.784 1029.046, 520 1027.643, 520 1027.305 C 520 1026.321, 515.975 1030.233, 513.695 1033.431 C 512.547 1035.042, 512.145 1036.028, 512.803 1035.622 C 513.461 1035.215, 514 1035.343, 514 1035.906 C 514 1036.469, 513.110 1037.406, 512.023 1037.988 C 510.373 1038.871, 510.149 1038.774, 510.675 1037.404 C 511.087 1036.331, 510.474 1036.582, 508.903 1038.131 C 507.581 1039.434, 506.837 1040.650, 507.250 1040.833 C 508.615 1041.440, 508.027 1043.224, 506.638 1042.691 C 505.846 1042.387, 502.611 1044.856, 498.917 1048.584 C 495.419 1052.113, 493.196 1055, 493.975 1055 C 494.820 1055, 494.014 1056.422, 491.978 1058.523 C 490.099 1060.461, 488.019 1061.838, 487.355 1061.583 C 486.690 1061.328, 485.551 1061.880, 484.823 1062.809 C 483.610 1064.359, 483.659 1064.375, 485.413 1063 C 490.064 1059.352, 485.627 1064.749, 474.742 1075.978 C 467.641 1083.303, 462.529 1087.827, 461.837 1087.399 C 461.103 1086.946, 460.966 1087.135, 461.455 1087.927 C 461.920 1088.679, 461.099 1090.339, 459.359 1092.167 C 456.197 1095.491, 452.211 1098.086, 453.519 1095.970 C 454.010 1095.175, 453.789 1094.904, 452.893 1095.202 C 452.132 1095.456, 451.507 1096.527, 451.504 1097.582 C 451.501 1099.034, 450.670 1099.579, 448.082 1099.826 C 443.605 1100.253, 431.827 1096.893, 432.417 1095.357 C 432.661 1094.719, 431.992 1093.970, 430.929 1093.692 C 429.867 1093.414, 429.230 1093.563, 429.515 1094.024 C 430.471 1095.570, 428.343 1095.933, 424.517 1094.877 C 422.429 1094.301, 418.421 1093.694, 415.611 1093.529 C 412.800 1093.364, 408.475 1093.107, 406 1092.958 L 401.500 1092.686 406.500 1092 C 411.176 1091.359, 411.014 1091.310, 404 1091.257 C 395.950 1091.195, 391.694 1091.962, 392.191 1093.385 C 392.632 1094.649, 388.195 1096.125, 387.473 1094.956 C 386.482 1093.352, 383.723 1093.835, 384.362 1095.500 C 384.703 1096.389, 384.372 1097, 383.550 1097 C 382.786 1097, 380.720 1097.787, 378.957 1098.750 C 376.568 1100.055, 375.637 1100.187, 375.299 1099.269 C 374.966 1098.364, 373.807 1098.568, 370.923 1100.039 C 368.765 1101.140, 367 1102.283, 367 1102.579 C 367 1102.876, 367.450 1102.840, 368 1102.500 C 368.550 1102.160, 369 1102.389, 369 1103.008 C 369 1103.628, 368.212 1103.893, 367.250 1103.598 C 366.288 1103.303, 364.375 1103.953, 363 1105.044 C 360.970 1106.654, 360.876 1106.905, 362.500 1106.379 C 363.661 1106.003, 363.056 1106.837, 361.056 1108.366 C 357.354 1111.197, 356.525 1111.578, 357.500 1110 C 358.399 1108.545, 357.277 1108.773, 354.465 1110.615 C 353.109 1111.503, 352 1112.683, 352 1113.237 C 352 1113.802, 352.670 1113.689, 353.523 1112.981 C 354.771 1111.945, 354.948 1111.972, 354.504 1113.130 C 354.205 1113.907, 352.958 1115.168, 351.731 1115.932 C 349.691 1117.202, 349.617 1117.179, 350.872 1115.661 C 352.971 1113.121, 350.644 1113.685, 348.174 1116.314 C 345.710 1118.938, 345.219 1120.893, 347.500 1119 C 350.095 1116.847, 349.136 1118.627, 345.541 1122.640 C 343.639 1124.763, 340.416 1129.335, 338.381 1132.799 C 335.701 1137.359, 334.429 1138.740, 333.774 1137.799 C 333.174 1136.938, 333.081 1137.255, 333.499 1138.740 C 333.876 1140.081, 333.501 1141.875, 332.564 1143.212 C 331.512 1144.715, 330.988 1144.963, 330.965 1143.973 C 330.944 1143.125, 330.323 1143.561, 329.500 1145 C 327.906 1147.788, 327.479 1150.354, 329 1148 C 330.581 1145.553, 330.187 1148.328, 327.760 1156.739 C 325.862 1163.318, 325.533 1166.785, 325.600 1179.500 C 325.670 1192.877, 325.963 1195.364, 328.307 1202.482 C 330 1207.626, 330.591 1210.809, 329.968 1211.432 C 329.435 1211.965, 329.007 1212.873, 329.015 1213.450 C 329.024 1214.027, 329.444 1213.847, 329.949 1213.049 C 330.637 1211.961, 331.724 1213.464, 334.288 1219.049 C 343.847 1239.871, 365.262 1257.273, 388 1262.693 C 399.475 1265.428, 420.037 1265.181, 430.500 1262.183 C 444.802 1258.083, 460.890 1248.972, 469.080 1240.332 C 478.384 1230.518, 482.883 1223.063, 488.594 1208 C 491.369 1200.679, 491.435 1200.047, 491.358 1181.500 C 491.288 1164.555, 491.032 1161.743, 488.996 1155.500 C 487.740 1151.650, 486.515 1146.448, 486.273 1143.939 C 485.837 1139.422, 485.914 1139.288, 494.321 1129.939 C 498.989 1124.748, 524.474 1098.900, 550.954 1072.500 C 577.433 1046.100, 599.709 1023.150, 600.455 1021.500 C 601.202 1019.850, 602.133 1017.150, 602.525 1015.500 C 603.689 1010.605, 603.068 955.787, 601.832 954.298 C 600.185 952.313, 597.461 952.741, 594.182 955.500 M 1015.477 1050.778 C 1019.864 1055.300, 1023.580 1059, 1023.735 1059 C 1024.677 1059, 1020.647 1054.624, 1014.551 1049.028 L 1007.500 1042.556 1015.477 1050.778 M 815.729 1081.092 C 814.755 1081.659, 814.182 1082.485, 814.455 1082.928 C 814.729 1083.371, 814.063 1084.538, 812.976 1085.521 C 811.889 1086.505, 811 1086.952, 811 1086.515 C 811 1086.078, 811.788 1085.123, 812.750 1084.392 C 813.712 1083.661, 814.050 1083.052, 813.500 1083.037 C 812.950 1083.022, 811.150 1084.132, 809.500 1085.504 C 807.850 1086.875, 807.288 1087.725, 808.250 1087.392 C 810.760 1086.523, 810.407 1087.504, 807.530 1089.388 C 805.301 1090.849, 805.120 1090.852, 805.669 1089.421 C 806.003 1088.549, 802.590 1090.609, 798.083 1093.998 C 793.577 1097.387, 789.476 1101.248, 788.970 1102.580 C 788.464 1103.911, 787.533 1105, 786.902 1105 C 786.127 1105, 786.200 1104.443, 787.128 1103.280 C 787.882 1102.334, 785.258 1104.208, 781.295 1107.443 C 777.331 1110.679, 773.816 1114.040, 773.483 1114.913 C 773.150 1115.786, 774.548 1114.925, 776.589 1113 C 780.381 1109.424, 780.390 1110.629, 776.601 1114.830 C 774.516 1117.143, 774.498 1117.687, 774.190 1185.330 C 773.937 1240.988, 773.631 1253.753, 772.526 1254.878 C 771.416 1256.009, 758.499 1262, 757.172 1262 C 756.960 1262, 757.069 1261.261, 757.416 1260.359 C 757.941 1258.991, 757.794 1258.926, 756.534 1259.972 C 755.702 1260.662, 755.269 1261.626, 755.570 1262.113 C 755.871 1262.601, 755.641 1263, 755.059 1263 C 754.477 1263, 754 1262.523, 754 1261.941 C 754 1261.359, 753.519 1261.179, 752.932 1261.542 C 752.344 1261.905, 752.091 1262.795, 752.369 1263.518 C 752.646 1264.242, 752.190 1265.097, 751.355 1265.417 C 748.930 1266.348, 748.663 1266.112, 750.128 1264.333 C 751.076 1263.182, 750.207 1263.409, 747.317 1265.067 C 743.155 1267.455, 741.936 1269.175, 745.914 1267.046 C 749.353 1265.206, 748.304 1266.361, 742.750 1270.531 C 739.862 1272.698, 737.140 1275.041, 736.700 1275.736 C 736.260 1276.431, 735.418 1277, 734.828 1277 C 734.181 1277, 734.300 1276.321, 735.128 1275.289 C 737.169 1272.745, 731.105 1277.156, 728.024 1280.458 C 726.261 1282.347, 726.044 1282.920, 727.274 1282.449 C 729.116 1281.741, 729.699 1283.450, 727.978 1284.514 C 727.416 1284.861, 725.154 1287.584, 722.953 1290.564 C 720.751 1293.545, 718.455 1295.874, 717.850 1295.742 C 717.245 1295.609, 716.547 1296.175, 716.299 1297 C 715.898 1298.333, 715.966 1298.333, 716.909 1297 C 718.615 1294.587, 718.246 1297.623, 716.399 1301.195 C 715.438 1303.053, 714.525 1303.849, 714.115 1303.186 C 713.679 1302.480, 712.933 1302.881, 712.055 1304.290 C 710.798 1306.309, 710.822 1306.381, 712.339 1305.128 C 714.612 1303.249, 714.500 1305.099, 712.050 1309.903 C 705.930 1321.898, 704.096 1344.766, 707.935 1361.211 C 713.566 1385.334, 726.946 1406.486, 743.815 1417.930 C 756.754 1426.709, 769.255 1431.778, 784.500 1434.429 C 800.169 1437.153, 814.642 1435.825, 829.500 1430.298 C 837.138 1427.457, 850.179 1420.381, 856.500 1415.647 C 861.338 1412.024, 872.512 1400.826, 876.106 1396 C 880.340 1390.315, 887.723 1373.876, 890.535 1363.874 C 892.888 1355.507, 893.106 1353.314, 892.708 1342.037 C 891.931 1320.066, 886.630 1303.488, 876.283 1290.673 C 873.569 1287.312, 873.246 1285.164, 875.750 1287.128 C 877.334 1288.370, 877.370 1288.335, 876.137 1286.761 C 875.387 1285.805, 874.341 1285.289, 873.813 1285.616 C 873.284 1285.942, 871.760 1285.184, 870.426 1283.930 C 867.816 1281.479, 867.013 1278.936, 869.500 1281 C 872.340 1283.357, 870.995 1281.370, 867.766 1278.437 C 865.987 1276.822, 865.381 1276.513, 866.421 1277.750 C 869.416 1281.318, 866.921 1280.339, 862 1276.016 C 859.525 1273.842, 856.038 1271.271, 854.250 1270.304 C 851.270 1268.691, 849.387 1266.065, 852.250 1267.515 C 852.938 1267.863, 852.640 1267.450, 851.588 1266.596 C 850.537 1265.742, 848.737 1265.278, 847.588 1265.566 C 846.440 1265.854, 844.600 1265.408, 843.500 1264.576 L 841.500 1263.064 843.500 1262.962 L 845.500 1262.859 843.500 1262.066 C 842.333 1261.603, 841.226 1261.699, 840.842 1262.296 C 840.017 1263.581, 834.050 1261.369, 832.207 1259.096 C 831.394 1258.093, 829.351 1257.500, 826.707 1257.500 L 822.500 1257.500 822 1171 C 821.570 1096.609, 821.291 1084.185, 820.009 1082.250 C 818.325 1079.708, 818.176 1079.667, 815.729 1081.092" stroke="none" fill="#fbbc04" fill-rule="evenodd"/></svg>