<svg xmlns="http://www.w3.org/2000/svg" width="1600" height="1600" viewBox="0 0 1600 1600" version="1.1"><path d="M 865 188.577 C 865 188.937, 867.512 191.946, 870.583 195.262 C 873.653 198.579, 877.341 203.139, 878.778 205.396 C 880.215 207.653, 882.281 210.512, 883.370 211.750 C 884.458 212.988, 885.052 214, 884.690 214 C 884.328 214, 884.901 215.688, 885.963 217.750 C 887.025 219.813, 888.832 224.875, 889.977 229 C 891.122 233.125, 892.721 238.884, 893.530 241.799 C 897.691 256.796, 892.605 283.759, 882.538 300.069 C 880.592 303.222, 879 306.137, 879 306.548 C 879 309.062, 860.840 328.519, 854 333.333 C 845.642 339.215, 835.702 344.538, 828.500 346.988 C 824.370 348.393, 823.390 349.194, 822.868 351.594 C 822.521 353.192, 822.183 391.737, 822.118 437.250 C 822.018 507.188, 821.785 520, 820.609 520 C 819.845 520, 815.007 517.196, 809.859 513.769 C 797.422 505.488, 795 503.961, 795 504.395 C 795 504.595, 797.535 506.673, 800.632 509.012 C 803.730 511.351, 807.042 514.042, 807.992 514.992 C 808.942 515.942, 811.808 517.763, 814.360 519.037 C 816.912 520.312, 819 521.725, 819 522.177 C 819 522.630, 820.125 523, 821.500 523 C 823.986 523, 824 522.949, 824.003 513.750 C 824.005 508.663, 824.133 470.103, 824.288 428.062 L 824.568 351.625 827.534 349.886 C 829.165 348.929, 831.346 348.113, 832.379 348.073 C 834.713 347.982, 852 338.951, 852 337.823 C 852 337.370, 852.630 337, 853.399 337 C 854.168 337, 859.725 332.163, 865.747 326.250 C 874.291 317.861, 877.916 313.414, 882.250 306 C 887.777 296.546, 895.599 278.266, 894.562 277.228 C 894.262 276.929, 894.437 276.178, 894.950 275.560 C 896.455 273.747, 897.792 256.027, 896.916 249.500 C 896.169 243.930, 894.245 235.529, 892.514 230.279 C 892.111 229.057, 891.869 227.757, 891.976 227.390 C 892.083 227.024, 891.716 226.443, 891.160 226.099 C 890.605 225.756, 890.004 224.130, 889.825 222.487 C 889.646 220.844, 889.223 219.275, 888.884 219 C 888.546 218.725, 887.306 216.700, 886.130 214.500 C 882.665 208.021, 875.843 198.886, 870.231 193.210 C 867.354 190.301, 865 188.216, 865 188.577 M 1260 376.794 C 1260 377.323, 1260.649 378.294, 1261.442 378.952 C 1262.737 380.027, 1267.157 388.555, 1271.314 398 C 1273.340 402.601, 1276.631 416.078, 1277.421 423 C 1278.818 435.253, 1274.634 452.744, 1266.177 470 C 1262.537 477.428, 1259.774 481.334, 1253.510 487.906 C 1241.886 500.105, 1232.034 506.107, 1213.909 512.030 C 1205.561 514.758, 1203.660 515, 1190.609 515 C 1176.840 515, 1164.593 513.246, 1156.799 510.157 C 1151.746 508.154, 1146.249 508.415, 1143.771 510.775 C 1131.631 522.340, 1106.006 547.660, 1054.500 598.988 C 1020.950 632.422, 992.465 660.089, 991.201 660.471 C 988.586 661.261, 983.063 657.471, 972 647.295 C 962.565 638.615, 958 634.717, 958 635.340 C 958 635.862, 964.364 642.078, 973.339 650.322 C 980.040 656.478, 989.062 663, 990.877 663 C 991.800 663, 993.668 662.247, 995.027 661.326 C 996.387 660.405, 1027.156 630.143, 1063.403 594.076 C 1146.647 511.245, 1143.393 514.444, 1146.457 512.436 C 1148.859 510.862, 1149.420 510.856, 1154.273 512.344 C 1157.148 513.226, 1160.625 514.149, 1162 514.396 C 1163.375 514.642, 1167.411 515.605, 1170.969 516.536 C 1180.941 519.144, 1205.743 518.127, 1216 514.690 C 1235.301 508.221, 1253.445 495.406, 1262.991 481.500 C 1269.441 472.104, 1275.859 456.691, 1278.345 444.627 C 1280.312 435.082, 1279.582 413.494, 1277.158 409.500 C 1276.824 408.950, 1276.398 407.386, 1276.211 406.025 C 1276.024 404.664, 1275.477 403.075, 1274.995 402.494 C 1274.513 401.913, 1273.909 400.327, 1273.652 398.969 C 1273.396 397.611, 1272.472 395.150, 1271.599 393.500 C 1270.726 391.850, 1270.010 389.998, 1270.006 389.385 C 1270.003 388.772, 1269.149 387.187, 1268.108 385.864 C 1267.067 384.541, 1265.358 381.923, 1264.309 380.046 C 1262.450 376.719, 1260 374.870, 1260 376.794 M 493.116 426 C 492.917 436.880, 491.597 446.053, 488.484 458.184 C 485.865 468.395, 485.389 472.496, 486.933 471.542 C 487.822 470.992, 490.344 461.157, 490.404 458 C 490.420 457.175, 490.791 456.245, 491.228 455.934 C 491.666 455.622, 492.287 452.247, 492.609 448.434 C 492.931 444.620, 493.488 441.388, 493.847 441.251 C 494.206 441.113, 494.372 436.613, 494.216 431.251 C 493.834 418.114, 493.307 415.599, 493.116 426 M 438.253 510.147 C 434.226 514.174, 404.614 516.173, 389.196 513.458 C 383.863 512.519, 379.073 511.357, 378.550 510.875 C 378.028 510.394, 377.015 510, 376.300 510 C 375.395 510, 375.532 510.564, 376.750 511.857 C 377.712 512.879, 378.725 513.705, 379 513.693 C 379.275 513.681, 380.800 514.035, 382.389 514.479 C 383.977 514.923, 386.002 515.366, 386.889 515.464 C 387.775 515.562, 389.400 516.059, 390.500 516.569 C 391.600 517.080, 399.475 517.490, 408 517.481 C 422.217 517.466, 424.328 517.220, 433.500 514.511 C 439 512.887, 443.790 511.146, 444.144 510.642 C 444.498 510.138, 445.947 509.948, 447.363 510.219 C 448.780 510.489, 449.702 510.326, 449.411 509.856 C 448.625 508.584, 439.580 508.820, 438.253 510.147 M 603.763 623.240 L 603.500 658.481 600.500 659.053 L 597.500 659.625 600.822 660.407 C 602.648 660.838, 604.448 660.885, 604.822 660.512 C 605.828 659.505, 605.891 588, 604.886 588 C 604.413 588, 603.907 603.858, 603.763 623.240 M 325.471 750.250 C 326.893 752.587, 329.673 757.875, 331.651 762 C 335.150 769.300, 336.439 770.985, 338.500 770.954 C 339.050 770.946, 338.703 770.475, 337.729 769.908 C 336.755 769.341, 336.219 768.455, 336.538 767.939 C 336.857 767.422, 336.725 767, 336.244 767 C 335.325 767, 332 760.663, 332 758.911 C 332 757.736, 324.188 746, 323.406 746 C 323.120 746, 324.050 747.913, 325.471 750.250 M 1420 747.096 C 1420 747.698, 1420.880 749.427, 1421.955 750.937 C 1428.631 760.312, 1432.389 770.585, 1435.588 788.203 C 1437.266 797.446, 1437.267 798.457, 1435.608 809.490 C 1434.650 815.861, 1432.825 823.870, 1431.553 827.287 C 1428.519 835.433, 1424.003 845.370, 1423.048 846 C 1422.632 846.275, 1421.663 847.664, 1420.895 849.087 C 1418.302 853.896, 1411.664 861.473, 1405.566 866.585 C 1388.344 881.023, 1364.795 890.026, 1344.357 889.987 C 1333.719 889.966, 1316.226 885.862, 1306.500 881.105 C 1305.950 880.836, 1306.118 881.377, 1306.872 882.308 C 1307.627 883.239, 1308.833 884, 1309.551 884 C 1310.269 884, 1311.452 884.593, 1312.179 885.317 C 1313.884 887.018, 1319.003 888.780, 1321.250 888.441 C 1322.213 888.296, 1323 888.512, 1323 888.922 C 1323 889.331, 1323.563 889.714, 1324.250 889.772 C 1324.938 889.830, 1327.163 890.302, 1329.195 890.821 C 1331.228 891.340, 1339.553 891.662, 1347.695 891.537 C 1363.268 891.298, 1372.340 889.501, 1380.756 884.991 C 1382.799 883.896, 1384.814 883, 1385.235 883 C 1385.655 883, 1389.649 880.800, 1394.110 878.112 C 1409.433 868.877, 1422.781 854.436, 1429.148 840.201 C 1430.797 836.516, 1432.557 832.728, 1433.060 831.784 C 1435.899 826.455, 1438.221 814.621, 1438.717 802.956 C 1439.174 792.221, 1438.934 789.121, 1437.053 781.456 C 1435.845 776.530, 1433.988 770.530, 1432.928 768.123 C 1431.868 765.715, 1431 762.903, 1431 761.873 C 1431 760.843, 1430.594 760, 1430.099 760 C 1429.040 760, 1424.722 753.051, 1424.689 751.294 C 1424.677 750.631, 1424.291 750.320, 1423.831 750.604 C 1423.372 750.888, 1422.558 749.968, 1422.023 748.560 C 1421.017 745.914, 1420 745.178, 1420 747.096 M 1003.127 770 C 1015.784 785.931, 1018.458 806.375, 1010.160 823.779 C 1004.254 836.165, 998.385 843.397, 983.603 856.500 C 979.260 860.350, 975.210 863.950, 974.603 864.500 C 973.996 865.050, 970.575 867.970, 967 870.988 C 959.791 877.075, 958.789 877.949, 944.500 890.621 C 931.899 901.796, 933.044 900.795, 927.471 905.500 C 924.865 907.700, 922.228 909.950, 921.611 910.500 C 912.083 918.999, 902.628 927.165, 894.537 933.887 C 889.057 938.438, 881.182 945.228, 877.037 948.974 C 872.892 952.721, 863.425 961.046, 856 967.474 C 848.575 973.903, 841.150 980.380, 839.500 981.867 C 837.850 983.354, 831.775 988.588, 826 993.499 C 820.225 998.409, 815.275 1002.669, 815 1002.964 C 814.238 1003.784, 800.820 1015.417, 798.133 1017.588 C 796.831 1018.640, 794.131 1020.925, 792.133 1022.666 C 790.135 1024.407, 786.399 1027.557, 783.832 1029.666 C 781.265 1031.775, 773.033 1038.675, 765.539 1045 C 758.045 1051.325, 750.589 1057.228, 748.968 1058.118 C 747.348 1059.008, 745.455 1060.186, 744.761 1060.736 C 738.047 1066.054, 713.984 1067.935, 703.837 1063.936 C 700.956 1062.800, 696.777 1060.644, 694.550 1059.144 C 688.522 1055.084, 688 1054.809, 688.003 1055.691 C 688.004 1056.136, 689.322 1057.382, 690.932 1058.460 C 692.541 1059.539, 693.638 1060.776, 693.370 1061.210 C 693.102 1061.645, 693.471 1062.002, 694.191 1062.004 C 694.911 1062.006, 697.075 1062.997, 699 1064.206 C 700.925 1065.415, 702.725 1066.458, 703 1066.522 C 703.275 1066.586, 705.525 1067.220, 708 1067.931 C 710.948 1068.777, 716.293 1069.078, 723.500 1068.803 C 735.220 1068.356, 741.121 1066.484, 750.500 1060.237 C 754.515 1057.563, 770.628 1044.641, 772.500 1042.593 C 773.050 1041.992, 775.750 1039.719, 778.500 1037.541 C 784.051 1033.147, 784.910 1032.424, 793.500 1024.928 C 796.800 1022.048, 800.305 1018.861, 801.289 1017.846 C 802.273 1016.831, 803.398 1015.987, 803.789 1015.970 C 804.180 1015.954, 807.200 1013.480, 810.500 1010.472 C 813.800 1007.463, 817.153 1004.450, 817.951 1003.774 C 822.746 999.715, 851.563 974.719, 857 969.903 C 875.149 953.826, 893.181 938.069, 897.513 934.500 C 903.759 929.354, 911.025 922.949, 912.973 920.873 C 913.813 919.978, 918.325 916.181, 923 912.435 C 927.675 908.689, 932.435 904.696, 933.579 903.562 C 935.838 901.321, 943.650 894.447, 957.079 882.886 C 961.797 878.824, 970.347 871.452, 976.079 866.505 C 1001.357 844.686, 1009.276 835.145, 1014.488 820.227 C 1016.513 814.432, 1016.945 811.365, 1016.865 803.371 C 1016.810 797.996, 1016.409 792.901, 1015.972 792.049 C 1015.535 791.197, 1014.399 788.250, 1013.448 785.500 C 1011.679 780.383, 1004.619 769.543, 1001.366 766.947 C 1000.369 766.151, 1001.161 767.525, 1003.127 770 M 597.108 776.711 C 598.793 780.016, 599 782.811, 599 802.211 L 599 824 470.547 824 C 381.978 824, 341.381 824.330, 339.797 825.063 C 338.375 825.720, 335.836 829.436, 333.134 834.813 C 319.724 861.495, 305.655 874.693, 281 883.721 C 270.541 887.552, 258.393 890, 249.850 890 C 235.775 890, 214.368 883.126, 205.393 875.726 C 201.822 872.781, 199.251 871.785, 198.473 873.044 C 198.148 873.570, 198.584 874, 199.441 874 C 200.298 874, 201 874.379, 201 874.843 C 201 875.306, 202.575 876.533, 204.500 877.570 C 206.425 878.607, 208 879.754, 208 880.119 C 208 880.484, 209.125 881.066, 210.500 881.411 C 211.875 881.756, 213 882.480, 213 883.019 C 213 883.559, 213.691 884, 214.535 884 C 215.380 884, 217.155 884.711, 218.481 885.580 C 219.807 886.449, 224.666 888.198, 229.279 889.467 C 241.654 892.872, 259.106 892.946, 272 889.649 C 288.888 885.331, 302.530 878.002, 313.548 867.328 C 321.692 859.437, 326.915 852.078, 334.141 838.311 C 336.974 832.915, 339.596 828.152, 339.970 827.726 C 340.343 827.300, 399.340 826.850, 471.074 826.726 L 601.500 826.500 601.557 808.846 C 601.630 785.853, 600.729 776.269, 598.323 774.445 C 595.386 772.219, 595.094 772.762, 597.108 776.711 M 1083 824.872 C 1083 825.375, 1083.668 826.042, 1084.483 826.355 C 1085.299 826.668, 1124.938 826.939, 1172.569 826.956 C 1220.200 826.973, 1259.695 827.279, 1260.335 827.635 C 1260.976 827.991, 1260.697 827.431, 1259.715 826.391 C 1257.994 824.569, 1254.760 824.490, 1170.465 824.229 C 1118.087 824.066, 1083 824.324, 1083 824.872 M 179 851.255 C 179 852.044, 179.900 853.505, 181 854.500 C 182.100 855.495, 183 856.846, 183 857.501 C 183 858.906, 193.257 869.532, 196.063 871.034 C 199.686 872.973, 197.961 870.514, 192.532 866 C 189.555 863.525, 187.093 861.149, 187.060 860.721 C 186.942 859.180, 179 849.853, 179 851.255 M 601.958 953.765 C 604.123 955.518, 604.135 955.728, 603.819 985.515 C 603.526 1013.023, 603.335 1015.852, 601.500 1019.765 C 600.087 1022.778, 583.942 1039.644, 546.458 1077.265 C 517.285 1106.544, 491.972 1132.203, 490.208 1134.285 C 486.278 1138.921, 485.999 1143.711, 489.109 1153.120 C 490.268 1156.629, 491.360 1161.300, 491.535 1163.500 C 491.710 1165.700, 492.160 1172, 492.536 1177.500 C 494.053 1199.731, 486.571 1221.152, 471.482 1237.776 C 460.695 1249.660, 442.460 1259.496, 424.500 1263.118 C 413.352 1265.367, 410.444 1265.399, 397.128 1263.422 C 378.176 1260.608, 363.868 1253.472, 350.272 1240.052 C 345.746 1235.585, 340.866 1229.921, 339.427 1227.465 C 337.987 1225.009, 336.628 1223, 336.405 1223 C 335.491 1223, 336.088 1225.950, 337.250 1227.179 C 337.938 1227.905, 339.793 1230.300, 341.373 1232.500 C 344.223 1236.467, 359.925 1252, 361.086 1252 C 361.418 1252, 362.495 1252.889, 363.479 1253.976 C 364.462 1255.063, 365.621 1255.734, 366.053 1255.467 C 366.485 1255.200, 367.438 1255.565, 368.169 1256.277 C 370.531 1258.576, 381.292 1263.157, 388.907 1265.104 C 397.987 1267.426, 420.694 1267.730, 428.500 1265.634 C 460.525 1257.034, 482.550 1236.866, 492.290 1207.225 C 494.205 1201.398, 494.477 1198.564, 494.326 1186 C 494.145 1171.020, 493.571 1161.605, 492.677 1159 C 492.394 1158.175, 491.883 1156.150, 491.543 1154.500 C 491.202 1152.850, 490.711 1150.600, 490.452 1149.500 C 488.441 1140.969, 488.625 1140.222, 494.455 1133.251 C 495.030 1132.564, 519.144 1108.264, 548.043 1079.251 C 576.941 1050.238, 601.691 1024.925, 603.043 1023 L 605.500 1019.500 605.500 986.714 C 605.500 958.659, 605.284 953.791, 604 952.979 C 601.296 951.270, 599.656 951.901, 601.958 953.765 M 958.994 989.504 C 960.366 991.152, 963.505 994.300, 965.970 996.500 L 970.453 1000.500 966.326 995.722 C 964.056 993.094, 960.916 989.946, 959.349 988.726 L 956.500 986.509 958.994 989.504 M 982 1012.634 C 982 1013.218, 984.925 1016.567, 988.500 1020.076 C 992.075 1023.585, 995 1027.029, 995 1027.728 C 995 1028.428, 995.527 1029, 996.171 1029 C 997.276 1029, 1005.333 1036.798, 1006.134 1038.644 C 1006.339 1039.115, 1007.841 1040.625, 1009.471 1042 C 1012.032 1044.160, 1011.899 1043.820, 1008.486 1039.500 C 1003.178 1032.779, 982 1011.297, 982 1012.634 M 1043.474 1076.974 C 1046.725 1080.259, 1049.610 1082.723, 1049.884 1082.449 C 1050.539 1081.794, 1039.867 1071, 1038.565 1071 C 1038.014 1071, 1040.223 1073.688, 1043.474 1076.974 M 821.502 1086.500 C 821.827 1089.800, 822.252 1129.259, 822.448 1174.186 C 822.643 1219.114, 823.099 1256.351, 823.461 1256.936 C 823.822 1257.521, 824.822 1258, 825.681 1258 C 826.816 1258, 826.962 1257.657, 826.213 1256.750 C 825.313 1255.660, 824.218 1177.602, 824.041 1101.941 C 824.008 1087.657, 823.712 1084.020, 822.455 1082.441 C 821.032 1080.652, 820.957 1080.969, 821.502 1086.500 M 1058.711 1092 C 1061.520 1094.750, 1064.179 1097, 1064.621 1097 C 1065.063 1097, 1063.209 1094.750, 1060.500 1092 C 1057.791 1089.250, 1055.132 1087, 1054.590 1087 C 1054.048 1087, 1055.903 1089.250, 1058.711 1092 M 1242.733 1112 C 1245.502 1115.715, 1255 1125.353, 1255 1124.449 C 1255 1123.895, 1251.988 1120.530, 1248.307 1116.971 C 1244.626 1113.412, 1242.117 1111.175, 1242.733 1112 M 773.857 1167.250 C 773.699 1216.914, 773.985 1248.271, 774.602 1248.917 C 774.821 1249.146, 775 1220.683, 775 1185.667 C 775 1150.650, 774.775 1122, 774.500 1122 C 774.225 1122, 773.935 1142.362, 773.857 1167.250 M 1258.491 1131.250 C 1263.176 1138.334, 1268 1148.775, 1268 1151.834 C 1268 1152.805, 1268.387 1154.027, 1268.859 1154.550 C 1270.197 1156.030, 1272 1169.096, 1272 1177.312 C 1272 1190.910, 1267.670 1209.583, 1262.566 1218 C 1261.398 1219.925, 1259.556 1223.228, 1258.472 1225.341 C 1255.706 1230.729, 1241.569 1244.743, 1233.779 1249.818 C 1225.337 1255.319, 1212.589 1260.589, 1202.500 1262.750 C 1186.794 1266.113, 1164.347 1264.312, 1153.683 1258.833 C 1150.273 1257.081, 1146.885 1256.005, 1147.399 1256.837 C 1148.418 1258.485, 1162.624 1264.777, 1168.067 1265.991 C 1171.746 1266.811, 1178.532 1267.069, 1188.067 1266.753 C 1199.798 1266.364, 1204.012 1265.800, 1210.577 1263.742 C 1239.768 1254.589, 1263.248 1232.091, 1270.275 1206.541 C 1273.990 1193.034, 1275.231 1183.922, 1274.640 1174.500 C 1274.330 1169.550, 1273.781 1164.150, 1273.421 1162.500 C 1273.061 1160.850, 1272.744 1158.938, 1272.717 1158.250 C 1272.689 1157.563, 1272.367 1157, 1272 1157 C 1271.633 1157, 1271.308 1156.438, 1271.278 1155.750 C 1271.136 1152.553, 1267.062 1142.060, 1264.427 1138.107 C 1262.817 1135.691, 1260.954 1132.766, 1260.286 1131.607 C 1258.235 1128.045, 1256.594 1126, 1255.788 1126 C 1255.365 1126, 1256.581 1128.362, 1258.491 1131.250 M 1135.861 1250.033 C 1137.159 1251.115, 1138.738 1252, 1139.370 1252 C 1140.002 1252, 1141.081 1252.900, 1141.768 1254 C 1142.455 1255.100, 1143.688 1256, 1144.508 1256 C 1147.280 1256, 1146.024 1254.366, 1141.523 1252.118 C 1139.060 1250.889, 1136.784 1249.459, 1136.464 1248.941 C 1136.144 1248.424, 1135.346 1248.015, 1134.691 1248.033 C 1134.036 1248.052, 1134.562 1248.952, 1135.861 1250.033 M 874.647 1287.250 C 875.068 1287.938, 876.959 1290.525, 878.851 1293 C 888.574 1305.725, 895.368 1333.063, 893.140 1350.500 C 891.698 1361.792, 888.475 1372.143, 882.806 1383.690 C 878.019 1393.443, 876.473 1395.533, 867 1405.057 C 855.709 1416.410, 846.357 1422.678, 831.841 1428.622 C 822.931 1432.271, 809.270 1435.007, 800 1434.998 C 792.892 1434.991, 775.686 1432.528, 772.500 1431.060 C 771.400 1430.554, 768.700 1429.594, 766.500 1428.928 C 759.472 1426.799, 745.902 1419.017, 739.321 1413.342 C 731.687 1406.759, 730.610 1405.614, 725.480 1398.627 C 722.816 1394.999, 720.453 1392.214, 720.229 1392.438 C 719.653 1393.014, 727.159 1403.733, 731.428 1408.432 C 733.393 1410.594, 735 1412.732, 735 1413.182 C 735 1413.632, 735.612 1414, 736.360 1414 C 737.108 1414, 738.544 1415.098, 739.552 1416.440 C 740.560 1417.782, 741.721 1418.673, 742.131 1418.419 C 742.541 1418.165, 743.242 1418.530, 743.689 1419.229 C 745.542 1422.131, 761.871 1430.201, 773.931 1434.175 C 783.044 1437.177, 784.262 1437.328, 799.500 1437.343 C 815.332 1437.359, 815.615 1437.320, 826.442 1433.658 C 853.321 1424.567, 873.896 1407.664, 885.059 1385.500 C 892.866 1370.002, 895.930 1357.173, 895.532 1341.654 C 895.389 1336.069, 894.960 1329.925, 894.578 1328 C 894.196 1326.075, 893.757 1323.825, 893.603 1323 C 892.375 1316.458, 891.650 1313.902, 890.887 1313.430 C 890.399 1313.129, 890 1312.103, 890 1311.152 C 890 1307.449, 876.954 1286.020, 874.691 1286.005 C 874.246 1286.002, 874.226 1286.563, 874.647 1287.250" stroke="none" fill="#c71c3f" fill-rule="evenodd"/><path d="M 781.500 162.698 C 776.043 163.422, 762.616 168.191, 755 172.110 C 738.544 180.577, 722.323 196.985, 713.586 214 C 698.327 243.715, 701.612 286.030, 721.234 312.500 C 731.405 326.221, 745.028 338.586, 748.672 337.404 C 750.100 336.941, 750.191 337.031, 749.088 337.815 C 748.008 338.582, 750.088 340.030, 757.909 343.954 C 764.002 347.012, 768.866 348.860, 769.930 348.522 C 771.747 347.946, 774.810 350.524, 773.666 351.667 C 773.326 352.008, 772.763 351.547, 772.417 350.643 C 772.070 349.739, 771.329 349, 770.771 349 C 770.163 349, 770.232 349.575, 770.942 350.430 C 771.820 351.488, 772.280 369.667, 772.707 420.180 C 773.253 484.684, 773.388 488.633, 775.139 490.880 C 777.328 493.691, 784.070 498.942, 785.500 498.950 C 786.050 498.953, 785.375 498.076, 784 497 C 782.625 495.924, 781.993 495.034, 782.595 495.022 C 784.021 494.993, 787.180 498.487, 786.417 499.249 C 786.095 499.572, 789.510 502.461, 794.007 505.668 C 807.336 515.176, 809.046 515.637, 797.949 506.732 C 794.886 504.274, 794.836 504.165, 797.500 505.751 C 799.150 506.734, 804.712 510.342, 809.859 513.769 C 815.007 517.196, 819.845 520, 820.609 520 C 821.785 520, 822.018 507.188, 822.118 437.250 C 822.183 391.737, 822.521 353.192, 822.868 351.594 C 823.390 349.194, 824.370 348.393, 828.500 346.988 C 835.702 344.538, 845.642 339.215, 854 333.333 C 860.840 328.519, 879 309.062, 879 306.548 C 879 306.137, 880.592 303.222, 882.538 300.069 C 892.605 283.759, 897.691 256.796, 893.530 241.799 C 892.721 238.884, 891.122 233.125, 889.977 229 C 888.832 224.875, 887.034 219.829, 885.983 217.787 C 884.931 215.745, 884.453 213.838, 884.919 213.550 C 885.386 213.261, 886.331 214.384, 887.019 216.045 C 887.706 217.705, 888.467 218.867, 888.708 218.625 C 890.289 217.044, 879.165 201.055, 869.691 191.291 C 855.152 176.308, 837.185 166.578, 817.566 163.063 C 811.990 162.064, 788.098 161.822, 781.500 162.698 M 865 188.579 C 865 188.938, 867.546 191.983, 870.658 195.344 C 873.770 198.706, 877.815 203.798, 879.647 206.662 C 882.591 211.264, 885.908 214.869, 884.880 212.348 C 883.008 207.759, 865 186.228, 865 188.579 M 1176.472 339.974 C 1149.546 343.800, 1127.163 357.786, 1112.575 379.902 C 1101.308 396.982, 1097.946 408.233, 1097.903 429 C 1097.873 443.699, 1098.368 447.344, 1101.974 459 C 1104.054 465.722, 1104.509 470.652, 1103.235 472.654 C 1102.831 473.289, 1080.641 496.014, 1053.924 523.154 C 1007.297 570.520, 989.545 588.797, 974.462 604.963 C 970.633 609.067, 964.013 615.774, 959.750 619.867 C 954.639 624.773, 952 628.065, 952 629.530 C 952 631.071, 955.272 634.782, 962.664 641.627 C 968.529 647.057, 972.728 650.600, 971.994 649.500 C 971.261 648.400, 967.856 645.025, 964.426 642 C 960.997 638.975, 958.148 636.116, 958.095 635.646 C 958.043 635.177, 959.688 636.254, 961.750 638.041 C 970.361 645.499, 975.014 650.168, 974.563 650.898 C 973.767 652.186, 985.983 663, 988.234 663 C 988.764 663, 986.516 660.984, 983.238 658.519 C 976.844 653.713, 974.144 651, 975.755 651 C 976.305 651, 977.320 651.680, 978.010 652.512 C 978.700 653.344, 981.448 655.626, 984.116 657.585 C 987.746 660.250, 989.536 660.973, 991.233 660.461 C 992.480 660.085, 1020.950 632.422, 1054.500 598.988 C 1106.006 547.660, 1131.631 522.340, 1143.771 510.775 C 1146.249 508.415, 1151.746 508.154, 1156.799 510.157 C 1164.593 513.246, 1176.840 515, 1190.609 515 C 1203.660 515, 1205.561 514.758, 1213.909 512.030 C 1232.034 506.107, 1241.886 500.105, 1253.510 487.906 C 1259.774 481.334, 1262.537 477.428, 1266.177 470 C 1274.634 452.744, 1278.818 435.253, 1277.421 423 C 1276.669 416.406, 1273.372 402.676, 1271.537 398.500 C 1267.034 388.248, 1264.429 383.105, 1262.260 380.184 C 1259.598 376.600, 1259.859 374.868, 1262.726 377.090 C 1264.384 378.376, 1264.398 378.336, 1262.934 376.483 C 1257.139 369.147, 1251.616 363, 1250.820 363 C 1250.304 363, 1250.160 363.450, 1250.500 364 C 1250.840 364.550, 1250.593 365, 1249.952 365 C 1249.311 365, 1249.029 364.367, 1249.326 363.594 C 1249.622 362.821, 1249.108 361.530, 1248.183 360.727 C 1245.636 358.515, 1236.104 352, 1235.415 352 C 1235.081 352, 1233.614 351.186, 1232.154 350.192 C 1228.066 347.407, 1217.256 343.251, 1209.500 341.482 C 1201.023 339.549, 1184.706 338.803, 1176.472 339.974 M 398 342.913 C 359.924 348.327, 331.026 373.547, 322.974 408.389 C 321.023 416.832, 320.796 419.903, 321.279 431.319 C 321.889 445.717, 323.916 455.211, 328.861 466.832 C 336.711 485.280, 351.299 500.650, 369.721 509.882 C 376.258 513.158, 379.914 514.006, 376.559 511.468 C 375.105 510.368, 374.992 510, 376.109 510 C 376.929 510, 378.027 510.394, 378.550 510.875 C 379.072 511.357, 383.863 512.519, 389.196 513.458 C 404.614 516.173, 434.226 514.174, 438.253 510.147 C 439.559 508.841, 448.619 508.574, 449.388 509.819 C 449.667 510.270, 448.456 510.476, 446.697 510.278 L 443.500 509.918 446.500 511.353 C 449.023 512.560, 496.651 559.906, 553.500 617.722 C 561.356 625.712, 568.071 631.755, 568.802 631.492 C 569.520 631.233, 569.817 631.487, 569.465 632.057 C 568.606 633.446, 587.075 652.185, 588.691 651.565 C 589.390 651.297, 591.420 652.410, 593.204 654.039 C 594.987 655.667, 595.895 657, 595.223 657 C 594.550 657, 593.986 656.663, 593.969 656.250 C 593.951 655.837, 592.714 654.679, 591.219 653.676 C 589.723 652.672, 590.681 653.910, 593.347 656.426 C 596.012 658.941, 598.937 660.968, 599.847 660.930 C 601.138 660.875, 601.061 660.682, 599.500 660.048 C 597.750 659.338, 597.875 659.191, 600.500 658.868 L 603.500 658.500 604 622.500 L 604.500 586.500 601 583.073 C 599.075 581.189, 590.300 572.890, 581.500 564.631 C 572.700 556.372, 547.950 532.073, 526.500 510.635 C 505.050 489.196, 487.163 471.733, 486.750 471.827 C 485.473 472.121, 485.916 467.766, 487.905 460.480 C 491.133 448.653, 492.228 441.966, 492.976 429.500 L 493.697 417.500 493.966 428 C 494.213 437.616, 494.310 438.079, 495.119 433.500 C 495.652 430.482, 495.607 424.386, 495.006 418.121 C 493.092 398.190, 485.230 382.112, 470.008 367 C 461.739 358.791, 459.940 357.497, 448 351.174 C 435.228 344.411, 413.136 340.761, 398 342.913 M 715.500 538.679 C 709.050 540.122, 697.626 544.485, 693.580 547.052 C 682.775 553.904, 672.565 566.117, 668.883 576.594 C 667.847 579.542, 666.287 587.926, 665.418 595.227 C 663.995 607.171, 663.932 629.073, 664.784 814 C 665.620 995.383, 665.914 1020.123, 667.291 1024.810 C 669.246 1031.465, 673.510 1039.577, 674.887 1039.262 C 675.460 1039.131, 675.699 1039.622, 675.418 1040.352 C 674.381 1043.056, 690.022 1061, 693.416 1061 C 693.997 1061, 693.023 1059.988, 691.253 1058.750 C 689.483 1057.513, 688.027 1056.136, 688.017 1055.691 C 687.998 1054.808, 688.527 1055.088, 694.550 1059.144 C 702.497 1064.496, 708.086 1066, 720.033 1066 C 728.598 1066, 732.358 1065.534, 737.246 1063.867 C 740.686 1062.694, 744.068 1061.285, 744.761 1060.736 C 745.455 1060.186, 747.348 1059.008, 748.968 1058.118 C 750.589 1057.228, 758.045 1051.325, 765.539 1045 C 773.033 1038.675, 781.265 1031.775, 783.832 1029.666 C 786.399 1027.557, 790.135 1024.407, 792.133 1022.666 C 794.131 1020.925, 796.831 1018.640, 798.133 1017.588 C 800.820 1015.417, 814.238 1003.784, 815 1002.964 C 815.275 1002.669, 820.225 998.409, 826 993.499 C 831.775 988.588, 837.850 983.354, 839.500 981.867 C 841.150 980.380, 848.575 973.903, 856 967.474 C 863.425 961.046, 872.892 952.721, 877.037 948.974 C 881.182 945.228, 889.057 938.438, 894.537 933.887 C 902.628 927.165, 912.083 918.999, 921.611 910.500 C 922.228 909.950, 924.865 907.700, 927.471 905.500 C 933.044 900.795, 931.899 901.796, 944.500 890.621 C 958.789 877.949, 959.791 877.075, 967 870.988 C 970.575 867.970, 973.996 865.050, 974.603 864.500 C 975.210 863.950, 979.260 860.350, 983.603 856.500 C 998.385 843.397, 1004.254 836.165, 1010.160 823.779 C 1018.458 806.375, 1015.784 785.931, 1003.127 770 C 1001.161 767.525, 1000.333 766.122, 1001.288 766.882 C 1003.605 768.727, 1009.706 777.101, 1012.126 781.757 C 1013.196 783.816, 1013.802 784.493, 1013.472 783.262 C 1011.791 776.985, 1006.646 770.469, 992.143 756.250 C 983.587 747.862, 976.175 741, 975.671 741 C 975.167 741, 975.315 741.675, 976 742.500 C 977.581 744.405, 976.327 744.470, 974.438 742.580 C 973.488 741.631, 973.386 741.038, 974.130 740.790 C 974.742 740.586, 971.250 737.081, 966.371 733 C 961.492 728.920, 955.925 724.161, 954 722.426 C 947.244 716.337, 938.339 708.476, 935.505 706.102 C 933.932 704.783, 922.937 695.599, 911.072 685.694 C 899.207 675.789, 889.275 667.384, 889 667.017 C 886.933 664.258, 866.517 648.181, 865.712 648.678 C 865.150 649.025, 864.968 648.861, 865.307 648.313 C 866.011 647.174, 859.768 640.744, 858.401 641.200 C 857.905 641.365, 857.355 641.050, 857.179 640.500 C 856.494 638.368, 853.561 635.955, 852.261 636.453 C 851.510 636.741, 851.135 636.591, 851.426 636.119 C 851.718 635.648, 849.154 632.852, 845.728 629.907 C 842.303 626.962, 839.275 624.316, 839 624.026 C 835.731 620.586, 819.817 607.995, 819.211 608.370 C 818.767 608.644, 817.751 608.405, 816.952 607.840 C 815.814 607.034, 815.933 606.943, 817.500 607.418 C 818.775 607.805, 817.921 606.522, 815.143 603.877 C 811.657 600.558, 810.589 600.005, 809.799 601.114 C 809.018 602.210, 808.923 602.149, 809.347 600.821 C 809.740 599.591, 805.835 595.710, 794.759 586.321 C 786.441 579.269, 776.230 570.543, 772.068 566.929 C 757.954 554.674, 746.560 545.932, 741.521 543.492 C 732.514 539.131, 722.096 537.204, 715.500 538.679 M 240.500 707.053 C 230.049 708.100, 221.670 710.640, 210.074 716.278 C 200.928 720.724, 198.458 722.523, 189.968 730.923 C 175.114 745.621, 168.534 756.776, 163.837 775.227 C 160.858 786.928, 160.831 808.016, 163.780 820.014 C 166.890 832.673, 175.344 850.112, 182.436 858.500 L 184.972 861.500 183.465 858.355 C 182.637 856.626, 181.293 854.658, 180.479 853.983 C 179.666 853.308, 179 852.095, 179 851.288 C 179 850.481, 180.836 852.143, 183.080 854.982 C 185.323 857.820, 186.929 860.743, 186.647 861.477 C 186.365 862.211, 187.117 863.642, 188.317 864.656 L 190.500 866.500 188.595 864.250 C 185.374 860.446, 188.231 861.832, 193.383 866.573 C 198.584 871.358, 199.244 873.481, 194.403 869.853 L 191.500 867.678 193.647 869.958 C 194.828 871.212, 197.233 872.406, 198.993 872.611 C 200.752 872.816, 203.562 874.137, 205.238 875.547 C 214.167 883.060, 235.588 890, 249.850 890 C 258.393 890, 270.541 887.552, 281 883.721 C 305.655 874.693, 319.724 861.495, 333.134 834.813 C 335.836 829.436, 338.375 825.720, 339.797 825.063 C 341.381 824.330, 381.978 824, 470.547 824 L 599 824 599 802.211 C 599 782.811, 598.793 780.016, 597.108 776.711 C 595.233 773.035, 595.480 772.073, 597.804 773.996 C 598.466 774.544, 598.394 774.286, 597.644 773.423 C 596.895 772.559, 594.531 771.447, 592.391 770.950 C 590.191 770.440, 534.733 770.037, 464.815 770.024 C 384.474 770.008, 340.144 769.648, 338.315 768.994 C 335.689 768.056, 335.631 768.090, 337.441 769.494 C 338.509 770.322, 338.959 770.993, 338.441 770.985 C 336.419 770.952, 335.113 769.223, 331.651 762 C 329.673 757.875, 326.893 752.587, 325.471 750.250 C 321.731 744.100, 323.333 745.027, 327.631 751.500 C 329.640 754.525, 331.471 757, 331.701 757 C 332.223 757, 331.709 756.132, 326.146 747.621 C 318.763 736.327, 302.821 721.470, 292.500 716.267 C 278.056 708.986, 257.524 705.348, 240.500 707.053 M 1338.500 707.106 C 1315.348 709.188, 1293.541 719.897, 1277.774 736.927 C 1271.849 743.326, 1262.482 758.441, 1259.968 765.658 C 1259.227 767.787, 1258.001 769.034, 1256.205 769.485 C 1254.740 769.852, 1215.477 770.041, 1168.954 769.904 C 1122.431 769.767, 1083.835 769.984, 1083.184 770.387 C 1082.318 770.922, 1082.004 778.549, 1082.015 798.809 C 1082.024 814.039, 1082.394 825.928, 1082.838 825.228 C 1083.483 824.212, 1101.140 824.011, 1170.787 824.228 C 1253.243 824.485, 1258.025 824.597, 1259.715 826.304 C 1261.408 828.016, 1261.409 828.074, 1259.731 827.440 C 1258.155 826.844, 1258.081 827.084, 1259.049 829.636 C 1262.972 839.984, 1272.761 855.522, 1281.247 864.872 C 1285.356 869.398, 1286.227 869.900, 1285.374 867.250 C 1284.915 865.823, 1285.001 865.768, 1285.840 866.952 C 1286.405 867.751, 1286.677 868.713, 1286.444 869.090 C 1285.612 870.437, 1300.685 881.203, 1306.391 883.338 C 1308.072 883.967, 1308.128 883.855, 1306.891 882.331 C 1306.126 881.388, 1305.950 880.836, 1306.500 881.105 C 1316.226 885.862, 1333.719 889.966, 1344.357 889.987 C 1364.795 890.026, 1388.344 881.023, 1405.566 866.585 C 1411.664 861.473, 1418.302 853.896, 1420.895 849.087 C 1421.663 847.664, 1422.632 846.275, 1423.048 846 C 1424.003 845.370, 1428.519 835.433, 1431.553 827.287 C 1432.825 823.870, 1434.650 815.861, 1435.608 809.490 C 1437.267 798.457, 1437.266 797.446, 1435.588 788.203 C 1432.389 770.585, 1428.631 760.312, 1421.955 750.937 C 1419.775 747.875, 1419.354 745.483, 1421.197 746.622 C 1421.855 747.028, 1421.432 746.011, 1420.257 744.361 C 1417.350 740.279, 1398.218 722, 1396.852 722 C 1396.122 722, 1396.171 722.501, 1397 723.500 C 1397.860 724.536, 1397.898 725, 1397.122 725 C 1396.505 725, 1395.944 724.550, 1395.875 724 C 1395.806 723.450, 1395.694 722.471, 1395.625 721.824 C 1395.403 719.733, 1381.769 712.924, 1379 713.521 C 1377.295 713.889, 1376.934 713.771, 1377.866 713.149 C 1378.860 712.487, 1377.906 711.811, 1374.366 710.672 C 1363.861 707.290, 1350.843 705.996, 1338.500 707.106 M 976.961 948.633 C 974.237 951.181, 969.445 956.694, 966.313 960.883 C 963.181 965.072, 958.649 971.088, 956.243 974.250 C 953.303 978.113, 951.971 980.786, 952.184 982.395 C 952.567 985.300, 994.632 1028.573, 995.278 1026.727 C 995.581 1025.862, 996.341 1026.062, 997.854 1027.405 C 1000.268 1029.548, 1000.848 1031.949, 998.476 1029.980 C 995.068 1027.151, 996.644 1029.816, 1001.150 1034.500 C 1003.795 1037.250, 1005.969 1039.118, 1005.980 1038.651 C 1005.991 1038.184, 1004.588 1036.484, 1002.863 1034.872 C 1001.137 1033.260, 1000.017 1031.650, 1000.373 1031.293 C 1001.098 1030.568, 1002.716 1032.206, 1008.483 1039.500 C 1011.826 1043.728, 1011.982 1044.114, 1009.498 1042 C 1003.903 1037.239, 1009.094 1043.163, 1022.411 1056.738 C 1031.704 1066.212, 1035.652 1069.624, 1036.293 1068.738 C 1036.903 1067.895, 1037.005 1068.070, 1036.612 1069.286 C 1036.190 1070.592, 1038.077 1073.014, 1043.625 1078.286 C 1047.800 1082.254, 1051.650 1085.376, 1052.182 1085.225 C 1052.714 1085.074, 1052.901 1085.351, 1052.599 1085.840 C 1052.297 1086.329, 1056.554 1091.178, 1062.059 1096.615 C 1072.314 1106.742, 1077.669 1110.715, 1070.500 1102.876 L 1066.500 1098.503 1070.420 1102.001 C 1077.876 1108.656, 1079.849 1110.883, 1078.663 1111.306 C 1078.023 1111.533, 1081.037 1115.154, 1085.360 1119.351 C 1089.779 1123.641, 1093.720 1126.697, 1094.360 1126.331 C 1094.987 1125.972, 1095.165 1126.049, 1094.756 1126.500 C 1094.348 1126.951, 1096.260 1129.696, 1099.006 1132.600 C 1104.833 1138.761, 1104.920 1139.417, 1101.576 1151.912 C 1093.112 1183.541, 1101.214 1216.303, 1123.261 1239.594 C 1131.314 1248.101, 1144.522 1258.410, 1141.815 1254.075 C 1141.102 1252.934, 1140.002 1252, 1139.370 1252 C 1137.815 1252, 1133.186 1248.075, 1134.691 1248.033 C 1135.346 1248.015, 1136.144 1248.424, 1136.464 1248.941 C 1136.784 1249.459, 1139.060 1250.889, 1141.523 1252.118 C 1145.979 1254.344, 1146.961 1255.513, 1144.939 1256.187 C 1144.355 1256.382, 1146.203 1257.797, 1149.044 1259.331 C 1151.886 1260.866, 1154.425 1261.908, 1154.687 1261.646 C 1154.948 1261.385, 1153.544 1260.403, 1151.565 1259.464 C 1149.587 1258.525, 1147.724 1257.363, 1147.427 1256.881 C 1146.889 1256.012, 1150.206 1257.046, 1153.683 1258.833 C 1164.347 1264.312, 1186.794 1266.113, 1202.500 1262.750 C 1212.589 1260.589, 1225.337 1255.319, 1233.779 1249.818 C 1241.569 1244.743, 1255.706 1230.729, 1258.472 1225.341 C 1259.556 1223.228, 1261.398 1219.925, 1262.566 1218 C 1267.670 1209.583, 1272 1190.910, 1272 1177.312 C 1272 1169.096, 1270.197 1156.030, 1268.859 1154.550 C 1268.387 1154.027, 1268 1152.805, 1268 1151.834 C 1268 1148.775, 1263.176 1138.334, 1258.491 1131.250 C 1256.581 1128.362, 1255.464 1126, 1256.009 1126 C 1256.554 1126, 1257 1126.450, 1257 1127 C 1257 1127.550, 1257.478 1128, 1258.062 1128 C 1259.797 1128, 1252.939 1119.168, 1246.753 1113.436 C 1231.214 1099.038, 1214.714 1092.246, 1192.924 1091.279 C 1178.772 1090.652, 1166.296 1092.190, 1155 1095.956 C 1145.017 1099.284, 1143.534 1098.913, 1137.370 1091.538 C 1135.318 1089.084, 1132.934 1086.805, 1132.072 1086.474 C 1131.209 1086.143, 1131.740 1087.163, 1133.252 1088.741 C 1134.763 1090.319, 1136 1091.984, 1136 1092.441 C 1136 1093.304, 1132.564 1089.945, 1129.981 1086.558 C 1129.074 1085.368, 1128.984 1084.907, 1129.750 1085.367 C 1132.800 1087.200, 1130.545 1083.855, 1125.750 1079.433 C 1122.862 1076.771, 1106.100 1060.569, 1088.500 1043.428 C 1058.299 1014.016, 1028.295 986.061, 1027.059 986.182 C 1025.192 986.365, 1024.137 985.798, 1023.564 984.306 C 1022.994 982.821, 1023.166 982.841, 1024.957 984.461 C 1026.081 985.478, 1027 986.100, 1027 985.843 C 1027 985.585, 1018.788 977.208, 1008.750 967.226 C 991.501 950.071, 984.707 944, 982.763 944 C 982.296 944, 979.685 946.085, 976.961 948.633 M 594.667 953.097 C 592.095 954.801, 570.305 976.268, 546.245 1000.801 C 462.276 1086.424, 453.480 1095.222, 450.500 1096.567 C 448.513 1097.464, 448.111 1097.935, 449.309 1097.961 C 451.809 1098.015, 450.373 1100, 447.834 1100 C 446.424 1100, 445.965 1099.532, 446.362 1098.500 C 446.767 1097.442, 446.283 1097.005, 444.719 1097.015 C 442.870 1097.028, 442.750 1097.211, 444 1098.110 C 445.248 1099.007, 445.192 1099.089, 443.668 1098.594 C 442.661 1098.267, 440.861 1097.955, 439.668 1097.900 C 437.620 1097.806, 437.632 1097.764, 439.884 1097.133 C 444.704 1095.782, 424.647 1091.761, 410.476 1091.236 C 395.482 1090.682, 386.981 1092.419, 374.818 1098.523 C 357.387 1107.271, 345.308 1118.129, 336.424 1133.036 C 326.850 1149.102, 324.031 1159.567, 324.042 1179 C 324.049 1192.412, 324.582 1195.825, 328.728 1209 C 330.910 1215.935, 331.517 1217.040, 332.025 1215 L 332.647 1212.500 333.431 1214.875 C 333.873 1216.216, 333.800 1217.522, 333.264 1217.875 C 332.688 1218.254, 332.874 1219.853, 333.735 1221.933 C 334.704 1224.275, 335.404 1224.965, 335.936 1224.104 C 336.470 1223.239, 337.557 1224.274, 339.380 1227.385 C 340.845 1229.885, 345.746 1235.585, 350.272 1240.052 C 363.868 1253.472, 378.176 1260.608, 397.128 1263.422 C 410.444 1265.399, 413.352 1265.367, 424.500 1263.118 C 442.460 1259.496, 460.695 1249.660, 471.482 1237.776 C 486.571 1221.152, 494.053 1199.731, 492.536 1177.500 C 492.160 1172, 491.710 1165.700, 491.535 1163.500 C 491.360 1161.300, 490.268 1156.629, 489.109 1153.120 C 485.999 1143.711, 486.278 1138.921, 490.208 1134.285 C 491.972 1132.203, 517.285 1106.544, 546.458 1077.265 C 583.942 1039.644, 600.087 1022.778, 601.500 1019.765 C 603.335 1015.852, 603.526 1013.023, 603.819 985.515 L 604.137 955.529 601.819 953.616 L 599.500 951.703 602.500 952.367 C 605.327 952.992, 605.388 952.943, 603.559 951.515 C 600.866 949.413, 599.995 949.568, 594.667 953.097 M 958.994 989.504 C 960.366 991.152, 963.505 994.300, 965.970 996.500 L 970.453 1000.500 966.326 995.722 C 964.056 993.094, 960.916 989.946, 959.349 988.726 L 956.500 986.509 958.994 989.504 M 982 1012.579 C 982 1013.845, 994.193 1026.140, 994.823 1025.510 C 995.059 1025.275, 992.270 1022.026, 988.626 1018.291 C 984.982 1014.557, 982 1011.986, 982 1012.579 M 1043.474 1076.974 C 1046.725 1080.259, 1049.610 1082.723, 1049.884 1082.449 C 1050.539 1081.794, 1039.867 1071, 1038.565 1071 C 1038.014 1071, 1040.223 1073.688, 1043.474 1076.974 M 812.497 1083.547 C 804.398 1089.297, 788.173 1101.806, 785.389 1104.446 C 784.778 1105.026, 782.557 1106.850, 780.453 1108.500 C 772.714 1114.570, 773.398 1109.714, 772.664 1163.763 C 772.300 1190.569, 772.002 1221.637, 772.001 1232.805 L 772 1253.110 766.250 1255.561 C 744.301 1264.919, 731.002 1275.478, 719.239 1292.886 C 707.702 1309.961, 703.435 1324.921, 704.375 1345 C 705.500 1369.023, 714.856 1391.728, 730.541 1408.500 C 733.113 1411.250, 734.614 1412.600, 733.878 1411.500 C 733.141 1410.400, 731.461 1408.375, 730.145 1407 C 727.053 1403.771, 719.697 1392.969, 720.229 1392.438 C 720.453 1392.214, 722.816 1394.999, 725.480 1398.627 C 730.610 1405.614, 731.687 1406.759, 739.321 1413.342 C 745.902 1419.017, 759.472 1426.799, 766.500 1428.928 C 768.700 1429.594, 771.400 1430.554, 772.500 1431.060 C 775.686 1432.528, 792.892 1434.991, 800 1434.998 C 809.270 1435.007, 822.931 1432.271, 831.841 1428.622 C 846.357 1422.678, 855.709 1416.410, 867 1405.057 C 876.473 1395.533, 878.019 1393.443, 882.806 1383.690 C 890.792 1367.423, 894.706 1350.444, 893.455 1337.500 C 891.700 1319.339, 886.018 1302.457, 878.160 1292.059 C 875.899 1289.067, 874.251 1286.415, 874.499 1286.167 C 875.148 1285.518, 878.466 1289.621, 882.653 1296.250 C 886.529 1302.388, 888.008 1303.850, 885.569 1299.133 C 881.469 1291.206, 872.561 1281.207, 862.143 1272.841 C 856.589 1268.382, 854.260 1267.080, 852.643 1267.532 C 851.077 1267.970, 850.876 1267.871, 851.896 1267.166 C 853.001 1266.402, 852.689 1265.894, 850.396 1264.719 C 846.220 1262.581, 835.200 1258.265, 829.655 1256.597 C 825.558 1255.364, 825.055 1255.362, 826.067 1256.581 C 826.999 1257.703, 826.918 1258, 825.681 1258 C 824.822 1258, 823.822 1257.521, 823.461 1256.936 C 823.099 1256.351, 822.643 1219.114, 822.448 1174.186 C 822.252 1129.259, 821.827 1089.800, 821.502 1086.500 C 820.939 1080.789, 820.992 1080.596, 822.590 1082.500 C 824.077 1084.272, 824.197 1084.291, 823.635 1082.668 C 823.286 1081.661, 823 1080.648, 823 1080.418 C 823 1080.188, 821.761 1080, 820.247 1080 C 818.699 1080, 815.306 1081.553, 812.497 1083.547 M 1058.711 1092 C 1061.520 1094.750, 1064.179 1097, 1064.621 1097 C 1065.063 1097, 1063.209 1094.750, 1060.500 1092 C 1057.791 1089.250, 1055.132 1087, 1054.590 1087 C 1054.048 1087, 1055.903 1089.250, 1058.711 1092 M 1242.733 1112 C 1245.502 1115.715, 1255 1125.353, 1255 1124.449 C 1255 1123.895, 1251.988 1120.530, 1248.307 1116.971 C 1244.626 1113.412, 1242.117 1111.175, 1242.733 1112 M 773.857 1167.250 C 773.699 1216.914, 773.985 1248.271, 774.602 1248.917 C 774.821 1249.146, 775 1220.683, 775 1185.667 C 775 1150.650, 774.775 1122, 774.500 1122 C 774.225 1122, 773.935 1142.362, 773.857 1167.250 M 824.365 1168.500 C 824.368 1174, 824.536 1176.122, 824.738 1173.216 C 824.941 1170.311, 824.939 1165.811, 824.734 1163.216 C 824.528 1160.622, 824.363 1163, 824.365 1168.500 M 347.500 1240.895 C 351.513 1245.183, 359 1251.571, 359 1250.707 C 359 1250.453, 355.512 1247.180, 351.250 1243.433 C 346.444 1239.208, 345.019 1238.245, 347.500 1240.895" stroke="none" fill="#fb0c2c" fill-rule="evenodd"/></svg>