<svg xmlns="http://www.w3.org/2000/svg" width="1600" height="1600" viewBox="0 0 1600 1600" version="1.1"><path d="M 784.500 162.872 C 782.300 163.234, 788.470 163.565, 798.212 163.608 C 807.953 163.650, 815.746 163.398, 815.529 163.046 C 814.998 162.187, 789.536 162.045, 784.500 162.872 M 819.424 164.877 C 820.092 165.958, 829.045 168.289, 829.765 167.569 C 830.052 167.282, 829.659 166.851, 828.893 166.612 C 828.127 166.372, 825.970 165.687, 824.101 165.088 C 819.986 163.771, 818.705 163.713, 819.424 164.877 M 837.500 171 C 837.840 171.550, 838.704 172, 839.419 172 C 840.135 172, 842.409 173.146, 844.473 174.546 C 846.536 175.946, 848.736 176.916, 849.362 176.700 C 849.988 176.485, 847.700 174.889, 844.279 173.154 C 837.614 169.775, 836.530 169.431, 837.500 171 M 863.022 187.750 C 876.085 199.718, 885.389 213.857, 889.734 228.345 C 894.032 242.676, 894.200 244.043, 893.685 260.500 C 893.101 279.189, 892.606 280.794, 880.103 304.546 C 876.068 312.211, 863.624 325.903, 854.152 333.099 C 848.559 337.349, 835.197 344.602, 828 347.296 C 826.625 347.811, 824.825 348.566, 824 348.975 C 822.687 349.625, 822.469 360.258, 822.252 434.109 C 822.116 480.524, 821.785 519.081, 821.518 519.791 C 820.915 521.391, 814.535 518.016, 804.729 510.908 C 801.005 508.209, 797.737 506, 797.468 506 C 796.521 506, 778.477 492.268, 776.500 490.043 C 774.552 487.850, 774.487 486.006, 774 419.146 C 773.725 381.391, 773.177 350.004, 772.783 349.398 C 772.388 348.792, 769.985 347.502, 767.443 346.531 C 760.448 343.860, 747.117 336.249, 741.500 331.720 C 735.961 327.253, 725 316, 725 314.780 C 725 314.351, 724.519 314, 723.932 314 C 721.209 314, 733.771 327.551, 742.409 333.933 C 750.262 339.734, 764.134 347.651, 767.894 348.477 C 771.379 349.242, 772.225 350.227, 772.564 353.919 C 772.695 355.339, 772.846 386.069, 772.901 422.208 L 773 487.916 776.750 491.708 C 781.328 496.337, 785.764 500.004, 789.200 502 C 790.620 502.825, 792.844 504.283, 794.141 505.241 C 815.490 520.996, 821.851 524.669, 823.413 522.141 C 823.705 521.669, 823.966 486.681, 823.993 444.391 C 824.020 402.101, 824.320 363.599, 824.659 358.831 L 825.275 350.162 831.955 348.014 C 858.735 339.404, 888.547 305.289, 894.014 277 C 895.981 266.823, 896.228 264.533, 896.337 255.500 C 896.445 246.521, 893.411 232.015, 889.435 222.498 C 888.611 220.526, 888.202 218.482, 888.527 217.956 C 888.852 217.430, 888.721 217, 888.236 217 C 887.751 217, 886.344 215.088, 885.110 212.750 C 883.875 210.412, 881.757 206.925, 880.403 205 C 876.340 199.223, 865.577 187.139, 864.430 187.067 C 863.842 187.030, 862.382 185.875, 861.187 184.500 C 859.991 183.125, 858.503 182, 857.879 182 C 857.256 182, 859.570 184.588, 863.022 187.750 M 426.924 346.121 C 431.557 347.188, 437.987 349.127, 441.213 350.430 C 444.439 351.733, 446.604 352.228, 446.025 351.530 C 445.446 350.832, 443.066 349.595, 440.736 348.782 C 429.401 344.823, 426.195 343.997, 422.500 344.085 C 419.178 344.165, 419.928 344.510, 426.924 346.121 M 1218 345.739 C 1229.139 350.865, 1233.434 353.189, 1240.335 357.825 C 1244.551 360.657, 1248 362.563, 1248 362.060 C 1248 361.010, 1243.154 357, 1241.885 357 C 1241.419 357, 1238.492 355.371, 1235.379 353.379 C 1227.737 348.491, 1218.513 343.986, 1216.306 344.064 C 1215.193 344.103, 1215.842 344.746, 1218 345.739 M 456.500 358.176 C 463.023 362.918, 481 382.078, 481 384.288 C 481 384.785, 481.888 386.438, 482.973 387.962 C 484.058 389.487, 486.288 394.217, 487.927 398.474 C 493.603 413.213, 494.003 435.524, 488.922 454 C 487.788 458.125, 486.639 464.425, 486.369 468 L 485.879 474.500 495.939 483.821 C 501.473 488.948, 506 492.732, 506 492.231 C 506 491.730, 501.906 487.535, 496.902 482.910 L 487.805 474.500 488.330 467.190 C 488.619 463.169, 489.279 459.344, 489.797 458.690 C 490.315 458.035, 491.013 455.475, 491.348 453 C 491.683 450.525, 492.393 446.118, 492.925 443.208 C 494.058 437.014, 494.478 417.840, 493.577 413.500 C 493.234 411.850, 492.483 408.250, 491.907 405.500 C 491.332 402.750, 490.467 399.600, 489.985 398.500 C 489.503 397.400, 488.170 394.355, 487.022 391.733 C 483.936 384.685, 479.719 378.413, 473.258 371.258 C 467.253 364.609, 458.932 357.761, 455.500 356.645 C 454.233 356.233, 454.600 356.794, 456.500 358.176 M 1249 363.716 C 1249 364.109, 1250.976 366.472, 1253.391 368.966 C 1268.709 384.782, 1279.342 413.787, 1277.417 434.500 C 1276.816 440.969, 1273.771 453.351, 1271.023 460.500 C 1269.247 465.120, 1263.124 476.894, 1260.686 480.378 C 1255.768 487.403, 1238.334 503, 1235.399 503 C 1234.991 503, 1233.947 503.632, 1233.079 504.405 C 1231.386 505.912, 1221.360 510.229, 1214 512.619 C 1199.811 517.229, 1169.344 516.042, 1156.349 510.374 C 1154.616 509.618, 1151.468 509, 1149.354 509 C 1144.855 509, 1154.545 499.799, 1059.253 594.550 C 1023.367 630.232, 992.992 659.976, 991.753 660.648 C 989.164 662.051, 987.662 661.313, 979.744 654.747 C 977.128 652.578, 975.241 651.410, 975.552 652.152 C 975.863 652.893, 977.903 654.850, 980.086 656.500 C 982.268 658.150, 984.626 660.003, 985.324 660.618 C 989.859 664.612, 993.873 662.847, 1004.187 652.323 C 1017.257 638.986, 1118.693 538.358, 1127.522 529.970 C 1132.460 525.279, 1138.306 519.389, 1140.514 516.882 C 1146.229 510.391, 1148.349 509.435, 1152.868 511.309 C 1164.251 516.031, 1173.082 517.481, 1190.500 517.491 C 1206.376 517.499, 1208.006 517.323, 1215.149 514.822 C 1237.896 506.858, 1254.807 493.954, 1265.434 476.451 C 1268.088 472.078, 1270.256 468.275, 1270.250 468 C 1270.237 467.371, 1271.238 464.813, 1273.896 458.685 C 1278.583 447.879, 1280.774 425.410, 1278.119 415.372 C 1277.555 413.242, 1276.894 410.349, 1276.648 408.942 C 1275.965 405.024, 1270.833 391.015, 1269.861 390.414 C 1269.387 390.121, 1269 389.195, 1269 388.354 C 1269 386.295, 1259.564 372.525, 1254.544 367.258 C 1250.695 363.219, 1249 362.137, 1249 363.716 M 1105.030 467.316 C 1104.981 471.888, 1103.474 473.821, 1088.721 488.248 C 1080.989 495.809, 1074.956 502.290, 1075.316 502.649 C 1076.272 503.605, 1104.587 474.412, 1105.990 471.024 C 1106.844 468.962, 1106.881 467.630, 1106.121 466.324 C 1105.192 464.725, 1105.057 464.847, 1105.030 467.316 M 336.275 480.037 C 337.768 483.129, 348.211 495.122, 348.852 494.481 C 349.104 494.229, 347.104 491.639, 344.406 488.727 C 341.708 485.815, 338.499 482.097, 337.275 480.466 C 335.362 477.916, 335.222 477.856, 336.275 480.037 M 507 494.207 C 507.929 495.521, 539.420 527.123, 549.992 537.350 C 555.762 542.932, 559.366 546.150, 558.001 544.500 C 554.015 539.683, 504.929 491.279, 507 494.207 M 350 495.819 C 350 496.253, 353.038 498.896, 356.750 501.693 C 372.631 513.656, 392.350 519.038, 415 517.591 C 423.432 517.053, 432.638 515.013, 435.500 513.049 C 436.577 512.310, 440.547 511.746, 445.750 511.595 C 447.538 511.543, 448.853 511.050, 448.673 510.500 C 448.183 509.005, 441.408 508.711, 438.861 510.075 C 435.480 511.884, 426.449 513.911, 417.067 514.966 C 405.284 516.292, 385.269 514.326, 377.500 511.081 C 369.424 507.708, 359.674 502.435, 355.250 499.049 C 352.363 496.839, 350 495.386, 350 495.819 M 1061.327 515.568 C 1054.988 521.930, 1050.078 527.411, 1050.415 527.748 C 1050.752 528.086, 1055.635 523.653, 1061.264 517.898 C 1072.366 506.549, 1074.619 504, 1073.548 504 C 1073.165 504, 1067.665 509.205, 1061.327 515.568 M 1037 541.106 C 1030.675 547.738, 1025.359 553.549, 1025.187 554.020 C 1025.015 554.491, 1030.303 549.336, 1036.937 542.564 C 1047.301 531.986, 1049.990 528.904, 1048.750 529.024 C 1048.612 529.038, 1043.325 534.475, 1037 541.106 M 739.774 544.923 C 741.575 546.065, 743.316 547, 743.643 547 C 744.312 547, 754.172 554.665, 760.402 560.028 C 766.578 565.346, 768.368 566.617, 767.913 565.364 C 766.735 562.121, 743.798 544.784, 739 543.509 C 736.874 542.945, 736.990 543.156, 739.774 544.923 M 571 557.345 C 571 557.627, 571.614 558.452, 572.365 559.179 C 584.245 570.676, 593.532 579.407, 597.888 583.175 L 603.277 587.835 603.719 615.167 C 603.962 630.200, 603.859 646.212, 603.491 650.750 C 602.859 658.530, 602.688 659, 600.492 659 C 598.008 659, 594.139 655.918, 581.760 644.077 C 577.492 639.994, 574 636.954, 574 637.321 C 574 638.508, 593.076 657.076, 596.340 659.066 C 599.931 661.255, 604.561 661.611, 605.247 659.750 C 605.501 659.063, 605.661 642.381, 605.604 622.680 C 605.506 588.792, 605.399 586.803, 603.630 585.813 C 601.811 584.795, 595.261 578.831, 580.223 564.500 C 573.338 557.939, 571 556.125, 571 557.345 M 772.960 570.690 C 775.414 572.786, 782.129 578.550, 787.883 583.500 C 793.636 588.450, 801.754 595.368, 805.922 598.872 C 810.090 602.377, 816.650 608.054, 820.500 611.488 C 826.870 617.170, 834.339 623.492, 852.941 638.950 C 856.549 641.947, 859.950 644.906, 860.500 645.525 C 863.126 648.481, 873 656.119, 873 655.194 C 873 654.617, 871.817 653.214, 870.370 652.077 C 868.924 650.939, 865.274 647.733, 862.259 644.952 C 859.244 642.171, 854.250 638.007, 851.161 635.698 C 848.072 633.389, 843.060 629.184, 840.023 626.354 C 836.985 623.524, 830.675 617.965, 826 614.001 C 821.325 610.037, 814.575 604.208, 811 601.046 C 807.425 597.885, 800.450 591.988, 795.500 587.943 C 790.550 583.897, 783.952 578.317, 780.838 575.544 C 777.725 572.770, 773.675 569.686, 771.838 568.690 C 768.883 567.088, 769.011 567.317, 772.960 570.690 M 990.921 587.797 C 984.552 594.233, 978.309 601.075, 977.047 603 C 974.949 606.201, 975.123 606.116, 979.084 602 C 981.467 599.525, 988.134 592.663, 993.900 586.750 C 999.667 580.837, 1003.961 576.021, 1003.442 576.047 C 1002.924 576.072, 997.289 581.360, 990.921 587.797 M 527.804 590.500 C 528.361 591.600, 529.870 593.419, 531.158 594.541 C 532.446 595.664, 536.156 599.580, 539.402 603.243 C 542.649 606.906, 546.024 610.177, 546.902 610.513 C 547.781 610.848, 547.085 609.633, 545.355 607.811 C 532.440 594.212, 526.936 588.783, 527.804 590.500 M 968.024 612.475 C 965.050 615.487, 962.844 618.178, 963.122 618.455 C 963.578 618.911, 967.303 615.210, 972.405 609.232 C 975.871 605.171, 973.517 606.914, 968.024 612.475 M 553.538 618.075 C 556.267 620.867, 559.400 623.619, 560.500 624.192 C 561.600 624.765, 559.800 622.488, 556.500 619.133 C 553.200 615.777, 550.067 613.024, 549.538 613.016 C 549.008 613.007, 550.808 615.284, 553.538 618.075 M 953.116 629.615 C 953.007 631.610, 963.954 643.313, 971.250 649.001 C 976.228 652.882, 974.115 649.275, 968.812 644.839 C 960.103 637.555, 954.250 631.602, 953.728 629.500 C 953.254 627.590, 953.227 627.595, 953.116 629.615 M 664.360 649 C 664.360 654.225, 664.529 656.362, 664.735 653.750 C 664.941 651.138, 664.941 646.862, 664.735 644.250 C 664.529 641.638, 664.360 643.775, 664.360 649 M 874.550 657.879 C 875.072 658.362, 880 662.527, 885.500 667.133 C 891 671.740, 896.571 676.407, 897.879 677.504 C 899.187 678.602, 903.462 682.259, 907.379 685.632 C 922.955 699.044, 932.524 706.770, 932.997 706.317 C 933.457 705.875, 929.777 702.294, 923.937 697.500 C 922.597 696.399, 918.350 692.866, 914.500 689.649 C 910.650 686.431, 906.375 682.874, 905 681.745 C 900.550 678.090, 889.514 668.547, 889 667.909 C 886.862 665.256, 876.376 657, 875.144 657 C 874.203 657, 873.971 657.343, 874.550 657.879 M 665.389 712.500 C 665.390 719.650, 665.550 722.444, 665.742 718.708 C 665.935 714.973, 665.934 709.123, 665.739 705.708 C 665.545 702.294, 665.387 705.350, 665.389 712.500 M 934 708 C 934 708.550, 934.350 709, 934.777 709 C 935.205 709, 937.117 710.440, 939.027 712.200 C 945.989 718.614, 959.780 730.656, 967.428 737 C 987.757 753.862, 1003.698 769.961, 1008.324 778.304 C 1013.800 788.177, 1015.333 794.917, 1014.511 805.492 C 1013.502 818.468, 1011.337 824.358, 1002.960 836.917 C 998.647 843.382, 991.566 850.271, 971.521 867.501 C 967.683 870.801, 960.483 877.056, 955.521 881.402 C 950.559 885.748, 942.900 892.454, 938.500 896.305 C 934.100 900.157, 929.757 904.026, 928.849 904.904 C 927.941 905.782, 925.706 907.625, 923.883 909 C 922.059 910.375, 919.869 912.175, 919.014 913 C 918.160 913.825, 913.870 917.587, 909.480 921.360 C 905.091 925.133, 899.025 930.347, 896 932.946 C 886.405 941.190, 865.790 959.129, 857.506 966.442 C 853.109 970.324, 848.159 974.676, 846.506 976.113 C 819.565 999.534, 820.990 998.297, 811.503 1006.500 C 807.686 1009.800, 803.224 1013.625, 801.586 1015 C 799.948 1016.375, 796.783 1019.097, 794.554 1021.050 C 790.495 1024.605, 769.957 1041.858, 763.068 1047.500 C 761.054 1049.150, 758.077 1051.768, 756.453 1053.318 C 754.829 1054.867, 751.925 1057.017, 750 1058.093 C 748.075 1059.170, 745.069 1060.913, 743.320 1061.966 C 737.372 1065.548, 730.173 1067.002, 718.568 1066.965 C 710.863 1066.940, 706.740 1066.495, 705 1065.500 C 703.625 1064.714, 701.841 1064.055, 701.036 1064.035 C 699.750 1064.004, 699.750 1064.166, 701.036 1065.364 C 702.970 1067.166, 712.818 1069.004, 720.417 1068.983 C 727.205 1068.963, 739.826 1066.574, 741.387 1065.013 C 741.944 1064.456, 743.017 1064, 743.771 1064 C 744.526 1064, 745.770 1063.438, 746.537 1062.750 C 749.632 1059.974, 750.738 1059.217, 752.577 1058.615 C 754.500 1057.985, 759.094 1054.097, 768.500 1045.139 C 771.250 1042.520, 775.075 1039.302, 777 1037.987 C 778.925 1036.672, 780.725 1035.347, 781 1035.042 C 781.275 1034.737, 784.425 1032.015, 788 1028.994 C 791.575 1025.972, 794.950 1022.947, 795.500 1022.270 C 796.050 1021.594, 797.989 1019.952, 799.808 1018.621 C 803.776 1015.718, 812.296 1008.407, 819.930 1001.353 C 822.993 998.521, 828.252 994.017, 831.615 991.342 C 834.979 988.668, 839.761 984.684, 842.243 982.490 C 844.724 980.295, 851.616 974.225, 857.558 969 C 863.500 963.775, 873.342 955.080, 879.430 949.678 C 892.496 938.086, 888.737 941.342, 918.500 915.834 C 931.700 904.521, 943.822 893.856, 945.437 892.133 C 947.052 890.410, 948.703 889, 949.106 889 C 949.508 889, 951.561 887.484, 953.668 885.631 C 955.776 883.777, 962.040 878.265, 967.589 873.381 C 973.137 868.496, 979.887 862.719, 982.589 860.542 C 997.717 848.349, 1009.754 832.697, 1014.039 819.643 C 1016.525 812.072, 1016.787 794.820, 1014.500 789.346 C 1013.675 787.371, 1013 785.082, 1013 784.259 C 1013 778.423, 995.284 758.736, 974.523 741.500 C 971.210 738.750, 967.825 735.777, 967 734.893 C 966.175 734.010, 963.285 731.535, 960.578 729.393 C 957.871 727.252, 953.821 723.772, 951.578 721.661 C 944.178 714.693, 935.289 707, 934.639 707 C 934.288 707, 934 707.450, 934 708 M 264.555 708.911 C 264.245 709.413, 265.906 710.128, 268.246 710.501 C 280.744 712.493, 299.500 721.866, 306.616 729.677 C 307.780 730.955, 309.130 732.022, 309.616 732.048 C 311.735 732.162, 323.975 748.878, 329.074 758.620 C 332.140 764.477, 335.488 769.884, 336.515 770.635 C 338.061 771.765, 354.255 772, 430.632 772 C 484.965 772, 523.113 771.626, 523.444 771.090 C 523.781 770.546, 486.581 770.172, 430.939 770.159 C 361.861 770.144, 337.511 769.839, 336.474 768.979 C 335.706 768.341, 334.782 766.848, 334.421 765.660 C 329.960 750.973, 314.834 732.291, 298.292 721.035 C 291.543 716.442, 281.966 712, 278.814 712 C 277.907 712, 275.066 711.100, 272.500 710 C 267.367 707.800, 265.408 707.531, 264.555 708.911 M 1373 712.190 C 1374.375 712.783, 1377.875 714.333, 1380.777 715.634 C 1383.680 716.935, 1386.323 718, 1386.650 718 C 1387.906 718, 1400.747 727.645, 1405.897 732.457 C 1408.866 735.231, 1411.116 736.982, 1410.897 736.350 C 1410.289 734.588, 1401.049 725, 1399.960 725 C 1399.432 725, 1399 724.550, 1399 724 C 1399 723.450, 1398.494 723, 1397.876 723 C 1397.258 723, 1394.057 721.200, 1390.762 719 C 1387.468 716.800, 1384.351 715, 1383.836 715 C 1383.322 715, 1381.686 714.389, 1380.200 713.643 C 1378.715 712.896, 1375.925 712.021, 1374 711.699 C 1370.842 711.169, 1370.744 711.217, 1373 712.190 M 1412 737.511 C 1412 737.984, 1413.715 740.425, 1415.812 742.936 C 1427.816 757.310, 1433.116 769.796, 1436.048 790.611 C 1437.649 801.979, 1435.590 819.083, 1431.424 829.027 C 1426.206 841.483, 1423.182 847.604, 1421.597 848.919 C 1420.719 849.648, 1420 850.810, 1420 851.501 C 1420 853.641, 1403.828 869.431, 1397.500 873.471 C 1389.114 878.824, 1378.902 883.829, 1370.579 886.664 C 1360.819 889.990, 1337.630 891.064, 1328.169 888.629 C 1321.512 886.916, 1318.222 886.555, 1319.326 887.659 C 1321.321 889.654, 1337.155 891.882, 1347 891.554 C 1356.583 891.234, 1372.436 888.386, 1377.500 886.074 C 1378.600 885.572, 1382.650 883.726, 1386.500 881.972 C 1390.350 880.218, 1395.585 877.257, 1398.134 875.391 C 1400.683 873.526, 1402.970 872, 1403.217 872 C 1404.047 872, 1417.174 858.533, 1419.300 855.500 C 1420.457 853.850, 1421.650 852.275, 1421.952 852 C 1424.658 849.531, 1432.891 831.768, 1435.724 822.285 C 1437.926 814.916, 1438.358 811.486, 1438.405 801 C 1438.474 785.680, 1437.416 779.909, 1432.451 768.500 C 1431.732 766.850, 1430.384 763.258, 1429.454 760.518 C 1428.524 757.778, 1425.383 752.378, 1422.473 748.518 C 1417.010 741.270, 1412 736.005, 1412 737.511 M 665 879.500 C 665 948.708, 665.250 1005.084, 665.555 1004.778 C 666.284 1004.050, 666.288 754.955, 665.559 754.226 C 665.252 753.918, 665 810.292, 665 879.500 M 1229.500 769.978 C 1205.455 770.396, 1201.367 770.649, 1208.904 771.250 C 1214.076 771.663, 1227.183 772, 1238.031 772 C 1254.344 772, 1257.970 771.741, 1259 770.500 C 1259.685 769.675, 1260.077 769.102, 1259.872 769.228 C 1259.668 769.353, 1246 769.690, 1229.500 769.978 M 536.332 770.649 C 536.789 771.117, 549.389 771.737, 564.332 772.027 C 583.275 772.395, 592.174 772.932, 593.727 773.800 C 598.073 776.231, 598.454 778.354, 598.831 802.250 L 599.190 825 469.345 825.015 C 397.930 825.024, 338.935 825.389, 338.244 825.828 C 337.553 826.267, 334.694 831.097, 331.890 836.563 C 329.086 842.028, 326.163 847.210, 325.396 848.079 C 324.628 848.947, 324 850.007, 324 850.434 C 324 850.862, 322.988 852.457, 321.750 853.980 C 320.512 855.503, 318.600 858.006, 317.500 859.544 C 313.297 865.417, 300.703 874.976, 290.625 879.942 C 276.842 886.732, 267.316 889.182, 252.500 889.747 C 241.740 890.156, 238.066 889.813, 227.500 887.409 C 221.372 886.015, 226.085 888.222, 233.160 890.059 C 250.750 894.628, 273.278 891.397, 293 881.479 C 310.137 872.860, 324.034 857.766, 334.412 836.500 C 336.559 832.100, 338.507 828.275, 338.741 828 C 338.975 827.725, 397.966 827.275, 469.833 827 L 600.500 826.500 600.500 801.903 C 600.500 774.731, 600.563 775.018, 594 772.173 C 591.244 770.978, 584.652 770.564, 563 770.227 C 547.875 769.991, 535.874 770.181, 536.332 770.649 M 1082.550 770.919 C 1082.238 771.425, 1081.943 783.859, 1081.896 798.552 C 1081.828 819.907, 1082.081 825.436, 1083.155 826.117 C 1083.895 826.586, 1123.313 826.976, 1170.750 826.985 C 1255.656 827, 1257.031 827.031, 1259 829 C 1260.100 830.100, 1261 831.845, 1261 832.878 C 1261 833.910, 1261.759 835.373, 1262.687 836.128 C 1264.189 837.349, 1264.284 837.281, 1263.552 835.500 C 1263.100 834.400, 1262.199 832.046, 1261.550 830.269 C 1260.901 828.491, 1260.025 826.691, 1259.602 826.269 C 1259.180 825.846, 1219.384 825.275, 1171.167 825 L 1083.500 824.500 1083.783 799.500 C 1083.939 785.750, 1084.285 773.487, 1084.552 772.250 C 1085.031 770.035, 1083.660 769.124, 1082.550 770.919 M 161.554 784.641 C 160.691 788.078, 160.863 803.370, 161.822 808.500 C 162.305 811.085, 162.597 807.106, 162.649 797.250 C 162.693 788.862, 162.613 782, 162.473 782 C 162.332 782, 161.919 783.189, 161.554 784.641 M 1275.055 857.077 C 1278.697 862.192, 1288.205 871.505, 1293.250 874.900 C 1300.267 879.622, 1298.931 877.270, 1291.354 871.563 C 1287.749 868.847, 1282.482 863.815, 1279.650 860.380 C 1274.313 853.908, 1271.210 851.677, 1275.055 857.077 M 181 855.834 C 181 857.771, 194.621 871.177, 201.161 875.676 C 209.123 881.155, 221.621 887.324, 223.395 886.651 C 224.003 886.421, 223.600 885.939, 222.500 885.580 C 218.979 884.431, 205.824 877.585, 202.169 875 C 200.225 873.625, 194.667 868.582, 189.817 863.794 C 184.968 859.006, 181 855.424, 181 855.834 M 1300.500 879.575 C 1301.600 880.407, 1303.513 881.341, 1304.750 881.652 C 1305.987 881.963, 1307 882.618, 1307 883.108 C 1307 883.599, 1307.814 884, 1308.809 884 C 1309.804 884, 1311.491 884.661, 1312.559 885.468 C 1313.626 886.276, 1315.400 886.942, 1316.500 886.948 C 1317.600 886.954, 1314.282 884.943, 1309.126 882.480 C 1299.282 877.775, 1297.184 877.069, 1300.500 879.575 M 983 945.846 C 983 946.350, 984.462 947.901, 986.250 949.292 C 988.038 950.682, 995.839 958.048, 1003.587 965.660 C 1018.404 980.217, 1042.396 1003.030, 1052.450 1012.120 C 1062.975 1021.638, 1070.922 1029.309, 1100.948 1058.940 C 1117.144 1074.923, 1130.860 1088, 1131.427 1088 C 1132.578 1088, 1077.430 1033.208, 1061.730 1018.754 C 1056.202 1013.664, 1048.983 1007.025, 1045.688 1004 C 1033.738 993.030, 1019.371 979.173, 1003.599 963.406 C 988.567 948.380, 983 943.634, 983 945.846 M 595.441 953.468 C 594.374 954.276, 593.972 954.951, 594.550 954.968 C 595.128 954.986, 596.088 954.512, 596.685 953.915 C 597.281 953.319, 598.834 952.981, 600.135 953.165 C 602.378 953.483, 602.542 954.017, 603.304 963.500 C 603.746 969, 603.899 983.019, 603.644 994.653 C 603.244 1012.885, 602.909 1016.406, 601.217 1020.153 C 599.764 1023.372, 585.236 1038.539, 545.253 1078.582 C 515.552 1108.327, 490.019 1134.526, 488.513 1136.802 C 485.390 1141.520, 485.441 1143.373, 489.001 1154.500 C 490.980 1160.683, 491.256 1163.776, 491.370 1181 L 491.500 1200.500 488.079 1210 C 482.030 1226.793, 472.157 1240.107, 459.297 1248.812 C 450.776 1254.580, 438.059 1260.474, 428.542 1263.067 C 421.505 1264.985, 418.899 1265.173, 406.042 1264.697 C 391.073 1264.143, 383.664 1262.654, 373.773 1258.213 C 367.100 1255.217, 358.174 1249.428, 353.625 1245.147 C 351.494 1243.141, 349.919 1241.959, 350.125 1242.519 C 350.712 1244.116, 360.584 1253, 361.770 1253 C 362.355 1253, 362.983 1253.350, 363.167 1253.778 C 364.222 1256.242, 383.533 1263.664, 397.264 1266.883 C 407.857 1269.366, 425.528 1267.511, 437.500 1262.659 C 447.382 1258.653, 451.472 1256.811, 452 1256.128 C 452.275 1255.772, 454.200 1254.588, 456.279 1253.498 C 458.357 1252.407, 461.161 1250.611, 462.510 1249.507 C 463.859 1248.403, 466.090 1246.696, 467.468 1245.713 C 471.907 1242.548, 481.083 1230.093, 485.545 1221.176 C 491.005 1210.264, 492.848 1202.229, 493.567 1186.192 C 494.133 1173.576, 492.936 1163.416, 488.880 1146.393 L 487.664 1141.285 492.282 1135.393 C 494.822 1132.152, 520.608 1105.875, 549.584 1077 C 581.380 1045.314, 602.899 1023.112, 603.860 1021 C 605.195 1018.069, 605.479 1012.544, 605.607 987 C 605.691 970.225, 605.378 955.487, 604.912 954.250 C 604.266 952.535, 603.270 952, 600.723 952 C 598.886 952, 596.509 952.661, 595.441 953.468 M 589.451 957.827 C 587.781 959.297, 585.534 961.617, 584.457 962.983 C 582.507 965.457, 582.507 965.460, 584.499 963.983 C 588.333 961.139, 593.437 956.103, 592.964 955.630 C 592.702 955.368, 591.121 956.357, 589.451 957.827 M 961.765 967.750 C 960.849 969.263, 958.952 971.807, 957.550 973.406 C 956.147 975.004, 955.010 976.804, 955.022 977.406 C 955.047 978.611, 957.478 975.765, 961.989 969.250 C 963.608 966.913, 964.595 965, 964.182 965 C 963.769 965, 962.682 966.237, 961.765 967.750 M 570.564 976.693 C 564.782 982.573, 560.195 987.529, 560.371 987.704 C 560.706 988.040, 567.490 981.448, 576.790 971.750 C 579.823 968.587, 582.028 966, 581.691 966 C 581.353 966, 576.346 970.812, 570.564 976.693 M 964.461 996.040 C 968.840 1000.693, 974.690 1006.797, 977.461 1009.604 C 980.233 1012.411, 986.619 1018.936, 991.653 1024.104 C 996.686 1029.272, 1002.086 1034.613, 1003.653 1035.974 C 1006.062 1038.066, 997.564 1028.813, 989 1020.018 C 987.625 1018.605, 981.325 1012.077, 975 1005.509 C 968.675 998.942, 961.925 992.221, 960 990.574 C 958.075 988.928, 960.083 991.387, 964.461 996.040 M 1007.686 1040.375 C 1009.901 1044.255, 1064.882 1100.090, 1075.250 1108.989 C 1083.257 1115.861, 1078.214 1110.429, 1059.338 1091.852 C 1033.895 1066.810, 1034.653 1067.569, 1019.686 1052.150 C 1012.639 1044.890, 1007.239 1039.591, 1007.686 1040.375 M 683.103 1051.500 C 686.219 1056.070, 694.458 1062.875, 695.552 1061.782 C 695.821 1061.513, 694.202 1060.076, 691.955 1058.589 C 689.708 1057.102, 686.490 1054.448, 684.804 1052.692 C 683.118 1050.937, 682.353 1050.400, 683.103 1051.500 M 819 1081.021 C 817.692 1081.848, 817.706 1081.971, 819.108 1081.985 C 820.338 1081.996, 820.866 1083.443, 821.358 1088.147 C 821.711 1091.527, 822 1130.416, 822 1174.565 C 822 1218.714, 822.273 1255.548, 822.607 1256.418 C 822.941 1257.288, 824.061 1258, 825.096 1258 C 828.691 1258, 848.557 1266.415, 856.467 1271.288 C 860.645 1273.862, 876.860 1290.769, 880.182 1296.015 C 889.038 1309.999, 894.760 1333.075, 893.400 1349.323 C 892.266 1362.864, 883.935 1385.455, 876.231 1395.875 C 858.593 1419.732, 827.411 1435.995, 799.292 1436.002 C 791.656 1436.004, 775.455 1433.686, 771.500 1432.026 C 770.400 1431.564, 767.514 1430.443, 765.087 1429.536 C 748.722 1423.417, 731.093 1410.086, 723.588 1398.156 C 722.085 1395.766, 720.630 1394.037, 720.354 1394.313 C 719.615 1395.052, 725.373 1402.719, 731.311 1408.902 C 741.368 1419.374, 755.577 1428.204, 770 1432.945 C 781.938 1436.869, 786.037 1437.444, 802 1437.430 C 814.426 1437.419, 816.316 1437.160, 825.750 1434.180 C 831.388 1432.399, 836 1430.478, 836 1429.912 C 836 1429.345, 836.450 1429.160, 837 1429.500 C 837.550 1429.840, 838 1429.641, 838 1429.059 C 838 1428.477, 838.624 1428, 839.386 1428 C 840.847 1428, 842.133 1427.364, 851.016 1422.249 C 857.325 1418.617, 875.802 1400.855, 879.722 1394.655 C 883.012 1389.451, 889.060 1377.285, 889.505 1374.976 C 889.688 1374.022, 890.504 1371.275, 891.316 1368.871 C 892.129 1366.467, 893.532 1359.839, 894.435 1354.141 C 895.748 1345.856, 895.866 1342.353, 895.025 1336.641 C 892.988 1322.792, 891.106 1313.706, 890.059 1312.659 C 889.476 1312.076, 888.998 1310.678, 888.996 1309.550 C 888.994 1308.423, 888.009 1305.925, 886.807 1304 C 885.605 1302.075, 884.532 1300.009, 884.422 1299.408 C 884.038 1297.298, 874.528 1285.444, 869.043 1280.238 C 863.059 1274.558, 852.381 1266.413, 851.217 1266.640 C 850.823 1266.717, 849.348 1265.960, 847.939 1264.957 C 846.530 1263.954, 844.055 1262.816, 842.439 1262.429 C 840.823 1262.041, 839.050 1261.388, 838.500 1260.977 C 837.950 1260.566, 834.688 1259.403, 831.250 1258.393 C 827.249 1257.218, 824.961 1256.007, 824.891 1255.028 C 824.830 1254.188, 824.820 1231.675, 824.868 1205 C 825 1131.853, 823.875 1083.444, 822 1081.571 C 820.967 1080.539, 820.033 1080.368, 819 1081.021 M 807.667 1088.024 C 803.359 1091.311, 800.261 1094, 800.783 1094 C 801.690 1094, 806.149 1090.838, 808.723 1088.369 C 809.396 1087.724, 811.534 1086.215, 813.473 1085.016 C 815.413 1083.818, 817 1082.649, 817 1082.418 C 817 1081.258, 814.817 1082.569, 807.667 1088.024 M 1137.513 1094.830 C 1142.508 1099.694, 1144.022 1100.623, 1146.648 1100.437 C 1148.380 1100.314, 1150.579 1099.775, 1151.535 1099.240 C 1152.783 1098.542, 1151.893 1098.394, 1148.387 1098.715 C 1143.615 1099.153, 1143.383 1099.044, 1138.538 1094.082 C 1135.808 1091.287, 1133.114 1089, 1132.550 1089 C 1131.987 1089, 1134.220 1091.624, 1137.513 1094.830 M 432.444 1096.091 C 432.135 1096.591, 432.979 1097, 434.319 1097 C 435.659 1097, 438.371 1097.675, 440.346 1098.500 C 445.486 1100.648, 449.123 1100.360, 453 1097.500 C 456.553 1094.879, 455.971 1093.931, 452.362 1096.459 C 449.573 1098.413, 444.621 1098.489, 438.253 1096.676 C 435.245 1095.820, 432.766 1095.570, 432.444 1096.091 M 1225 1100.455 C 1225 1100.706, 1228.083 1102.742, 1231.852 1104.981 C 1247.353 1114.190, 1263.514 1135.520, 1268.614 1153.500 C 1275.549 1177.952, 1272.311 1202.667, 1259.222 1225.183 C 1251.813 1237.929, 1233.820 1252.580, 1217.750 1258.952 C 1214.588 1260.206, 1212 1261.608, 1212 1262.068 C 1212 1263.099, 1220.891 1260.509, 1222.346 1259.054 C 1222.926 1258.474, 1224.118 1258, 1224.996 1258 C 1227.632 1258, 1241.047 1248.631, 1248.122 1241.848 C 1254.118 1236.100, 1261 1227.302, 1261 1225.384 C 1261 1224.969, 1261.912 1223.658, 1263.027 1222.471 C 1264.142 1221.284, 1265.250 1219.297, 1265.490 1218.054 C 1265.729 1216.812, 1266.454 1215.157, 1267.102 1214.377 C 1267.750 1213.597, 1268.395 1211.903, 1268.537 1210.614 C 1268.679 1209.324, 1269.691 1205.621, 1270.787 1202.385 C 1273.397 1194.674, 1275.004 1185.694, 1274.983 1178.940 C 1274.959 1171.693, 1272.470 1156.824, 1270.692 1153.313 C 1269.908 1151.766, 1268.973 1148.875, 1268.614 1146.888 C 1268.255 1144.902, 1266.214 1140.782, 1264.078 1137.733 C 1261.942 1134.684, 1259.915 1131.306, 1259.572 1130.227 C 1259.229 1129.147, 1258.060 1127.460, 1256.974 1126.477 C 1255.889 1125.494, 1255 1124.127, 1255 1123.439 C 1255 1121.351, 1241.697 1109.720, 1233.578 1104.710 C 1226.077 1100.081, 1225 1099.547, 1225 1100.455 M 773.472 1185 C 773.472 1222.125, 773.597 1237.313, 773.750 1218.750 C 773.902 1200.188, 773.902 1169.813, 773.750 1151.250 C 773.597 1132.688, 773.472 1147.875, 773.472 1185 M 1086.013 1118.602 C 1086.006 1119.208, 1089.840 1123.258, 1094.533 1127.602 C 1101.270 1133.837, 1103.361 1136.448, 1104.464 1140 C 1105.856 1144.483, 1105.861 1144.487, 1105.930 1141.096 C 1105.992 1138.088, 1104.836 1136.515, 1096.013 1127.596 C 1090.519 1122.043, 1086.019 1117.996, 1086.013 1118.602 M 1122.007 1238.008 C 1129.382 1246.817, 1141.379 1255.663, 1151.500 1259.756 C 1155.040 1261.187, 1153.891 1260.373, 1144.500 1254.795 C 1140.650 1252.508, 1136.964 1250.156, 1136.310 1249.568 C 1135.655 1248.981, 1133.630 1247.420, 1131.810 1246.101 C 1129.989 1244.781, 1126.495 1241.293, 1124.044 1238.351 C 1121.594 1235.408, 1119.189 1233, 1118.701 1233 C 1118.213 1233, 1119.701 1235.254, 1122.007 1238.008 M 1159 1262.662 C 1159 1264.056, 1172.699 1267.272, 1180.829 1267.786 C 1187.942 1268.236, 1207.291 1265.674, 1210.155 1263.904 C 1213.112 1262.077, 1209.612 1261.856, 1203.286 1263.472 C 1192.845 1266.138, 1172.563 1265.624, 1161.250 1262.407 C 1160.013 1262.055, 1159 1262.170, 1159 1262.662" stroke="none" fill="#32edf4" fill-rule="evenodd"/><path d="M 781.053 162.528 C 772.342 164.104, 758.777 168.831, 759.519 170.031 C 759.802 170.488, 759.506 171.187, 758.862 171.585 C 758.095 172.059, 757.960 171.874, 758.471 171.047 C 759.051 170.108, 758.673 169.969, 756.995 170.502 C 750.139 172.678, 732.366 186.165, 733.639 188.225 C 734.016 188.835, 733.848 189.024, 733.253 188.656 C 730.832 187.160, 716.523 205.637, 711.206 217.123 C 704.897 230.753, 701.995 250.645, 703.887 267.286 C 704.520 272.852, 705.412 277.652, 705.869 277.953 C 707.075 278.746, 709.008 282.649, 708.955 284.184 C 708.930 284.908, 708.292 284.150, 707.536 282.500 C 705.343 277.711, 705.792 281.039, 708.356 288.575 C 710.398 294.576, 713.468 301.078, 717.633 308.221 C 723.038 317.489, 737.446 332.206, 747.250 338.472 C 752.293 341.696, 750.081 339.347, 744.166 335.198 C 738.431 331.175, 735.045 328, 736.489 328 C 736.892 328, 739.310 329.744, 741.861 331.876 C 747.025 336.190, 760.344 343.820, 767.443 346.531 C 769.985 347.502, 772.388 348.792, 772.783 349.398 C 773.177 350.004, 773.725 381.413, 774 419.195 L 774.500 487.890 777.946 491.445 C 779.842 493.400, 780.873 495, 780.239 495 C 779.604 495, 777.829 493.425, 776.293 491.500 L 773.500 488.001 772.989 421.750 L 772.479 355.500 772.239 421.615 C 772.004 486.590, 772.035 487.775, 774.017 490.295 C 775.127 491.705, 777.939 494.334, 780.267 496.137 C 782.816 498.111, 783.742 498.536, 782.595 497.207 C 779.517 493.641, 781.610 494.633, 789.544 500.500 C 793.634 503.525, 797.240 506, 797.557 506 C 798.822 506, 804.923 511.253, 804.718 512.165 C 804.598 512.702, 806.075 514.293, 808 515.700 L 811.500 518.258 808 515.156 C 804.137 511.732, 804.675 510.923, 808.846 513.885 C 815.133 518.350, 821.026 521.096, 821.518 519.791 C 821.785 519.081, 822.116 480.524, 822.252 434.109 C 822.469 360.258, 822.687 349.625, 824 348.975 C 824.825 348.566, 826.625 347.811, 828 347.296 C 835.197 344.602, 848.559 337.349, 854.152 333.099 C 863.624 325.903, 876.068 312.211, 880.103 304.546 C 892.606 280.794, 893.101 279.189, 893.685 260.500 C 893.974 251.283, 893.761 242.804, 893.183 240.500 C 890.356 229.229, 886.917 219.516, 883.644 213.561 C 879.561 206.132, 879.260 205.148, 881.675 207.128 C 883.132 208.322, 883.117 208.143, 881.560 205.750 C 879.500 202.585, 878.834 202.246, 879.594 204.750 C 879.886 205.713, 878.638 204.700, 876.821 202.500 C 875.004 200.300, 870.373 195.350, 866.529 191.500 C 862.686 187.650, 859.526 183.997, 859.506 183.383 C 859.486 182.769, 858.127 181.148, 856.485 179.782 C 852.827 176.737, 848.473 174.339, 849.438 175.900 C 849.817 176.513, 849.454 177, 848.618 177 C 847.793 177, 846.808 176.499, 846.430 175.887 C 846.052 175.274, 843.738 173.887, 841.288 172.803 C 838.838 171.719, 837.051 170.615, 837.317 170.349 C 837.583 170.083, 840.096 171.028, 842.901 172.450 C 845.705 173.871, 848 174.779, 848 174.468 C 848 173.815, 834.670 167.501, 831.125 166.474 C 829.396 165.973, 828.954 166.116, 829.500 167 C 830.062 167.910, 829.406 168.030, 826.875 167.480 C 821.086 166.220, 818.439 164.965, 819.798 164.125 C 820.475 163.707, 811.997 163.457, 800.959 163.571 C 789.921 163.684, 781.111 163.555, 781.382 163.284 C 781.653 163.013, 788.091 162.457, 795.688 162.048 L 809.500 161.304 799 161.242 C 793.225 161.208, 785.149 161.787, 781.053 162.528 M 724.193 315.830 C 727.075 319.866, 734.968 328.365, 735.417 327.916 C 735.681 327.653, 733.445 324.760, 730.448 321.489 C 727.452 318.217, 725 315.194, 725 314.770 C 725 314.347, 724.524 314, 723.943 314 C 723.292 314, 723.388 314.702, 724.193 315.830 M 1175.750 339.728 C 1173.688 339.944, 1171.999 340.431, 1171.997 340.810 C 1171.995 341.190, 1170.533 341.538, 1168.747 341.585 C 1166.961 341.631, 1162.800 342.475, 1159.500 343.459 C 1154.494 344.952, 1153.831 345.397, 1155.500 346.140 C 1157.090 346.848, 1156.932 346.920, 1154.729 346.491 C 1151.760 345.913, 1151.132 346.169, 1140.628 352.252 C 1135.450 355.250, 1134.094 356.465, 1135.128 357.181 C 1136.125 357.871, 1135.935 357.974, 1134.436 357.557 C 1132.812 357.106, 1130.659 358.748, 1124.357 365.242 C 1112.515 377.446, 1104.232 390.454, 1105.604 394.694 C 1106.026 395.997, 1105.928 396.136, 1105.251 395.195 C 1103.917 393.338, 1100.590 402.366, 1100.716 407.500 C 1100.787 410.405, 1100.598 410.953, 1100.026 409.500 C 1099.369 407.831, 1099.095 408.161, 1098.370 411.500 C 1097.192 416.917, 1097.519 445.761, 1098.800 449.500 C 1099.792 452.394, 1099.834 452.412, 1099.990 450 C 1100.137 447.729, 1100.276 447.821, 1101.500 451 C 1102.241 452.925, 1102.854 455.175, 1102.861 456 C 1102.868 456.825, 1102.442 456.422, 1101.915 455.105 C 1099.987 450.285, 1100.054 453.844, 1101.997 459.492 C 1103.099 462.694, 1104 466.550, 1104 468.062 C 1104 470.784, 1099.196 477.579, 1094.667 481.263 C 1092.795 482.787, 1092.760 482.933, 1094.414 482.343 C 1095.875 481.822, 1096.127 481.986, 1095.477 483.037 C 1092.789 487.386, 1089.432 489.658, 1090.729 486.250 C 1091.095 485.288, 1089.862 486.242, 1087.988 488.370 C 1086.115 490.499, 1084.483 492.918, 1084.361 493.746 C 1084.148 495.196, 1076.679 503, 1075.503 503 C 1075.188 503, 1075.451 501.988, 1076.087 500.750 C 1076.724 499.512, 1076.851 498.950, 1076.370 499.500 C 1075.888 500.050, 1073.921 502.296, 1071.997 504.491 C 1068.839 508.094, 1068.788 508.239, 1071.470 505.991 C 1076.374 501.878, 1072.472 506.440, 1061.442 517.717 C 1055.910 523.373, 1050.994 528, 1050.518 528 C 1050.041 528, 1050.729 526.763, 1052.047 525.250 C 1053.365 523.737, 1050.307 526.527, 1045.253 531.448 C 1040.198 536.369, 1036.255 540.588, 1036.490 540.824 C 1036.725 541.059, 1039.636 538.421, 1042.959 534.961 C 1046.281 531.502, 1049 529.027, 1049 529.461 C 1049 529.896, 1043.600 535.763, 1037 542.500 C 1030.400 549.237, 1025 554.481, 1025 554.153 C 1025 553.826, 1027.588 550.934, 1030.750 547.726 C 1033.912 544.519, 1035.825 542.217, 1035 542.611 C 1034.175 543.005, 1027.650 549.393, 1020.500 556.807 C 1013.350 564.221, 1008.063 569.971, 1008.750 569.585 C 1010.630 568.528, 1010.259 569.687, 1007.820 572.492 C 1005.366 575.314, 1003.030 575.960, 1005.078 573.250 C 1005.805 572.288, 1001.811 576, 996.202 581.500 C 990.592 587, 986.002 591.678, 986.001 591.895 C 985.999 592.458, 996.980 582.122, 1000.188 578.542 C 1001.666 576.892, 1003.078 575.757, 1003.325 576.021 C 1003.573 576.284, 997.301 583.215, 989.388 591.421 C 981.474 599.628, 975 605.936, 975 605.438 C 975 604.940, 969.825 609.693, 963.500 616 C 956.330 623.150, 952.008 628.227, 952.022 629.484 C 952.050 631.971, 953.824 634.138, 961.500 641.055 C 964.800 644.029, 966.150 644.949, 964.500 643.100 C 962.850 641.250, 962.036 639.909, 962.690 640.118 C 964.676 640.755, 974 649.103, 974 650.244 C 974 650.830, 972.987 650.453, 971.750 649.405 L 969.500 647.500 971.500 649.864 C 974.957 653.949, 988.041 664.003, 989.809 663.932 C 990.987 663.885, 990.742 663.512, 989 662.700 C 987.625 662.060, 985.950 661.078, 985.277 660.518 C 984.605 659.958, 982.268 658.150, 980.086 656.500 C 977.903 654.850, 975.863 652.893, 975.552 652.152 C 975.241 651.410, 977.128 652.578, 979.744 654.747 C 987.662 661.313, 989.164 662.051, 991.753 660.648 C 992.992 659.976, 1023.367 630.232, 1059.253 594.550 C 1154.545 499.799, 1144.855 509, 1149.354 509 C 1151.468 509, 1154.616 509.618, 1156.349 510.374 C 1169.344 516.042, 1199.811 517.229, 1214 512.619 C 1221.360 510.229, 1231.386 505.912, 1233.079 504.405 C 1233.947 503.632, 1234.991 503, 1235.399 503 C 1238.334 503, 1255.768 487.403, 1260.686 480.378 C 1263.124 476.894, 1269.247 465.120, 1271.023 460.500 C 1273.771 453.351, 1276.816 440.969, 1277.417 434.500 C 1279.349 413.712, 1268.709 384.777, 1253.273 368.846 C 1250.793 366.286, 1249.031 363.758, 1249.358 363.229 C 1249.685 362.700, 1248.951 361.432, 1247.726 360.410 C 1246.502 359.389, 1246.063 359.194, 1246.750 359.977 C 1249.157 362.717, 1247.970 363.215, 1244.750 360.816 C 1237.979 355.770, 1227.855 349.933, 1221.375 347.339 C 1216.164 345.253, 1215.085 344.495, 1216.576 343.967 C 1219.517 342.925, 1209.509 341.193, 1203.743 341.746 C 1199.685 342.135, 1199.075 341.967, 1199.600 340.601 C 1200.141 339.190, 1198.984 339.020, 1189.857 339.168 C 1184.161 339.261, 1177.813 339.513, 1175.750 339.728 M 397 342.656 C 388.480 343.963, 388.099 344.094, 388.652 345.537 C 389.068 346.619, 388.470 346.982, 386.357 346.930 C 383.806 346.867, 383.714 346.759, 385.500 345.919 C 390.422 343.605, 379.578 346.287, 372.930 349.029 C 363.789 352.798, 358.807 355.878, 359.648 357.240 C 360.043 357.878, 359.836 358.017, 359.135 357.584 C 357.604 356.637, 349.809 362.394, 343.291 369.286 C 337.001 375.937, 330.662 385.645, 331.609 387.177 C 331.994 387.800, 331.871 388.039, 331.337 387.708 C 329.982 386.871, 325.219 396.953, 322.710 405.971 C 319.553 417.313, 319.830 439.830, 323.288 453.059 C 325.631 462.017, 333.686 480.070, 335.972 481.482 C 337.165 482.220, 337.349 480.856, 336.250 479.418 C 335.837 478.878, 336.400 479.561, 337.500 480.934 C 338.600 482.308, 341.637 485.741, 344.250 488.563 C 346.863 491.384, 349 494.090, 349 494.575 C 349 495.060, 346.261 492.542, 342.914 488.979 C 339.430 485.270, 338.113 484.210, 339.834 486.500 C 344.489 492.695, 360 506.714, 360 504.726 C 360 504.445, 357.750 502.499, 355 500.402 C 352.250 498.305, 350 496.238, 350 495.810 C 350 495.381, 352.363 496.839, 355.250 499.049 C 359.674 502.435, 369.424 507.708, 377.500 511.081 C 385.269 514.326, 405.284 516.292, 417.067 514.966 C 426.449 513.911, 435.480 511.884, 438.861 510.075 C 441.713 508.548, 448.207 509.080, 448.802 510.889 C 449.118 511.849, 448.833 512.022, 447.880 511.447 C 446.709 510.742, 446.708 510.872, 447.872 512.308 C 449.456 514.261, 451.471 514.613, 450.399 512.750 C 449.981 512.024, 450.061 511.849, 450.590 512.333 C 451.090 512.792, 451.500 513.505, 451.500 513.918 C 451.500 515.161, 464.124 529, 465.258 529 C 465.837 529, 465.456 527.987, 464.412 526.750 C 462.662 524.675, 462.725 524.686, 465.226 526.895 C 466.718 528.213, 467.674 529.719, 467.350 530.243 C 467.026 530.767, 469.162 533.626, 472.096 536.598 C 477.582 542.152, 481.247 544.162, 476.934 539.250 C 475.371 537.470, 475.839 537.716, 478.259 539.946 C 481.896 543.297, 483.513 545.501, 480.500 543 C 479.675 542.315, 479 542.157, 479 542.647 C 479 543.709, 497.401 562.191, 498.051 561.782 C 498.298 561.627, 498.371 561.704, 498.213 561.954 C 498.055 562.204, 507.235 571.726, 518.614 583.114 C 532.807 597.319, 539.781 603.638, 540.825 603.237 C 541.980 602.794, 542.174 603.103, 541.632 604.518 C 541.067 605.989, 543.192 608.666, 551.691 617.191 C 561.471 627.002, 565.318 630.138, 563.417 626.750 C 563.031 626.063, 565.029 627.733, 567.857 630.462 C 572.829 635.260, 574.087 636.790, 572 635.500 C 571.450 635.160, 571 635.256, 571 635.713 C 571 636.170, 574.910 640.359, 579.689 645.022 C 584.469 649.685, 587.731 652.600, 586.939 651.500 C 586.148 650.400, 582.913 646.915, 579.750 643.757 C 571.189 635.205, 572.796 635.494, 581.750 644.116 C 586.013 648.220, 591.240 652.982, 593.366 654.697 C 595.492 656.412, 596.942 658.285, 596.588 658.858 C 595.706 660.284, 599.603 662.223, 602.302 661.699 C 604.312 661.309, 604.286 661.259, 602 661.121 C 600.625 661.038, 598.825 660.533, 598 660 C 596.857 659.261, 597.252 659.027, 599.660 659.015 L 602.820 659 603.491 650.750 C 603.859 646.212, 603.962 630.200, 603.719 615.167 L 603.277 587.835 597.888 583.175 C 593.533 579.408, 584.154 570.590, 572.356 559.169 C 571.600 558.438, 571.186 557.509, 571.435 557.105 C 571.684 556.702, 561.338 545.830, 548.444 532.944 C 535.550 520.059, 525 509.910, 525 510.393 C 525 510.875, 531.871 518.071, 540.269 526.385 C 548.667 534.698, 556.650 542.850, 558.011 544.500 C 561.277 548.463, 543.500 531.235, 523.500 511.057 C 507.223 494.635, 504.489 491.735, 509.064 495.750 C 510.475 496.988, 512 498, 512.454 498 C 512.907 498, 507.845 492.600, 501.205 486 C 494.564 479.400, 488.764 474.001, 488.315 474.002 C 487.867 474.002, 491.669 477.940, 496.764 482.752 C 501.860 487.563, 506.022 491.869, 506.014 492.321 C 506.006 492.773, 501.473 488.948, 495.939 483.821 L 485.879 474.500 486.369 468 C 486.639 464.425, 487.788 458.125, 488.922 454 C 494.003 435.524, 493.603 413.213, 487.927 398.474 C 486.288 394.217, 484.058 389.487, 482.973 387.962 C 481.888 386.438, 481 384.785, 481 384.288 C 481 382.078, 463.023 362.918, 456.500 358.176 C 454.613 356.804, 454.242 356.239, 455.500 356.653 C 456.600 357.014, 458.149 357.803, 458.942 358.405 C 460.041 359.240, 460.202 359.197, 459.618 358.225 C 459.196 357.524, 455.622 355.278, 451.676 353.233 C 442.450 348.454, 442.002 348.292, 445 350.810 C 447.363 352.794, 447.166 352.776, 441.424 350.485 C 438.082 349.152, 431.557 347.188, 426.924 346.121 C 419.527 344.417, 418.988 344.153, 422.500 343.957 L 426.500 343.733 421.500 342.954 C 416.364 342.154, 401.454 341.973, 397 342.656 M 1226.143 347.425 C 1227.459 348.846, 1241.294 357.039, 1241.698 356.635 C 1241.929 356.405, 1239.503 354.649, 1236.309 352.734 C 1229.602 348.713, 1225.216 346.422, 1226.143 347.425 M 494.370 427 C 494.370 432.775, 494.535 435.137, 494.737 432.250 C 494.939 429.363, 494.939 424.637, 494.737 421.750 C 494.535 418.863, 494.370 421.225, 494.370 427 M 1105.030 467.316 C 1104.991 470.993, 1103.560 473.667, 1099.179 478.250 C 1097.207 480.313, 1095.911 482, 1096.299 482 C 1097.580 482, 1104.907 473.638, 1106.055 470.867 C 1106.856 468.933, 1106.875 467.620, 1106.121 466.324 C 1105.192 464.725, 1105.057 464.847, 1105.030 467.316 M 715.500 538.588 C 706.339 540.775, 703.595 541.702, 697.097 544.803 C 691.684 547.388, 687.788 550.260, 682.597 555.494 C 668.846 569.361, 665.326 579.055, 664.077 606.500 C 662.811 634.315, 664.527 1015.461, 665.946 1021.875 C 668.775 1034.653, 680.478 1053.185, 689.500 1059.174 L 692.500 1061.165 689.500 1058.588 C 685.616 1055.250, 686.946 1055.274, 692.021 1058.633 C 696.079 1061.318, 697.197 1062.673, 694.500 1061.638 C 691.539 1060.502, 693.086 1061.877, 697.619 1064.411 C 700.160 1065.831, 701.680 1066.319, 700.997 1065.496 C 699.344 1063.504, 701.513 1063.506, 705 1065.500 C 706.740 1066.495, 710.863 1066.940, 718.568 1066.965 C 730.173 1067.002, 737.372 1065.548, 743.320 1061.966 C 745.069 1060.913, 748.075 1059.170, 750 1058.093 C 751.925 1057.017, 754.829 1054.867, 756.453 1053.318 C 758.077 1051.768, 761.054 1049.150, 763.068 1047.500 C 769.957 1041.858, 790.495 1024.605, 794.554 1021.050 C 796.783 1019.097, 799.948 1016.375, 801.586 1015 C 803.224 1013.625, 807.579 1009.881, 811.265 1006.680 C 815.235 1003.232, 818.443 1001.156, 819.137 1001.585 C 819.888 1002.049, 820.041 1001.875, 819.562 1001.100 C 819.110 1000.369, 819.938 998.926, 821.658 997.447 C 825.730 993.945, 826.904 994.427, 823.437 998.178 C 821.239 1000.557, 821.821 1000.266, 825.750 997.022 C 828.638 994.638, 831 992.463, 831 992.188 C 831 991.914, 830.097 992.507, 828.994 993.506 C 827.890 994.504, 826.743 995.077, 826.445 994.778 C 825.985 994.318, 832.178 988.555, 846.506 976.110 C 848.159 974.675, 853.109 970.324, 857.506 966.442 C 865.790 959.129, 886.405 941.190, 896 932.946 C 899.025 930.347, 905.091 925.133, 909.480 921.360 C 913.870 917.587, 918.160 913.825, 919.014 913 C 919.869 912.175, 922.059 910.375, 923.883 909 C 925.706 907.625, 927.941 905.782, 928.849 904.904 C 929.757 904.026, 934.100 900.157, 938.500 896.305 C 942.900 892.454, 950.559 885.748, 955.521 881.402 C 960.483 877.056, 967.683 870.801, 971.521 867.501 C 996.735 845.828, 1001.823 840.357, 1008.795 827.417 C 1014.314 817.174, 1016.410 800.673, 1013.485 790.500 C 1011.668 784.178, 1005.950 773.034, 1003.467 770.973 C 1002.660 770.303, 1002 769.282, 1002 768.703 C 1002 768.125, 1003.210 768.742, 1004.688 770.076 C 1006.638 771.834, 1006.373 771.248, 1003.722 767.939 C 999.421 762.569, 979.848 744.342, 982.311 748 C 983.237 749.375, 985.665 751.850, 987.707 753.500 C 993.868 758.479, 1002.378 766.956, 1001.797 767.536 C 1001.498 767.836, 998.827 765.700, 995.862 762.790 C 992.897 759.881, 987.887 755.099, 984.730 752.164 C 981.572 749.229, 979.207 746.474, 979.474 746.042 C 979.741 745.609, 976.707 742.391, 972.730 738.891 C 968.754 735.390, 966.175 733.417, 967 734.506 C 967.825 735.596, 969.400 737.224, 970.500 738.125 C 976.432 742.983, 977.412 743.935, 976.500 743.952 C 975.516 743.971, 965.950 736.078, 949.744 721.875 C 941.051 714.256, 939.884 712.997, 940.535 711.943 C 940.757 711.584, 939.715 710.213, 938.219 708.895 L 935.500 706.500 937.924 709.250 C 939.258 710.763, 939.933 711.985, 939.424 711.967 C 937.824 711.909, 933.822 708.097, 934.393 707.173 C 934.693 706.688, 933.718 705.213, 932.226 703.895 C 929.709 701.672, 929.651 701.662, 931.418 703.756 C 934.757 707.715, 932.653 706.998, 927.239 702.334 C 924.355 699.849, 922.291 697.338, 922.652 696.754 C 923.045 696.117, 922.832 695.986, 922.121 696.425 C 920.667 697.324, 903.697 683.300, 904.556 681.910 C 904.882 681.382, 904.553 681.074, 903.824 681.225 C 903.096 681.376, 902.593 680.997, 902.706 680.383 C 902.819 679.768, 901.694 678.193, 900.206 676.883 L 897.500 674.500 899.924 677.250 C 901.258 678.763, 901.905 680, 901.363 680 C 899.891 680, 895.881 676.002, 896.442 675.093 C 896.710 674.660, 895.482 673, 893.714 671.403 L 890.500 668.500 893.500 671.882 C 895.150 673.741, 896.023 675.091, 895.441 674.882 C 892.911 673.970, 874.176 657.509, 875.052 656.968 C 875.585 656.638, 874.779 655.280, 873.261 653.949 C 871.742 652.619, 871.063 652.176, 871.750 652.965 C 872.438 653.754, 873 654.815, 873 655.321 C 873 656.153, 862.931 648.262, 860.500 645.525 C 859.950 644.906, 856.549 641.947, 852.941 638.950 C 823.191 614.230, 812.686 604.980, 813.470 604.196 C 813.766 603.901, 815.244 604.748, 816.754 606.079 L 819.500 608.500 817.048 605.721 C 815.699 604.192, 813.976 603.179, 813.217 603.470 C 811.952 603.956, 802.613 596.537, 789.500 584.630 C 782.675 578.433, 784.461 578.805, 792.116 585.176 C 795.537 588.023, 798.032 589.861, 797.661 589.260 C 797.289 588.659, 793.276 585.130, 788.743 581.416 C 784.209 577.703, 781.591 575.866, 782.924 577.333 C 786.910 581.718, 784.433 580.381, 776.484 573.857 C 768.770 567.525, 766.937 565.459, 771.750 568.518 C 774.224 570.091, 774.154 569.901, 771.054 566.633 C 767.134 562.501, 766.806 562.316, 767.719 564.750 C 768.309 566.326, 768.182 566.356, 766.437 565.052 C 762.372 562.014, 758.096 557.654, 758.515 556.975 C 758.756 556.586, 757.951 555.420, 756.726 554.384 L 754.500 552.500 756.405 554.750 C 759.528 558.438, 756.890 557.307, 750.753 552.325 C 744.407 547.174, 743.671 545.237, 749.684 549.510 L 753.500 552.221 750.500 549.561 C 746.877 546.349, 743.428 544.266, 744.438 545.900 C 745.494 547.608, 743.379 547.201, 739.774 545.004 C 736.132 542.783, 736.443 542.461, 740.685 544.063 C 742.233 544.648, 743.050 544.703, 742.500 544.186 C 738.927 540.829, 721.364 537.188, 715.500 538.588 M 527.804 590.511 C 528.425 591.605, 531.488 594.975, 534.611 598 C 538.777 602.035, 539.601 602.568, 537.706 600 C 534.536 595.706, 526.238 587.755, 527.804 590.511 M 968.024 612.475 C 965.050 615.487, 962.844 618.178, 963.122 618.455 C 963.578 618.911, 967.303 615.210, 972.405 609.232 C 975.871 605.171, 973.517 606.914, 968.024 612.475 M 553.538 618.075 C 556.267 620.867, 559.400 623.619, 560.500 624.192 C 561.600 624.765, 559.800 622.488, 556.500 619.133 C 553.200 615.777, 550.067 613.024, 549.538 613.016 C 549.008 613.007, 550.808 615.284, 553.538 618.075 M 841.851 627.750 C 845.401 631.188, 848.688 634, 849.155 634 C 849.936 634, 846.221 630.548, 838.448 624.051 C 836.770 622.648, 838.301 624.313, 841.851 627.750 M 664.360 649 C 664.360 654.225, 664.529 656.362, 664.735 653.750 C 664.941 651.138, 664.941 646.862, 664.735 644.250 C 664.529 641.638, 664.360 643.775, 664.360 649 M 665.389 712.500 C 665.390 719.650, 665.550 722.444, 665.742 718.708 C 665.935 714.973, 665.934 709.123, 665.739 705.708 C 665.545 702.294, 665.387 705.350, 665.389 712.500 M 226 709.637 C 212.455 713.565, 195.042 722.642, 196.507 725.011 C 196.796 725.479, 196.506 726.187, 195.862 726.585 C 195.131 727.037, 194.959 726.876, 195.405 726.155 C 197.268 723.139, 193.848 725.610, 188.350 731.250 C 179.371 740.462, 172.794 749.020, 173.426 750.668 C 173.729 751.458, 173.620 751.883, 173.183 751.613 C 172.319 751.079, 170.195 754.777, 167.026 762.333 C 164.620 768.072, 164.485 769.063, 166.468 766.441 C 167.276 765.374, 167.951 764.976, 167.968 765.559 C 168.010 766.961, 165.092 770.790, 164.964 769.500 C 164.910 768.950, 164.311 770.555, 163.634 773.067 C 162.853 775.962, 162.447 784.013, 162.526 795.067 C 162.600 805.604, 162.346 810.918, 161.882 808.500 C 161.460 806.300, 161.022 802.475, 160.908 800 C 160.745 796.464, 160.605 796.142, 160.256 798.500 C 159.491 803.675, 163.850 826.907, 165.447 826.167 C 165.843 825.983, 166.429 826.096, 166.750 826.417 C 167.071 826.738, 166.815 827, 166.181 827 C 164.501 827, 168.416 836.982, 173.733 846.254 C 176.320 850.765, 178.625 853.732, 179.244 853.349 C 179.839 852.982, 180.019 853.160, 179.653 853.753 C 178.884 854.996, 184.908 862.777, 191.069 868.500 C 193.438 870.700, 192.141 868.928, 188.188 864.563 C 184.235 860.197, 181 856.256, 181 855.805 C 181 855.354, 184.573 858.674, 188.940 863.185 C 193.307 867.695, 196.687 871.697, 196.451 872.079 C 196.215 872.461, 196.805 873.387, 197.761 874.137 C 199.335 875.370, 199.370 875.334, 198.128 873.750 C 196.053 871.104, 198.285 871.652, 202.203 874.750 C 205.634 877.463, 218.636 884.370, 222.472 885.518 C 223.953 885.961, 224.119 886.309, 223.138 886.915 C 222.119 887.545, 222.198 887.862, 223.498 888.361 C 226.139 889.374, 227.677 889.095, 226 887.906 C 224.425 886.790, 224.198 886.761, 235.500 889.148 C 243.173 890.768, 263.102 889.670, 272.500 887.110 C 288.929 882.634, 310.381 869.492, 317.500 859.544 C 318.600 858.006, 320.512 855.503, 321.750 853.980 C 322.988 852.457, 324 850.862, 324 850.434 C 324 850.007, 324.628 848.947, 325.396 848.079 C 326.163 847.210, 329.086 842.028, 331.890 836.563 C 334.694 831.097, 337.553 826.267, 338.244 825.828 C 338.935 825.389, 397.930 825.024, 469.345 825.015 L 599.190 825 598.831 802.250 C 598.454 778.354, 598.073 776.231, 593.727 773.800 C 592.210 772.952, 582.890 772.311, 564.500 771.791 C 549.650 771.370, 534.640 770.753, 531.144 770.419 C 527.084 770.031, 524.393 770.207, 523.694 770.906 C 522.918 771.682, 495.826 772, 430.411 772 C 344.063 772, 338.091 771.889, 336.163 770.250 C 335.030 769.288, 331.827 764, 329.044 758.500 C 326.092 752.667, 321.278 745.294, 317.492 740.807 C 311.012 733.129, 309.442 730.572, 312.750 733.084 C 313.712 733.815, 312.949 732.745, 311.054 730.706 C 309.158 728.668, 307.393 727, 307.130 727 C 306.867 727, 307.708 728.125, 309 729.500 C 310.436 731.029, 310.840 732, 310.041 732 C 309.321 732, 307.780 730.955, 306.616 729.677 C 299.518 721.886, 280.740 712.491, 268.311 710.512 C 265.294 710.031, 264.272 709.454, 264.659 708.446 C 265.105 707.284, 262.603 707.058, 249.848 707.110 C 236.619 707.164, 233.326 707.513, 226 709.637 M 1331.250 707.693 C 1330.013 707.938, 1329 708.516, 1329 708.976 C 1329 709.436, 1330.013 709.621, 1331.250 709.386 C 1333.347 708.988, 1333.364 709.024, 1331.500 709.909 C 1330.400 710.432, 1328.150 710.859, 1326.500 710.859 C 1323.872 710.859, 1323.748 710.742, 1325.500 709.914 C 1327.085 709.165, 1326.877 709.088, 1324.500 709.540 C 1316.082 711.142, 1309.828 713.628, 1317.250 712.422 L 1320.500 711.894 1317.435 713.321 C 1315.750 714.106, 1313.275 715.076, 1311.935 715.477 C 1309.564 716.188, 1309.553 716.166, 1311.500 714.635 C 1314.989 711.894, 1312.250 712.856, 1302.232 717.892 C 1292.760 722.653, 1282.491 730.368, 1283.485 731.975 C 1284.068 732.919, 1281.385 735.326, 1279.431 735.613 C 1277.412 735.909, 1272.982 741.293, 1273.516 742.802 C 1273.770 743.518, 1273.568 743.851, 1273.067 743.542 C 1271.353 742.482, 1258.471 766.180, 1259.419 768.649 C 1260.616 771.768, 1257.268 772.135, 1232.818 771.568 C 1219.443 771.257, 1181.162 770.746, 1147.750 770.433 C 1097.841 769.964, 1086.997 770.098, 1086.985 771.181 C 1086.973 772.182, 1086.748 772.151, 1086.053 771.052 C 1084.458 768.531, 1084.081 773.262, 1083.783 799.500 L 1083.500 824.500 1171.167 825 C 1219.384 825.275, 1259.180 825.846, 1259.602 826.269 C 1260.025 826.691, 1260.901 828.491, 1261.550 830.269 C 1262.199 832.046, 1263.100 834.400, 1263.552 835.500 C 1264.289 837.293, 1264.197 837.355, 1262.657 836.103 C 1261.645 835.279, 1262.454 837.538, 1264.626 841.603 C 1269.546 850.809, 1271.847 854, 1273.568 854 C 1274.356 854, 1275 854.477, 1275 855.059 C 1275 855.641, 1274.480 855.797, 1273.845 855.405 C 1273.124 854.959, 1272.963 855.131, 1273.415 855.862 C 1273.813 856.506, 1274.498 856.810, 1274.938 856.538 C 1275.378 856.266, 1277.994 858.621, 1280.751 861.772 C 1283.508 864.922, 1288.499 869.525, 1291.842 872 C 1298.077 876.616, 1300.595 879.956, 1294.750 875.857 C 1292.963 874.604, 1292.028 874.236, 1292.673 875.039 C 1294.163 876.895, 1300.537 880.678, 1299.589 879.144 C 1299.200 878.515, 1299.078 878, 1299.317 878 C 1300.699 878, 1318.236 886.975, 1317 887.050 C 1315.986 887.111, 1316.148 887.419, 1317.500 888 C 1320.249 889.181, 1321.828 889.181, 1320 888 C 1317.648 886.480, 1320.744 886.718, 1328.169 888.629 C 1337.630 891.064, 1360.819 889.990, 1370.579 886.664 C 1378.902 883.829, 1389.114 878.824, 1397.500 873.471 C 1403.828 869.431, 1420 853.641, 1420 851.501 C 1420 850.810, 1420.719 849.648, 1421.597 848.919 C 1423.182 847.604, 1426.206 841.483, 1431.424 829.027 C 1435.590 819.083, 1437.649 801.979, 1436.048 790.611 C 1433.116 769.796, 1427.816 757.310, 1415.812 742.936 C 1410.941 737.103, 1410.909 735.610, 1415.750 740.038 C 1417.813 741.925, 1415.685 739.538, 1411.022 734.734 C 1406.359 729.930, 1402.326 726, 1402.060 726 C 1401.793 726, 1403.696 728.153, 1406.288 730.784 C 1412.693 737.288, 1412.277 738.494, 1405.750 732.342 C 1402.862 729.621, 1397.695 725.423, 1394.268 723.013 C 1388.197 718.745, 1386.041 716.019, 1391.625 719.670 C 1393.164 720.677, 1394.074 720.934, 1393.648 720.243 C 1393.222 719.551, 1391.502 718.277, 1389.827 717.410 C 1388.151 716.544, 1387.081 716.322, 1387.449 716.917 C 1388.483 718.591, 1386.537 718.216, 1380.777 715.634 C 1377.875 714.333, 1374.375 712.783, 1373 712.190 C 1370.698 711.197, 1370.778 711.149, 1374 711.582 C 1378.388 712.173, 1375.286 710.612, 1370 709.569 C 1367.428 709.062, 1366.898 709.156, 1368 709.924 C 1369.214 710.770, 1369.023 710.959, 1367 710.914 C 1363.633 710.840, 1360.779 709.638, 1361.176 708.461 C 1361.504 707.487, 1335.632 706.823, 1331.250 707.693 M 665 879.500 C 665 948.708, 665.250 1005.084, 665.555 1004.778 C 666.284 1004.050, 666.288 754.955, 665.559 754.226 C 665.252 753.918, 665 810.292, 665 879.500 M 1081.432 798 C 1081.432 811.475, 1081.574 816.987, 1081.747 810.250 C 1081.920 803.513, 1081.920 792.487, 1081.747 785.750 C 1081.574 779.013, 1081.432 784.525, 1081.432 798 M 1016.360 804 C 1016.360 809.225, 1016.529 811.362, 1016.735 808.750 C 1016.941 806.138, 1016.941 801.862, 1016.735 799.250 C 1016.529 796.638, 1016.360 798.775, 1016.360 804 M 980.500 945.765 C 981.089 946.198, 979.688 948.350, 977.094 951 C 974.455 953.696, 972.972 954.698, 973.396 953.500 C 973.785 952.400, 972.291 953.525, 970.076 956 C 967.861 958.475, 966.257 961.086, 966.513 961.802 C 966.768 962.518, 966.583 962.860, 966.102 962.563 C 965.620 962.265, 964.707 962.648, 964.072 963.414 C 963.201 964.462, 963.200 964.900, 964.068 965.189 C 964.796 965.432, 964.558 966.111, 963.418 967.037 C 961.959 968.222, 961.777 968.233, 962.463 967.095 C 963.025 966.162, 962.936 965.921, 962.198 966.378 C 961.587 966.755, 961.309 967.642, 961.580 968.349 C 961.851 969.055, 960.668 971.403, 958.950 973.566 C 955.046 978.483, 954.523 978.940, 955.309 976.750 C 955.655 975.788, 955.763 975, 955.550 975 C 954.942 975, 951 981.631, 951 982.653 C 951 983.157, 957.175 989.854, 964.722 997.535 C 972.269 1005.216, 977.556 1010.382, 976.472 1009.016 C 975.387 1007.650, 974.029 1006.075, 973.454 1005.516 C 968.591 1000.790, 957.277 988.252, 960 990.606 C 964.617 994.597, 983.230 1013.948, 984.907 1016.500 C 985.630 1017.600, 984.831 1016.953, 983.131 1015.063 C 981.432 1013.172, 979.819 1011.848, 979.547 1012.120 C 979.275 1012.391, 983.555 1017.088, 989.058 1022.557 C 1000.461 1033.888, 1003.064 1036.140, 995.034 1027.727 C 992.028 1024.577, 990.003 1022.057, 990.534 1022.127 C 991.065 1022.196, 994.875 1025.867, 999 1030.283 C 1003.125 1034.699, 1005.879 1037.954, 1005.120 1037.517 C 1002.305 1035.894, 1004.651 1039.035, 1011.750 1046.389 C 1015.737 1050.520, 1019 1053.568, 1019 1053.163 C 1019 1052.757, 1016.716 1050.192, 1013.925 1047.462 C 1011.133 1044.733, 1008.420 1041.717, 1007.895 1040.759 C 1007.369 1039.802, 1012.691 1044.901, 1019.720 1052.091 C 1032.134 1064.790, 1037.238 1071.087, 1029.378 1064.007 C 1026.652 1061.552, 1026.974 1062.072, 1030.462 1065.757 C 1035.089 1070.646, 1037.820 1072.898, 1035 1069.500 C 1034.184 1068.516, 1034.129 1068, 1034.842 1068 C 1036.058 1068, 1038.199 1071.467, 1037.447 1072.219 C 1036.536 1073.131, 1079.066 1114.077, 1080.197 1113.378 C 1080.812 1112.998, 1081.031 1113.140, 1080.687 1113.697 C 1080.345 1114.250, 1084.551 1119.082, 1090.033 1124.433 C 1095.515 1129.785, 1100 1133.809, 1100 1133.375 C 1100 1132.941, 1096.737 1129.573, 1092.750 1125.890 C 1088.763 1122.207, 1085.758 1118.929, 1086.073 1118.607 C 1086.388 1118.285, 1091.001 1122.453, 1096.323 1127.870 C 1104.922 1136.622, 1105.985 1138.098, 1105.864 1141.110 C 1105.752 1143.894, 1105.642 1144.053, 1105.251 1142 C 1104.515 1138.144, 1100.799 1152.270, 1100.779 1159 C 1100.766 1163.230, 1100.606 1163.807, 1100.085 1161.500 C 1099.517 1158.983, 1099.295 1159.530, 1098.704 1164.897 C 1097.325 1177.422, 1098.061 1189.698, 1100.114 1188.430 C 1100.601 1188.128, 1101 1188.527, 1101 1189.316 C 1101 1190.105, 1101.263 1192.269, 1101.584 1194.125 C 1102.051 1196.824, 1101.934 1197.200, 1100.997 1196 C 1100.039 1194.773, 1099.931 1194.955, 1100.400 1197 C 1100.715 1198.375, 1100.986 1199.950, 1101.002 1200.500 C 1101.018 1201.050, 1101.503 1200.825, 1102.081 1200 C 1102.912 1198.813, 1103.005 1198.951, 1102.525 1200.665 C 1101.689 1203.653, 1102.924 1208, 1104.608 1208 C 1105.374 1208, 1105.993 1208.787, 1105.985 1209.750 C 1105.972 1211.246, 1105.828 1211.282, 1105 1210 C 1103.532 1207.728, 1103.809 1209.481, 1105.641 1214.061 C 1106.543 1216.316, 1107.561 1217.710, 1107.903 1217.157 C 1108.245 1216.604, 1109.054 1217.276, 1109.702 1218.649 C 1110.712 1220.789, 1110.675 1220.975, 1109.440 1219.950 C 1106.893 1217.836, 1107.947 1220.342, 1112.278 1226.693 C 1117.769 1234.747, 1126.820 1244.917, 1132.218 1249.098 C 1134.751 1251.059, 1135.722 1251.513, 1134.595 1250.207 C 1132.570 1247.861, 1133.944 1247.089, 1136.179 1249.318 C 1136.905 1250.043, 1140.650 1252.508, 1144.500 1254.795 C 1153.937 1260.400, 1155.021 1261.173, 1151.500 1259.789 C 1149.850 1259.140, 1148.050 1258.325, 1147.500 1257.977 C 1143.511 1255.454, 1137 1252.005, 1137 1252.414 C 1137 1252.688, 1140.150 1254.752, 1144.001 1257.001 C 1152.188 1261.782, 1159 1264.434, 1159 1262.839 C 1159 1262.204, 1159.918 1262.028, 1161.250 1262.407 C 1172.598 1265.634, 1192.843 1266.139, 1203.350 1263.456 C 1209.161 1261.972, 1210.335 1261.918, 1211.085 1263.103 C 1211.807 1264.244, 1211.972 1264.200, 1211.985 1262.866 C 1211.995 1261.814, 1214.047 1260.420, 1217.750 1258.952 C 1230.447 1253.918, 1240.883 1246.466, 1252.439 1234.183 C 1266.549 1219.185, 1274.805 1190.426, 1271.447 1167.967 C 1269.605 1155.646, 1267.864 1149.560, 1263.813 1141.275 C 1259.395 1132.240, 1259.408 1132.280, 1261.498 1134 C 1263.213 1135.411, 1263.240 1135.369, 1261.945 1133.290 C 1261.188 1132.074, 1260.292 1131.528, 1259.954 1132.075 C 1259.616 1132.622, 1257.497 1130.467, 1255.246 1127.285 C 1252.995 1124.103, 1248.215 1118.609, 1244.625 1115.077 C 1241.034 1111.544, 1238.292 1108.336, 1238.532 1107.949 C 1238.947 1107.277, 1234.049 1103.676, 1229.250 1101.125 C 1224.895 1098.811, 1227.064 1100.794, 1232.472 1104.072 C 1235.482 1105.896, 1237.758 1107.575, 1237.531 1107.802 C 1236.749 1108.584, 1224.979 1100.842, 1225.549 1099.921 C 1225.862 1099.415, 1225.921 1099, 1225.681 1099 C 1225.441 1099, 1223.614 1098.319, 1221.622 1097.487 C 1219.630 1096.654, 1218 1096.203, 1218 1096.484 C 1218 1096.765, 1219.463 1097.634, 1221.250 1098.416 C 1225.999 1100.492, 1223.313 1100.307, 1217.685 1098.170 C 1215.037 1097.164, 1212.933 1095.938, 1213.010 1095.446 C 1213.087 1094.953, 1212.604 1094.368, 1211.936 1094.145 C 1211.239 1093.913, 1211.019 1094.222, 1211.420 1094.870 C 1212.345 1096.368, 1210.467 1096.274, 1205 1094.552 C 1201.456 1093.435, 1201.031 1093.093, 1203 1092.942 C 1207.675 1092.583, 1196.683 1091.146, 1190 1091.242 L 1183.500 1091.336 1189.500 1092 L 1195.500 1092.664 1188.691 1092.832 C 1183.795 1092.953, 1182.081 1092.678, 1182.590 1091.854 C 1183.095 1091.037, 1182.470 1090.916, 1180.409 1091.433 C 1178.820 1091.832, 1177.185 1092.685, 1176.775 1093.329 C 1176.222 1094.200, 1176.027 1094.180, 1176.015 1093.250 C 1176.006 1092.462, 1174.613 1092.026, 1172.250 1092.070 C 1169.701 1092.118, 1169.076 1092.368, 1170.298 1092.850 C 1171.653 1093.385, 1170.942 1093.868, 1167.413 1094.812 C 1162.085 1096.237, 1159.999 1095.627, 1165.140 1094.147 C 1166.988 1093.615, 1167.890 1093.140, 1167.144 1093.090 C 1165.066 1092.952, 1154.671 1095.798, 1150.880 1097.543 L 1147.500 1099.099 1150.500 1098.536 C 1153.029 1098.061, 1153.209 1098.149, 1151.648 1099.093 C 1147.996 1101.303, 1143.838 1100.797, 1140.329 1097.716 C 1137.089 1094.871, 1135.739 1092.182, 1138.250 1093.576 C 1138.938 1093.957, 1135.234 1089.934, 1130.020 1084.635 C 1124.806 1079.336, 1120.321 1075, 1120.054 1075 C 1119.552 1075, 1129.723 1085.844, 1131.500 1087.204 C 1132.125 1087.682, 1132.135 1087.975, 1131.527 1087.985 C 1129.529 1088.016, 1118.162 1075.744, 1118.679 1074.112 C 1119.082 1072.836, 1118.985 1072.785, 1118.214 1073.866 C 1117.459 1074.923, 1114.495 1072.526, 1105.119 1063.280 C 1094.291 1052.601, 1090.725 1048.476, 1094.155 1050.595 C 1094.876 1051.041, 1095.037 1050.869, 1094.585 1050.138 C 1094.187 1049.494, 1093.516 1049.181, 1093.094 1049.442 C 1091.738 1050.280, 1087.839 1046.861, 1088.421 1045.344 C 1088.740 1044.513, 1088.543 1044.164, 1087.958 1044.526 C 1087.398 1044.872, 1081.372 1039.661, 1074.566 1032.946 C 1067.761 1026.231, 1061.642 1020.397, 1060.968 1019.980 C 1060.295 1019.564, 1060.016 1018.783, 1060.348 1018.245 C 1060.681 1017.707, 1059.951 1016.420, 1058.726 1015.384 L 1056.500 1013.500 1058.500 1015.896 C 1061.530 1019.527, 1058.798 1018.037, 1053.609 1013.229 C 1049.341 1009.274, 1047.633 1007.037, 1050 1008.500 C 1051.628 1009.506, 1051.140 1008.358, 1049.308 1006.872 C 1048.158 1005.940, 1047.857 1005.901, 1048.367 1006.750 C 1050.061 1009.570, 1047.118 1007.688, 1042.500 1003 C 1036.773 997.186, 1037.506 996.229, 1043.458 1001.750 L 1047.500 1005.500 1043.526 1001.229 C 1041.341 998.880, 1039.022 997.161, 1038.374 997.410 C 1037.725 997.659, 1036.363 997.227, 1035.347 996.450 C 1033.741 995.222, 1033.696 994.907, 1035 994.034 C 1036.333 993.142, 1036.333 993.016, 1035 992.897 C 1034.175 992.823, 1033.087 992.842, 1032.582 992.938 C 1031.123 993.215, 1018.032 979.758, 1018.703 978.671 C 1019.050 978.111, 1018.792 978.011, 1018.101 978.437 C 1016.738 979.280, 1012.729 975.248, 1013.573 973.882 C 1013.865 973.410, 1013.327 973.321, 1012.378 973.685 C 1011.090 974.179, 1010.805 973.950, 1011.254 972.780 C 1011.894 971.113, 1007.834 966.499, 1006.713 967.620 C 1006.362 967.971, 1001.716 964.038, 996.388 958.879 C 982.335 945.273, 982.024 944.999, 980.705 945.015 C 979.950 945.025, 979.874 945.305, 980.500 945.765 M 592.948 954.265 C 590.995 956.044, 590.207 956.868, 591.198 956.095 C 592.189 955.322, 593 955.137, 593 955.684 C 593 956.635, 588.690 960.833, 584.481 963.983 C 582.529 965.444, 582.529 965.430, 584.500 963.017 C 585.600 961.671, 584.188 962.578, 581.363 965.034 C 578.538 967.490, 576.402 969.689, 576.617 969.921 C 576.832 970.152, 578.244 969.261, 579.754 967.940 C 581.264 966.619, 580.267 967.892, 577.538 970.769 C 572.903 975.654, 570.192 977.883, 573 974.500 C 573.860 973.464, 573.898 973, 573.122 973 C 572.505 973, 571.948 973.563, 571.885 974.250 C 571.821 974.938, 571.704 975.950, 571.624 976.500 C 571.360 978.309, 560.866 987.886, 559.656 987.422 C 559.006 987.172, 555.568 989.900, 552.016 993.484 C 548.464 997.068, 545.962 1000, 546.456 1000 C 546.950 1000, 548.581 998.538, 550.080 996.750 C 551.579 994.962, 553.064 993.753, 553.381 994.062 C 553.699 994.372, 551.877 996.622, 549.335 999.062 C 546.792 1001.503, 545.069 1002.825, 545.506 1002 C 547.047 999.090, 528.974 1017.088, 521.907 1025.500 C 519.456 1028.419, 519.217 1028.959, 521.024 1027.500 L 523.500 1025.500 521.589 1027.756 C 520.539 1028.997, 519.467 1029.800, 519.208 1029.541 C 518.267 1028.601, 514.858 1031.189, 515.350 1032.470 C 515.628 1033.195, 514.651 1034.847, 513.178 1036.144 L 510.500 1038.500 512.983 1035.500 C 514.363 1033.833, 513.382 1034.463, 510.777 1036.916 C 508.197 1039.344, 506.362 1041.776, 506.698 1042.320 C 507.034 1042.864, 506.866 1043.035, 506.325 1042.701 C 505.041 1041.907, 494.574 1052.502, 495.370 1053.789 C 495.705 1054.331, 495.244 1054.712, 494.347 1054.637 C 493.449 1054.562, 492.496 1055.125, 492.228 1055.889 C 491.896 1056.836, 492.180 1057.031, 493.120 1056.501 C 493.879 1056.073, 491.609 1058.689, 488.077 1062.313 C 484.544 1065.938, 481.238 1068.647, 480.730 1068.333 C 479.607 1067.639, 465.784 1081.841, 466.483 1082.972 C 466.755 1083.413, 466.195 1084.387, 465.239 1085.137 C 463.634 1086.395, 463.615 1086.353, 465 1084.587 C 468.082 1080.658, 464.294 1083.718, 458.557 1089.793 C 455.277 1093.266, 453.485 1095.782, 454.557 1095.409 C 455.626 1095.037, 454.950 1095.917, 453.056 1097.366 C 449.316 1100.226, 446.101 1100.628, 441.053 1098.869 C 438.794 1098.081, 438.201 1097.494, 439.102 1096.937 C 439.814 1096.497, 438.486 1096.393, 436.152 1096.706 C 433.023 1097.126, 431.986 1096.944, 432.204 1096.013 C 432.367 1095.318, 431.875 1094.523, 431.111 1094.245 C 430.178 1093.906, 429.983 1094.163, 430.517 1095.028 C 431.115 1095.996, 430.716 1096.155, 428.906 1095.671 C 427.583 1095.317, 426.050 1094.976, 425.500 1094.914 C 424.950 1094.852, 425.625 1094.402, 427 1093.914 C 428.835 1093.264, 428.170 1093.156, 424.500 1093.507 C 420.856 1093.857, 419.907 1093.705, 421 1092.947 C 423.610 1091.139, 389.197 1092.337, 385.108 1094.196 C 382.774 1095.258, 382.150 1095.939, 383.108 1096.380 C 383.874 1096.733, 383.439 1096.822, 382.142 1096.576 C 379.031 1095.988, 370.531 1100.041, 372.258 1101.290 C 373.100 1101.900, 372.914 1101.999, 371.678 1101.598 C 369.595 1100.923, 365.683 1102.677, 366.461 1103.937 C 366.746 1104.398, 366.196 1104.712, 365.239 1104.637 C 364.283 1104.562, 363.607 1105.046, 363.738 1105.714 C 363.886 1106.470, 363.320 1106.693, 362.238 1106.305 C 361.282 1105.962, 360.834 1106.049, 361.241 1106.499 C 362.087 1107.431, 360.263 1110, 358.755 1110 C 358.205 1110, 358.373 1109.221, 359.128 1108.269 C 360.845 1106.103, 353.459 1111.813, 349.766 1115.507 C 348.262 1117.011, 347.244 1118.586, 347.505 1119.007 C 347.765 1119.429, 347.195 1120.387, 346.239 1121.137 C 344.629 1122.399, 344.611 1122.352, 346 1120.500 C 347.394 1118.642, 347.375 1118.598, 345.738 1119.882 C 342.565 1122.372, 337.146 1130.520, 337.325 1132.532 C 337.422 1133.625, 336.952 1134.391, 336.267 1134.256 C 334.711 1133.948, 330.685 1141.681, 331.617 1143.189 C 332.010 1143.826, 331.861 1144.032, 331.271 1143.668 C 330.311 1143.074, 327.946 1148.559, 325.003 1158.210 C 324.359 1160.322, 324.091 1165.062, 324.380 1169.210 C 324.724 1174.131, 324.626 1175.363, 324.077 1173 C 323.464 1170.363, 323.235 1171.966, 323.147 1179.500 C 323.062 1186.792, 323.318 1189.094, 324.090 1188 C 324.879 1186.884, 324.991 1187.460, 324.530 1190.250 C 323.755 1194.932, 324.838 1201.218, 326.267 1200.335 C 326.929 1199.926, 327.108 1200.481, 326.751 1201.843 C 326.029 1204.605, 329.921 1216.167, 331.289 1215.321 C 331.891 1214.949, 332.001 1215.189, 331.558 1215.906 C 330.562 1217.518, 332.941 1223.154, 334.271 1222.333 C 334.863 1221.967, 335.010 1222.174, 334.614 1222.816 C 334.231 1223.435, 334.623 1225.304, 335.485 1226.971 C 337.439 1230.750, 338.274 1230.907, 336.969 1227.250 C 336.032 1224.622, 336.058 1224.588, 337.567 1226.500 C 338.436 1227.600, 339.574 1229.277, 340.096 1230.227 C 340.871 1231.635, 340.718 1231.835, 339.273 1231.308 C 337.657 1230.718, 337.669 1230.853, 339.405 1232.830 C 341.378 1235.078, 342.581 1235.749, 341.500 1234 C 340.494 1232.372, 341.642 1232.860, 343.128 1234.692 C 344.060 1235.842, 344.099 1236.143, 343.250 1235.633 C 338.530 1232.797, 349.803 1244.947, 357.069 1250.527 C 358.482 1251.612, 357.470 1250.391, 354.819 1247.814 C 348.812 1241.973, 348.435 1240.303, 354.356 1245.760 C 356.751 1247.968, 359.737 1250.324, 360.991 1250.995 C 362.622 1251.868, 362.917 1252.433, 362.028 1252.982 C 361.228 1253.477, 361.149 1253.974, 361.808 1254.381 C 362.370 1254.728, 362.982 1254.553, 363.170 1253.990 C 363.357 1253.428, 366.808 1254.613, 370.838 1256.624 C 374.869 1258.634, 377.687 1260.576, 377.101 1260.938 C 376.515 1261.300, 377.715 1261.611, 379.768 1261.628 C 381.820 1261.646, 386.650 1262.404, 390.500 1263.313 C 394.942 1264.361, 401.893 1264.972, 409.520 1264.983 C 423.561 1265.003, 431.784 1263.131, 444.797 1256.951 C 467.154 1246.333, 480.019 1232.378, 488.079 1210 L 491.500 1200.500 491.370 1181 C 491.256 1163.776, 490.980 1160.683, 489.001 1154.500 C 485.441 1143.373, 485.390 1141.520, 488.513 1136.802 C 490.019 1134.526, 515.552 1108.327, 545.253 1078.582 C 585.236 1038.539, 599.764 1023.372, 601.217 1020.153 C 602.909 1016.406, 603.244 1012.885, 603.644 994.653 C 603.899 983.019, 603.746 969, 603.304 963.500 C 602.542 954.017, 602.378 953.483, 600.135 953.165 C 598.834 952.981, 597.281 953.319, 596.685 953.915 C 596.088 954.512, 595.150 955, 594.600 955 C 592.245 955, 596.209 952.642, 599.699 951.966 L 603.500 951.230 600 951.130 C 597.369 951.055, 595.619 951.833, 592.948 954.265 M 485.523 1061.977 C 482.827 1064.714, 480.855 1067.188, 481.141 1067.475 C 481.428 1067.761, 483.986 1065.522, 486.826 1062.498 C 493.266 1055.641, 492.188 1055.210, 485.523 1061.977 M 1057.820 1092.024 C 1068.997 1103.116, 1078.349 1111.984, 1078.603 1111.730 C 1079.186 1111.147, 1040.302 1072.615, 1038.690 1072.178 C 1038.035 1072, 1046.644 1080.931, 1057.820 1092.024 M 815.206 1081.568 C 813.974 1082.431, 813.212 1083.533, 813.511 1084.018 C 813.811 1084.503, 813.179 1085.369, 812.106 1085.943 C 811.033 1086.517, 809.558 1087.562, 808.828 1088.265 C 806.163 1090.829, 801.706 1094, 800.766 1094 C 800.236 1094, 802.546 1091.937, 805.901 1089.415 C 809.255 1086.894, 812 1084.590, 812 1084.297 C 812 1084.003, 810.425 1084.941, 808.500 1086.381 C 806.575 1087.822, 803.429 1090.175, 801.510 1091.611 C 799.590 1093.047, 798.247 1094.591, 798.526 1095.042 C 798.805 1095.493, 798.506 1096.187, 797.862 1096.585 C 797.131 1097.037, 796.959 1096.876, 797.405 1096.155 C 797.797 1095.520, 797.697 1095, 797.181 1095 C 796.090 1095, 794.171 1097.123, 794.168 1098.333 C 794.167 1098.792, 793.832 1099.467, 793.423 1099.833 C 793.014 1100.200, 793.003 1099.938, 793.399 1099.250 C 794.606 1097.152, 792.483 1097.857, 790.165 1100.324 C 788.964 1101.602, 788.310 1102.976, 788.710 1103.377 C 789.111 1103.778, 788.591 1103.780, 787.555 1103.383 C 786.245 1102.880, 785.892 1103.016, 786.395 1103.830 C 786.806 1104.496, 786.554 1105.001, 785.809 1105.002 C 785.089 1105.004, 782.925 1106.353, 781 1108 C 779.075 1109.647, 777.156 1110.996, 776.735 1110.998 C 776.315 1110.999, 775.079 1112.463, 773.989 1114.250 C 772.065 1117.405, 772.007 1119.473, 772.004 1185.050 C 772.001 1237.748, 771.725 1252.877, 770.750 1253.859 C 769.747 1254.869, 769.896 1254.989, 771.500 1254.466 C 772.621 1254.100, 772.181 1254.686, 770.500 1255.798 C 766.755 1258.276, 762.463 1259.678, 763.434 1258.107 C 764.402 1256.541, 763.659 1256.706, 758.534 1259.196 C 755.378 1260.729, 754.390 1261.654, 755.258 1262.261 C 756.068 1262.829, 755.804 1262.938, 754.497 1262.576 C 752.160 1261.930, 745.609 1265.558, 746.502 1267.004 C 746.833 1267.539, 746.493 1267.743, 745.747 1267.456 C 743.896 1266.746, 735.736 1272.763, 736.616 1274.188 C 737.006 1274.818, 736.862 1275.033, 736.288 1274.678 C 735.310 1274.073, 732.219 1276.691, 732.071 1278.250 C 732.032 1278.662, 731.663 1279.021, 731.250 1279.046 C 729.591 1279.148, 723.988 1285.527, 724.465 1286.771 C 724.747 1287.504, 724.567 1287.850, 724.065 1287.540 C 722.851 1286.790, 718.696 1292.699, 719.511 1294.018 C 719.862 1294.585, 719.571 1294.926, 718.865 1294.775 C 718.146 1294.621, 717.513 1295.503, 717.426 1296.782 C 717.340 1298.037, 716.913 1299.387, 716.476 1299.782 C 716.039 1300.177, 715.979 1299.600, 716.343 1298.500 C 717 1296.515, 716.994 1296.514, 715.480 1298.471 C 714.642 1299.556, 714.186 1301.041, 714.466 1301.773 C 714.747 1302.505, 714.611 1302.878, 714.164 1302.601 C 713.033 1301.903, 708.807 1310.880, 709.636 1312.220 C 710.006 1312.819, 709.856 1313.029, 709.303 1312.687 C 708.749 1312.345, 707.781 1313.788, 707.148 1315.899 C 705.733 1320.622, 705.707 1321.967, 707.069 1320 C 707.923 1318.767, 708.043 1318.856, 707.744 1320.500 C 707.545 1321.600, 706.877 1322.398, 706.260 1322.273 C 704.552 1321.927, 703.716 1331.461, 704.171 1346.080 C 704.466 1355.543, 704.945 1359.348, 705.917 1359.949 C 706.653 1360.404, 706.925 1361.312, 706.520 1361.967 C 705.322 1363.906, 708.027 1371.998, 709.880 1372.015 C 711.077 1372.027, 711.170 1372.240, 710.238 1372.832 C 709.259 1373.453, 709.229 1374.358, 710.104 1376.867 C 710.724 1378.647, 711.417 1379.917, 711.644 1379.690 C 711.870 1379.463, 711.605 1378.090, 711.053 1376.639 C 709.533 1372.642, 710.756 1373.481, 712.487 1377.622 C 714.270 1381.890, 714.327 1382.320, 713.003 1381.502 C 711.620 1380.647, 713.378 1385.082, 716.603 1390.585 C 718.026 1393.013, 719.581 1394.759, 720.059 1394.463 C 720.537 1394.168, 722.142 1395.855, 723.625 1398.213 C 727.102 1403.741, 738.227 1414.859, 744 1418.576 C 750.512 1422.768, 767.200 1431, 769.186 1431 C 771.331 1431, 772.422 1432.651, 770.756 1433.375 C 770.065 1433.675, 770.666 1433.683, 772.091 1433.392 C 773.517 1433.101, 778.404 1433.569, 782.952 1434.431 C 806.643 1438.925, 830.308 1433.416, 853.152 1418.089 C 860.330 1413.273, 870.866 1403.132, 876.231 1395.875 C 884.040 1385.313, 892.304 1362.757, 893.406 1349 C 894.184 1339.289, 891.949 1324.521, 887.989 1313.205 C 883.374 1300.022, 883.518 1300.584, 884.997 1301.498 C 885.873 1302.039, 886.068 1301.920, 885.585 1301.138 C 885.187 1300.494, 884.483 1300.202, 884.019 1300.488 C 883.556 1300.774, 881.732 1298.644, 879.967 1295.754 C 878.201 1292.864, 872.761 1286.539, 867.878 1281.698 C 859.641 1273.532, 856.595 1269.869, 860.750 1273.128 C 862.323 1274.361, 862.366 1274.329, 861.177 1272.809 C 860.449 1271.880, 859.195 1271.372, 858.390 1271.681 C 857.584 1271.990, 856.155 1271.581, 855.213 1270.773 C 854.271 1269.965, 852.684 1269.014, 851.687 1268.659 C 850.689 1268.304, 850.134 1267.592, 850.453 1267.076 C 850.772 1266.560, 850.506 1265.813, 849.862 1265.415 C 849.131 1264.963, 848.959 1265.124, 849.405 1265.845 C 850.376 1267.418, 849.744 1267.312, 844.777 1265.069 C 837.235 1261.663, 827.036 1258, 825.096 1258 C 824.061 1258, 822.941 1257.288, 822.607 1256.418 C 822.273 1255.548, 822 1218.714, 822 1174.565 C 822 1130.416, 821.711 1091.527, 821.358 1088.147 C 820.866 1083.443, 820.338 1081.996, 819.108 1081.985 C 817.704 1081.971, 817.691 1081.846, 819 1081 C 820.327 1080.143, 820.324 1080.029, 818.973 1080.015 C 818.132 1080.007, 816.437 1080.706, 815.206 1081.568 M 773.472 1185 C 773.472 1222.125, 773.597 1237.313, 773.750 1218.750 C 773.902 1200.188, 773.902 1169.813, 773.750 1151.250 C 773.597 1132.688, 773.472 1147.875, 773.472 1185 M 1120.051 1235.750 C 1125.779 1242.312, 1131.496 1248, 1132.365 1248 C 1132.882 1248, 1130.991 1245.638, 1128.164 1242.750 C 1125.337 1239.862, 1122.318 1236.487, 1121.455 1235.250 C 1120.593 1234.013, 1119.384 1233, 1118.769 1233 C 1118.154 1233, 1118.731 1234.237, 1120.051 1235.750 M 723.106 1400.654 C 727.557 1407.124, 736.658 1416.018, 743.091 1420.187 C 751.371 1425.552, 756 1428.219, 756 1427.624 C 756 1427.327, 753.862 1425.850, 751.250 1424.342 C 740.351 1418.049, 729.169 1408.128, 723.391 1399.625 C 722.036 1397.631, 720.698 1396, 720.416 1396 C 720.134 1396, 721.345 1398.094, 723.106 1400.654" stroke="none" fill="#04fbfb" fill-rule="evenodd"/></svg>