<svg xmlns="http://www.w3.org/2000/svg" width="1600" height="1600" viewBox="0 0 1600 1600" version="1.1"><path d="M 786.980 161.330 C 786.694 161.629, 783.653 162.135, 780.223 162.456 C 774.113 163.027, 764.837 166.988, 769.591 166.996 C 770.741 166.998, 773.891 166.298, 776.591 165.440 C 782.833 163.456, 805.772 162.418, 812.500 163.814 C 830.667 167.586, 836.788 169.776, 848.593 176.728 C 856.640 181.466, 859.712 183.964, 868.125 192.603 C 879.151 203.926, 885.262 213.901, 889.078 226.801 C 890.168 230.486, 891.770 235.884, 892.638 238.797 C 893.866 242.920, 894.123 247.352, 893.797 258.797 C 893.425 271.878, 893.060 274.383, 890.493 281.500 C 886.887 291.495, 880.131 304.572, 875.078 311.337 C 869.785 318.422, 858.954 329.344, 853.880 332.712 C 851.571 334.246, 848.515 336.276, 847.090 337.225 C 842.091 340.555, 831.468 345.757, 828.240 346.457 C 821.550 347.907, 822 341.517, 822 435.071 C 822 506.366, 821.780 520, 820.628 520 C 819.874 520, 815.740 517.637, 811.442 514.750 C 807.144 511.862, 802.598 508.825, 801.340 508 C 786.493 498.262, 776.019 489.977, 775.510 487.569 C 775.269 486.431, 774.822 455.250, 774.515 418.277 C 774.209 381.304, 773.731 350.479, 773.455 349.777 C 773.178 349.075, 769.068 346.700, 764.321 344.500 C 747.811 336.849, 734.837 326.713, 724.881 313.686 C 716.700 302.981, 709.094 287.463, 708.965 281.215 C 708.945 280.272, 708.251 278.375, 707.423 277 C 705.944 274.546, 705.926 274.573, 706.457 278.500 C 706.754 280.700, 707.073 283.063, 707.165 283.750 C 707.258 284.438, 707.658 285, 708.055 285 C 708.452 285, 709.054 286.462, 709.392 288.250 C 710.005 291.497, 713.888 299.836, 717.424 305.500 C 721.216 311.575, 725.334 317.527, 726.417 318.500 C 727.030 319.050, 729.030 321.420, 730.862 323.766 C 733.938 327.705, 741.636 334.203, 749.859 339.801 C 751.717 341.066, 757.246 343.991, 762.145 346.301 C 768.127 349.120, 771.217 351.157, 771.552 352.500 C 771.826 353.600, 772.152 384.554, 772.275 421.287 C 772.420 464.409, 772.854 488.326, 773.500 488.787 C 774.050 489.179, 774.980 490.370, 775.567 491.433 C 776.154 492.496, 777.497 493.846, 778.552 494.433 C 779.606 495.020, 781.064 496.288, 781.791 497.250 C 782.519 498.212, 783.763 499, 784.557 499 C 785.351 499, 786 499.390, 786 499.867 C 786 500.344, 789.263 502.913, 793.250 505.576 C 797.237 508.240, 803.200 512.397, 806.500 514.815 C 813.706 520.094, 819.194 523, 821.960 523 C 823.990 523, 824.001 522.681, 824.247 457.250 C 824.383 421.087, 824.496 382.637, 824.497 371.804 C 824.499 359.966, 824.899 351.736, 825.500 351.175 C 826.050 350.662, 828.300 349.675, 830.500 348.983 C 845.488 344.269, 864.727 329.599, 876.359 314.017 C 886.143 300.911, 893.305 284.862, 895.998 270.012 C 897.628 261.023, 897.093 245.635, 894.884 237.995 C 890.576 223.090, 889.703 220.312, 888.140 216.523 C 886.336 212.149, 880.514 202.915, 877.093 199 C 875.892 197.625, 873.017 194.329, 870.704 191.675 C 868.392 189.022, 864.250 185.233, 861.500 183.257 C 858.750 181.280, 856.040 179.176, 855.477 178.581 C 853.433 176.421, 837.168 168, 835.039 168 C 834.479 168, 831.204 166.889, 827.761 165.531 C 824.317 164.174, 820.150 162.783, 818.500 162.441 C 814.419 161.596, 787.629 160.652, 786.980 161.330 M 756.711 170.894 C 747.046 175.749, 736.640 183.632, 731.500 189.991 C 729.607 192.333, 729.604 192.386, 731.434 190.983 C 732.498 190.167, 734.748 188.225, 736.434 186.666 C 745.137 178.621, 747.310 177.170, 760.500 170.596 C 764.350 168.677, 766.817 167.082, 765.981 167.053 C 765.146 167.024, 760.974 168.752, 756.711 170.894 M 724.382 197.562 C 719.932 202.870, 718.558 205.032, 719.700 204.926 C 720.782 204.826, 729.275 193.942, 728.711 193.378 C 728.466 193.132, 726.517 195.015, 724.382 197.562 M 707.243 229.984 C 705.716 234.879, 705.601 237.799, 706.991 236.409 C 708.151 235.249, 710.038 226, 709.114 226 C 708.769 226, 707.927 227.793, 707.243 229.984 M 1176.988 339.093 C 1171.234 339.903, 1165.404 341.737, 1166.166 342.499 C 1166.409 342.743, 1172.192 342.445, 1179.016 341.837 C 1196.055 340.320, 1208.123 341.879, 1220.484 347.192 C 1245.340 357.876, 1260.315 372.243, 1269.353 394.076 C 1281.067 422.374, 1280.290 440.785, 1266.149 470 C 1262.190 478.179, 1260.227 480.822, 1252.025 489.009 C 1238.664 502.349, 1225.675 509.519, 1207.649 513.508 C 1195.422 516.214, 1174.999 515.181, 1160.500 511.124 C 1154.450 509.431, 1148.733 508.035, 1147.796 508.023 C 1146.858 508.010, 1141.907 512.162, 1136.793 517.250 C 1070.430 583.266, 997.706 655.182, 994.715 657.750 C 992.634 659.538, 990.278 661, 989.482 661 C 987.046 661, 954 631.597, 954 629.430 C 954 628.875, 957.055 625.462, 960.789 621.845 C 964.522 618.229, 970.485 612.001, 974.039 608.005 C 977.592 604.009, 985.900 595.254, 992.500 588.550 C 999.100 581.845, 1012.989 567.616, 1023.364 556.930 C 1033.740 546.243, 1056.544 523.087, 1074.040 505.471 C 1095.196 484.170, 1106.089 472.495, 1106.561 470.615 C 1106.955 469.042, 1106.739 466.171, 1106.073 464.144 C 1103.286 455.660, 1099.992 442.625, 1099.890 439.678 C 1099.795 436.899, 1099.672 437.056, 1098.911 440.935 C 1098.008 445.541, 1099.348 452.802, 1102.489 460.319 C 1104.677 465.556, 1104.456 471.629, 1102 473.732 C 1100.900 474.674, 1100 475.847, 1100 476.339 C 1100 477.521, 1091.714 485.460, 1090.750 485.201 C 1090.338 485.091, 1090 485.447, 1090 485.994 C 1090 486.541, 1076.029 501.054, 1058.953 518.244 C 1008.631 568.905, 993.719 584.088, 987.007 591.500 C 978.307 601.106, 965.141 614.761, 960.416 619.078 C 956.026 623.090, 952 628.339, 952 630.052 C 952 631.757, 954.804 634.944, 962 641.416 C 965.575 644.631, 970.525 649.150, 973 651.457 C 979.824 657.820, 988.008 664, 989.610 664 C 992.106 664, 998.301 659.387, 1004.597 652.840 C 1020.756 636.037, 1143.839 514.142, 1146.212 512.592 C 1148.446 511.132, 1149.503 511.010, 1152.212 511.900 C 1166.911 516.732, 1174.579 517.963, 1190.089 517.981 C 1204.157 517.998, 1206.498 517.743, 1214.089 515.368 C 1229.953 510.405, 1243.367 502.482, 1253.947 491.826 C 1264.463 481.234, 1270.146 471.419, 1276.169 453.442 C 1279.337 443.986, 1279.499 442.792, 1279.488 429 C 1279.477 416.662, 1279.128 413.382, 1277.149 407 C 1271.937 390.194, 1264.212 376.186, 1254.618 366.143 C 1245.616 356.721, 1222.846 343.189, 1213.500 341.708 C 1211.850 341.447, 1208.554 340.704, 1206.175 340.058 C 1200.808 338.599, 1184.364 338.056, 1176.988 339.093 M 414 342.800 C 413.175 343.101, 417.587 344.373, 423.805 345.626 C 430.023 346.879, 437.615 349.051, 440.676 350.452 C 443.737 351.853, 446.629 353, 447.101 353 C 449.309 353, 460.266 361.072, 467.349 367.916 C 482.405 382.465, 490.334 398.365, 491.980 417.308 C 493.042 429.545, 491.870 442.490, 488.543 455.263 C 487.144 460.632, 486 466.971, 486 469.349 L 486 473.672 524.750 512.213 C 546.063 533.410, 564.902 552.046, 566.615 553.627 C 568.329 555.207, 574.180 560.775, 579.619 566 C 585.057 571.225, 592.655 578.355, 596.503 581.845 L 603.500 588.190 603.815 620.342 C 603.988 638.025, 603.855 653.957, 603.520 655.747 C 602.735 659.927, 600.516 659.978, 595.388 655.934 C 590.200 651.844, 559.110 620.899, 498.500 559.498 L 448.500 508.847 443.500 509.333 C 440.750 509.601, 433.775 510.980, 428 512.399 C 411.961 516.338, 388.942 515.459, 377.168 510.458 C 357.990 502.311, 344.029 490.872, 335.417 476.250 C 333.393 472.813, 331.576 470, 331.379 470 C 331.183 470, 331.116 471.125, 331.229 472.500 C 331.343 473.875, 331.705 475, 332.033 475 C 332.361 475, 333.337 476.462, 334.201 478.250 C 336.792 483.610, 348.604 496.421, 356.545 502.483 C 363.852 508.060, 373.881 512.716, 384.571 515.493 C 392.497 517.553, 396.565 518, 407.369 518 C 419.300 518, 421.704 517.675, 433.293 514.499 C 448.041 510.457, 447.589 510.359, 456.311 519.473 C 458.956 522.238, 463.279 526.750, 465.915 529.500 C 468.552 532.250, 473.250 536.888, 476.355 539.807 C 479.460 542.725, 482 545.267, 482 545.455 C 482 545.832, 523.312 587.747, 564.648 629.309 C 579.313 644.054, 593.213 657.426, 595.536 659.025 C 599.840 661.986, 603.587 662.286, 605.128 659.793 C 605.554 659.103, 605.935 643.214, 605.974 624.484 C 606.043 591.431, 605.471 584, 602.855 584 C 602.333 584, 599.923 582.087, 597.500 579.750 C 595.077 577.413, 589.373 572.125, 584.824 568 C 575.263 559.331, 526.188 511.182, 512.075 496.624 C 506.809 491.192, 501.150 485.568, 499.500 484.127 C 497.850 482.686, 494.587 479.585, 492.250 477.236 C 487.503 472.466, 486.946 469.510, 489.471 462.500 C 490.264 460.300, 490.932 456.887, 490.956 454.917 C 490.980 452.946, 491.313 451.020, 491.696 450.638 C 492.078 450.255, 492.497 449.393, 492.627 448.721 C 492.756 448.049, 493.351 444.990, 493.950 441.922 C 495.035 436.358, 494.793 414.189, 493.584 408.500 C 492.409 402.967, 489.715 394.942, 488.853 394.409 C 488.384 394.119, 488 393.280, 488 392.543 C 488 391.306, 481.270 379.572, 478.645 376.235 C 474.744 371.273, 465.967 362.447, 461.535 359.027 C 456.070 354.811, 439.773 346, 437.439 346 C 436.686 346, 434.019 345.304, 431.513 344.453 C 426.726 342.828, 416.554 341.868, 414 342.800 M 1157.357 343.950 C 1155.236 344.943, 1150.480 347.165, 1146.789 348.889 C 1143.098 350.613, 1138.870 353.143, 1137.393 354.512 C 1135.916 355.880, 1134.413 357, 1134.053 357 C 1133.692 357, 1129.459 360.825, 1124.645 365.500 C 1119.831 370.175, 1116.211 374, 1116.599 374 C 1116.988 374, 1116.337 374.840, 1115.153 375.867 C 1113.969 376.894, 1113 378.304, 1113 379 C 1113 379.696, 1112.211 380.993, 1111.246 381.883 C 1108.757 384.178, 1105.840 390.386, 1101.324 403 C 1098.745 410.203, 1098.180 413.679, 1099.014 417.201 C 1099.759 420.349, 1099.800 420.373, 1099.898 417.737 C 1100.012 414.652, 1103.249 402.434, 1105.220 397.650 C 1110.835 384.020, 1119.281 372.064, 1129.913 362.697 C 1136.392 356.988, 1138.028 355.873, 1145 352.405 C 1146.925 351.448, 1149.175 350.107, 1150 349.425 C 1150.825 348.744, 1153.436 347.671, 1155.801 347.041 C 1158.167 346.411, 1160.342 345.272, 1160.634 344.511 C 1160.926 343.749, 1161.803 343.371, 1162.583 343.670 C 1163.362 343.969, 1164 343.989, 1164 343.714 C 1164 342.247, 1160.750 342.362, 1157.357 343.950 M 388.250 344.166 C 382.353 345.487, 382.744 347.293, 388.750 346.477 C 395.157 345.607, 397 345.038, 397 343.933 C 397 342.806, 393.963 342.886, 388.250 344.166 M 372.500 349.522 C 369.750 350.817, 368.233 351.905, 369.128 351.939 C 371.247 352.019, 377.683 349.321, 378.491 348.015 C 379.397 346.549, 378.138 346.866, 372.500 349.522 M 355.876 358.708 C 350.021 363.547, 348.630 364.963, 349.186 365.519 C 349.483 365.816, 351.025 364.947, 352.613 363.586 C 354.201 362.226, 356.625 360.227, 358 359.143 C 359.375 358.059, 360.219 356.890, 359.876 356.545 C 359.532 356.200, 357.732 357.173, 355.876 358.708 M 343.002 370.707 C 337.780 376.605, 335.555 379.888, 336.285 380.618 C 336.590 380.924, 337.631 379.897, 338.597 378.337 C 339.563 376.777, 342.159 373.597, 344.365 371.271 C 346.570 368.945, 348.121 366.788, 347.811 366.478 C 347.500 366.167, 345.337 368.070, 343.002 370.707 M 323.183 406.465 C 321.072 411.273, 320.868 413.168, 320.892 427.730 C 320.914 441.519, 321.203 444.441, 322.995 448.988 C 324.138 451.888, 324.836 454.498, 324.545 454.788 C 324.255 455.078, 324.394 455.807, 324.854 456.408 C 325.313 457.009, 326.266 459.629, 326.969 462.231 C 327.673 464.833, 328.868 467.476, 329.625 468.103 C 331.435 469.606, 331.503 469.917, 327.623 459 C 325.156 452.060, 323.918 446.282, 323.032 437.559 C 321.780 425.252, 322.114 419.127, 324.637 408.132 C 325.441 404.630, 325.964 401.635, 325.799 401.475 C 325.635 401.316, 324.457 403.561, 323.183 406.465 M 722.432 539.109 C 721.992 539.822, 723.486 540.238, 731.450 541.615 C 737.920 542.733, 750.460 550.793, 762.140 561.339 C 770.302 568.709, 772.087 570.242, 777.500 574.535 C 780.250 576.716, 782.725 578.744, 783 579.043 C 783.275 579.341, 790.250 585.392, 798.500 592.488 C 806.750 599.585, 814.145 606.028, 814.934 606.808 C 816.218 608.077, 832.249 621.649, 853 639.036 C 857.125 642.492, 862.538 647.160, 865.030 649.410 C 870.098 653.987, 874.998 658.209, 896.047 676.141 C 904.047 682.956, 912.822 690.313, 915.547 692.488 C 918.271 694.664, 922.116 697.806, 924.092 699.472 C 926.067 701.137, 930.096 704.525, 933.045 707 C 935.994 709.475, 940.452 713.342, 942.953 715.594 C 956.131 727.460, 961.501 732.171, 969.601 738.971 C 989.822 755.945, 1002.827 769.143, 1007.909 777.844 C 1015.865 791.468, 1016.624 809.870, 1009.846 824.818 C 1004.087 837.518, 997.149 845.110, 969.500 868.971 C 959.050 877.989, 950.002 885.847, 949.394 886.434 C 948.461 887.332, 942.926 892.255, 932.609 901.362 C 931.449 902.386, 928.475 904.861, 926 906.862 C 923.525 908.863, 921.275 910.727, 921 911.005 C 919.582 912.435, 902.648 927.239, 897 931.986 C 893.425 934.990, 890.275 937.684, 890 937.974 C 889.725 938.263, 886.350 941.191, 882.500 944.481 C 878.650 947.770, 873.925 951.876, 872 953.604 C 870.075 955.332, 862.875 961.618, 856 967.574 C 849.125 973.529, 841.543 980.336, 839.151 982.701 C 836.759 985.065, 834.586 987, 834.322 987 C 833.898 987, 823.804 995.402, 820.185 998.768 C 817.293 1001.457, 791.597 1023.628, 788.629 1025.995 C 786.908 1027.367, 777.850 1034.945, 768.500 1042.834 C 750.131 1058.333, 742.907 1062.977, 733.356 1065.425 C 725.216 1067.511, 711.736 1067.470, 705.483 1065.340 C 697.371 1062.576, 690.082 1058.007, 685.258 1052.662 C 680.289 1047.158, 673.246 1036.232, 671.362 1031.104 C 669.326 1025.567, 667.721 1023.452, 668.247 1027 C 669.118 1032.888, 679.863 1050.015, 686.569 1056.207 C 693.836 1062.917, 695.167 1064, 696.147 1064 C 696.721 1064, 698.500 1064.932, 700.101 1066.072 C 706.666 1070.746, 730.797 1070.965, 740.590 1066.438 C 745.474 1064.181, 755.166 1058.209, 756.500 1056.634 C 757.050 1055.985, 759.741 1053.665, 762.480 1051.477 C 769.285 1046.042, 814.759 1007.389, 825.393 998 C 836.119 988.530, 839.305 985.749, 849.478 976.971 C 855.516 971.762, 861.153 966.825, 862.006 966 C 862.859 965.175, 865.968 962.475, 868.915 960 C 871.863 957.525, 875.900 953.978, 877.887 952.117 C 881.609 948.632, 894.633 937.435, 902.845 930.660 C 905.405 928.548, 909.300 925.158, 911.500 923.127 C 913.700 921.095, 919.999 915.623, 925.498 910.967 C 930.996 906.310, 941.613 897.100, 949.091 890.500 C 956.569 883.900, 968.495 873.563, 975.593 867.528 C 999.529 847.181, 1007.102 838.572, 1012.566 825.500 C 1018.973 810.170, 1018.497 792.668, 1011.282 778.278 C 1008.114 771.960, 987.400 750.520, 975.329 741.067 C 974.323 740.279, 971.206 737.579, 968.402 735.067 C 965.599 732.555, 960.874 728.411, 957.902 725.858 C 954.931 723.305, 950.016 719.030, 946.980 716.358 C 943.943 713.686, 938.830 709.250, 935.616 706.500 C 932.402 703.750, 929.261 701.020, 928.636 700.432 C 928.011 699.845, 921.650 694.525, 914.500 688.610 C 907.350 682.695, 900.354 676.875, 898.953 675.678 C 897.553 674.480, 893.980 671.475, 891.015 669 C 888.050 666.525, 884.395 663.375, 882.894 662 C 881.392 660.625, 878.267 657.925, 875.948 656 C 873.630 654.075, 868.980 649.970, 865.616 646.878 C 859.206 640.986, 851.360 634.292, 829.073 615.700 C 821.689 609.540, 813.139 602.182, 810.073 599.350 C 805.492 595.116, 799.689 590.318, 792.500 584.818 C 791.497 584.051, 781.800 575.464, 777.176 571.250 C 775.819 570.013, 774.409 569, 774.043 569 C 773.677 569, 772.505 568.202, 771.439 567.226 C 759.419 556.226, 748.436 546.804, 746.226 545.595 C 742.554 543.586, 738.719 541.841, 737.500 541.623 C 736.950 541.524, 735.825 541.020, 735 540.502 C 733.048 539.276, 723.016 538.165, 722.432 539.109 M 696.362 545.750 C 691.156 548.537, 685.042 553.366, 683.548 555.873 C 683.098 556.628, 685.603 555.001, 689.115 552.258 C 692.627 549.514, 697.188 546.668, 699.250 545.934 C 701.313 545.199, 703 544.239, 703 543.799 C 703 542.493, 701.774 542.854, 696.362 545.750 M 678.832 560.250 C 672.390 568.956, 668.004 576.827, 668.068 579.570 L 668.135 582.500 669.193 580 C 672.125 573.072, 676.547 565.151, 679.120 562.215 C 681.652 559.327, 682.767 557, 681.619 557 C 681.409 557, 680.155 558.462, 678.832 560.250 M 664.996 601.538 C 664.037 610.437, 663.894 642.624, 664.370 742.288 C 664.709 813.354, 665.055 902.775, 665.138 941 C 665.221 979.225, 665.609 1011.850, 665.999 1013.500 C 666.389 1015.150, 666.661 920.538, 666.604 803.251 C 666.547 685.963, 666.441 590.001, 666.369 590.001 C 666.298 590, 665.679 595.192, 664.996 601.538 M 232.825 707.508 C 232.622 707.712, 231.340 708.092, 229.977 708.353 C 228.615 708.614, 225.925 709.545, 224 710.420 L 220.500 712.012 224.500 711.485 C 230.320 710.718, 236.535 708.419, 234.697 707.714 C 233.871 707.397, 233.029 707.304, 232.825 707.508 M 1332 708.012 C 1328.975 708.407, 1324.925 709.280, 1323 709.951 C 1321.075 710.623, 1318.473 711.320, 1317.219 711.502 C 1315.183 711.795, 1313.050 712.787, 1304 717.646 C 1302.625 718.384, 1300.922 718.990, 1300.215 718.994 C 1298.398 719.003, 1294.708 721.564, 1289.225 726.621 C 1286.626 729.018, 1284.179 730.983, 1283.787 730.989 C 1282.583 731.007, 1275 739.325, 1275 740.629 C 1275 741.303, 1273.901 742.720, 1272.557 743.777 C 1271.213 744.834, 1269.819 746.873, 1269.459 748.308 C 1269.099 749.744, 1268.173 751.442, 1267.402 752.081 C 1266.631 752.721, 1266 753.726, 1266 754.314 C 1266 754.902, 1264.180 758.447, 1261.955 762.192 L 1257.911 769 1170.523 769 C 1088.156 769, 1083.106 769.101, 1082.628 770.750 C 1082.349 771.712, 1081.981 784.650, 1081.810 799.500 L 1081.500 826.500 1099 827.137 C 1108.625 827.488, 1144.625 827.533, 1179 827.238 C 1247.036 826.653, 1259 827.059, 1259 829.955 C 1259 830.931, 1259.933 832.916, 1261.073 834.365 C 1262.212 835.814, 1262.857 837, 1262.504 837 C 1262.152 837, 1262.825 838.350, 1264 840 C 1265.175 841.650, 1265.802 843, 1265.394 843 C 1264.985 843, 1265.634 844.046, 1266.835 845.324 C 1268.036 846.602, 1268.714 847.952, 1268.342 848.324 C 1267.971 848.696, 1268.267 849, 1269 849 C 1269.733 849, 1270.058 849.276, 1269.721 849.612 C 1269.384 849.949, 1270.432 851.637, 1272.050 853.362 C 1273.667 855.088, 1274.993 857.021, 1274.995 857.657 C 1275 858.750, 1286.494 870.843, 1290.465 873.933 C 1300.209 881.513, 1310.684 886.774, 1323 890.272 C 1329.166 892.023, 1333.168 892.399, 1345.500 892.383 C 1358.785 892.365, 1361.507 892.061, 1369.312 889.724 C 1378.595 886.943, 1392.970 880.147, 1400.825 874.826 C 1413.626 866.154, 1426.090 849.793, 1432.840 832.803 C 1443.921 804.908, 1440.234 773.405, 1422.898 747.842 C 1417.476 739.847, 1403.857 726.488, 1395.161 720.635 C 1388.145 715.914, 1377.903 711, 1375.076 711 C 1374.154 711, 1372.924 710.524, 1372.342 709.942 C 1371.761 709.361, 1368.676 708.616, 1365.487 708.287 C 1357.913 707.505, 1358.822 709.429, 1366.767 710.996 C 1389.019 715.383, 1410.448 732.394, 1426.425 758.353 C 1434.493 771.461, 1438.111 797.544, 1434.562 817 C 1431.863 831.794, 1421.925 850.772, 1411.147 861.714 C 1397.884 875.179, 1376.946 886.154, 1359.308 888.886 C 1327.239 893.853, 1297.706 882.266, 1276.762 856.500 C 1273.367 852.323, 1265.915 839.583, 1263.016 833 C 1261.684 829.975, 1260.180 826.938, 1259.675 826.250 C 1258.951 825.267, 1240.123 825, 1171.378 825 L 1084 825 1084 798.500 L 1084 772 1170.750 771.985 C 1218.463 771.976, 1258.006 771.639, 1258.623 771.235 C 1259.241 770.831, 1261.328 767.350, 1263.260 763.500 C 1271.545 746.995, 1272.625 745.317, 1280.191 737.197 C 1288.274 728.523, 1299.334 720.790, 1309 717.053 C 1310.925 716.309, 1313.850 715.096, 1315.500 714.358 C 1317.150 713.620, 1322.550 712.095, 1327.500 710.969 C 1332.450 709.843, 1337.850 708.535, 1339.500 708.063 C 1342.194 707.292, 1342.245 707.209, 1340 707.249 C 1338.625 707.274, 1335.025 707.617, 1332 708.012 M 265.500 709.318 C 267.150 710.072, 270.178 711.002, 272.230 711.386 C 284.939 713.762, 304.331 725.223, 312.989 735.473 C 314.370 737.109, 316.305 739.264, 317.289 740.263 C 320.167 743.183, 328.529 756.189, 329.979 760 C 331.133 763.035, 334.530 769.502, 335.757 771 C 335.982 771.275, 393.941 771.725, 464.556 772 C 591.281 772.494, 592.971 772.526, 594.923 774.500 C 598.028 777.640, 598.837 783.775, 598.959 805.128 L 599.074 825 469.619 825 C 398.418 825, 339.429 825.282, 338.532 825.626 C 337.634 825.971, 335.067 830.133, 332.827 834.876 C 328.665 843.690, 321.252 855.448, 316.279 861.124 C 308.584 869.908, 294.157 879.319, 280 884.791 C 263.576 891.139, 237.324 891.724, 223.500 886.051 C 209.966 880.497, 196.439 871.492, 187.948 862.383 C 176.154 849.731, 167.202 831.643, 163.997 813.989 C 162.107 803.579, 162.616 784.764, 165.025 775.980 C 168.575 763.037, 168.530 763.329, 166.770 764.782 C 165.916 765.487, 164.964 767.287, 164.654 768.782 C 164.343 770.277, 163.661 773.525, 163.137 776 C 159.528 793.057, 159.191 800.613, 161.554 811.500 C 162.390 815.350, 163.495 820.636, 164.010 823.247 C 164.525 825.857, 165.859 829.995, 166.973 832.442 C 168.088 834.888, 169 837.083, 169 837.318 C 169 838.256, 178.634 853.831, 182.406 858.991 C 192.685 873.055, 209.202 884.423, 227.500 890.027 C 234.446 892.154, 237.410 892.474, 250 892.451 C 262.550 892.429, 265.711 892.079, 273.500 889.844 C 302.655 881.482, 318.071 868.242, 334.451 837.500 C 337.088 832.550, 339.397 828.331, 339.582 828.125 C 339.766 827.918, 398.481 827.647, 470.058 827.523 C 579.629 827.332, 600.334 827.078, 601.054 825.912 C 601.957 824.451, 601.266 789.286, 600.154 780.106 C 599.275 772.858, 596.788 771.025, 586.346 769.931 C 582.031 769.478, 524.474 769.084, 458.441 769.054 C 363.942 769.011, 338.056 768.734, 336.851 767.750 C 336.009 767.063, 334.557 764.417, 333.624 761.871 C 330.745 754.017, 322.556 741.758, 315.406 734.597 C 311.131 730.316, 301.149 721.664, 299.355 720.684 C 298.335 720.127, 297.275 719.407, 297 719.085 C 296.725 718.763, 294.250 717.421, 291.500 716.102 C 288.750 714.783, 285.619 713.258, 284.542 712.713 C 281.565 711.208, 272.049 708.855, 267 708.376 C 262.501 707.949, 262.501 707.949, 265.500 709.318 M 212 714.777 C 208.975 716.264, 206.275 717.761, 206 718.105 C 205.725 718.449, 204.550 719.027, 203.388 719.389 C 202.226 719.751, 199.395 721.837, 197.096 724.024 C 194.797 726.211, 192.533 728, 192.065 728 C 191.597 728, 190.955 728.675, 190.638 729.500 C 189.649 732.077, 191.442 731.155, 195.500 727 C 197.648 724.800, 199.990 723, 200.703 723 C 201.416 723, 202 722.550, 202 722 C 202 721.450, 202.527 721, 203.171 721 C 203.815 721, 205.053 720.397, 205.921 719.660 C 206.790 718.924, 210.095 717.293, 213.267 716.037 C 218.885 713.813, 221.449 711.962, 218.809 712.037 C 218.089 712.058, 215.025 713.291, 212 714.777 M 171.931 753.164 C 171.254 754.449, 170.387 755.725, 170.004 756 C 169.621 756.275, 169 757.850, 168.624 759.500 C 168.105 761.771, 168.199 762.136, 169.008 761 C 171.158 757.984, 174.126 751.793, 173.651 751.317 C 173.382 751.049, 172.608 751.880, 171.931 753.164 M 978.327 946.886 C 976.772 948.473, 973.949 951.679, 972.052 954.012 C 970.156 956.344, 968.019 958.839, 967.302 959.555 C 966.586 960.271, 966 961.317, 966 961.879 C 966 962.441, 965.372 963.260, 964.603 963.700 C 963.835 964.140, 962.216 966.188, 961.005 968.250 C 959.793 970.313, 958.480 972, 958.085 972 C 957.071 972, 952.780 979.848, 953.174 980.984 C 953.353 981.501, 956.989 977.055, 961.252 971.104 C 969.469 959.636, 980.469 947, 982.236 947 C 983.986 947, 990.659 952.969, 1007.553 969.650 C 1024.642 986.523, 1031.769 993.290, 1050.032 1009.983 C 1056.339 1015.749, 1072.300 1031.105, 1085.500 1044.107 C 1142.647 1100.397, 1143.290 1101, 1146.263 1101 C 1147.804 1101, 1150.737 1100.292, 1152.782 1099.426 C 1158.843 1096.861, 1173.779 1094.004, 1184.632 1093.335 C 1205.039 1092.077, 1227.834 1100.014, 1242.857 1113.608 C 1268.164 1136.510, 1277.627 1170.165, 1268.272 1204 C 1266.413 1210.723, 1261.658 1221.476, 1260.124 1222.423 C 1259.506 1222.805, 1259 1223.825, 1259 1224.690 C 1259 1227.912, 1241.317 1246.229, 1234.206 1250.373 C 1215.652 1261.183, 1207.076 1263.868, 1188.500 1264.681 C 1170.055 1265.488, 1158.647 1262.982, 1145.500 1255.237 C 1133.308 1248.055, 1125.635 1241.180, 1117.333 1230 C 1108.992 1218.766, 1104.506 1207.586, 1101.494 1190.523 C 1099.367 1178.471, 1099.915 1166.095, 1103.067 1155 C 1104.239 1150.875, 1105.415 1145.235, 1105.679 1142.468 L 1106.160 1137.436 1089.830 1121.499 C 1068.170 1100.360, 1014.484 1046.310, 999.776 1030.835 C 969.597 999.081, 953 982.597, 953 984.376 C 953 985.399, 956.938 990.173, 961.750 994.987 C 966.563 999.801, 978.825 1012.403, 989 1022.992 C 999.175 1033.581, 1012.675 1047.603, 1019 1054.153 C 1030.186 1065.737, 1060.707 1096.181, 1089.882 1124.856 L 1104.264 1138.992 1103.574 1143.246 C 1103.195 1145.586, 1102.747 1148.625, 1102.579 1150 C 1102.411 1151.375, 1101.425 1154.525, 1100.387 1157 C 1098.821 1160.735, 1098.501 1164.048, 1098.505 1176.500 C 1098.509 1186.085, 1098.971 1192.801, 1099.785 1195.104 C 1100.485 1197.085, 1101.232 1199.606, 1101.443 1200.705 C 1103.012 1208.852, 1106.935 1218.510, 1111.515 1225.500 C 1118.569 1236.267, 1133.285 1251.631, 1138.941 1254.134 C 1140.624 1254.879, 1142 1255.760, 1142 1256.092 C 1142 1257.423, 1157.360 1264.174, 1164.602 1266.026 C 1174.067 1268.447, 1192.558 1268.696, 1202.800 1266.542 C 1215.717 1263.825, 1230.360 1257.235, 1239.500 1250.025 C 1255.213 1237.631, 1265.297 1223.961, 1270.030 1208.638 C 1281.077 1172.872, 1272.973 1139.194, 1247.323 1114.275 C 1233.470 1100.818, 1217.836 1093.531, 1197.351 1090.982 C 1184.753 1089.415, 1158.685 1093.009, 1149.975 1097.513 C 1145.815 1099.664, 1143.526 1098.272, 1132.430 1086.843 C 1121.560 1075.645, 1078.701 1033.541, 1067.443 1023 C 1063.037 1018.875, 1054.793 1011.225, 1049.123 1006 C 1035.377 993.333, 1026.554 984.876, 1007.846 966.434 C 990.509 949.343, 984.468 944, 982.482 944 C 981.752 944, 979.882 945.299, 978.327 946.886 M 594.150 953.006 C 591.868 954.660, 589.983 956.347, 589.962 956.756 C 589.941 957.165, 587.916 959.073, 585.462 960.995 C 583.008 962.918, 581 965.055, 581 965.745 C 581 966.435, 580.605 967, 580.122 967 C 578.986 967, 532 1013.923, 532 1015.058 C 532 1015.532, 530.111 1017.625, 527.802 1019.710 C 520.741 1026.085, 511.016 1036.102, 509.944 1038.104 C 509.386 1039.147, 508.270 1040, 507.465 1040 C 506.659 1040, 506 1040.507, 506 1041.127 C 506 1041.746, 500.389 1047.760, 493.530 1054.490 C 486.672 1061.220, 481.347 1067.013, 481.697 1067.363 C 482.047 1067.714, 481.838 1068, 481.233 1068 C 480.628 1068, 473.839 1074.298, 466.146 1081.995 C 458.453 1089.692, 451.031 1096.418, 449.652 1096.942 C 447.784 1097.652, 444.773 1097.255, 437.823 1095.379 C 425.759 1092.123, 422.027 1091.675, 407.250 1091.710 C 392.490 1091.744, 393.086 1091.676, 385 1094.228 C 377.118 1096.716, 367.652 1101.348, 364.971 1104.029 C 363.887 1105.113, 362.728 1105.935, 362.395 1105.855 C 361.841 1105.722, 361.074 1106.191, 356.155 1109.668 C 355.247 1110.311, 354.831 1111.164, 355.231 1111.565 C 355.632 1111.965, 359.006 1110.288, 362.730 1107.837 C 378.506 1097.455, 389.814 1094, 408.023 1094 C 419.115 1094, 422.611 1094.426, 432.663 1097 C 451.442 1101.809, 447.856 1103.535, 473.702 1077.250 C 486.006 1064.737, 506.294 1043.963, 518.786 1031.083 C 549.829 999.080, 592.339 957.021, 595.959 954.729 C 599.822 952.283, 602.587 953.187, 603.381 957.155 C 603.721 958.857, 603.993 971.331, 603.984 984.875 C 603.969 1008.759, 603.138 1017.357, 600.364 1022.313 C 599.807 1023.310, 574.763 1048.810, 544.711 1078.979 C 514.660 1109.149, 489.158 1135.333, 488.040 1137.167 C 485.391 1141.511, 485.468 1143.496, 488.683 1153.855 C 491.169 1161.869, 491.370 1163.851, 491.433 1181 C 491.497 1198.715, 491.380 1199.861, 488.677 1208 C 480.873 1231.501, 467.491 1246.263, 443.889 1257.406 C 425.439 1266.116, 407.936 1267.616, 386 1262.364 C 364.526 1257.224, 342.753 1239.170, 333.701 1219 C 332.313 1215.908, 331.553 1215.043, 331.270 1216.237 C 330.817 1218.148, 335.899 1228.812, 338.719 1231.868 C 342.700 1236.183, 345.528 1239.555, 345.956 1240.500 C 346.205 1241.050, 348.222 1243.015, 350.438 1244.866 C 352.653 1246.717, 355.201 1249.079, 356.100 1250.116 C 356.999 1251.152, 358.038 1252, 358.409 1252 C 358.780 1252, 359.934 1252.787, 360.974 1253.750 C 363.227 1255.835, 371.087 1259.749, 381.393 1263.918 C 391.442 1267.982, 415.147 1269.334, 427.188 1266.530 C 438.545 1263.886, 453.577 1256.994, 463 1250.110 C 475.383 1241.065, 487.065 1223.566, 492.139 1206.458 C 494.176 1199.591, 494.500 1196.375, 494.500 1183 C 494.500 1167.566, 493.831 1162.583, 489.937 1149 L 488.074 1142.500 490.675 1138.564 C 492.105 1136.399, 517.626 1110.171, 547.387 1080.280 C 577.149 1050.389, 602.400 1024.260, 603.500 1022.216 C 605.384 1018.716, 605.500 1016.595, 605.500 985.670 C 605.500 954.327, 605.412 952.776, 603.559 951.420 C 600.704 949.331, 598.774 949.657, 594.150 953.006 M 813.339 1082.814 C 811.050 1084.291, 807.842 1086.693, 806.209 1088.150 C 804.577 1089.608, 802.285 1091.312, 801.116 1091.938 C 799.948 1092.563, 796.237 1095.533, 792.870 1098.537 C 789.503 1101.542, 786.328 1104, 785.815 1104 C 785.302 1104, 785.160 1104.450, 785.500 1105 C 785.840 1105.550, 785.191 1106, 784.059 1106 C 782.927 1106, 782 1106.413, 782 1106.918 C 782 1107.424, 780.473 1108.781, 778.606 1109.934 C 771.695 1114.206, 771.911 1111.816, 772.007 1182.734 C 772.054 1217.805, 772.072 1248.135, 772.047 1250.133 C 772.014 1252.675, 771.474 1253.943, 770.250 1254.355 C 764.679 1256.226, 756.804 1259.706, 755.208 1261 C 754.191 1261.825, 752.715 1262.640, 751.929 1262.811 C 749.862 1263.261, 743.240 1267.732, 739.256 1271.367 C 737.368 1273.090, 735.122 1274.897, 734.265 1275.381 C 733.409 1275.866, 731.311 1277.865, 729.604 1279.825 C 727.897 1281.784, 725.467 1284.513, 724.204 1285.889 C 722.941 1287.265, 720.946 1290.103, 719.770 1292.196 C 718.594 1294.288, 717.300 1296, 716.895 1296 C 716.490 1296, 715.867 1297.329, 715.510 1298.953 C 715.154 1300.577, 714.077 1302.940, 713.118 1304.203 C 712.159 1305.466, 710.555 1308.750, 709.555 1311.500 C 708.555 1314.250, 707.346 1316.927, 706.869 1317.450 C 706.391 1317.972, 706 1320.297, 706 1322.617 C 706 1324.936, 705.663 1326.983, 705.250 1327.167 C 704.837 1327.350, 704.767 1329.750, 705.093 1332.500 L 705.686 1337.500 705.843 1333.064 C 706.487 1314.865, 722.133 1286.746, 738.878 1273.692 C 746.999 1267.362, 758.788 1260.875, 767.246 1258.084 C 769.223 1257.431, 771.439 1256.177, 772.170 1255.296 C 773.237 1254.012, 773.599 1240.160, 774 1185.238 L 774.500 1116.782 779.601 1112.141 C 786.826 1105.567, 790.029 1102.983, 802.727 1093.479 C 816.211 1083.386, 819.549 1081.486, 820.693 1083.254 C 821.137 1083.939, 821.725 1123.275, 822 1170.667 C 822.275 1218.059, 822.725 1257.057, 823 1257.328 C 823.275 1257.600, 827.688 1259.201, 832.806 1260.886 C 845.369 1265.022, 854.524 1270.001, 863.241 1277.439 C 878.998 1290.883, 886.445 1303.369, 891.204 1324.319 C 895.401 1342.792, 893.645 1360.159, 885.779 1378 C 879.277 1392.748, 877.393 1395.587, 867.500 1405.548 C 856.230 1416.895, 851.820 1420.099, 838.689 1426.481 C 811.422 1439.731, 783.196 1439.233, 755.008 1425.004 C 742.051 1418.464, 731.954 1409.566, 722.500 1396.358 C 716.609 1388.128, 709.945 1372.281, 707.907 1361.653 C 707.073 1357.303, 706.364 1355.461, 705.964 1356.603 C 704.765 1360.021, 707.715 1370.899, 712.968 1382.430 C 714.011 1384.719, 715.007 1387.208, 715.182 1387.962 C 715.357 1388.716, 716.304 1390.175, 717.286 1391.203 C 718.269 1392.232, 718.857 1393.422, 718.594 1393.848 C 718.330 1394.275, 719.664 1396.365, 721.557 1398.494 C 723.451 1400.622, 725 1402.664, 725 1403.032 C 725 1404.091, 739.424 1419, 740.449 1419 C 740.956 1419, 742.300 1419.851, 743.436 1420.892 C 747.461 1424.582, 762.646 1431.875, 773 1435.091 C 782.908 1438.168, 784.374 1438.354, 799 1438.393 C 813.253 1438.430, 815.206 1438.209, 823.281 1435.646 C 835.042 1431.914, 839.948 1429.705, 849.876 1423.668 C 865.109 1414.406, 878.621 1399.929, 885.434 1385.571 C 892.557 1370.562, 895.440 1358.909, 895.474 1345 C 895.552 1313.087, 884.082 1289.526, 859.500 1271.107 C 853.087 1266.302, 837.977 1259.045, 829.902 1256.892 L 825.303 1255.666 824.680 1171.083 C 824.337 1124.562, 823.853 1085.600, 823.605 1084.500 C 823.356 1083.400, 823.119 1081.938, 823.077 1081.250 C 822.947 1079.141, 817.732 1079.979, 813.339 1082.814 M 348.742 1116.408 C 343.206 1122.332, 340 1126.462, 340 1127.668 C 340 1128.137, 338.875 1129.734, 337.500 1131.217 C 336.125 1132.699, 335 1134.607, 335 1135.456 C 335 1136.305, 334.550 1137, 334 1137 C 333.450 1137, 333 1137.638, 333 1138.417 C 333 1139.196, 332.506 1139.998, 331.902 1140.199 C 331.298 1140.401, 330.963 1141.676, 331.156 1143.033 C 331.475 1145.266, 331.730 1145.074, 333.848 1141 C 339.295 1130.522, 342.888 1125.398, 349.506 1118.670 C 352.660 1115.464, 354.849 1112.498, 354.370 1112.079 C 353.892 1111.659, 351.359 1113.608, 348.742 1116.408 M 327.865 1151.250 C 327.197 1153.588, 326.321 1155.950, 325.919 1156.500 C 324.384 1158.600, 323.294 1186.132, 324.434 1194 C 325.193 1199.232, 328.199 1210.368, 329.141 1211.433 C 331.058 1213.601, 330.753 1210.921, 328.232 1203.457 C 325.748 1196.104, 325.547 1194.285, 325.586 1179.500 C 325.624 1165.281, 325.911 1162.582, 328.164 1155.250 C 329.559 1150.713, 330.335 1147, 329.890 1147 C 329.445 1147, 328.533 1148.912, 327.865 1151.250" stroke="none" fill="#aa70f0" fill-rule="evenodd"/><path d="M 784.500 163.714 C 782.850 163.942, 779.281 164.774, 776.568 165.564 C 770.681 167.278, 766.664 167.510, 769 166 C 770.828 164.819, 769.249 164.819, 766.500 166 C 765.120 166.593, 764.965 166.898, 766 166.983 C 766.825 167.051, 764.350 168.677, 760.500 170.596 C 747.310 177.170, 745.137 178.621, 736.434 186.666 C 734.748 188.225, 732.498 190.167, 731.434 190.983 C 729.603 192.386, 729.607 192.333, 731.500 189.983 C 732.600 188.617, 733.937 187.187, 734.471 186.804 C 735.005 186.422, 735.177 185.844, 734.854 185.521 C 734.121 184.787, 723.601 196.645, 718.511 203.943 C 712.846 212.065, 706.713 226, 708.804 226 C 709.375 226, 709.409 227.783, 708.889 230.567 C 707.796 236.414, 706.868 237.954, 705.954 235.434 C 705.017 232.847, 703.619 244.908, 703.570 256 C 703.524 266.616, 704.980 279.255, 705.943 276.599 C 706.549 274.926, 706.767 275.046, 707.754 277.599 C 708.370 279.195, 709.169 281.985, 709.528 283.800 C 711.217 292.337, 716.599 302.748, 725.180 314.078 C 734.611 326.532, 747.996 336.935, 764.321 344.500 C 769.068 346.700, 773.178 349.075, 773.455 349.777 C 773.731 350.479, 774.209 381.304, 774.515 418.277 C 774.822 455.250, 775.269 486.431, 775.510 487.569 C 776.019 489.977, 786.493 498.262, 801.340 508 C 802.598 508.825, 807.144 511.862, 811.442 514.750 C 815.740 517.637, 819.874 520, 820.628 520 C 821.780 520, 822 506.366, 822 435.071 C 822 341.517, 821.550 347.907, 828.240 346.457 C 831.468 345.757, 842.091 340.555, 847.090 337.225 C 848.515 336.276, 851.571 334.246, 853.880 332.712 C 858.954 329.344, 869.785 318.422, 875.078 311.337 C 880.131 304.572, 886.887 291.495, 890.493 281.500 C 893.060 274.383, 893.425 271.878, 893.797 258.797 C 894.123 247.352, 893.866 242.920, 892.638 238.797 C 891.770 235.884, 890.168 230.486, 889.078 226.801 C 885.262 213.901, 879.151 203.926, 868.125 192.603 C 859.712 183.964, 856.640 181.466, 848.593 176.728 C 836.958 169.876, 831.889 168.033, 813.500 163.971 C 809.525 163.093, 790.237 162.922, 784.500 163.714 M 724.382 197.562 C 719.932 202.870, 718.558 205.032, 719.700 204.926 C 720.782 204.826, 729.275 193.942, 728.711 193.378 C 728.466 193.132, 726.517 195.015, 724.382 197.562 M 713.198 299.500 C 714.746 303.272, 722.802 315.759, 724.275 316.670 C 724.880 317.044, 723.863 315.134, 722.013 312.425 C 715.585 303.009, 715 302.076, 715 301.232 C 715 300.764, 714.318 299.509, 713.484 298.441 C 712.091 296.659, 712.068 296.745, 713.198 299.500 M 1163.389 341.980 C 1162.228 342.449, 1161.014 343.522, 1160.691 344.364 C 1160.367 345.206, 1158.167 346.411, 1155.801 347.041 C 1153.436 347.671, 1150.825 348.744, 1150 349.425 C 1149.175 350.107, 1146.832 351.427, 1144.792 352.359 C 1142.753 353.291, 1140.792 354.528, 1140.433 355.108 C 1140.075 355.688, 1138.708 355.893, 1137.396 355.563 C 1135.549 355.100, 1134.160 355.789, 1131.255 358.609 L 1127.500 362.254 1131.285 359.127 C 1133.366 357.407, 1135.594 356, 1136.235 356 C 1136.948 356, 1137.031 356.320, 1136.450 356.825 C 1135.928 357.279, 1132.884 360.072, 1129.686 363.031 C 1125.454 366.947, 1123.655 368.060, 1123.075 367.122 C 1122.458 366.123, 1122.137 366.201, 1121.651 367.468 C 1121.244 368.528, 1121.417 368.860, 1122.141 368.413 C 1123.897 367.328, 1122.854 369.049, 1118.028 375.200 C 1115.513 378.405, 1113.270 380.437, 1112.903 379.843 C 1112.463 379.131, 1112.044 379.120, 1111.619 379.808 C 1111.272 380.370, 1111.488 380.996, 1112.100 381.200 C 1112.785 381.428, 1111.924 384.060, 1109.856 388.057 C 1108.010 391.625, 1105.924 395.942, 1105.220 397.650 C 1103.269 402.385, 1100.015 414.631, 1099.882 417.737 L 1099.763 420.500 1099.087 417.500 C 1097.546 410.670, 1096.342 429.241, 1097.718 438.610 L 1098.436 443.500 1099.086 440 L 1099.737 436.500 1099.868 439.678 C 1099.991 442.636, 1103.321 455.766, 1106.073 464.144 C 1106.732 466.148, 1106.993 468.892, 1106.654 470.242 C 1105.781 473.721, 1098.983 481.208, 1097.288 480.557 C 1096.455 480.237, 1096.166 480.460, 1096.568 481.111 C 1097.257 482.226, 1086.331 494, 1084.607 494 C 1084.081 494, 1084.708 492.875, 1086 491.500 C 1087.292 490.125, 1088.129 489, 1087.861 489 C 1087.593 489, 1086.052 490.420, 1084.437 492.155 C 1082.822 493.890, 1082.121 494.952, 1082.880 494.515 C 1083.694 494.047, 1084.104 494.135, 1083.880 494.728 C 1083.671 495.282, 1065.725 513.857, 1044 536.005 C 1022.275 558.154, 999.490 581.388, 993.367 587.638 C 983.122 598.093, 979.768 600.972, 981.588 597.750 C 981.976 597.063, 980.428 598.279, 978.147 600.453 C 975.866 602.627, 974 604.628, 974 604.899 C 974 605.170, 975.575 603.866, 977.500 602 C 979.425 600.134, 980.988 599.033, 980.973 599.554 C 980.939 600.771, 975.279 607.068, 963.410 619.093 C 957.019 625.570, 954.135 629.187, 954.534 630.228 C 955.695 633.254, 987.211 661, 989.487 661 C 990.281 661, 992.634 659.538, 994.715 657.750 C 997.706 655.182, 1070.430 583.266, 1136.793 517.250 C 1141.907 512.163, 1146.858 508.010, 1147.796 508.023 C 1148.733 508.035, 1154.450 509.431, 1160.500 511.124 C 1174.999 515.181, 1195.422 516.214, 1207.649 513.508 C 1225.675 509.519, 1238.664 502.349, 1252.025 489.009 C 1260.227 480.822, 1262.190 478.179, 1266.149 470 C 1280.290 440.785, 1281.067 422.374, 1269.353 394.076 C 1260.313 372.238, 1245.309 357.846, 1220.484 347.201 C 1206.472 341.193, 1191.285 339.829, 1170.108 342.679 C 1166.964 343.102, 1165.915 342.947, 1166.417 342.135 C 1167.228 340.822, 1166.363 340.778, 1163.389 341.980 M 396 343.015 C 397.241 343.830, 397.267 344.150, 396.147 344.873 C 394.043 346.230, 384.548 347.111, 384.167 345.984 C 383.983 345.443, 383.394 345, 382.858 345 C 382.321 345, 382.171 345.468, 382.525 346.040 C 382.943 346.716, 382.250 346.850, 380.544 346.422 C 378.659 345.949, 378.003 346.130, 378.211 347.069 C 378.591 348.785, 372.126 352.074, 369.250 351.627 C 367.872 351.413, 367 351.791, 367 352.603 C 367 354.687, 362.937 356.517, 361.930 354.887 C 361.331 353.917, 360.859 354.241, 360.149 356.109 C 359.617 357.507, 357.986 359.434, 356.524 360.392 C 355.062 361.350, 352.959 363.041, 351.850 364.150 C 350.741 365.259, 349.534 365.867, 349.168 365.502 C 348.802 365.136, 349.370 364.203, 350.429 363.429 C 351.488 362.654, 352.115 361.782, 351.823 361.490 C 350.981 360.647, 337.881 374.927, 333.700 381.247 C 328.991 388.363, 324.384 398.360, 323.675 403 L 323.139 406.500 324.525 403.500 C 326.303 399.649, 326.316 401.018, 324.572 408.500 C 320.832 424.547, 321.949 443.039, 327.623 459 C 331.538 470.016, 331.459 469.626, 329.445 467.954 C 328.060 466.805, 328.024 466.959, 329.118 469.360 C 329.834 470.931, 330.625 471.607, 331.013 470.979 C 331.381 470.384, 333.339 472.721, 335.388 476.201 C 344.029 490.874, 357.966 502.301, 377.168 510.458 C 388.942 515.459, 411.961 516.338, 428 512.399 C 433.775 510.980, 440.750 509.601, 443.500 509.333 L 448.500 508.847 498.500 559.498 C 559.110 620.899, 590.200 651.844, 595.388 655.934 C 600.516 659.978, 602.735 659.927, 603.520 655.747 C 603.855 653.957, 603.988 638.025, 603.815 620.342 L 603.500 588.190 596.503 581.845 C 592.655 578.355, 585.057 571.225, 579.619 566 C 574.180 560.775, 568.329 555.207, 566.615 553.627 C 564.902 552.046, 546.063 533.410, 524.750 512.213 L 486 473.672 486 469.349 C 486 466.971, 487.144 460.632, 488.543 455.263 C 497.865 419.478, 490.868 390.643, 467.349 367.916 C 460.266 361.072, 449.309 353, 447.101 353 C 446.629 353, 443.737 351.853, 440.676 350.452 C 437.615 349.051, 430.023 346.879, 423.805 345.626 C 417.587 344.373, 413.175 343.080, 414 342.753 C 414.825 342.426, 410.775 342.129, 405 342.094 C 397.779 342.051, 394.968 342.338, 396 343.015 M 343.002 370.707 C 337.780 376.605, 335.555 379.888, 336.285 380.618 C 336.590 380.924, 337.631 379.897, 338.597 378.337 C 339.563 376.777, 342.159 373.597, 344.365 371.271 C 346.570 368.945, 348.121 366.788, 347.811 366.478 C 347.500 366.167, 345.337 368.070, 343.002 370.707 M 320.355 426.500 C 320.352 431.450, 320.521 433.601, 320.731 431.280 C 320.940 428.959, 320.943 424.909, 320.736 422.280 C 320.530 419.651, 320.358 421.550, 320.355 426.500 M 719.831 538.874 C 721.221 539.756, 716.919 541.016, 712.625 540.985 C 710.886 540.972, 710.773 540.793, 712 540 C 712.825 539.467, 713.025 539.024, 712.444 539.015 C 710.894 538.993, 699 543.101, 699 543.659 C 699 543.921, 699.900 543.849, 701 543.500 C 704.670 542.335, 703.057 544.578, 699.250 545.934 C 697.188 546.668, 692.688 549.466, 689.250 552.151 C 685.813 554.837, 683 556.800, 683 556.515 C 683 555.339, 690.765 548.703, 694.250 546.900 C 696.313 545.832, 698 544.734, 698 544.459 C 698 542.997, 689.717 548.552, 684.500 553.514 C 681.200 556.653, 679.288 558.666, 680.250 557.988 C 683.001 556.050, 682.392 558.473, 679.187 562.215 C 675.608 566.396, 671.648 573.365, 669.935 578.500 C 668.910 581.573, 668.497 582.036, 668.153 580.500 C 667.438 577.310, 665.181 588.446, 664.607 598 L 664.096 606.500 665.047 599.500 C 665.570 595.650, 666.111 591.864, 666.249 591.086 C 666.387 590.309, 666.547 685.709, 666.604 803.086 C 666.661 920.464, 666.377 1015.150, 665.972 1013.500 C 665.273 1010.648, 665.231 1010.627, 665.118 1013.066 C 664.954 1016.634, 666.978 1027.310, 668.025 1028.394 C 668.513 1028.899, 668.636 1028.247, 668.308 1026.894 C 667.377 1023.054, 669.456 1025.919, 671.362 1031.104 C 673.246 1036.232, 680.289 1047.158, 685.258 1052.662 C 690.082 1058.007, 697.371 1062.576, 705.483 1065.340 C 711.736 1067.470, 725.216 1067.511, 733.356 1065.425 C 742.907 1062.977, 750.131 1058.333, 768.500 1042.834 C 777.850 1034.945, 786.908 1027.367, 788.629 1025.995 C 791.597 1023.628, 817.293 1001.457, 820.185 998.768 C 823.804 995.402, 833.898 987, 834.322 987 C 834.586 987, 836.759 985.065, 839.151 982.701 C 841.543 980.336, 849.125 973.529, 856 967.574 C 862.875 961.618, 870.075 955.332, 872 953.604 C 873.925 951.876, 878.650 947.770, 882.500 944.481 C 886.350 941.191, 889.725 938.263, 890 937.974 C 890.275 937.684, 893.425 934.990, 897 931.986 C 902.648 927.239, 919.582 912.435, 921 911.005 C 921.275 910.727, 923.525 908.863, 926 906.862 C 928.475 904.861, 931.449 902.386, 932.609 901.362 C 942.926 892.255, 948.461 887.332, 949.394 886.434 C 950.002 885.847, 959.050 877.989, 969.500 868.971 C 997.149 845.110, 1004.087 837.518, 1009.846 824.818 C 1016.624 809.870, 1015.865 791.468, 1007.909 777.844 C 1002.827 769.143, 989.822 755.945, 969.601 738.971 C 961.501 732.171, 956.131 727.460, 942.953 715.594 C 940.452 713.342, 935.994 709.475, 933.045 707 C 930.096 704.525, 926.067 701.137, 924.092 699.472 C 922.116 697.806, 918.271 694.664, 915.547 692.488 C 912.822 690.313, 904.047 682.956, 896.047 676.141 C 874.998 658.209, 870.098 653.987, 865.030 649.410 C 862.538 647.160, 857.125 642.492, 853 639.036 C 832.249 621.649, 816.218 608.077, 814.934 606.808 C 814.145 606.028, 806.750 599.585, 798.500 592.488 C 790.250 585.392, 783.275 579.341, 783 579.043 C 782.725 578.744, 780.250 576.716, 777.500 574.535 C 772.087 570.242, 770.302 568.709, 762.140 561.339 C 754.954 554.851, 747.612 549.383, 741.250 545.781 C 738.362 544.147, 736.232 542.433, 736.516 541.974 C 736.800 541.514, 736.506 540.813, 735.862 540.415 C 735.087 539.936, 734.960 540.127, 735.488 540.980 C 736.118 542, 735.260 542.122, 731.392 541.563 C 724.008 540.497, 721.958 539.877, 722.566 538.893 C 722.870 538.402, 722.079 538.007, 720.809 538.015 C 719.167 538.026, 718.885 538.274, 719.831 538.874 M 675.073 563.762 C 671.445 569.349, 668.526 574.635, 669.697 573.500 C 671.539 571.713, 678.927 560, 678.203 560.012 C 677.816 560.019, 676.408 561.707, 675.073 563.762 M 663.448 647 C 663.448 665.425, 663.583 672.962, 663.748 663.750 C 663.913 654.538, 663.913 639.462, 663.748 630.250 C 663.583 621.038, 663.448 628.575, 663.448 647 M 236.500 707 C 234.850 707.420, 234.175 707.846, 235 707.948 C 235.825 708.049, 234.025 708.950, 231 709.949 C 227.516 711.099, 225.077 711.426, 224.346 710.839 C 223.711 710.330, 221.981 710.218, 220.501 710.589 C 218.566 711.075, 218.183 711.495, 219.137 712.085 C 220.050 712.649, 218.599 713.703, 214.482 715.465 C 211.192 716.873, 207.825 718.483, 207 719.042 C 206.175 719.601, 204.713 720.322, 203.750 720.646 C 202.787 720.969, 202 721.631, 202 722.117 C 202 722.602, 201.416 723, 200.703 723 C 199.990 723, 197.648 724.800, 195.500 727 C 191.719 730.872, 189.151 732.308, 190.581 729.750 C 190.965 729.063, 188.509 731.193, 185.123 734.485 C 181.737 737.777, 179.185 741.039, 179.451 741.733 C 180.138 743.522, 176.115 749.981, 174.662 749.424 C 173.528 748.989, 169.953 753.809, 170.040 755.654 C 170.062 756.119, 170.772 755.223, 171.618 753.662 C 174.056 749.164, 174.378 751.340, 171.972 756.054 C 170.292 759.349, 169.588 759.988, 168.837 758.901 C 168.150 757.907, 168.064 758.190, 168.542 759.875 C 168.999 761.491, 168.860 762.032, 168.107 761.566 C 167.498 761.190, 167 761.097, 167 761.359 C 167 761.622, 166.699 762.622, 166.330 763.582 C 165.839 764.861, 166.012 765.111, 166.975 764.515 C 168.432 763.615, 168.457 763.469, 165.025 775.980 C 162.616 784.764, 162.107 803.579, 163.997 813.989 C 167.202 831.643, 176.154 849.731, 187.948 862.383 C 196.439 871.492, 209.966 880.497, 223.500 886.051 C 237.324 891.724, 263.576 891.139, 280 884.791 C 294.157 879.319, 308.584 869.908, 316.279 861.124 C 321.252 855.448, 328.665 843.690, 332.827 834.876 C 335.067 830.133, 337.634 825.971, 338.532 825.626 C 339.429 825.282, 398.418 825, 469.619 825 L 599.074 825 598.959 805.128 C 598.837 783.775, 598.028 777.640, 594.923 774.500 C 592.971 772.526, 591.281 772.494, 464.556 772 C 393.941 771.725, 335.982 771.275, 335.757 771 C 334.530 769.502, 331.133 763.035, 329.979 760 C 327.286 752.923, 316.361 738.099, 308.701 731.129 C 296.828 720.326, 289.290 716.477, 267.067 709.876 C 263.136 708.708, 262.909 708.491, 265.067 707.966 C 266.878 707.525, 266.095 707.200, 262 706.695 C 254.993 705.832, 240.406 706.006, 236.500 707 M 1340 706.923 L 1342.500 707.646 1339.500 708.266 C 1328.981 710.439, 1318.070 713.209, 1315.500 714.358 C 1313.850 715.096, 1310.925 716.309, 1309 717.053 C 1304.334 718.857, 1294.375 724.634, 1289.856 728.158 C 1285.233 731.764, 1283.940 731.807, 1287.076 728.250 L 1289.500 725.500 1286.781 727.895 C 1285.285 729.213, 1284.301 730.679, 1284.594 731.153 C 1284.888 731.627, 1282.719 734.599, 1279.776 737.758 C 1274.693 743.211, 1269 750.866, 1269 752.247 C 1269 752.598, 1268.044 754.506, 1266.876 756.486 C 1264.638 760.278, 1263.006 760.726, 1265 757 C 1265.639 755.806, 1265.981 754.648, 1265.760 754.427 C 1265.539 754.206, 1264.595 755.626, 1263.662 757.582 C 1262.729 759.538, 1262.424 760.856, 1262.983 760.510 C 1263.542 760.165, 1264 760.376, 1264 760.981 C 1264 762.598, 1259.913 770.380, 1258.616 771.235 C 1258.002 771.639, 1218.463 771.976, 1170.750 771.985 L 1084 772 1084 798.500 L 1084 825 1171.378 825 C 1240.123 825, 1258.951 825.267, 1259.675 826.250 C 1260.180 826.938, 1261.684 829.975, 1263.016 833 C 1281.042 873.936, 1317.861 895.306, 1359.308 888.886 C 1376.946 886.154, 1397.884 875.179, 1411.147 861.714 C 1421.925 850.772, 1431.863 831.794, 1434.562 817 C 1438.113 797.534, 1434.482 771.393, 1426.417 758.353 C 1419.636 747.391, 1416.730 743.559, 1409.683 736.291 C 1397.557 723.783, 1380.469 713.429, 1368.689 711.452 C 1366.385 711.066, 1363.375 710.306, 1362 709.765 C 1359.622 708.828, 1359.598 708.740, 1361.500 707.960 C 1363.274 707.233, 1363.199 707.133, 1360.833 707.070 C 1359.367 707.032, 1358.008 707.476, 1357.814 708.057 C 1357.611 708.666, 1356.652 708.804, 1355.554 708.382 C 1353.682 707.664, 1353.683 707.636, 1355.573 706.895 C 1356.634 706.480, 1353.004 706.154, 1347.500 706.170 C 1341.697 706.187, 1338.549 706.503, 1340 706.923 M 664.434 791.500 C 664.433 805.250, 664.574 811.014, 664.747 804.308 C 664.919 797.603, 664.920 786.353, 664.748 779.308 C 664.576 772.264, 664.434 777.750, 664.434 791.500 M 664.417 846.500 C 664.418 856.950, 664.566 861.089, 664.746 855.698 C 664.926 850.307, 664.925 841.757, 664.744 836.698 C 664.563 831.639, 664.416 836.050, 664.417 846.500 M 664.472 937.500 C 664.472 974.350, 664.597 989.280, 664.750 970.677 C 664.902 952.075, 664.902 921.925, 664.749 903.677 C 664.597 885.430, 664.472 900.650, 664.472 937.500 M 975.019 953.721 C 971.632 957.417, 966.782 963.380, 964.242 966.971 C 955.382 979.497, 952.660 982.741, 953.309 980 C 953.872 977.620, 953.831 977.593, 952.450 979.441 C 950.626 981.882, 950.626 983.118, 952.450 985.559 C 953.832 987.408, 953.873 987.381, 953.330 985 C 952.769 982.543, 970.636 1000.175, 999.776 1030.835 C 1014.484 1046.310, 1068.170 1100.360, 1089.830 1121.499 L 1106.160 1137.436 1105.679 1142.468 C 1105.415 1145.235, 1104.239 1150.875, 1103.067 1155 C 1098.589 1170.762, 1099.560 1189.597, 1105.798 1208 C 1112.472 1227.689, 1125.943 1243.717, 1145.500 1255.237 C 1158.647 1262.982, 1170.055 1265.488, 1188.500 1264.681 C 1207.076 1263.868, 1215.652 1261.183, 1234.206 1250.373 C 1241.317 1246.229, 1259 1227.912, 1259 1224.690 C 1259 1223.825, 1259.506 1222.805, 1260.124 1222.423 C 1261.658 1221.476, 1266.413 1210.723, 1268.272 1204 C 1272.701 1187.979, 1273.026 1170.648, 1269.167 1156.312 C 1264.968 1140.718, 1255.081 1124.671, 1242.857 1113.608 C 1227.834 1100.014, 1205.039 1092.077, 1184.632 1093.335 C 1173.779 1094.004, 1158.843 1096.861, 1152.782 1099.426 C 1150.737 1100.292, 1147.804 1101, 1146.263 1101 C 1143.290 1101, 1142.647 1100.397, 1085.500 1044.107 C 1072.300 1031.105, 1056.339 1015.749, 1050.032 1009.983 C 1031.769 993.290, 1024.642 986.523, 1007.553 969.650 C 990.659 952.969, 983.986 947, 982.236 947 C 981.653 947, 978.406 950.024, 975.019 953.721 M 595.685 954.869 C 592.117 957.222, 548.499 1000.451, 518.786 1031.083 C 506.294 1043.963, 486.006 1064.737, 473.702 1077.250 C 447.856 1103.535, 451.442 1101.809, 432.663 1097 C 422.611 1094.426, 419.115 1094, 408.023 1094 C 391.805 1094, 386.592 1095.221, 371.995 1102.435 C 368.036 1104.391, 364.323 1105.699, 363.744 1105.342 C 363.141 1104.969, 362.986 1105.168, 363.381 1105.808 C 364.288 1107.276, 356.518 1112.438, 354.903 1111.440 C 354.136 1110.966, 353.950 1111.111, 354.398 1111.835 C 354.811 1112.503, 352.757 1115.378, 349.466 1118.740 C 343.973 1124.351, 338 1132.263, 338 1133.928 C 338 1134.383, 337.369 1135.279, 336.597 1135.919 C 335.520 1136.813, 335.065 1136.783, 334.637 1135.792 C 334.330 1135.081, 334.295 1135.625, 334.559 1137 C 334.851 1138.522, 334.251 1140.674, 333.026 1142.500 C 331.335 1145.020, 331.009 1145.180, 330.985 1143.500 C 330.967 1142.245, 330.236 1143.087, 329.022 1145.761 C 326.790 1150.678, 324.691 1157.766, 325.866 1156.415 C 326.304 1155.912, 327.207 1153.588, 327.872 1151.250 C 328.536 1148.912, 329.445 1147, 329.890 1147 C 330.335 1147, 329.596 1150.713, 328.246 1155.250 C 326.362 1161.582, 325.641 1166.908, 325.146 1178.156 C 324.791 1186.217, 324.837 1192.603, 325.250 1192.347 C 325.663 1192.091, 326 1192.791, 326 1193.903 C 326 1195.014, 327.108 1199.412, 328.462 1203.676 C 329.856 1208.068, 330.523 1211.677, 330 1212 C 329.491 1212.314, 329.346 1213.606, 329.676 1214.870 C 330.112 1216.535, 330.499 1216.810, 331.082 1215.868 C 331.635 1214.973, 332.483 1215.959, 333.803 1219.034 C 342.268 1238.753, 364.515 1257.221, 386 1262.364 C 412.841 1268.790, 434.311 1264.980, 457.889 1249.607 C 464.013 1245.614, 472.203 1237.996, 476.843 1231.976 C 480.615 1227.084, 485.887 1216.404, 488.677 1208 C 491.380 1199.861, 491.497 1198.715, 491.433 1181 C 491.370 1163.851, 491.169 1161.869, 488.683 1153.855 C 485.468 1143.496, 485.391 1141.511, 488.040 1137.167 C 489.158 1135.333, 514.666 1109.143, 544.724 1078.966 C 574.783 1048.789, 599.939 1023.064, 600.627 1021.799 C 603.369 1016.754, 604.178 1006.415, 603.840 980.712 C 603.555 959.135, 603.255 954.770, 602 953.978 C 599.865 952.630, 598.868 952.771, 595.685 954.869 M 813.432 1085.842 C 810.170 1087.975, 803.953 1092.483, 799.618 1095.860 C 791.561 1102.136, 788.192 1103.770, 791.595 1099.750 L 793.500 1097.500 791.274 1099.384 C 790.049 1100.420, 789.266 1101.621, 789.533 1102.053 C 790.214 1103.155, 787.200 1105.977, 785.721 1105.621 C 785.049 1105.460, 784.861 1105.524, 785.301 1105.764 C 785.742 1106.004, 783.492 1108.573, 780.301 1111.472 L 774.500 1116.744 774 1185.219 C 773.467 1258.176, 773.621 1256.089, 768.660 1257.565 C 767.472 1257.918, 763.875 1259.364, 760.667 1260.777 C 755.755 1262.942, 754.682 1263.123, 753.875 1261.924 C 753.116 1260.797, 752.977 1260.896, 753.208 1262.399 C 753.417 1263.758, 752.187 1265.036, 748.878 1266.899 C 730.227 1277.396, 714.483 1298.394, 708.035 1321.374 C 706.916 1325.364, 705.929 1330.624, 705.843 1333.064 L 705.686 1337.500 704.934 1332.500 C 704.247 1327.931, 704.215 1328.060, 704.566 1334 C 704.777 1337.575, 705.146 1343.425, 705.386 1347 C 705.774 1352.771, 705.739 1352.939, 705.069 1348.500 L 704.314 1343.500 704.157 1350.191 C 704.071 1353.871, 704.450 1357.160, 705 1357.500 C 705.550 1357.840, 706.041 1357.304, 706.090 1356.309 C 706.140 1355.314, 707.039 1358.224, 708.088 1362.775 C 710.753 1374.336, 717.217 1389.483, 722.386 1396.279 C 730.424 1406.847, 735.054 1411.765, 741.350 1416.422 C 764.861 1433.809, 793.582 1440.081, 819.500 1433.489 C 829.717 1430.891, 844.079 1424.541, 852.689 1418.816 C 855.335 1417.056, 862 1411.085, 867.500 1405.548 C 877.393 1395.587, 879.277 1392.748, 885.779 1378 C 893.645 1360.159, 895.401 1342.792, 891.204 1324.319 C 886.445 1303.369, 878.998 1290.883, 863.241 1277.439 C 854.524 1270.001, 845.369 1265.022, 832.806 1260.886 C 827.688 1259.201, 823.275 1257.600, 823 1257.328 C 822.725 1257.057, 822.275 1217.969, 822 1170.467 C 821.657 1111.208, 821.165 1083.764, 820.432 1083.032 C 819.676 1082.276, 817.637 1083.094, 813.432 1085.842 M 323.370 1178 C 323.370 1183.775, 323.535 1186.138, 323.737 1183.250 C 323.939 1180.362, 323.939 1175.638, 323.737 1172.750 C 323.535 1169.862, 323.370 1172.225, 323.370 1178" stroke="none" fill="#b34cfb" fill-rule="evenodd"/></svg>