<svg xmlns="http://www.w3.org/2000/svg" width="1600" height="1600" viewBox="0 0 1600 1600" version="1.1"><path d="M 792 161.752 C 774.172 162.568, 753.471 169.974, 742.391 179.500 C 741.751 180.050, 738.728 182.651, 735.673 185.281 C 725.443 194.085, 713.823 210.708, 709.201 223.151 C 704.301 236.344, 702.617 259.374, 705.411 275 C 709.536 298.079, 722.258 318.511, 742.963 335.313 C 745.964 337.748, 757.761 344.183, 766.500 348.152 L 772.500 350.877 772.757 420.162 L 773.014 489.447 777.757 493.708 C 780.366 496.051, 782.837 497.976, 783.250 497.984 C 783.663 497.993, 784.810 498.788, 785.800 499.750 C 786.791 500.713, 791.178 503.921, 795.550 506.881 C 806.411 514.232, 811.997 518.010, 815.241 520.198 C 816.748 521.215, 819.336 522.317, 820.991 522.648 L 824 523.250 824.111 450.875 C 824.232 371.719, 824.550 352.018, 825.726 350.935 C 826.151 350.542, 829.425 349.184, 833 347.916 C 843.322 344.255, 855.318 336.490, 865.088 327.144 C 873.118 319.463, 884 305.698, 884 303.221 C 884 302.698, 884.818 301.197, 885.817 299.885 C 886.817 298.573, 888.238 295.925, 888.975 294 C 889.713 292.075, 891.147 288.608, 892.162 286.296 C 894.722 280.467, 897.018 269.093, 897.672 259 C 898.130 251.920, 897.781 248.720, 895.582 239.840 C 890.350 218.715, 887.633 212.616, 878.054 200.500 C 866.911 186.405, 856.260 177.527, 843 171.283 C 826.788 163.648, 811.792 160.846, 792 161.752 M 783.770 169.575 C 771.501 171.454, 767.614 172.619, 758.500 177.147 C 750.973 180.887, 739.344 189.028, 733.159 194.888 C 729.662 198.202, 721.602 209.534, 718.327 215.740 C 716.946 218.358, 715.211 222.975, 714.471 226 C 713.732 229.025, 712.688 233.300, 712.153 235.500 C 709.030 248.323, 710.017 274.977, 714.038 286.384 C 715.178 289.620, 715.867 292.905, 715.567 293.686 C 715.266 294.470, 715.465 294.831, 716.011 294.493 C 716.555 294.157, 717.052 294.471, 717.115 295.191 C 717.179 295.911, 717.335 296.950, 717.463 297.500 C 717.591 298.050, 717.764 299.201, 717.848 300.059 C 717.931 300.916, 718.700 302.491, 719.555 303.559 C 721.057 305.434, 721.074 305.426, 720.055 303.316 C 719.475 302.114, 719.007 300.539, 719.015 299.816 C 719.030 298.480, 719.744 299.536, 723.723 306.772 C 724.946 308.996, 726.296 310.970, 726.723 311.158 C 727.544 311.520, 734.059 319.520, 735.475 321.905 C 736.039 322.854, 735.935 323.078, 735.155 322.595 C 734.520 322.203, 734 322.284, 734 322.774 C 734 324.505, 735.333 324.968, 736.802 323.749 C 738.064 322.702, 738.181 322.854, 737.579 324.752 C 737.039 326.453, 737.210 326.857, 738.297 326.440 C 739.124 326.122, 741.497 327.595, 743.944 329.946 C 746.264 332.176, 748.816 334, 749.613 334 C 750.410 334, 751.322 334.675, 751.638 335.500 C 751.955 336.325, 752.673 337, 753.234 337 C 754.984 337, 768.351 343.860, 771.425 346.335 L 774.350 348.691 774.659 416.095 C 774.829 453.168, 775.198 484.784, 775.479 486.353 C 775.761 487.921, 777.121 490.094, 778.502 491.180 C 782.529 494.348, 806.326 510, 807.115 510 C 807.510 510, 807.983 510.392, 808.167 510.871 C 808.601 512.004, 820.043 519.291, 820.566 518.767 C 820.786 518.547, 821.002 481.047, 821.045 435.433 C 821.088 389.820, 821.360 351.332, 821.649 349.905 C 822.086 347.746, 823.982 346.453, 832.945 342.205 C 842.195 337.820, 844.917 335.928, 852.229 328.800 C 856.912 324.235, 863.532 318.025, 866.940 315 C 873.452 309.220, 880.535 299.700, 881.662 295.212 C 882.028 293.753, 883.198 291.084, 884.262 289.280 C 885.327 287.476, 885.903 286, 885.542 286 C 885.182 286, 885.566 284.762, 886.396 283.250 C 888.831 278.814, 891.002 266.750, 890.976 257.803 C 890.948 248.442, 889.833 242.455, 886.964 236.261 C 885.884 233.929, 885 231.442, 885 230.733 C 885 230.025, 884.392 228.557, 883.649 227.473 C 882.906 226.388, 881.972 224.150, 881.573 222.500 C 880.787 219.245, 875.756 210.511, 873.131 207.842 C 872.234 206.931, 870.600 204.993, 869.500 203.536 C 861.659 193.150, 844.872 180.229, 834.500 176.596 C 831.750 175.633, 828.600 174.459, 827.500 173.988 C 823.992 172.487, 805.733 169.062, 799 168.643 C 795.425 168.420, 788.572 168.840, 783.770 169.575 M 1174.500 339.599 C 1156.156 344.033, 1144.264 349.045, 1133.898 356.709 C 1120.948 366.285, 1109.153 381.996, 1102.900 398 C 1096.068 415.484, 1095.768 439.205, 1102.127 459.122 C 1104.866 467.701, 1105.051 469.024, 1103.841 471.334 C 1103.094 472.759, 1086.737 489.846, 1067.492 509.305 C 1024.506 552.768, 981.556 596.933, 972.370 607.117 C 968.592 611.306, 962.462 617.556, 958.750 621.006 C 954.252 625.185, 952 628.033, 952 629.541 C 952 631.683, 963.147 642.676, 978.532 655.708 C 981.264 658.023, 984.581 660.835, 985.903 661.958 C 988.816 664.433, 990.770 664.526, 994.027 662.343 C 995.387 661.432, 1026.188 631.170, 1062.472 595.093 C 1148.732 509.329, 1145.801 512.198, 1147.838 511.551 C 1148.808 511.243, 1152.954 511.919, 1157.051 513.054 C 1161.148 514.188, 1166.300 515.594, 1168.500 516.179 C 1170.700 516.764, 1180.150 517.287, 1189.500 517.342 C 1205.613 517.437, 1206.969 517.292, 1215.500 514.568 C 1231.595 509.427, 1244.276 501.732, 1255.574 490.248 C 1261.947 483.771, 1264.958 479.405, 1269.543 470 C 1281.487 445.497, 1283.195 425.146, 1275.248 402 C 1264.655 371.148, 1245.655 352.608, 1214 342.236 C 1207.679 340.165, 1204.142 339.727, 1191.500 339.447 C 1183.250 339.264, 1175.600 339.333, 1174.500 339.599 M 396.500 342.953 C 375.011 345.445, 353.034 357.618, 339.873 374.318 C 333.542 382.351, 328.288 390.949, 327.376 394.771 C 327.017 396.272, 326.314 398.022, 325.814 398.661 C 325.265 399.360, 325.269 400.048, 325.823 400.391 C 326.329 400.704, 327.814 398.835, 329.122 396.238 C 330.430 393.641, 332 391.062, 332.611 390.508 C 333.222 389.954, 335.230 387.250, 337.073 384.500 C 340.168 379.884, 341.748 377.973, 348.917 370.177 C 350.338 368.632, 353.143 366.377, 355.151 365.164 C 357.159 363.952, 359.060 362.287, 359.375 361.465 C 359.691 360.643, 360.973 359.507, 362.224 358.942 C 365.132 357.629, 368.411 355.722, 370.143 354.338 C 370.890 353.741, 374.393 352.531, 377.928 351.649 C 381.464 350.766, 384.816 349.584, 385.378 349.022 C 385.940 348.460, 387.408 348, 388.641 348 C 389.874 348, 391.123 347.611, 391.417 347.135 C 391.711 346.659, 393.115 346.397, 394.538 346.554 C 395.995 346.714, 397.348 346.256, 397.636 345.506 C 397.982 344.605, 399.496 344.292, 402.323 344.537 C 404.621 344.737, 407.764 344.922, 409.309 344.950 C 411.068 344.981, 411.867 345.406, 411.446 346.087 C 411.077 346.685, 409.994 346.970, 409.039 346.721 C 408.085 346.471, 406.261 346.825, 404.985 347.508 C 402.967 348.588, 403.713 348.757, 410.733 348.809 C 415.170 348.842, 420.758 349.381, 423.150 350.006 C 431.047 352.069, 448.473 358.231, 450 359.499 C 450.825 360.184, 453.227 361.547, 455.338 362.528 C 459.530 364.476, 472 375.921, 472 377.820 C 472 378.469, 472.378 379, 472.839 379 C 473.301 379, 474.209 380.012, 474.857 381.250 C 475.504 382.488, 477.362 385.300, 478.984 387.500 C 480.606 389.700, 481.949 392.332, 481.967 393.349 C 481.985 394.366, 482.627 396.616, 483.393 398.349 C 484.159 400.082, 486.025 405.438, 487.540 410.252 C 490.063 418.267, 490.237 419.824, 489.610 428.752 C 488.579 443.432, 486.310 458.144, 484.034 464.898 C 481.365 472.820, 481.441 473.675, 485.106 477.099 C 486.814 478.694, 487.879 480, 487.473 480 C 487.067 480, 489.270 482.475, 492.368 485.500 C 495.466 488.525, 498.258 491, 498.572 491 C 499.247 491, 498.395 490.239, 515.360 506 C 522.760 512.875, 528.856 519.314, 528.907 520.309 C 528.958 521.304, 529.445 521.843, 529.989 521.507 C 530.577 521.144, 530.709 521.595, 530.315 522.622 C 529.802 523.959, 530.041 524.198, 531.378 523.685 C 532.327 523.321, 532.874 523.394, 532.594 523.848 C 531.881 525.001, 534.837 529, 536.401 529 C 538.138 529, 543 533.260, 543 534.782 C 543 535.452, 543.597 536, 544.326 536 C 545.055 536, 546.742 537.198, 548.076 538.661 C 549.409 540.125, 549.825 541.008, 549 540.624 C 548.175 540.240, 548.352 540.505, 549.394 541.213 C 550.436 541.921, 552.461 543.569, 553.894 544.875 C 555.327 546.181, 555.600 546.631, 554.500 545.875 C 552.662 544.611, 552.611 544.642, 553.872 546.250 C 554.627 547.212, 556.138 548, 557.229 548 C 558.576 548, 559.030 548.479, 558.643 549.488 C 558.329 550.306, 558.393 550.877, 558.786 550.756 C 559.925 550.405, 563.950 554.272, 563.390 555.178 C 563.110 555.630, 563.545 556, 564.355 556 C 565.711 556, 572.301 561.879, 586.819 576.041 C 589.944 579.089, 593.262 582.471, 594.193 583.557 C 596.761 586.552, 598.193 597.837, 598.133 614.613 C 598.091 626.230, 598.409 630.162, 599.508 631.613 C 600.293 632.651, 600.944 633.950, 600.953 634.500 C 600.962 635.050, 600.533 634.825, 600 634 C 599.172 632.718, 599.028 632.754, 599.015 634.250 C 599.007 635.212, 599.450 636, 600 636 C 600.550 636, 601.007 637.013, 601.015 638.250 C 601.027 639.994, 601.236 640.176, 601.942 639.059 C 602.827 637.661, 603.915 654.699, 603.177 658.386 C 602.830 660.118, 600 660.666, 600 659 C 600 658.450, 599.579 658, 599.064 658 C 597.579 658, 590.991 651.812, 571.914 632.500 C 553.863 614.226, 553.087 613.411, 547.134 606.441 C 545.282 604.273, 538.420 597.011, 531.884 590.302 C 525.348 583.593, 520 577.698, 520 577.201 C 520 576.704, 511.225 567.705, 500.500 557.203 C 482.927 539.996, 478.661 535.437, 482.155 537.595 C 482.854 538.028, 483.038 537.871, 482.622 537.198 C 482.245 536.587, 481.388 536.287, 480.718 536.531 C 479.460 536.989, 466.405 525.262, 467.242 524.425 C 467.500 524.166, 469.483 525.652, 471.647 527.727 C 478.519 534.317, 479.729 534.690, 473.513 528.302 C 469.577 524.259, 467.274 522.553, 466.794 523.325 C 466.314 524.095, 463.381 521.868, 458.281 516.861 C 449.580 508.320, 446.531 506.314, 444.636 507.887 C 443.957 508.451, 441.398 509.179, 438.950 509.506 C 433.441 510.241, 427.116 511.869, 424.599 513.200 C 418.662 516.340, 390.224 514.874, 379 510.849 C 373.550 508.894, 360.962 503.015, 360 501.975 C 359.725 501.677, 357.221 499.784, 354.435 497.768 C 348.327 493.347, 339.274 483.370, 336.432 477.929 C 335.294 475.752, 334.063 474.271, 333.695 474.638 C 332.965 475.368, 336.178 481.095, 339.444 484.886 C 349.519 496.581, 358.457 504.127, 368.022 509.015 C 385.261 517.824, 413.939 520.235, 433 514.479 C 444.215 511.092, 446.296 510.880, 449.069 512.842 C 450.406 513.788, 463.425 526.641, 478 541.405 C 492.575 556.168, 512.600 576.437, 522.500 586.446 C 532.400 596.455, 549.950 614.216, 561.500 625.915 C 586.010 650.740, 596.913 660.689, 600.634 661.623 C 605.983 662.966, 606.098 662.088, 605.785 622.231 L 605.500 585.940 602.276 583.418 C 595.392 578.032, 566.076 549.645, 517.660 501.483 C 502.722 486.623, 489.906 473.714, 489.180 472.796 C 488.082 471.407, 488.122 470.152, 489.417 465.314 C 497.130 436.491, 497.806 418.761, 491.894 400.365 C 488.277 389.107, 477.151 372.273, 468.527 365.006 C 466.891 363.628, 464.854 361.825, 463.999 361 C 457.314 354.549, 442.101 347.319, 428 343.892 C 422.642 342.590, 404.336 342.045, 396.500 342.953 M 1177.500 348.096 C 1171.521 348.733, 1170.534 348.922, 1162 351.059 C 1149.769 354.121, 1136.603 362.116, 1126.500 372.615 C 1120.595 378.751, 1120.166 379.292, 1117.074 384.500 C 1112.035 392.987, 1108.735 399.682, 1107.385 404.153 C 1105.154 411.541, 1105.417 443.925, 1107.851 461.500 C 1108.460 465.900, 1108.821 470.696, 1108.654 472.158 C 1108.217 475.976, 1105.417 479.802, 1102.784 480.177 C 1101.520 480.357, 1099.960 481.670, 1099.254 483.148 C 1097.490 486.839, 1073 511.548, 1070.235 512.425 C 1068.990 512.821, 1068.195 513.506, 1068.468 513.948 C 1068.741 514.390, 1067.208 515.970, 1065.062 517.457 C 1062.915 518.945, 1060.049 521.813, 1058.694 523.831 C 1055.065 529.233, 1049.179 535.472, 1017.841 567.131 C 987.491 597.792, 982.010 603.630, 978.995 608.508 C 977.935 610.223, 976.040 612.192, 974.784 612.884 C 973.528 613.576, 970.765 616.328, 968.644 618.999 C 966.188 622.093, 964.262 623.654, 963.337 623.299 C 962.538 622.993, 962.116 622.139, 962.399 621.403 C 962.681 620.667, 962.529 619.827, 962.061 619.538 C 960.885 618.811, 959.956 621.552, 961.014 622.628 C 961.491 623.113, 961.381 625.322, 960.767 627.607 C 959.685 631.633, 959.757 631.836, 964.385 637.850 C 966.982 641.225, 969.948 644.437, 970.975 644.987 C 972.003 645.537, 973.442 646.561, 974.172 647.263 C 974.902 647.965, 977.499 649.991, 979.943 651.767 C 983.227 654.152, 984.592 654.669, 985.178 653.747 C 985.740 652.861, 985.974 652.839, 985.985 653.671 C 985.993 654.314, 987.403 655.149, 989.119 655.526 C 994.252 656.654, 998.246 653.751, 1009.162 640.962 C 1011.726 637.958, 1016.451 632.983, 1019.662 629.906 C 1038.063 612.275, 1048 601.710, 1048 599.777 C 1048 599.350, 1048.723 599, 1049.607 599 C 1050.625 599, 1051.003 598.450, 1050.638 597.500 C 1050.289 596.591, 1050.635 596, 1051.517 596 C 1053.655 596, 1069.450 580.080, 1071.359 576 C 1073.630 571.147, 1076.730 567.797, 1082 564.498 C 1084.475 562.948, 1091.287 556.915, 1097.138 551.090 C 1102.990 545.266, 1112.749 535.799, 1118.826 530.053 C 1124.902 524.307, 1129.604 519.168, 1129.273 518.633 C 1128.921 518.064, 1129.384 517.933, 1130.388 518.319 C 1131.458 518.729, 1131.861 518.584, 1131.458 517.932 C 1130.504 516.388, 1131.843 512.001, 1133.269 511.995 C 1133.946 511.993, 1136.251 510.382, 1138.391 508.417 C 1145.337 502.038, 1149.722 501.511, 1158.500 506 C 1161.726 507.650, 1165.604 509, 1167.118 509 C 1168.631 509, 1171.067 509.455, 1172.531 510.012 C 1175.705 511.219, 1188.077 512.073, 1189.499 511.184 C 1190.050 510.840, 1191.850 510.469, 1193.500 510.361 C 1195.150 510.252, 1197.400 509.906, 1198.500 509.591 C 1199.600 509.275, 1203.200 508.335, 1206.500 507.501 C 1209.800 506.667, 1213.882 505.538, 1215.571 504.992 C 1217.260 504.447, 1219.398 504, 1220.321 504 C 1221.244 504, 1222 503.605, 1222 503.121 C 1222 502.638, 1223.344 501.686, 1224.987 501.005 C 1226.630 500.325, 1227.729 499.370, 1227.428 498.884 C 1226.605 497.551, 1228.420 497.823, 1229.871 499.250 C 1230.571 499.938, 1231.020 500.050, 1230.869 499.500 C 1230.718 498.950, 1230.932 496.813, 1231.343 494.750 C 1231.892 491.998, 1232.595 491, 1233.986 491 C 1235.029 491, 1236.174 490.528, 1236.530 489.951 C 1236.980 489.223, 1237.574 489.231, 1238.472 489.977 C 1239.428 490.770, 1239.926 490.636, 1240.376 489.462 C 1240.712 488.588, 1241.327 488.055, 1241.743 488.278 C 1242.159 488.501, 1243.287 487.854, 1244.250 486.841 C 1245.213 485.829, 1245.550 485, 1245 485 C 1244.450 485, 1244 484.298, 1244 483.441 C 1244 482.584, 1244.437 482.152, 1244.971 482.482 C 1246.242 483.267, 1250.305 478.570, 1251.204 475.276 C 1251.591 473.858, 1251.540 471.978, 1251.089 471.098 C 1249.941 468.857, 1250.827 467, 1253.044 467 C 1255.678 467, 1259.421 462.885, 1257.751 461.825 C 1257.063 461.388, 1256.950 460.992, 1257.500 460.945 C 1258.050 460.898, 1257.600 460.467, 1256.500 459.988 C 1254.557 459.141, 1254.564 459.097, 1256.750 458.442 C 1257.987 458.070, 1259 457.343, 1259 456.824 C 1259 456.306, 1259.345 456.095, 1259.766 456.356 C 1260.188 456.616, 1261.046 455.743, 1261.672 454.415 C 1262.908 451.797, 1262.176 451.257, 1260.095 453.250 C 1259.028 454.271, 1258.911 453.923, 1259.453 451.345 C 1259.818 449.610, 1259.683 447.922, 1259.152 447.594 C 1258.622 447.266, 1258.423 446.098, 1258.711 444.999 C 1259.080 443.588, 1258.741 443, 1257.558 443 C 1256.624 443, 1256.174 442.527, 1256.542 441.932 C 1256.905 441.344, 1257.803 441.094, 1258.537 441.376 C 1259.270 441.657, 1260.121 441.350, 1260.426 440.694 C 1260.732 440.037, 1260.742 440.475, 1260.450 441.666 C 1259.808 444.281, 1261.550 445.618, 1263.496 444.003 C 1264.270 443.361, 1265.826 443.127, 1266.952 443.485 C 1268.364 443.933, 1269 443.691, 1269 442.705 C 1269 441.773, 1268.129 441.371, 1266.500 441.549 C 1264.422 441.778, 1264 441.398, 1264 439.304 C 1264 437.146, 1263.656 436.869, 1261.612 437.382 C 1259.585 437.891, 1259.164 437.568, 1258.827 435.241 C 1258.608 433.733, 1259.001 431.375, 1259.700 430 C 1260.399 428.625, 1260.977 428.089, 1260.985 428.809 C 1260.993 429.529, 1261.390 429.877, 1261.866 429.583 C 1263.154 428.787, 1266.184 432.547, 1265.962 434.664 C 1265.603 438.091, 1265.996 438.876, 1268 438.725 C 1270.060 438.570, 1270.872 437, 1268.892 437 C 1268.209 437, 1268.024 436.040, 1268.411 434.500 C 1268.874 432.655, 1268.640 432, 1267.519 432 C 1266.652 432, 1266 431.116, 1266 429.941 C 1266 428.809, 1265.662 428.091, 1265.250 428.345 C 1264.838 428.600, 1264.500 427.790, 1264.500 426.545 C 1264.500 424.428, 1264.645 424.377, 1266.750 425.756 C 1268.930 427.184, 1269 427.126, 1268.985 423.865 C 1268.973 421.346, 1268.730 420.877, 1268.016 422 C 1267.222 423.249, 1266.565 422.956, 1264.088 420.250 C 1261.961 417.926, 1261.555 417, 1262.663 417 C 1263.631 417, 1263.998 416.436, 1263.638 415.500 C 1263.322 414.675, 1263.499 414, 1264.031 414 C 1264.564 414, 1265 414.750, 1265 415.667 C 1265 416.583, 1265.284 417.049, 1265.631 416.702 C 1265.979 416.355, 1267.060 416.497, 1268.033 417.018 C 1269.498 417.802, 1269.715 417.625, 1269.288 415.994 C 1269.005 414.910, 1268.405 414.250, 1267.955 414.528 C 1267.506 414.805, 1266.856 414.575, 1266.510 414.016 C 1266.165 413.457, 1266.414 413, 1267.063 413 C 1267.928 413, 1267.900 412.585, 1266.961 411.453 C 1266.254 410.602, 1265.412 410.286, 1265.088 410.751 C 1264.096 412.176, 1260 411.984, 1260 410.511 C 1260 409.761, 1259.213 408.919, 1258.250 408.641 C 1257.287 408.363, 1258.638 408.381, 1261.250 408.681 C 1265.241 409.140, 1266 408.960, 1266 407.555 C 1266 406.635, 1265.530 406.172, 1264.956 406.527 C 1264.382 406.882, 1263.252 406.624, 1262.445 405.954 C 1261.167 404.894, 1261.205 404.570, 1262.737 403.450 C 1263.705 402.742, 1264.136 401.802, 1263.694 401.361 C 1263.253 400.919, 1262.473 401.220, 1261.961 402.029 C 1261.199 403.234, 1260.999 403.138, 1260.857 401.500 C 1260.761 400.400, 1260.749 398.600, 1260.829 397.500 C 1260.957 395.745, 1260.854 395.703, 1259.990 397.157 C 1259.349 398.234, 1258.249 398.616, 1256.846 398.249 C 1255.436 397.881, 1254.921 398.063, 1255.360 398.773 C 1255.730 399.372, 1255.592 400.134, 1255.054 400.467 C 1254.487 400.817, 1254.164 399.872, 1254.287 398.223 C 1254.467 395.823, 1254.893 395.418, 1257 395.651 C 1258.658 395.835, 1258.862 395.738, 1257.605 395.363 C 1256.145 394.927, 1256.016 394.608, 1257.041 393.975 C 1258.071 393.338, 1258.106 392.832, 1257.194 391.734 C 1256.547 390.954, 1256.351 389.958, 1256.759 389.521 C 1257.166 389.084, 1256.825 388.957, 1256 389.238 C 1255.175 389.520, 1254.638 390.332, 1254.806 391.044 C 1255.151 392.501, 1252.475 390.700, 1250.282 388 C 1249.433 386.955, 1249.054 386.879, 1249.032 387.750 C 1248.977 389.905, 1247 389.109, 1247 386.933 C 1247 385.350, 1247.450 385.008, 1248.917 385.474 C 1250.477 385.969, 1250.733 385.696, 1250.292 384.009 C 1249.994 382.869, 1248.937 381.501, 1247.943 380.969 C 1246.949 380.437, 1245.850 379.102, 1245.500 378.001 C 1245.137 376.857, 1243.987 376, 1242.816 376 C 1241.271 376, 1240.893 375.516, 1241.281 374.035 C 1241.631 372.696, 1241.189 371.878, 1239.897 371.467 C 1238.854 371.136, 1238 369.996, 1238 368.933 C 1238 367.870, 1237.550 367, 1237 367 C 1236.450 367, 1236 366.325, 1236 365.500 C 1236 364.675, 1235.325 364, 1234.500 364 C 1233.675 364, 1233 363.411, 1233 362.691 C 1233 361.315, 1221.022 354.374, 1220.970 355.720 C 1220.953 356.149, 1220.475 355.703, 1219.908 354.729 C 1219.341 353.755, 1218.455 353.219, 1217.939 353.538 C 1217.422 353.857, 1217 353.713, 1217 353.219 C 1217 352.371, 1212.994 351.332, 1200.750 349.001 C 1193.730 347.664, 1184.816 347.317, 1177.500 348.096 M 713.500 538.697 C 709.173 539.704, 699.271 543.562, 695 545.905 C 688.745 549.337, 676.028 562.349, 672.184 569.251 C 670.423 572.415, 667.973 578.940, 666.741 583.751 L 664.500 592.500 664.500 707.500 C 664.500 816.310, 665.250 884.583, 666.458 885.791 C 666.756 886.089, 667 878.132, 667 868.108 C 667 858.084, 667.337 850.090, 667.750 850.345 C 668.163 850.600, 668.648 834.539, 668.830 814.654 C 669.011 794.769, 669.325 771.975, 669.528 764 C 669.731 756.025, 670.149 714.237, 670.458 671.138 C 671.055 587.845, 671.197 585.387, 676.045 574.117 C 677.256 571.303, 678.641 569, 679.123 569 C 679.605 569, 680 568.520, 680 567.933 C 680 564.633, 696.033 550, 699.649 550 C 700.392 550, 701 549.582, 701 549.071 C 701 547.513, 711.919 545.767, 718.909 546.207 C 722.808 546.452, 727.417 547.515, 730.195 548.811 C 732.777 550.015, 735.306 551, 735.814 551 C 736.323 551, 740.960 554.045, 746.119 557.767 C 751.279 561.488, 756.463 565.201, 757.641 566.017 C 760.885 568.264, 775.430 579.363, 776 580.025 C 776.770 580.919, 788.371 590.250, 791.511 592.500 C 795.581 595.416, 801.348 600.562, 809.442 608.500 C 813.367 612.350, 818.811 617.293, 821.540 619.485 C 824.268 621.677, 827.367 624.259, 828.426 625.224 C 829.486 626.188, 831.173 627.238, 832.176 627.556 C 833.179 627.874, 834 628.779, 834 629.567 C 834 630.355, 834.563 631.010, 835.250 631.023 C 835.938 631.036, 838.123 632.498, 840.108 634.273 C 842.092 636.048, 846.068 639.525, 848.943 642 C 857.493 649.360, 863.860 655.121, 870.878 661.848 C 874.520 665.340, 880.200 670.166, 883.500 672.573 C 886.800 674.980, 892.095 679.549, 895.266 682.725 C 898.437 685.901, 902.037 689.272, 903.266 690.215 C 909.628 695.100, 915.194 699.653, 924.987 707.982 C 928.554 711.017, 932.154 714.073, 932.987 714.773 C 933.819 715.473, 938.027 719.298, 942.338 723.273 C 946.650 727.248, 951.361 731.175, 952.808 732 C 955.822 733.718, 955.142 733.152, 966.028 743 C 970.589 747.125, 975.229 751.513, 976.340 752.750 C 977.451 753.987, 978.955 755, 979.680 755 C 980.406 755, 981 755.675, 981 756.500 C 981 757.325, 981.344 758, 981.764 758 C 983.174 758, 996.960 771.199, 999.003 774.505 C 1000.219 776.473, 1000.752 778.482, 1000.342 779.551 C 999.847 780.840, 1000.012 781.110, 1000.942 780.536 C 1002.541 779.548, 1004.146 781.883, 1003.436 784.166 C 1003.152 785.082, 1003.389 786.122, 1003.963 786.477 C 1004.546 786.838, 1004.721 788.265, 1004.358 789.710 C 1003.902 791.525, 1004.051 792.087, 1004.854 791.590 C 1005.848 790.976, 1006.583 794.239, 1006.125 797.231 C 1006.063 797.633, 1005.787 801.683, 1005.511 806.231 C 1004.846 817.204, 1004.035 822, 1002.845 822 C 1002.306 822, 1002.151 822.900, 1002.500 824 C 1002.936 825.375, 1002.680 826, 1001.679 826 C 1000.829 826, 999.965 827.354, 999.604 829.250 C 999.198 831.384, 997.443 833.862, 994.493 836.468 C 992.022 838.650, 990 841.022, 990 841.739 C 990 842.456, 988.879 843.554, 987.508 844.178 C 985.748 844.980, 985.305 845.662, 985.999 846.499 C 986.540 847.151, 986.694 847.973, 986.340 848.326 C 985.987 848.680, 985.105 848.188, 984.381 847.234 C 983.521 846.102, 983.009 845.934, 982.907 846.750 C 982.821 847.438, 982.633 848.337, 982.490 848.750 C 982.348 849.163, 981.902 850.513, 981.499 851.750 C 981.096 852.987, 980.032 854.014, 979.133 854.032 C 977.069 854.072, 974 856.361, 974 857.860 C 974 858.487, 973.550 859, 973 859 C 972.450 859, 972 859.642, 972 860.427 C 972 861.213, 970.875 862.740, 969.500 863.821 C 968.125 864.903, 966.978 866.173, 966.950 866.644 C 966.896 867.580, 957.827 875.224, 956.080 875.807 C 955.455 876.015, 955.257 875.494, 955.611 874.572 C 956.059 873.404, 955.791 873.143, 954.611 873.596 C 953.636 873.970, 953 873.698, 953 872.907 C 953 870.592, 951.144 873.343, 950.765 876.219 C 950.361 879.290, 946.392 884, 944.209 884 C 943.259 884, 942.945 884.683, 943.290 886 C 943.577 887.100, 943.419 888, 942.938 888 C 942.457 888, 942.200 888.563, 942.367 889.250 C 942.535 889.938, 942.483 890.163, 942.253 889.750 C 941.631 888.638, 939 888.840, 939 890 C 939 893.351, 937.456 894.932, 934.849 894.250 C 933.096 893.792, 932.878 894.041, 933.454 895.854 C 933.828 897.034, 933.755 898, 933.290 898 C 932.504 898, 930.811 899.375, 922.157 907.039 C 920.318 908.668, 918.599 910, 918.336 910 C 918.072 910, 917.284 910.563, 916.584 911.250 C 915.884 911.938, 913.107 914.300, 910.413 916.500 C 907.719 918.700, 903.309 922.638, 900.614 925.250 C 897.919 927.863, 895.583 930, 895.422 930 C 895.262 930, 892.655 932.475, 889.630 935.500 C 886.605 938.525, 883.651 941, 883.065 941 C 882.479 941, 882 941.675, 882 942.500 C 882 943.325, 881.663 944.013, 881.250 944.029 C 880.837 944.045, 878.118 946.295, 875.208 949.029 C 872.297 951.763, 869.485 954, 868.958 954 C 868.431 954, 868 954.750, 868 955.667 C 868 956.583, 867.747 957.081, 867.438 956.772 C 866.424 955.757, 861.782 960.839, 862.566 962.106 C 863.093 962.960, 862.681 963.150, 861.163 962.753 C 859.473 962.311, 857.306 963.843, 851.007 969.934 C 846.603 974.192, 843 978.226, 843 978.897 C 843 979.569, 842.584 979.861, 842.076 979.547 C 841.568 979.233, 838.980 980.994, 836.326 983.460 C 833.672 985.926, 831.145 987.956, 830.711 987.972 C 830.277 987.987, 827.767 990.138, 825.133 992.750 C 818.554 999.276, 811.860 1005.258, 809.681 1006.559 C 808.680 1007.156, 807.317 1008.737, 806.651 1010.072 C 805.986 1011.407, 804.970 1012.500, 804.395 1012.500 C 802.740 1012.500, 796 1018.224, 796 1019.630 C 796 1020.329, 795.373 1021.260, 794.608 1021.700 C 793.181 1022.520, 785.757 1028.651, 781.105 1032.853 C 779.672 1034.147, 776.797 1036.077, 774.715 1037.141 C 772.458 1038.295, 771.208 1039.527, 771.619 1040.193 C 771.999 1040.807, 771.892 1041.051, 771.382 1040.736 C 770.196 1040.003, 753.345 1055.678, 754.296 1056.629 C 754.688 1057.021, 755.794 1056.588, 756.754 1055.668 C 757.714 1054.747, 760.525 1052.387, 763 1050.423 C 768.829 1045.797, 773.969 1041.523, 786.926 1030.528 C 792.742 1025.593, 798.105 1021.093, 798.845 1020.528 C 799.585 1019.963, 801.188 1018.600, 802.407 1017.500 C 803.626 1016.400, 808.645 1012.132, 813.562 1008.015 C 818.478 1003.898, 823.175 999.812, 824 998.935 C 824.825 998.058, 829.325 994.159, 834 990.271 C 838.675 986.382, 843.850 981.939, 845.500 980.396 C 847.150 978.853, 851.425 975.122, 855 972.104 C 858.575 969.086, 861.725 966.325, 862 965.970 C 862.275 965.614, 865.875 962.457, 870 958.953 C 874.125 955.450, 877.725 952.319, 878 951.995 C 878.275 951.670, 882.100 948.308, 886.500 944.522 C 890.900 940.736, 894.725 937.366, 895 937.033 C 895.275 936.700, 901.340 931.494, 908.479 925.464 C 915.617 919.434, 922.186 913.825, 923.077 913 C 923.968 912.175, 927.113 909.475, 930.067 907 C 933.021 904.525, 939.770 898.675, 945.066 894 C 950.362 889.325, 956.451 883.951, 958.597 882.057 C 960.744 880.164, 967 874.791, 972.500 870.119 C 992.673 852.980, 1001.936 843.707, 1007.546 835.035 C 1010.057 831.153, 1012.602 826.519, 1013.201 824.738 C 1013.800 822.957, 1014.787 820.868, 1015.395 820.096 C 1016.091 819.212, 1016.500 813.102, 1016.500 803.596 L 1016.500 788.500 1012.253 779.971 C 1006.758 768.937, 998.456 760.293, 970 735.978 C 960.385 727.763, 949.446 718.238, 947.055 716 C 944.918 714, 924.519 696.639, 919.624 692.655 C 917.492 690.920, 914.659 688.529, 913.328 687.343 C 911.997 686.156, 909.150 683.753, 907.002 682.002 C 902.983 678.726, 900.346 676.494, 896 672.691 C 894.625 671.488, 890.571 668.028, 886.991 665.002 C 883.412 661.976, 879.137 658.312, 877.491 656.860 C 874.185 653.942, 859.263 641.161, 856.960 639.275 C 856.157 638.618, 853.475 636.295, 851 634.113 C 848.525 631.932, 841.278 625.726, 834.894 620.324 C 820.013 607.727, 806.829 596.450, 795.937 587 C 791.182 582.875, 782.231 575.235, 776.046 570.022 C 769.861 564.810, 763.786 559.635, 762.545 558.522 C 751.115 548.273, 743.897 543.553, 734.769 540.357 C 728.373 538.118, 719.101 537.394, 713.500 538.697 M 600.150 610.953 C 600.088 613.677, 600.480 616.178, 601.019 616.512 C 601.598 616.869, 602 615.486, 602 613.141 C 602 610.953, 602.273 608.452, 602.607 607.582 C 602.992 606.580, 602.673 606, 601.738 606 C 600.650 606, 600.232 607.303, 600.150 610.953 M 1341.500 706.595 C 1316.382 709.800, 1299.285 716.940, 1284.040 730.594 C 1274.096 739.499, 1270.704 744.269, 1262.590 760.750 L 1258.036 770 1170.018 770 L 1082 770 1082 776.059 C 1082 779.844, 1082.375 781.886, 1083 781.500 C 1083.550 781.160, 1084 778.884, 1084 776.441 L 1084 772 1157.750 772.132 C 1218.762 772.240, 1264.007 773.057, 1251.750 773.827 C 1248.750 774.016, 1247.916 775.528, 1250.750 775.641 C 1251.713 775.680, 1253.200 776.016, 1254.056 776.388 C 1256.477 777.441, 1260.245 773.395, 1265.593 764 C 1270.425 755.512, 1278.720 743.417, 1282.500 739.347 C 1289.206 732.127, 1299.674 725.479, 1315.102 718.643 C 1320.374 716.306, 1338.277 713.500, 1347.500 713.564 C 1357.759 713.635, 1378.930 719.649, 1386.624 724.678 C 1391.823 728.076, 1402.413 738.138, 1411.500 748.313 C 1418.747 756.428, 1426.450 770.982, 1427.478 778.500 C 1427.553 779.050, 1428.007 780.373, 1428.487 781.440 C 1429.054 782.700, 1428.968 783.511, 1428.242 783.753 C 1427.544 783.985, 1427.796 784.796, 1428.914 785.914 C 1432.101 789.101, 1432.620 800.807, 1430.027 811 C 1426.464 825.002, 1424.564 831.649, 1423.859 832.578 C 1423.408 833.172, 1422.864 834.522, 1422.648 835.578 C 1422.003 838.749, 1418.750 846, 1417.973 846 C 1417.575 846, 1416.985 847.326, 1416.661 848.947 C 1416.008 852.209, 1402.318 866.459, 1397.395 869.002 C 1395.803 869.824, 1394.179 870.948, 1393.786 871.498 C 1393.394 872.049, 1392.719 872.561, 1392.286 872.635 C 1389.942 873.036, 1387 874.326, 1387 874.954 C 1387 876.662, 1372.968 881.898, 1365.671 882.913 C 1354.872 884.415, 1339.322 884.263, 1327.918 882.544 C 1322.648 881.749, 1317.473 881.237, 1316.418 881.406 C 1315.363 881.575, 1315.063 881.520, 1315.750 881.283 C 1318.389 880.376, 1316.822 879.273, 1312.893 879.273 C 1310.481 879.273, 1308.424 878.701, 1307.909 877.886 C 1307.225 876.808, 1307.027 876.790, 1307.015 877.807 C 1307.004 878.780, 1306.236 878.662, 1304 877.341 C 1302.350 876.366, 1301 875.216, 1301 874.784 C 1301 874.353, 1300.555 874, 1300.011 874 C 1298.743 874, 1295.923 871.689, 1289.895 865.709 C 1278.716 854.618, 1270.757 843.903, 1265.229 832.500 C 1261.163 824.111, 1263.136 824.500, 1224.646 824.500 C 1152.898 824.500, 1090.691 825.025, 1091.292 825.625 C 1091.635 825.969, 1117.923 826.348, 1149.708 826.468 C 1181.494 826.587, 1219.039 826.756, 1233.142 826.842 L 1258.783 827 1259.465 829.750 C 1261.715 838.828, 1273.807 857.390, 1283.776 867.068 C 1295.411 878.361, 1302.923 882.911, 1319.500 888.704 C 1327.115 891.365, 1328.367 891.500, 1345.500 891.500 C 1362.622 891.500, 1363.899 891.363, 1371.686 888.689 C 1387.419 883.287, 1403.035 873.925, 1412.183 864.411 C 1424.243 851.869, 1429.248 843.265, 1435.690 824 C 1437.698 817.995, 1438.299 813.810, 1438.704 803 C 1439.164 790.743, 1438.965 788.507, 1436.545 778.712 C 1432.179 761.042, 1425.036 748.484, 1411.546 734.758 C 1392.912 715.798, 1376.821 708.325, 1351 706.637 C 1347.425 706.403, 1343.150 706.384, 1341.500 706.595 M 300.747 723.496 C 302.533 724.950, 306.358 728.355, 309.247 731.062 C 312.136 733.769, 314.837 735.987, 315.250 735.992 C 315.663 735.996, 316.009 736.563, 316.020 737.250 C 316.030 737.938, 318.280 740.869, 321.020 743.765 C 323.759 746.661, 326 748.793, 326 748.504 C 326 746.783, 317.257 735.639, 312.787 731.662 C 309.879 729.075, 306.825 726.351, 306 725.609 C 305.175 724.867, 302.925 723.493, 301 722.556 L 297.500 720.852 300.747 723.496 M 584.993 772.182 C 586.914 772.732, 589.951 772.945, 591.743 772.654 C 593.534 772.364, 595 772.547, 595 773.063 C 595 773.578, 595.505 774, 596.122 774 C 596.898 774, 596.860 773.536, 596 772.500 C 595.106 771.423, 592.885 771.025, 588.128 771.090 C 581.977 771.174, 581.752 771.252, 584.993 772.182 M 599.151 784.500 C 599.085 788.900, 599.375 793.041, 599.795 793.703 C 600.216 794.365, 600.414 791.665, 600.234 787.703 C 599.745 776.882, 599.287 775.527, 599.151 784.500 M 600.079 810.177 C 600.008 823.274, 599.812 824.903, 598.250 825.311 C 597.063 825.621, 597.304 825.806, 599 825.885 L 601.500 826.002 601.239 811.751 C 600.892 792.772, 600.178 791.803, 600.079 810.177 M 665.916 913.750 C 665.695 920.956, 665.980 929.314, 666.463 929.796 C 666.758 930.092, 667 925.983, 667 920.667 C 667 915.350, 666.775 911, 666.500 911 C 666.225 911, 665.962 912.237, 665.916 913.750 M 977.100 948.750 C 974.476 951.362, 970.568 955.750, 968.415 958.500 C 966.262 961.250, 964.274 963.725, 963.997 964 C 963.721 964.275, 961.741 967.200, 959.598 970.500 C 957.455 973.800, 955.065 976.876, 954.287 977.335 C 952.172 978.584, 951.097 982.234, 952.215 984.366 C 952.754 985.392, 954.613 987.480, 956.347 989.006 C 958.081 990.532, 964.225 996.615, 970 1002.523 C 975.775 1008.431, 982.035 1014.668, 983.911 1016.383 C 991.128 1022.977, 999.658 1031.742, 1004.461 1037.500 C 1012.937 1047.660, 1047.208 1082.458, 1082.247 1116.485 C 1095.641 1129.491, 1104.032 1138.387, 1104.318 1139.884 C 1104.572 1141.211, 1103.608 1145.493, 1102.175 1149.399 C 1099.690 1156.174, 1099.571 1157.419, 1099.584 1176.500 C 1099.597 1194.756, 1099.790 1196.980, 1101.798 1202 C 1103.009 1205.025, 1103.999 1208.188, 1103.999 1209.028 C 1104 1211.807, 1110.643 1224.395, 1115.500 1230.822 C 1124.584 1242.843, 1132.798 1250.106, 1146.500 1258.233 C 1154.141 1262.766, 1166 1266.342, 1166 1264.113 C 1166 1263.501, 1165.213 1262.993, 1164.250 1262.985 C 1163.287 1262.977, 1161.375 1262.342, 1160 1261.573 C 1158.625 1260.804, 1155.250 1259.022, 1152.500 1257.612 C 1142.986 1252.733, 1133.982 1246.743, 1133.148 1244.736 C 1132.955 1244.270, 1129.645 1240.652, 1125.793 1236.695 C 1121.941 1232.738, 1118.110 1228.487, 1117.279 1227.250 C 1116.449 1226.013, 1115.147 1225, 1114.385 1225 C 1113.623 1225, 1113.059 1224.662, 1113.130 1224.250 C 1113.343 1223.030, 1110.623 1217, 1109.861 1217 C 1109.476 1217, 1108.415 1214.638, 1107.503 1211.750 C 1106.591 1208.862, 1105.574 1205.825, 1105.243 1205 C 1104.912 1204.175, 1104.520 1202.825, 1104.372 1202 C 1104.224 1201.175, 1103.641 1198.647, 1103.076 1196.382 C 1101.103 1188.469, 1101.871 1162.335, 1104.118 1160.933 C 1104.617 1160.621, 1105.500 1155.288, 1106.080 1149.083 L 1107.133 1137.800 1104.392 1133.845 C 1101.815 1130.126, 1098.248 1126.746, 1085 1115.470 C 1074.798 1106.786, 1005.067 1036.734, 980.014 1010 C 977.180 1006.975, 970.616 1000.170, 965.429 994.877 C 959.090 988.408, 955.929 984.419, 955.788 982.706 C 955.558 979.927, 957.511 975.567, 960.223 972.808 C 961.170 971.844, 964.387 967.780, 967.371 963.777 C 970.356 959.775, 974.840 954.521, 977.337 952.103 C 981.715 947.861, 981.985 947.751, 984.972 948.988 C 986.675 949.694, 988.848 951.262, 989.801 952.474 C 990.755 953.687, 992.058 954.863, 992.697 955.089 C 994.459 955.712, 1003.929 965.005, 1009 971.088 C 1013.203 976.130, 1032.918 996, 1033.717 996 C 1034.069 996, 1040.405 1002.576, 1042.580 1005.198 C 1045.221 1008.383, 1054.274 1016, 1055.418 1016 C 1057.706 1016, 1078.406 1035.638, 1091.406 1050.142 C 1093.554 1052.539, 1094.970 1053.904, 1094.551 1053.176 C 1093.298 1050.996, 1097.479 1053.936, 1098.926 1056.253 C 1099.822 1057.688, 1099.834 1058.015, 1098.970 1057.482 C 1098.322 1057.081, 1098.566 1057.934, 1099.511 1059.377 C 1101.106 1061.811, 1102.246 1062.455, 1104.324 1062.094 C 1104.778 1062.015, 1104.904 1062.346, 1104.605 1062.830 C 1103.875 1064.011, 1108.443 1068.224, 1109.408 1067.259 C 1109.825 1066.842, 1110.025 1066.950, 1109.851 1067.500 C 1109.497 1068.622, 1113.039 1073.059, 1113.928 1072.607 C 1114.525 1072.305, 1118 1075.627, 1118 1076.500 C 1118 1076.775, 1118.112 1076.908, 1118.250 1076.796 C 1118.888 1076.274, 1122.837 1080.455, 1122.390 1081.178 C 1122.110 1081.630, 1122.419 1082, 1123.076 1082 C 1123.733 1082, 1125.313 1083.125, 1126.588 1084.500 C 1127.862 1085.875, 1129.376 1087, 1129.952 1087 C 1130.529 1087, 1131 1087.675, 1131 1088.500 C 1131 1089.325, 1131.450 1090, 1132 1090 C 1132.550 1090, 1133 1090.469, 1133 1091.042 C 1133 1092.348, 1134.540 1094.315, 1139 1098.707 C 1142.425 1102.079, 1142.640 1102.142, 1149 1101.621 C 1152.575 1101.329, 1158.875 1100.370, 1163 1099.490 C 1167.125 1098.609, 1175.450 1097.649, 1181.500 1097.355 C 1191.327 1096.878, 1193.886 1097.143, 1205.500 1099.838 C 1212.650 1101.497, 1219.850 1103.560, 1221.500 1104.421 C 1223.150 1105.283, 1225.200 1105.990, 1226.056 1105.994 C 1226.911 1105.997, 1229.136 1107.125, 1231 1108.500 C 1232.864 1109.875, 1235.201 1111, 1236.194 1111 C 1237.187 1111, 1238 1111.482, 1238 1112.071 C 1238 1113.223, 1240.457 1116, 1241.476 1116 C 1241.817 1116, 1243.138 1117.125, 1244.412 1118.500 C 1245.687 1119.875, 1247.206 1121, 1247.788 1121 C 1248.745 1121, 1258 1133.988, 1258 1135.331 C 1258 1135.640, 1259.575 1138.580, 1261.500 1141.865 C 1264.966 1147.778, 1265.922 1150.688, 1264.011 1149.507 C 1262.971 1148.864, 1263.721 1151.715, 1265.061 1153.500 C 1265.474 1154.050, 1266.061 1155.850, 1266.366 1157.500 C 1266.671 1159.150, 1267.385 1162.300, 1267.953 1164.500 C 1270.545 1174.541, 1266.144 1206.132, 1260.776 1216.015 C 1254.956 1226.727, 1251.520 1231.493, 1244.529 1238.551 C 1235.530 1247.634, 1232.582 1249.681, 1219 1256.269 C 1210.330 1260.474, 1202.451 1262.610, 1185.279 1265.410 C 1184.607 1265.519, 1183.707 1265.980, 1183.279 1266.433 C 1182.350 1267.416, 1200.991 1266.352, 1206 1265.137 C 1222.867 1261.043, 1237.736 1252.498, 1250.500 1239.562 C 1260.939 1228.983, 1265.872 1221.050, 1270.044 1208.137 C 1278.059 1183.328, 1275.884 1157.187, 1264.057 1136.183 C 1258.226 1125.828, 1258.920 1126.793, 1250.113 1116.798 C 1237.960 1103.006, 1217.356 1093.089, 1196.990 1091.227 C 1184.522 1090.088, 1166.709 1092.116, 1155.174 1095.988 C 1147.307 1098.630, 1145.587 1098.915, 1144.174 1097.810 C 1143.253 1097.089, 1137.287 1091.325, 1130.916 1085 C 1101.674 1055.970, 1067.868 1022.867, 1061.500 1017.026 C 1041.004 998.228, 1028.816 986.713, 1011.572 969.853 C 991.980 950.697, 984.537 944, 982.840 944 C 982.306 944, 979.723 946.138, 977.100 948.750 M 595.980 953.250 C 595.065 955.138, 595.100 955.258, 596.195 954 C 598.072 951.842, 602.670 952.630, 603.349 955.225 C 603.652 956.387, 603.650 970.930, 603.342 987.543 C 602.974 1007.439, 603.129 1017.962, 603.796 1018.374 C 604.438 1018.771, 605.052 1015.256, 605.478 1008.750 C 606.239 997.110, 605.511 953.636, 604.528 952.046 C 604.173 951.471, 602.349 951, 600.476 951 C 597.934 951, 596.794 951.571, 595.980 953.250 M 584.423 963.325 C 580.530 967.271, 576.971 971.175, 576.513 972 C 576.055 972.825, 577.679 971.475, 580.121 969 C 582.564 966.525, 586.549 962.587, 588.978 960.250 C 591.407 957.913, 592.968 956.034, 592.447 956.075 C 591.926 956.117, 588.315 959.379, 584.423 963.325 M 602 1021.027 C 602 1021.592, 582.087 1042.023, 557.750 1066.429 C 499.135 1125.209, 490.651 1134, 492.543 1134 C 493.034 1134, 543.577 1083.385, 570.433 1056 C 572.321 1054.075, 579.746 1046.925, 586.933 1040.111 C 594.120 1033.298, 600 1027.210, 600 1026.584 C 600 1025.957, 600.900 1024.674, 602 1023.732 C 604.135 1021.904, 604.645 1020, 603 1020 C 602.450 1020, 602 1020.462, 602 1021.027 M 818 1081.125 C 818 1081.606, 817.380 1082, 816.622 1082 C 815.865 1082, 814.682 1082.678, 813.994 1083.507 C 812.879 1084.850, 813.057 1084.851, 815.621 1083.514 C 820.371 1081.037, 821.830 1081.527, 822.272 1085.750 C 822.641 1089.282, 822.674 1089.231, 822.832 1084.875 C 822.989 1080.564, 822.831 1080.250, 820.500 1080.250 C 819.125 1080.250, 818 1080.644, 818 1081.125 M 491.739 1166.250 C 491.456 1169.138, 491.689 1172.380, 492.257 1173.455 C 493.167 1175.178, 492.743 1194.716, 491.616 1203 C 491.428 1204.375, 491.470 1204.713, 491.707 1203.750 C 491.945 1202.787, 492.617 1202, 493.200 1202 C 493.854 1202, 494.045 1200.662, 493.697 1198.518 C 493.386 1196.603, 493.552 1194.777, 494.066 1194.459 C 495.709 1193.444, 494.653 1161, 492.977 1161 C 492.580 1161, 492.023 1163.362, 491.739 1166.250 M 823.271 1255.492 C 823.410 1256.588, 824.756 1258.075, 826.262 1258.797 C 827.768 1259.519, 829 1260.535, 829 1261.055 C 829 1261.575, 830.035 1262, 831.300 1262 C 832.565 1262, 834.140 1262.540, 834.800 1263.200 C 835.656 1264.056, 836.308 1264.092, 837.075 1263.325 C 838.238 1262.162, 846 1263.606, 846 1264.986 C 846 1265.394, 848.085 1266.525, 850.634 1267.498 C 853.182 1268.471, 856.061 1269.995, 857.031 1270.884 C 858 1271.773, 860.172 1273.625, 861.856 1275 C 868.326 1280.281, 873.757 1285.589, 874.878 1287.727 C 875.520 1288.952, 877.048 1290.488, 878.273 1291.141 C 880.652 1292.408, 880.516 1292.141, 876.190 1287.043 C 871.102 1281.046, 860.029 1271, 858.507 1271 C 857.796 1271, 856.955 1270.325, 856.638 1269.500 C 856.322 1268.675, 855.374 1268, 854.531 1268 C 853.689 1268, 853 1267.523, 853 1266.941 C 853 1266.359, 852.550 1266.160, 852 1266.500 C 851.450 1266.840, 851 1266.672, 851 1266.126 C 851 1265.581, 849.987 1264.826, 848.750 1264.448 C 847.513 1264.070, 844.078 1262.629, 841.118 1261.246 C 835.702 1258.714, 830.204 1256.995, 826.500 1256.673 C 825.400 1256.578, 824.166 1255.825, 823.758 1255 C 823.212 1253.894, 823.084 1254.023, 823.271 1255.492" stroke="none" fill="#85d3f8" fill-rule="evenodd"/><path d="M 783.770 169.575 C 771.501 171.454, 767.614 172.619, 758.500 177.147 C 750.973 180.887, 739.344 189.028, 733.159 194.888 C 729.662 198.202, 721.602 209.534, 718.327 215.740 C 716.946 218.358, 715.211 222.975, 714.471 226 C 713.732 229.025, 712.688 233.300, 712.153 235.500 C 709.030 248.323, 710.017 274.977, 714.038 286.384 C 715.178 289.620, 715.867 292.905, 715.567 293.686 C 715.266 294.470, 715.465 294.831, 716.011 294.493 C 716.555 294.157, 717.052 294.471, 717.115 295.191 C 717.179 295.911, 717.335 296.950, 717.463 297.500 C 717.591 298.050, 717.764 299.201, 717.848 300.059 C 717.931 300.916, 718.700 302.491, 719.555 303.559 C 721.057 305.434, 721.074 305.426, 720.055 303.316 C 719.475 302.114, 719.007 300.539, 719.015 299.816 C 719.030 298.480, 719.744 299.536, 723.723 306.772 C 724.946 308.996, 726.296 310.970, 726.723 311.158 C 727.544 311.520, 734.059 319.520, 735.475 321.905 C 736.039 322.854, 735.935 323.078, 735.155 322.595 C 734.520 322.203, 734 322.284, 734 322.774 C 734 324.505, 735.333 324.968, 736.802 323.749 C 738.064 322.702, 738.181 322.854, 737.579 324.752 C 737.039 326.453, 737.210 326.857, 738.297 326.440 C 739.124 326.122, 741.497 327.595, 743.944 329.946 C 746.264 332.176, 748.816 334, 749.613 334 C 750.410 334, 751.322 334.675, 751.638 335.500 C 751.955 336.325, 752.673 337, 753.234 337 C 754.984 337, 768.351 343.860, 771.425 346.335 L 774.350 348.691 774.659 416.095 C 774.829 453.168, 775.198 484.784, 775.479 486.353 C 775.761 487.921, 777.121 490.094, 778.502 491.180 C 782.529 494.348, 806.326 510, 807.115 510 C 807.510 510, 807.983 510.392, 808.167 510.871 C 808.601 512.004, 820.043 519.291, 820.566 518.767 C 820.786 518.547, 821.002 481.047, 821.045 435.433 C 821.088 389.820, 821.360 351.332, 821.649 349.905 C 822.086 347.746, 823.982 346.453, 832.945 342.205 C 842.195 337.820, 844.917 335.928, 852.229 328.800 C 856.912 324.235, 863.532 318.025, 866.940 315 C 873.452 309.220, 880.535 299.700, 881.662 295.212 C 882.028 293.753, 883.198 291.084, 884.262 289.280 C 885.327 287.476, 885.903 286, 885.542 286 C 885.182 286, 885.566 284.762, 886.396 283.250 C 888.831 278.814, 891.002 266.750, 890.976 257.803 C 890.948 248.442, 889.833 242.455, 886.964 236.261 C 885.884 233.929, 885 231.442, 885 230.733 C 885 230.025, 884.392 228.557, 883.649 227.473 C 882.906 226.388, 881.972 224.150, 881.573 222.500 C 880.787 219.245, 875.756 210.511, 873.131 207.842 C 872.234 206.931, 870.600 204.993, 869.500 203.536 C 861.659 193.150, 844.872 180.229, 834.500 176.596 C 831.750 175.633, 828.600 174.459, 827.500 173.988 C 823.992 172.487, 805.733 169.062, 799 168.643 C 795.425 168.420, 788.572 168.840, 783.770 169.575 M 397.636 345.506 C 397.348 346.256, 395.995 346.714, 394.538 346.554 C 393.115 346.397, 391.711 346.659, 391.417 347.135 C 391.123 347.611, 389.874 348, 388.641 348 C 387.408 348, 385.940 348.460, 385.378 349.022 C 384.816 349.584, 381.464 350.766, 377.928 351.649 C 374.393 352.531, 370.890 353.741, 370.143 354.338 C 368.411 355.722, 365.132 357.629, 362.224 358.942 C 360.973 359.507, 359.691 360.643, 359.375 361.465 C 359.060 362.287, 357.159 363.952, 355.151 365.164 C 353.143 366.377, 350.338 368.632, 348.917 370.177 C 341.748 377.973, 340.168 379.884, 337.073 384.500 C 335.230 387.250, 333.222 389.954, 332.611 390.508 C 332 391.062, 330.430 393.641, 329.122 396.238 C 327.814 398.835, 326.378 400.734, 325.931 400.457 C 325.484 400.181, 325.321 401.653, 325.568 403.728 C 325.816 405.802, 325.752 406.938, 325.426 406.250 C 324.604 404.516, 323 404.682, 323 406.500 C 323 407.325, 323.450 408, 324 408 C 324.550 408, 325 408.675, 325 409.500 C 325 411.318, 323.392 411.484, 322.585 409.750 C 322.264 409.063, 322.262 410.686, 322.579 413.357 C 322.975 416.699, 322.819 418.006, 322.077 417.548 C 321.331 417.087, 321.036 420.054, 321.118 427.191 C 321.202 434.486, 321.476 436.623, 322.054 434.500 C 322.560 432.646, 322.660 434.466, 322.317 439.264 C 321.826 446.141, 321.947 446.957, 323.381 446.407 C 324.557 445.956, 325 446.362, 325 447.893 C 325 449.052, 324.550 450, 324 450 C 323.450 450, 323 450.498, 323 451.107 C 323 451.721, 323.728 451.934, 324.634 451.587 C 326.027 451.052, 326.179 451.517, 325.662 454.730 C 325.214 457.520, 325.330 458.110, 326.107 457 C 326.924 455.833, 327.060 456.103, 326.723 458.220 C 326.484 459.716, 326.692 460.690, 327.185 460.386 C 327.683 460.078, 327.805 461.088, 327.459 462.666 C 326.995 464.787, 327.099 465.127, 327.873 464.016 C 328.712 462.813, 329.197 463.227, 330.443 466.210 C 331.289 468.233, 331.683 470.662, 331.320 471.608 C 330.834 472.876, 331.012 473.111, 332 472.500 C 332.996 471.884, 333.165 472.128, 332.659 473.447 C 332.160 474.747, 332.369 475.073, 333.437 474.662 C 335.100 474.025, 336.545 477.309, 335.410 479.146 C 334.974 479.851, 335.126 480.040, 335.795 479.627 C 336.864 478.966, 339.644 482.728, 339.212 484.250 C 339.096 484.662, 339.506 484.887, 340.125 484.750 C 340.744 484.612, 341.477 485.125, 341.755 485.889 C 342.093 486.821, 341.837 487.017, 340.975 486.485 C 340.151 485.975, 339.937 486.089, 340.378 486.802 C 340.755 487.413, 341.631 487.695, 342.324 487.429 C 343.711 486.897, 348.661 492.902, 348.152 494.500 C 347.977 495.050, 348.161 495.172, 348.562 494.771 C 349.144 494.190, 357.900 499.704, 360 501.975 C 360.962 503.015, 373.550 508.894, 379 510.849 C 390.224 514.874, 418.662 516.340, 424.599 513.200 C 427.116 511.869, 433.441 510.241, 438.950 509.506 C 441.398 509.179, 443.957 508.451, 444.636 507.887 C 446.531 506.314, 449.580 508.320, 458.281 516.861 C 463.381 521.868, 466.314 524.095, 466.794 523.325 C 467.274 522.553, 469.577 524.259, 473.513 528.302 C 479.729 534.690, 478.519 534.317, 471.647 527.727 C 469.483 525.652, 467.500 524.166, 467.242 524.425 C 466.405 525.262, 479.460 536.989, 480.718 536.531 C 481.388 536.287, 482.245 536.587, 482.622 537.198 C 483.038 537.871, 482.854 538.028, 482.155 537.595 C 478.661 535.437, 482.927 539.996, 500.500 557.203 C 511.225 567.705, 520 576.704, 520 577.201 C 520 577.698, 525.348 583.593, 531.884 590.302 C 538.420 597.011, 545.282 604.273, 547.134 606.441 C 553.087 613.411, 553.863 614.226, 571.914 632.500 C 590.991 651.812, 597.579 658, 599.064 658 C 599.579 658, 600 658.450, 600 659 C 600 660.666, 602.830 660.118, 603.177 658.386 C 603.915 654.699, 602.827 637.661, 601.942 639.059 C 601.236 640.176, 601.027 639.994, 601.015 638.250 C 601.007 637.013, 600.550 636, 600 636 C 599.450 636, 599.007 635.212, 599.015 634.250 C 599.028 632.754, 599.172 632.718, 600 634 C 600.533 634.825, 600.962 635.050, 600.953 634.500 C 600.944 633.950, 600.293 632.651, 599.508 631.613 C 598.409 630.162, 598.091 626.230, 598.133 614.613 C 598.193 597.837, 596.761 586.552, 594.193 583.557 C 593.262 582.471, 589.944 579.089, 586.819 576.041 C 572.423 561.998, 565.717 556, 564.414 556 C 563.636 556, 563.104 555.663, 563.232 555.250 C 563.590 554.094, 559.749 550.037, 558.833 550.603 C 558.387 550.879, 558.291 550.406, 558.618 549.552 C 559.033 548.471, 558.612 548, 557.229 548 C 556.138 548, 554.627 547.212, 553.872 546.250 C 552.611 544.642, 552.662 544.611, 554.500 545.875 C 555.600 546.631, 555.327 546.181, 553.894 544.875 C 552.461 543.569, 550.436 541.921, 549.394 541.213 C 548.352 540.505, 548.175 540.240, 549 540.624 C 549.825 541.008, 549.409 540.125, 548.076 538.661 C 546.742 537.198, 545.055 536, 544.326 536 C 543.597 536, 543 535.452, 543 534.782 C 543 533.260, 538.138 529, 536.401 529 C 534.837 529, 531.881 525.001, 532.594 523.848 C 532.874 523.394, 532.327 523.321, 531.378 523.685 C 530.041 524.198, 529.802 523.959, 530.315 522.622 C 530.709 521.595, 530.577 521.144, 529.989 521.507 C 529.445 521.843, 528.958 521.304, 528.907 520.309 C 528.856 519.314, 522.760 512.875, 515.360 506 C 498.395 490.239, 499.247 491, 498.572 491 C 498.258 491, 495.466 488.525, 492.368 485.500 C 489.270 482.475, 487.067 480, 487.473 480 C 487.879 480, 486.814 478.694, 485.106 477.099 C 481.441 473.675, 481.365 472.820, 484.034 464.898 C 486.310 458.144, 488.579 443.432, 489.610 428.752 C 490.237 419.824, 490.063 418.267, 487.540 410.252 C 486.025 405.438, 484.159 400.082, 483.393 398.349 C 482.627 396.616, 481.985 394.366, 481.967 393.349 C 481.949 392.332, 480.606 389.700, 478.984 387.500 C 477.362 385.300, 475.504 382.488, 474.857 381.250 C 474.209 380.012, 473.301 379, 472.839 379 C 472.378 379, 472 378.469, 472 377.820 C 472 375.921, 459.530 364.476, 455.338 362.528 C 453.227 361.547, 450.825 360.184, 450 359.499 C 448.473 358.231, 431.047 352.069, 423.150 350.006 C 420.758 349.381, 415.170 348.842, 410.733 348.809 C 403.713 348.757, 402.967 348.588, 404.985 347.508 C 406.261 346.825, 408.085 346.471, 409.039 346.721 C 409.994 346.970, 411.077 346.685, 411.446 346.087 C 411.867 345.406, 411.068 344.981, 409.309 344.950 C 407.764 344.922, 404.621 344.737, 402.323 344.537 C 399.496 344.292, 397.982 344.605, 397.636 345.506 M 1177.500 348.096 C 1171.521 348.733, 1170.534 348.922, 1162 351.059 C 1149.769 354.121, 1136.603 362.116, 1126.500 372.615 C 1120.595 378.751, 1120.166 379.292, 1117.074 384.500 C 1112.035 392.987, 1108.735 399.682, 1107.385 404.153 C 1105.154 411.541, 1105.417 443.925, 1107.851 461.500 C 1108.460 465.900, 1108.821 470.696, 1108.654 472.158 C 1108.217 475.976, 1105.417 479.802, 1102.784 480.177 C 1101.520 480.357, 1099.960 481.670, 1099.254 483.148 C 1097.490 486.839, 1073 511.548, 1070.235 512.425 C 1068.990 512.821, 1068.195 513.506, 1068.468 513.948 C 1068.741 514.390, 1067.208 515.970, 1065.062 517.457 C 1062.915 518.945, 1060.049 521.813, 1058.694 523.831 C 1055.065 529.233, 1049.179 535.472, 1017.841 567.131 C 987.491 597.792, 982.010 603.630, 978.995 608.508 C 977.935 610.223, 976.040 612.192, 974.784 612.884 C 973.528 613.576, 970.765 616.328, 968.644 618.999 C 966.188 622.093, 964.262 623.654, 963.337 623.299 C 962.538 622.993, 962.116 622.139, 962.399 621.403 C 962.681 620.667, 962.529 619.827, 962.061 619.538 C 960.885 618.811, 959.956 621.552, 961.014 622.628 C 961.491 623.113, 961.381 625.322, 960.767 627.607 C 959.685 631.633, 959.757 631.836, 964.385 637.850 C 966.982 641.225, 969.948 644.437, 970.975 644.987 C 972.003 645.537, 973.442 646.561, 974.172 647.263 C 974.902 647.965, 977.499 649.991, 979.943 651.767 C 983.227 654.152, 984.592 654.669, 985.178 653.747 C 985.740 652.861, 985.974 652.839, 985.985 653.671 C 985.993 654.314, 987.403 655.149, 989.119 655.526 C 994.252 656.654, 998.246 653.751, 1009.162 640.962 C 1011.726 637.958, 1016.451 632.983, 1019.662 629.906 C 1038.063 612.275, 1048 601.710, 1048 599.777 C 1048 599.350, 1048.723 599, 1049.607 599 C 1050.625 599, 1051.003 598.450, 1050.638 597.500 C 1050.289 596.591, 1050.635 596, 1051.517 596 C 1053.655 596, 1069.450 580.080, 1071.359 576 C 1073.630 571.147, 1076.730 567.797, 1082 564.498 C 1084.475 562.948, 1091.287 556.915, 1097.138 551.090 C 1102.990 545.266, 1112.749 535.799, 1118.826 530.053 C 1124.902 524.307, 1129.604 519.168, 1129.273 518.633 C 1128.921 518.064, 1129.384 517.933, 1130.388 518.319 C 1131.458 518.729, 1131.861 518.584, 1131.458 517.932 C 1130.504 516.388, 1131.843 512.001, 1133.269 511.995 C 1133.946 511.993, 1136.251 510.382, 1138.391 508.417 C 1145.337 502.038, 1149.722 501.511, 1158.500 506 C 1161.726 507.650, 1165.604 509, 1167.118 509 C 1168.631 509, 1171.067 509.455, 1172.531 510.012 C 1175.705 511.219, 1188.077 512.073, 1189.499 511.184 C 1190.050 510.840, 1191.850 510.469, 1193.500 510.361 C 1195.150 510.252, 1197.400 509.906, 1198.500 509.591 C 1199.600 509.275, 1203.200 508.335, 1206.500 507.501 C 1209.800 506.667, 1213.882 505.538, 1215.571 504.992 C 1217.260 504.447, 1219.398 504, 1220.321 504 C 1221.244 504, 1222 503.605, 1222 503.121 C 1222 502.638, 1223.344 501.686, 1224.987 501.005 C 1226.630 500.325, 1227.729 499.370, 1227.428 498.884 C 1226.605 497.551, 1228.420 497.823, 1229.871 499.250 C 1230.571 499.938, 1231.020 500.050, 1230.869 499.500 C 1230.718 498.950, 1230.932 496.813, 1231.343 494.750 C 1231.892 491.998, 1232.595 491, 1233.986 491 C 1235.029 491, 1236.174 490.528, 1236.530 489.951 C 1236.980 489.223, 1237.574 489.231, 1238.472 489.977 C 1239.428 490.770, 1239.926 490.636, 1240.376 489.462 C 1240.712 488.588, 1241.327 488.055, 1241.743 488.278 C 1242.159 488.501, 1243.287 487.854, 1244.250 486.841 C 1245.213 485.829, 1245.550 485, 1245 485 C 1244.450 485, 1244 484.298, 1244 483.441 C 1244 482.584, 1244.437 482.152, 1244.971 482.482 C 1246.242 483.267, 1250.305 478.570, 1251.204 475.276 C 1251.591 473.858, 1251.540 471.978, 1251.089 471.098 C 1249.941 468.857, 1250.827 467, 1253.044 467 C 1255.678 467, 1259.421 462.885, 1257.751 461.825 C 1257.063 461.388, 1256.950 460.992, 1257.500 460.945 C 1258.050 460.898, 1257.600 460.467, 1256.500 459.988 C 1254.557 459.141, 1254.564 459.097, 1256.750 458.442 C 1257.987 458.070, 1259 457.343, 1259 456.824 C 1259 456.306, 1259.345 456.095, 1259.766 456.356 C 1260.188 456.616, 1261.046 455.743, 1261.672 454.415 C 1262.908 451.797, 1262.176 451.257, 1260.095 453.250 C 1259.028 454.271, 1258.911 453.923, 1259.453 451.345 C 1259.818 449.610, 1259.683 447.922, 1259.152 447.594 C 1258.622 447.266, 1258.423 446.098, 1258.711 444.999 C 1259.080 443.588, 1258.741 443, 1257.558 443 C 1256.624 443, 1256.174 442.527, 1256.542 441.932 C 1256.905 441.344, 1257.803 441.094, 1258.537 441.376 C 1259.270 441.657, 1260.121 441.350, 1260.426 440.694 C 1260.732 440.037, 1260.742 440.475, 1260.450 441.666 C 1259.808 444.281, 1261.550 445.618, 1263.496 444.003 C 1264.270 443.361, 1265.826 443.127, 1266.952 443.485 C 1268.364 443.933, 1269 443.691, 1269 442.705 C 1269 441.773, 1268.129 441.371, 1266.500 441.549 C 1264.422 441.778, 1264 441.398, 1264 439.304 C 1264 437.146, 1263.656 436.869, 1261.612 437.382 C 1259.585 437.891, 1259.164 437.568, 1258.827 435.241 C 1258.608 433.733, 1259.001 431.375, 1259.700 430 C 1260.399 428.625, 1260.977 428.089, 1260.985 428.809 C 1260.993 429.529, 1261.390 429.877, 1261.866 429.583 C 1263.154 428.787, 1266.184 432.547, 1265.962 434.664 C 1265.603 438.091, 1265.996 438.876, 1268 438.725 C 1270.060 438.570, 1270.872 437, 1268.892 437 C 1268.209 437, 1268.024 436.040, 1268.411 434.500 C 1268.874 432.655, 1268.640 432, 1267.519 432 C 1266.652 432, 1266 431.116, 1266 429.941 C 1266 428.809, 1265.662 428.091, 1265.250 428.345 C 1264.838 428.600, 1264.500 427.790, 1264.500 426.545 C 1264.500 424.428, 1264.645 424.377, 1266.750 425.756 C 1268.930 427.184, 1269 427.126, 1268.985 423.865 C 1268.973 421.346, 1268.730 420.877, 1268.016 422 C 1267.222 423.249, 1266.565 422.956, 1264.088 420.250 C 1261.961 417.926, 1261.555 417, 1262.663 417 C 1263.631 417, 1263.998 416.436, 1263.638 415.500 C 1263.322 414.675, 1263.499 414, 1264.031 414 C 1264.564 414, 1265 414.750, 1265 415.667 C 1265 416.583, 1265.284 417.049, 1265.631 416.702 C 1265.979 416.355, 1267.060 416.497, 1268.033 417.018 C 1269.498 417.802, 1269.715 417.625, 1269.288 415.994 C 1269.005 414.910, 1268.405 414.250, 1267.955 414.528 C 1267.506 414.805, 1266.856 414.575, 1266.510 414.016 C 1266.165 413.457, 1266.414 413, 1267.063 413 C 1267.928 413, 1267.900 412.585, 1266.961 411.453 C 1266.254 410.602, 1265.412 410.286, 1265.088 410.751 C 1264.096 412.176, 1260 411.984, 1260 410.511 C 1260 409.761, 1259.213 408.919, 1258.250 408.641 C 1257.287 408.363, 1258.638 408.381, 1261.250 408.681 C 1265.241 409.140, 1266 408.960, 1266 407.555 C 1266 406.635, 1265.530 406.172, 1264.956 406.527 C 1264.382 406.882, 1263.252 406.624, 1262.445 405.954 C 1261.167 404.894, 1261.205 404.570, 1262.737 403.450 C 1263.705 402.742, 1264.136 401.802, 1263.694 401.361 C 1263.253 400.919, 1262.473 401.220, 1261.961 402.029 C 1261.199 403.234, 1260.999 403.138, 1260.857 401.500 C 1260.761 400.400, 1260.749 398.600, 1260.829 397.500 C 1260.957 395.745, 1260.854 395.703, 1259.990 397.157 C 1259.349 398.234, 1258.249 398.616, 1256.846 398.249 C 1255.436 397.881, 1254.921 398.063, 1255.360 398.773 C 1255.730 399.372, 1255.592 400.134, 1255.054 400.467 C 1254.487 400.817, 1254.164 399.872, 1254.287 398.223 C 1254.467 395.823, 1254.893 395.418, 1257 395.651 C 1258.658 395.835, 1258.862 395.738, 1257.605 395.363 C 1256.145 394.927, 1256.016 394.608, 1257.041 393.975 C 1258.071 393.338, 1258.106 392.832, 1257.194 391.734 C 1256.547 390.954, 1256.351 389.958, 1256.759 389.521 C 1257.166 389.084, 1256.825 388.957, 1256 389.238 C 1255.175 389.520, 1254.638 390.332, 1254.806 391.044 C 1255.151 392.501, 1252.475 390.700, 1250.282 388 C 1249.433 386.955, 1249.054 386.879, 1249.032 387.750 C 1248.977 389.905, 1247 389.109, 1247 386.933 C 1247 385.350, 1247.450 385.008, 1248.917 385.474 C 1250.477 385.969, 1250.733 385.696, 1250.292 384.009 C 1249.994 382.869, 1248.937 381.501, 1247.943 380.969 C 1246.949 380.437, 1245.850 379.102, 1245.500 378.001 C 1245.137 376.857, 1243.987 376, 1242.816 376 C 1241.271 376, 1240.893 375.516, 1241.281 374.035 C 1241.631 372.696, 1241.189 371.878, 1239.897 371.467 C 1238.854 371.136, 1238 369.996, 1238 368.933 C 1238 367.870, 1237.550 367, 1237 367 C 1236.450 367, 1236 366.325, 1236 365.500 C 1236 364.675, 1235.325 364, 1234.500 364 C 1233.675 364, 1233 363.411, 1233 362.691 C 1233 361.315, 1221.022 354.374, 1220.970 355.720 C 1220.953 356.149, 1220.475 355.703, 1219.908 354.729 C 1219.341 353.755, 1218.455 353.219, 1217.939 353.538 C 1217.422 353.857, 1217 353.713, 1217 353.219 C 1217 352.371, 1212.994 351.332, 1200.750 349.001 C 1193.730 347.664, 1184.816 347.317, 1177.500 348.096 M 772.405 375.500 C 772.406 384.300, 772.559 387.766, 772.745 383.203 C 772.930 378.639, 772.929 371.439, 772.742 367.203 C 772.555 362.966, 772.404 366.700, 772.405 375.500 M 705.250 547.119 C 702.913 547.668, 701 548.541, 701 549.059 C 701 549.576, 700.392 550, 699.649 550 C 696.033 550, 680 564.633, 680 567.933 C 680 568.520, 679.605 569, 679.123 569 C 678.641 569, 677.256 571.303, 676.045 574.117 C 671.197 585.387, 671.055 587.845, 670.458 671.138 C 670.149 714.237, 669.731 756.025, 669.528 764 C 669.325 771.975, 669.011 794.769, 668.830 814.654 C 668.648 834.539, 668.163 850.600, 667.750 850.345 C 667.337 850.090, 666.922 858.121, 666.827 868.191 C 666.708 880.839, 666.452 884.490, 666 880 C 665.602 876.050, 665.324 881.936, 665.291 895 C 665.261 906.825, 665.580 915.150, 666 913.500 C 666.500 911.534, 666.763 913.947, 666.763 920.500 C 666.763 926.576, 666.486 929.323, 666.055 927.500 C 664.832 922.318, 664.308 941.225, 664.668 977.500 C 665.008 1011.706, 665.448 1020, 666.923 1020 C 667.363 1020, 667.495 1021.192, 667.216 1022.649 C 666.858 1024.525, 667.056 1025.084, 667.895 1024.565 C 668.748 1024.038, 668.896 1024.568, 668.422 1026.456 C 668.060 1027.898, 668.154 1029.008, 668.632 1028.921 C 670.609 1028.562, 671.408 1029.089, 670.122 1029.904 C 669.352 1030.391, 669.076 1031.315, 669.497 1031.995 C 670.077 1032.933, 670.466 1032.901, 671.191 1031.857 C 671.834 1030.928, 671.919 1031.250, 671.458 1032.875 C 671.005 1034.478, 671.142 1035.030, 671.881 1034.573 C 672.554 1034.158, 672.760 1034.461, 672.416 1035.359 C 671.930 1036.624, 676.515 1045, 677.692 1045 C 677.926 1045, 677.797 1044.480, 677.405 1043.845 C 676.959 1043.124, 677.131 1042.963, 677.862 1043.415 C 678.506 1043.813, 678.762 1044.577, 678.430 1045.113 C 677.689 1046.312, 679.914 1049.171, 681.044 1048.473 C 681.494 1048.195, 682.187 1048.494, 682.585 1049.138 C 683.037 1049.869, 682.876 1050.041, 682.155 1049.595 C 680.604 1048.637, 680.746 1050.082, 682.419 1052.287 C 683.165 1053.271, 684.367 1053.946, 685.091 1053.787 C 685.815 1053.629, 686.428 1054.252, 686.453 1055.172 C 686.525 1057.748, 698.372 1065.285, 706 1067.608 C 716.258 1070.732, 744.882 1067.854, 742.464 1063.942 C 742.150 1063.434, 742.663 1063.317, 743.612 1063.681 C 744.843 1064.154, 745.105 1063.979, 744.539 1063.063 C 743.966 1062.136, 744.278 1061.953, 745.675 1062.397 C 748.068 1063.156, 754.472 1058.666, 754.489 1056.217 C 754.495 1055.233, 755.213 1054.554, 756.171 1054.626 C 757.090 1054.695, 757.642 1054.230, 757.397 1053.592 C 756.906 1052.314, 769.875 1040.335, 771.274 1040.775 C 771.755 1040.926, 771.874 1040.606, 771.539 1040.063 C 771.204 1039.521, 772.633 1038.206, 774.715 1037.141 C 776.797 1036.077, 779.672 1034.147, 781.105 1032.853 C 785.757 1028.651, 793.181 1022.520, 794.608 1021.700 C 795.373 1021.260, 796 1020.329, 796 1019.630 C 796 1018.224, 802.740 1012.500, 804.395 1012.500 C 804.970 1012.500, 805.986 1011.407, 806.651 1010.072 C 807.317 1008.737, 808.680 1007.156, 809.681 1006.559 C 811.860 1005.258, 818.554 999.276, 825.133 992.750 C 827.767 990.138, 830.277 987.987, 830.711 987.972 C 831.145 987.956, 833.672 985.926, 836.326 983.460 C 838.980 980.994, 841.568 979.233, 842.076 979.547 C 842.584 979.861, 843 979.569, 843 978.897 C 843 978.226, 846.603 974.192, 851.007 969.934 C 857.306 963.843, 859.473 962.311, 861.163 962.753 C 862.681 963.150, 863.093 962.960, 862.566 962.106 C 861.782 960.839, 866.424 955.757, 867.438 956.772 C 867.747 957.081, 868 956.583, 868 955.667 C 868 954.750, 868.431 954, 868.958 954 C 869.485 954, 872.297 951.763, 875.208 949.029 C 878.118 946.295, 880.837 944.045, 881.250 944.029 C 881.663 944.013, 882 943.325, 882 942.500 C 882 941.675, 882.479 941, 883.065 941 C 883.651 941, 886.605 938.525, 889.630 935.500 C 892.655 932.475, 895.262 930, 895.422 930 C 895.583 930, 897.919 927.862, 900.614 925.250 C 903.309 922.638, 907.719 918.700, 910.413 916.500 C 913.107 914.300, 915.884 911.938, 916.584 911.250 C 917.284 910.563, 918.072 910, 918.336 910 C 918.599 910, 920.318 908.668, 922.157 907.039 C 930.811 899.375, 932.504 898, 933.290 898 C 933.755 898, 933.828 897.034, 933.454 895.854 C 932.878 894.041, 933.096 893.792, 934.849 894.250 C 937.456 894.932, 939 893.351, 939 890 C 939 888.840, 941.631 888.638, 942.253 889.750 C 942.483 890.163, 942.535 889.938, 942.367 889.250 C 942.200 888.563, 942.457 888, 942.938 888 C 943.419 888, 943.577 887.100, 943.290 886 C 942.945 884.683, 943.259 884, 944.209 884 C 946.392 884, 950.361 879.290, 950.765 876.219 C 951.144 873.343, 953 870.592, 953 872.907 C 953 873.698, 953.636 873.970, 954.611 873.596 C 955.791 873.143, 956.059 873.404, 955.611 874.572 C 955.257 875.494, 955.455 876.015, 956.080 875.807 C 957.827 875.224, 966.896 867.580, 966.950 866.644 C 966.978 866.173, 968.125 864.903, 969.500 863.821 C 970.875 862.740, 972 861.213, 972 860.427 C 972 859.642, 972.450 859, 973 859 C 973.550 859, 974 858.487, 974 857.860 C 974 856.361, 977.069 854.072, 979.133 854.032 C 980.032 854.014, 981.096 852.987, 981.499 851.750 C 981.902 850.513, 982.348 849.163, 982.490 848.750 C 982.633 848.337, 982.821 847.438, 982.907 846.750 C 983.009 845.934, 983.521 846.102, 984.381 847.234 C 985.105 848.188, 985.987 848.680, 986.340 848.326 C 986.694 847.973, 986.540 847.151, 985.999 846.499 C 985.305 845.662, 985.748 844.980, 987.508 844.178 C 988.879 843.554, 990 842.456, 990 841.739 C 990 841.022, 992.022 838.650, 994.493 836.468 C 997.443 833.862, 999.198 831.384, 999.604 829.250 C 999.965 827.354, 1000.829 826, 1001.679 826 C 1002.680 826, 1002.936 825.375, 1002.500 824 C 1002.151 822.900, 1002.306 822, 1002.845 822 C 1004.035 822, 1004.846 817.204, 1005.511 806.231 C 1005.787 801.683, 1006.063 797.633, 1006.125 797.231 C 1006.583 794.239, 1005.848 790.976, 1004.854 791.590 C 1004.051 792.087, 1003.902 791.525, 1004.358 789.710 C 1004.721 788.265, 1004.546 786.838, 1003.963 786.477 C 1003.389 786.122, 1003.152 785.082, 1003.436 784.166 C 1004.146 781.883, 1002.541 779.548, 1000.942 780.536 C 1000.012 781.110, 999.847 780.840, 1000.342 779.551 C 1000.752 778.482, 1000.219 776.473, 999.003 774.505 C 996.960 771.199, 983.174 758, 981.764 758 C 981.344 758, 981 757.325, 981 756.500 C 981 755.675, 980.406 755, 979.680 755 C 978.955 755, 977.451 753.987, 976.340 752.750 C 975.229 751.512, 970.589 747.125, 966.028 743 C 955.142 733.152, 955.822 733.718, 952.808 732 C 951.361 731.175, 946.650 727.248, 942.338 723.273 C 938.027 719.298, 933.819 715.473, 932.987 714.773 C 932.154 714.073, 928.554 711.017, 924.987 707.982 C 915.194 699.653, 909.628 695.100, 903.266 690.215 C 902.037 689.272, 898.437 685.901, 895.266 682.725 C 892.095 679.549, 886.800 674.980, 883.500 672.573 C 880.200 670.166, 874.520 665.340, 870.878 661.848 C 863.860 655.121, 857.493 649.360, 848.943 642 C 846.068 639.525, 842.092 636.048, 840.108 634.273 C 838.123 632.498, 835.938 631.036, 835.250 631.023 C 834.563 631.010, 834 630.355, 834 629.567 C 834 628.779, 833.179 627.874, 832.176 627.556 C 831.173 627.238, 829.486 626.188, 828.426 625.224 C 827.367 624.259, 824.268 621.677, 821.540 619.485 C 818.811 617.293, 813.367 612.350, 809.442 608.500 C 801.348 600.562, 795.581 595.416, 791.511 592.500 C 788.371 590.250, 776.770 580.919, 776 580.025 C 775.430 579.363, 760.885 568.264, 757.641 566.017 C 756.463 565.201, 751.279 561.488, 746.119 557.767 C 740.960 554.045, 736.323 551, 735.814 551 C 735.306 551, 732.777 550.007, 730.195 548.793 C 724.840 546.275, 712.395 545.440, 705.250 547.119 M 600.150 610.953 C 600.088 613.677, 600.480 616.178, 601.019 616.512 C 601.598 616.869, 602 615.486, 602 613.141 C 602 610.953, 602.273 608.452, 602.607 607.582 C 602.992 606.580, 602.673 606, 601.738 606 C 600.650 606, 600.232 607.303, 600.150 610.953 M 231 708.525 C 220.009 710.786, 207.104 716.480, 199 722.643 C 186.641 732.043, 175.059 746.112, 169.481 758.500 C 163.054 772.771, 159.873 792.735, 161.732 807.121 C 162.946 816.515, 165.402 826.987, 167.449 831.500 C 168.197 833.150, 169.464 836.091, 170.264 838.035 C 172.074 842.434, 180.645 856.631, 182.858 858.897 C 183.761 859.821, 185.897 862.188, 187.604 864.157 C 195.697 873.490, 211.317 883.516, 226 888.801 C 233.040 891.334, 234.542 891.500, 250.500 891.494 C 266.377 891.488, 268.062 891.304, 276 888.707 C 305.703 878.992, 320.149 865.850, 337.496 832.767 L 340.491 827.054 371.496 826.777 C 388.548 826.625, 447.050 826.587, 501.500 826.694 C 558.651 826.806, 599.655 826.519, 598.500 826.015 C 596.787 825.266, 596.751 825.130, 598.250 825.070 C 599.829 825.007, 600.012 823.557, 600.118 810.250 C 600.184 802.138, 600.071 795.050, 599.868 794.500 C 599.666 793.950, 599.500 789.450, 599.500 784.500 C 599.500 777.160, 599.156 775.099, 597.634 773.324 C 596.090 771.524, 595.370 771.330, 593.462 772.199 C 592.003 772.864, 589.382 772.944, 586.328 772.417 L 581.500 771.584 586.500 770.938 C 589.250 770.582, 534.881 770.267, 465.681 770.238 C 349.660 770.189, 339.718 770.055, 338.019 768.517 C 336.577 767.212, 336.080 767.137, 335.734 768.175 C 335.491 768.904, 335.469 768.450, 335.686 767.166 C 335.959 765.547, 335.714 765.059, 334.886 765.571 C 334.135 766.034, 333.954 765.884, 334.397 765.166 C 335.253 763.781, 331.531 755, 330.088 755 C 329.524 755, 329.321 754.328, 329.636 753.506 C 330.003 752.550, 329.362 751.674, 327.855 751.070 C 326.560 750.551, 326.089 750.098, 326.809 750.063 C 327.529 750.029, 327.835 749.543, 327.490 748.984 C 327.144 748.425, 326.413 748.245, 325.864 748.584 C 325.305 748.929, 325.006 748.387, 325.183 747.350 C 325.365 746.290, 324.971 745.605, 324.260 745.747 C 322.808 746.036, 316.067 739.079, 316.027 737.250 C 316.012 736.563, 315.663 735.994, 315.250 735.988 C 313.545 735.959, 305.937 727.910, 306.601 726.836 C 307.051 726.109, 306.865 725.965, 306.091 726.443 C 304.797 727.244, 300.738 724.233, 301.484 723.025 C 301.725 722.636, 300.602 721.342, 298.989 720.150 C 296.442 718.267, 296.122 718.213, 296.559 719.741 C 296.835 720.708, 296.524 720.475, 295.866 719.222 C 295.208 717.969, 294.209 717.097, 293.647 717.284 C 293.085 717.472, 291.793 716.793, 290.776 715.776 C 289.759 714.759, 288.493 714.195, 287.964 714.523 C 287.434 714.850, 287 714.589, 287 713.942 C 287 713.259, 286.162 712.986, 285 713.290 C 283.900 713.577, 283 713.441, 283 712.987 C 283 711.913, 275.096 709.386, 267.566 708.051 C 259.502 706.623, 238.954 706.889, 231 708.525 M 1339.947 713.354 C 1339.643 713.676, 1334.739 714.638, 1329.050 715.493 C 1318.585 717.064, 1317.152 717.538, 1304.395 723.634 C 1297.709 726.830, 1286.964 734.541, 1282.500 739.347 C 1278.720 743.417, 1270.425 755.512, 1265.593 764 C 1260.245 773.395, 1256.477 777.441, 1254.056 776.388 C 1253.200 776.016, 1251.713 775.680, 1250.750 775.641 C 1247.916 775.528, 1248.750 774.016, 1251.750 773.827 C 1264.007 773.057, 1218.762 772.240, 1157.750 772.132 L 1084 772 1084 776.300 C 1084 778.665, 1083.603 781.027, 1083.119 781.550 C 1082.634 782.072, 1082.027 792.400, 1081.770 804.500 C 1081.371 823.293, 1081.482 825.771, 1082.533 821.500 L 1083.762 816.500 1083.881 821.125 C 1083.993 825.470, 1084.189 825.788, 1087.125 826.375 C 1088.844 826.719, 1093.006 826.924, 1096.375 826.832 L 1102.500 826.664 1096.500 826 C 1090.452 825.331, 1161.437 824.500, 1224.646 824.500 C 1263.136 824.500, 1261.163 824.111, 1265.229 832.500 C 1270.757 843.903, 1278.716 854.618, 1289.895 865.709 C 1295.923 871.689, 1298.743 874, 1300.011 874 C 1300.555 874, 1301 874.353, 1301 874.784 C 1301 875.216, 1302.350 876.366, 1304 877.341 C 1306.236 878.662, 1307.004 878.780, 1307.015 877.807 C 1307.027 876.790, 1307.225 876.808, 1307.909 877.886 C 1308.424 878.701, 1310.481 879.273, 1312.893 879.273 C 1316.822 879.273, 1318.389 880.376, 1315.750 881.283 C 1315.063 881.520, 1315.363 881.575, 1316.418 881.406 C 1317.473 881.237, 1322.648 881.749, 1327.918 882.544 C 1339.322 884.263, 1354.872 884.415, 1365.671 882.913 C 1372.968 881.898, 1387 876.662, 1387 874.954 C 1387 874.326, 1389.942 873.036, 1392.286 872.635 C 1392.719 872.561, 1393.394 872.049, 1393.786 871.498 C 1394.179 870.948, 1395.803 869.824, 1397.395 869.002 C 1402.318 866.459, 1416.008 852.209, 1416.661 848.947 C 1416.985 847.326, 1417.575 846, 1417.973 846 C 1418.750 846, 1422.003 838.749, 1422.648 835.578 C 1422.864 834.522, 1423.408 833.172, 1423.859 832.578 C 1424.564 831.649, 1426.464 825.002, 1430.027 811 C 1432.620 800.807, 1432.101 789.101, 1428.914 785.914 C 1427.796 784.796, 1427.544 783.985, 1428.242 783.753 C 1428.968 783.511, 1429.054 782.700, 1428.487 781.440 C 1428.007 780.373, 1427.553 779.050, 1427.478 778.500 C 1425.874 766.764, 1416.814 752.983, 1399.124 735.371 C 1388.689 724.981, 1383.539 721.945, 1369 717.611 C 1357.452 714.168, 1341.402 711.817, 1339.947 713.354 M 1108.250 826.735 C 1110.862 826.941, 1115.138 826.941, 1117.750 826.735 C 1120.362 826.529, 1118.225 826.360, 1113 826.360 C 1107.775 826.360, 1105.638 826.529, 1108.250 826.735 M 975.907 953.750 C 972.865 956.913, 967.945 962.774, 964.974 966.775 C 962.002 970.776, 959.047 973.848, 958.407 973.603 C 957.119 973.108, 955 974.843, 955 976.391 C 955 976.936, 955.661 976.509, 956.468 975.441 C 957.634 973.900, 957.943 973.819, 957.968 975.050 C 957.986 975.903, 957.481 977.119, 956.846 977.754 C 956.212 978.388, 955.733 980.306, 955.781 982.015 C 955.853 984.543, 957.646 986.931, 965.387 994.811 C 980.376 1010.070, 987 1017.267, 987 1018.295 C 987 1018.817, 986.212 1018.639, 985.250 1017.898 C 984.288 1017.157, 988 1021.144, 993.500 1026.758 C 999 1032.373, 1003.682 1036.974, 1003.905 1036.983 C 1004.128 1036.992, 1003.495 1036.100, 1002.500 1035 C 1001.505 1033.900, 1001.114 1033, 1001.633 1033 C 1002.152 1033, 1004.247 1034.998, 1006.288 1037.440 C 1009.944 1041.814, 1010.961 1043.712, 1009 1042.500 C 1007.372 1041.494, 1007.860 1042.642, 1009.692 1044.128 C 1010.842 1045.060, 1011.143 1045.099, 1010.633 1044.250 C 1010.220 1043.563, 1010.259 1043, 1010.720 1043 C 1012.313 1043, 1024.240 1055.802, 1023.605 1056.830 C 1023.254 1057.398, 1023.494 1058.187, 1024.138 1058.585 C 1024.869 1059.037, 1025.041 1058.876, 1024.595 1058.155 C 1022.315 1054.465, 1028.010 1059.739, 1052.373 1083.882 C 1067.293 1098.667, 1081.975 1112.876, 1085 1115.457 C 1098.436 1126.924, 1101.820 1130.133, 1104.392 1133.845 L 1107.133 1137.800 1106.080 1149.083 C 1105.500 1155.288, 1104.617 1160.621, 1104.118 1160.933 C 1101.871 1162.335, 1101.103 1188.469, 1103.076 1196.382 C 1103.641 1198.647, 1104.224 1201.175, 1104.372 1202 C 1104.520 1202.825, 1104.912 1204.175, 1105.243 1205 C 1105.574 1205.825, 1106.591 1208.862, 1107.503 1211.750 C 1108.415 1214.638, 1109.476 1217, 1109.861 1217 C 1110.623 1217, 1113.343 1223.030, 1113.130 1224.250 C 1113.059 1224.662, 1113.623 1225, 1114.385 1225 C 1115.147 1225, 1116.449 1226.013, 1117.279 1227.250 C 1118.110 1228.487, 1121.941 1232.738, 1125.793 1236.695 C 1129.645 1240.652, 1132.955 1244.270, 1133.148 1244.736 C 1133.982 1246.743, 1142.986 1252.733, 1152.500 1257.612 C 1155.250 1259.022, 1158.625 1260.804, 1160 1261.573 C 1161.375 1262.342, 1163.336 1262.977, 1164.357 1262.985 C 1165.514 1262.994, 1166.016 1263.516, 1165.689 1264.368 C 1165.280 1265.433, 1166.198 1265.659, 1169.832 1265.387 C 1173.463 1265.117, 1173.944 1265.235, 1172 1265.920 C 1170.062 1266.603, 1170.981 1266.823, 1176.083 1266.900 C 1179.704 1266.955, 1182.980 1266.687, 1183.362 1266.304 C 1183.745 1265.922, 1184.607 1265.519, 1185.279 1265.410 C 1202.451 1262.610, 1210.330 1260.474, 1219 1256.269 C 1232.582 1249.681, 1235.530 1247.634, 1244.529 1238.551 C 1251.520 1231.493, 1254.956 1226.727, 1260.776 1216.015 C 1266.144 1206.132, 1270.545 1174.541, 1267.953 1164.500 C 1267.385 1162.300, 1266.671 1159.150, 1266.366 1157.500 C 1266.061 1155.850, 1265.474 1154.050, 1265.061 1153.500 C 1263.721 1151.715, 1262.971 1148.864, 1264.011 1149.507 C 1265.922 1150.688, 1264.966 1147.778, 1261.500 1141.865 C 1259.575 1138.580, 1258 1135.670, 1258 1135.398 C 1258 1135.126, 1256.458 1132.493, 1254.573 1129.546 C 1252.688 1126.599, 1251.450 1123.849, 1251.823 1123.434 C 1252.195 1123.019, 1251.985 1122.974, 1251.355 1123.334 C 1250.725 1123.694, 1249.952 1123.316, 1249.636 1122.494 C 1249.321 1121.672, 1248.538 1121, 1247.896 1121 C 1247.254 1121, 1245.687 1119.875, 1244.412 1118.500 C 1243.138 1117.125, 1241.817 1116, 1241.476 1116 C 1240.457 1116, 1238 1113.223, 1238 1112.071 C 1238 1111.482, 1237.187 1111, 1236.194 1111 C 1235.201 1111, 1232.864 1109.875, 1231 1108.500 C 1229.136 1107.125, 1226.911 1105.997, 1226.056 1105.994 C 1225.200 1105.990, 1223.150 1105.283, 1221.500 1104.421 C 1219.850 1103.560, 1212.650 1101.497, 1205.500 1099.838 C 1193.886 1097.143, 1191.327 1096.878, 1181.500 1097.355 C 1175.450 1097.649, 1167.125 1098.609, 1163 1099.490 C 1158.875 1100.370, 1152.575 1101.329, 1149 1101.621 C 1142.640 1102.142, 1142.425 1102.079, 1139 1098.707 C 1134.540 1094.315, 1133 1092.348, 1133 1091.042 C 1133 1090.469, 1132.550 1090, 1132 1090 C 1131.450 1090, 1131 1089.325, 1131 1088.500 C 1131 1087.675, 1130.529 1087, 1129.952 1087 C 1129.376 1087, 1127.862 1085.875, 1126.588 1084.500 C 1125.313 1083.125, 1123.733 1082, 1123.076 1082 C 1122.419 1082, 1122.110 1081.630, 1122.390 1081.178 C 1122.868 1080.405, 1120.390 1077.713, 1118.750 1077.224 C 1118.338 1077.101, 1118 1076.775, 1118 1076.500 C 1118 1075.780, 1114.595 1072.269, 1114 1072.375 C 1112.828 1072.584, 1109.155 1068.557, 1109.706 1067.667 C 1110.038 1067.130, 1109.855 1066.972, 1109.300 1067.315 C 1108.031 1068.099, 1103.710 1063.623, 1104.741 1062.592 C 1105.158 1062.175, 1105.050 1061.924, 1104.500 1062.035 C 1102.282 1062.483, 1101.151 1061.880, 1099.511 1059.377 C 1098.566 1057.934, 1098.322 1057.081, 1098.970 1057.482 C 1099.834 1058.015, 1099.822 1057.688, 1098.926 1056.253 C 1097.479 1053.936, 1093.298 1050.996, 1094.551 1053.176 C 1094.970 1053.904, 1093.554 1052.539, 1091.406 1050.142 C 1078.406 1035.638, 1057.706 1016, 1055.418 1016 C 1054.274 1016, 1045.221 1008.383, 1042.580 1005.198 C 1040.405 1002.576, 1034.069 996, 1033.717 996 C 1033.030 996, 1013.492 976.467, 1010.699 972.989 C 1006.038 967.182, 993.635 955, 992.385 955 C 991.741 955, 990.956 954.328, 990.641 953.506 C 990.035 951.926, 984.218 948.010, 982.469 948.004 C 981.901 948.002, 978.949 950.587, 975.907 953.750 M 594.012 953.487 C 592.714 954.869, 592.025 956, 592.481 956 C 592.937 956, 592.495 956.900, 591.500 958 C 590.505 959.100, 589.224 960, 588.654 960 C 588.084 960, 588.491 959.300, 589.559 958.445 C 591.468 956.916, 591.467 956.906, 589.500 957.875 C 588.400 958.417, 584.125 962.328, 580 966.567 C 575.875 970.806, 573.132 973.918, 573.905 973.482 C 574.851 972.949, 575.073 973.073, 574.585 973.862 C 574.187 974.506, 573.516 974.819, 573.093 974.558 C 572.330 974.086, 542.642 1003.754, 515.111 1032.500 C 488.023 1060.785, 451.759 1096.942, 449.881 1097.538 C 448.847 1097.866, 444.289 1097.116, 439.751 1095.872 C 435.213 1094.628, 430.060 1093.618, 428.300 1093.628 C 426.541 1093.638, 425.288 1093.342, 425.518 1092.971 C 426.277 1091.743, 404.643 1090.996, 396.500 1091.968 C 376.378 1094.373, 352.850 1109.033, 340.560 1126.823 C 322.341 1153.197, 318.866 1181.818, 330.097 1213 C 338.527 1236.405, 357.632 1254.890, 381.601 1262.833 C 391.476 1266.105, 397.573 1267, 410 1267 C 422.277 1267, 430.176 1265.899, 435.651 1263.424 C 437.384 1262.641, 439.197 1262, 439.679 1262 C 440.433 1262, 449.298 1257.594, 458.146 1252.822 C 465.731 1248.731, 476.655 1237.667, 483.026 1227.621 C 487.200 1221.039, 491.308 1211.244, 490.632 1209.484 C 490.297 1208.610, 490.397 1208.128, 490.855 1208.411 C 491.313 1208.693, 492.166 1207.367, 492.750 1205.462 C 493.335 1203.558, 493.436 1202, 492.976 1202 C 492.516 1202, 491.942 1203.013, 491.701 1204.250 C 491.460 1205.487, 491.541 1203.575, 491.882 1200 C 492.222 1196.425, 492.417 1188.775, 492.314 1183 C 491.990 1164.657, 492.100 1161.556, 493.095 1160.941 C 493.630 1160.611, 493.749 1159.509, 493.359 1158.493 C 492.678 1156.718, 492.618 1156.721, 491.811 1158.573 C 491.188 1160.004, 491.088 1159.728, 491.422 1157.500 C 491.669 1155.850, 491.198 1151.857, 490.376 1148.626 C 489.554 1145.396, 489.148 1142.057, 489.474 1141.206 C 489.801 1140.356, 489.490 1139.244, 488.784 1138.736 C 487.801 1138.028, 487.851 1137.912, 489 1138.241 C 489.843 1138.483, 491.811 1137.138, 493.493 1135.171 C 496.153 1132.058, 496.228 1131.808, 494.167 1132.911 C 491.988 1134.077, 491.916 1134.025, 492.977 1132.044 C 493.597 1130.885, 494.868 1130.063, 495.802 1130.218 C 496.922 1130.404, 497.404 1129.922, 497.218 1128.802 C 496.912 1126.957, 500.243 1124.625, 501.529 1125.785 C 501.964 1126.178, 502.042 1126.011, 501.702 1125.413 C 500.780 1123.793, 503.965 1119.772, 505.656 1120.421 C 506.452 1120.727, 506.845 1120.559, 506.529 1120.047 C 506.213 1119.536, 507.879 1116.954, 510.231 1114.309 C 518.057 1105.507, 571.308 1052.974, 571.852 1053.518 C 572.146 1053.813, 570.950 1055.366, 569.193 1056.970 C 567.437 1058.575, 566 1060.237, 566 1060.665 C 566 1061.092, 568.925 1058.543, 572.500 1055 C 576.075 1051.457, 579 1048.348, 579 1048.092 C 579 1047.836, 577.655 1048.915, 576.010 1050.490 C 574.366 1052.065, 572.709 1053.042, 572.328 1052.661 C 571.946 1052.280, 576.360 1047.362, 582.137 1041.734 C 599.539 1024.776, 601.184 1023.313, 600.399 1025.500 C 600.004 1026.600, 600.039 1027.177, 600.476 1026.782 C 600.913 1026.387, 601.377 1025.037, 601.507 1023.782 C 601.638 1022.527, 601.802 1021.114, 601.872 1020.643 C 601.943 1020.172, 602.675 1020.045, 603.500 1020.362 C 605.229 1021.025, 605.548 1019.457, 603.892 1018.433 C 603.101 1017.944, 602.943 1009.115, 603.342 987.543 C 603.650 970.930, 603.646 956.361, 603.334 955.169 C 602.970 953.779, 601.982 953, 600.583 953 C 599.383 953, 597.944 952.544, 597.387 951.987 C 596.702 951.302, 595.607 951.789, 594.012 953.487 M 993.718 1025.853 C 997.448 1029.622, 1000.671 1032.564, 1000.880 1032.390 C 1001.351 1031.998, 988.422 1019, 987.561 1019 C 987.217 1019, 989.988 1022.084, 993.718 1025.853 M 817 1081.992 C 818.250 1082.977, 818.126 1083.091, 816.251 1082.681 C 815.014 1082.410, 813.707 1082.665, 813.346 1083.248 C 812.927 1083.926, 813.198 1084.015, 814.095 1083.494 C 814.914 1083.019, 815.157 1083.054, 814.679 1083.577 C 814.228 1084.071, 813.104 1084.480, 812.182 1084.487 C 811.260 1084.494, 810.494 1085.175, 810.480 1086 C 810.466 1086.866, 809.720 1087.375, 808.714 1087.203 C 807.757 1087.040, 806.707 1087.600, 806.382 1088.447 C 806.057 1089.295, 805.311 1089.692, 804.725 1089.330 C 804.064 1088.922, 803.895 1089.284, 804.279 1090.285 C 804.673 1091.310, 804.458 1091.729, 803.691 1091.435 C 802.270 1090.890, 793.794 1096.985, 786.025 1104.138 C 784.449 1105.589, 781.437 1108.064, 779.330 1109.638 C 777.224 1111.212, 774.952 1113.175, 774.282 1114 C 773.352 1115.145, 773.052 1131.593, 773.016 1183.500 C 772.991 1220.900, 772.639 1251.996, 772.235 1252.602 C 771.831 1253.208, 769.700 1254.488, 767.500 1255.445 C 746.431 1264.616, 734.705 1272.838, 724.908 1285.310 C 713.735 1299.532, 707.755 1312.336, 705.260 1327.384 C 702.280 1345.352, 705.653 1367.067, 714.209 1384.995 C 719.732 1396.569, 732.357 1412.079, 742 1419.139 C 748.111 1423.613, 762.880 1430.986, 770.825 1433.528 C 804.059 1444.165, 841.259 1434.931, 867.280 1409.587 C 877.186 1399.938, 879.673 1396.725, 884.376 1387.500 C 895.051 1366.557, 898.083 1348.422, 894.532 1326.758 C 892.513 1314.443, 886.974 1299.280, 884.951 1300.530 C 884.430 1300.852, 884.115 1300.127, 884.251 1298.918 C 884.394 1297.660, 883.859 1296.534, 883 1296.284 C 881.667 1295.896, 881.667 1295.966, 883 1296.909 C 883.962 1297.589, 884.064 1297.975, 883.285 1297.985 C 882.617 1297.993, 881.605 1297.130, 881.035 1296.066 C 879.751 1293.665, 879.690 1291.962, 880.961 1293.971 C 881.473 1294.780, 882.164 1295.170, 882.497 1294.836 C 882.830 1294.503, 881.898 1292.941, 880.427 1291.365 C 878.955 1289.789, 878.369 1289.361, 879.125 1290.414 C 880.408 1292.199, 880.351 1292.248, 878.273 1291.141 C 877.048 1290.488, 875.586 1289.094, 875.023 1288.043 C 873.695 1285.561, 873.746 1283.959, 875.080 1286.250 C 875.641 1287.213, 876.523 1288, 877.040 1288 C 877.557 1288, 877.244 1287.140, 876.343 1286.088 C 875.424 1285.014, 874.036 1284.433, 873.179 1284.761 C 872.074 1285.186, 871.826 1284.895, 872.283 1283.706 C 872.948 1281.971, 871.502 1280.571, 869 1280.526 C 868.175 1280.512, 867.557 1279.748, 867.626 1278.829 C 867.710 1277.713, 867.240 1277.354, 866.212 1277.749 C 865.302 1278.098, 864.931 1277.921, 865.305 1277.315 C 866.015 1276.167, 861.686 1271.648, 860.761 1272.572 C 859.866 1273.467, 855.989 1271.101, 856.079 1269.715 C 856.138 1268.799, 856.282 1268.808, 856.662 1269.750 C 856.940 1270.438, 857.634 1271, 858.206 1271 C 858.837 1271, 858.759 1270.415, 858.009 1269.511 C 857.329 1268.692, 856.370 1268.271, 855.878 1268.576 C 854.613 1269.357, 850.863 1268.030, 851.487 1267.021 C 851.771 1266.562, 851.215 1266.375, 850.251 1266.606 C 849.288 1266.837, 847.825 1266.570, 847 1266.013 C 845.667 1265.113, 845.667 1264.886, 847 1263.970 C 848.117 1263.202, 847.735 1263.095, 845.500 1263.551 C 843.515 1263.955, 842.946 1263.847, 843.816 1263.231 C 845.429 1262.090, 838.906 1262.322, 837.046 1263.471 C 836.375 1263.886, 835.325 1263.725, 834.713 1263.113 C 834.101 1262.501, 832.565 1262, 831.300 1262 C 830.035 1262, 829 1261.575, 829 1261.055 C 829 1260.535, 827.768 1259.519, 826.262 1258.797 C 824.756 1258.075, 823.410 1256.588, 823.271 1255.492 C 823.018 1253.512, 823.022 1253.512, 823.906 1255.500 C 825.075 1258.128, 825.292 1190.359, 824.312 1129 C 823.895 1102.875, 823.268 1083.300, 822.919 1085.500 L 822.284 1089.500 822.142 1085.750 C 822.047 1083.246, 821.529 1082, 820.582 1082 C 819.802 1082, 818.339 1081.733, 817.332 1081.406 C 815.771 1080.899, 815.722 1080.986, 817 1081.992" stroke="none" fill="#3e8ff5" fill-rule="evenodd"/></svg>