<svg xmlns="http://www.w3.org/2000/svg" width="1600" height="1600" viewBox="0 0 1600 1600" version="1.1"><path d="M 845 174 C 845 174.550, 845.353 175, 845.784 175 C 848.050 175, 863.442 186.263, 866.966 190.500 C 868.338 192.150, 870.820 194.918, 872.481 196.651 C 875.646 199.955, 875.732 200.067, 880.455 207.100 C 885.766 215.009, 888.661 221.706, 891.089 231.700 C 891.784 234.560, 892.723 236.671, 893.176 236.391 C 894.573 235.528, 894.093 232.103, 892 228 C 890.900 225.844, 890 223.262, 890 222.262 C 890 218.009, 880.024 202.282, 871.319 192.814 C 864.659 185.569, 862.688 183.894, 854.346 178.385 C 845.810 172.748, 845 172.368, 845 174 M 893.621 240.500 C 894.104 242.150, 894.475 249.800, 894.444 257.500 C 894.393 270.107, 894.112 272.296, 891.625 279.500 C 888.424 288.770, 881.220 303.485, 877.275 308.814 C 864.411 326.191, 847.611 339.658, 831.576 345.448 C 827.768 346.823, 824.168 348.432, 823.576 349.024 C 822.829 349.770, 822.414 376.133, 822.218 435.150 L 821.935 520.201 819.500 519.589 C 818.160 519.253, 814.088 516.846, 810.450 514.239 C 806.813 511.633, 803.086 509.049, 802.168 508.498 C 797.931 505.952, 787.274 498.510, 785.254 496.686 C 784.019 495.571, 782.690 494.976, 782.302 495.365 C 781.433 496.233, 785.367 499.836, 790.028 502.439 C 791.938 503.506, 796.200 506.434, 799.500 508.946 C 809.920 516.878, 819.881 523, 822.368 523 C 823.863 523, 824.010 515.989, 824.118 439.250 C 824.184 393.188, 824.168 355.116, 824.084 354.646 C 823.561 351.726, 825.575 349.989, 831.794 347.998 C 839.669 345.476, 845.257 342.444, 853.500 336.218 C 864.363 328.014, 877.180 314.552, 880.366 308 C 880.767 307.175, 882.179 304.700, 883.504 302.500 C 888.701 293.869, 892.537 284.620, 894.078 277 C 894.578 274.525, 895.421 270.475, 895.950 268 C 897.992 258.453, 896.824 241.315, 893.949 238.628 C 893.013 237.753, 892.939 238.174, 893.621 240.500 M 719.782 308.854 C 720.578 310.911, 724.172 315.765, 728 319.954 C 729.375 321.459, 731.437 323.772, 732.582 325.095 C 733.726 326.418, 736.366 328.850, 738.446 330.500 C 740.527 332.150, 743.628 334.738, 745.338 336.250 C 747.047 337.762, 748.758 339, 749.140 339 C 749.522 339, 753.134 340.934, 757.167 343.297 C 761.200 345.661, 766.413 348.154, 768.750 348.837 L 773 350.080 773.125 382.790 C 773.358 443.976, 773.881 484.492, 774.478 487.707 C 774.806 489.470, 776.251 491.839, 777.690 492.971 C 781.525 495.988, 781.875 494.484, 778.178 490.870 L 775 487.763 775 420.428 C 775 375.158, 774.653 352.341, 773.941 350.797 C 773.270 349.340, 769.591 346.885, 763.884 344.083 C 746.793 335.694, 733.150 324.854, 723.822 312.250 C 719.742 306.737, 718.586 305.765, 719.782 308.854 M 459.500 360.280 C 462.250 362.578, 467.235 367.279, 470.579 370.726 C 475.750 376.058, 478.313 379.659, 485.009 391 C 486.970 394.322, 491 406, 491 408.362 C 491 409.748, 491.506 411.195, 492.125 411.577 C 493.833 412.633, 491.937 402.005, 489.409 396.349 C 488.634 394.616, 488 392.971, 488 392.693 C 488 392.415, 485.774 388.433, 483.053 383.844 C 477.879 375.118, 467.797 364.021, 460.451 358.967 C 454.216 354.677, 453.680 355.416, 459.500 360.280 M 1241 357 C 1241 357.550, 1241.432 358, 1241.960 358 C 1242.487 358, 1244.046 359.216, 1245.424 360.702 C 1246.802 362.188, 1248.280 363.053, 1248.708 362.625 C 1249.137 362.197, 1247.915 360.543, 1245.994 358.950 C 1242.287 355.877, 1241 355.375, 1241 357 M 1250 363.105 C 1250 363.941, 1251.386 365.948, 1253.080 367.563 C 1262.001 376.070, 1269.962 390.907, 1275.046 408.500 C 1277.930 418.480, 1278.128 420.143, 1277.714 430.890 C 1277.130 446.078, 1273.833 457.280, 1265.026 474 C 1258.249 486.866, 1240.558 501.916, 1224.070 508.839 C 1211.429 514.147, 1209.168 514.505, 1188.500 514.475 C 1175.459 514.455, 1170.103 514.048, 1165.500 512.726 C 1150.585 508.443, 1148.869 508.100, 1146.700 508.967 C 1145.490 509.451, 1114.800 539.428, 1078.500 575.583 C 996.127 657.626, 992.635 661, 990.092 661 C 988.068 661, 979.360 653.920, 963.174 639.115 C 956.014 632.566, 954.905 631.118, 955.248 628.774 C 955.565 626.603, 955.377 626.272, 954.323 627.147 C 951.902 629.157, 952.950 631.772, 958.336 637.161 C 970.296 649.128, 988.168 664, 990.588 664 C 991.216 664, 993.028 663.027, 994.615 661.837 C 996.202 660.647, 1027.178 630.160, 1063.451 594.087 C 1099.724 558.014, 1133.182 524.756, 1137.802 520.180 C 1142.423 515.604, 1147.156 511.508, 1148.320 511.077 C 1149.700 510.567, 1151.843 510.932, 1154.469 512.125 C 1156.686 513.132, 1159.683 513.966, 1161.128 513.978 C 1162.573 513.990, 1165.498 514.734, 1167.628 515.632 C 1170.396 516.798, 1175.783 517.400, 1186.526 517.744 C 1199.806 518.169, 1202.595 517.963, 1210.526 515.969 C 1221.593 513.186, 1237.455 505.764, 1245.895 499.419 C 1259.113 489.483, 1269.120 474.628, 1275.480 455.500 C 1278.313 446.981, 1278.570 445.843, 1279.773 436.500 C 1280.642 429.750, 1279.018 413.317, 1276.710 405.500 C 1274.862 399.240, 1266.997 381.615, 1265.852 381.167 C 1265.383 380.983, 1265 380.196, 1265 379.417 C 1265 378.637, 1264.633 378, 1264.184 378 C 1263.735 378, 1262.414 376.313, 1261.247 374.250 C 1258.560 369.498, 1250 361.016, 1250 363.105 M 492.664 421.795 C 493.361 430.834, 491.822 443.472, 488.396 456.859 C 485.030 470.008, 485.184 472.817, 489.500 477 C 491.425 478.866, 493 479.887, 493 479.269 C 493 478.651, 491.840 477.233, 490.422 476.117 C 488.205 474.373, 487.879 473.417, 488.099 469.295 C 488.239 466.658, 488.940 462.782, 489.657 460.682 C 490.373 458.582, 491.171 454.982, 491.430 452.682 C 491.689 450.382, 492.333 446.221, 492.861 443.436 C 494.556 434.493, 494.675 414, 493.031 414 C 492.438 414, 492.295 417.019, 492.664 421.795 M 1104.710 463.500 C 1105.024 466.250, 1105.415 468.659, 1105.577 468.853 C 1105.739 469.047, 1105.437 470.351, 1104.904 471.752 C 1104.058 473.977, 1104.129 474.138, 1105.468 473.026 C 1107.321 471.488, 1107.332 466.751, 1105.493 462 L 1104.138 458.500 1104.710 463.500 M 335.983 480.456 C 336.497 481.807, 338.623 484.692, 340.709 486.868 C 342.794 489.043, 345.203 491.651, 346.062 492.662 C 353.468 501.377, 373.558 513.335, 382.730 514.487 C 385.022 514.775, 388.158 515.501, 389.699 516.100 C 393.701 517.657, 415.575 518.415, 421.500 517.203 C 424.250 516.640, 430.729 515.005, 435.898 513.570 C 444.957 511.054, 448.686 510.998, 450.196 513.356 C 450.578 513.953, 451.178 514.155, 451.529 513.804 C 451.880 513.454, 451.187 512.187, 449.990 510.990 C 447.307 508.307, 443.791 508.556, 429.500 512.446 C 420.082 515.010, 418.599 515.139, 404 514.666 C 384.277 514.028, 373.625 510.971, 360.310 502.127 C 353.797 497.801, 340.939 485.398, 338.253 480.851 C 336.188 477.355, 334.706 477.098, 335.983 480.456 M 494 480.531 C 494 480.823, 496.700 483.770, 500 487.080 C 503.300 490.390, 506 492.675, 506 492.158 C 506 491.274, 495.235 480, 494.391 480 C 494.176 480, 494 480.239, 494 480.531 M 507.877 494.672 C 508.488 495.867, 510.115 497.732, 511.494 498.816 C 512.872 499.901, 514 501.237, 514 501.787 C 514 502.773, 516.975 504.359, 517.618 503.715 C 517.801 503.532, 515.434 500.934, 512.358 497.941 C 509.283 494.949, 507.266 493.478, 507.877 494.672 M 524.199 511.740 C 531.834 519.528, 534.630 520.483, 527.500 512.868 C 524.200 509.343, 520.914 506.431, 520.199 506.396 C 519.483 506.362, 521.283 508.767, 524.199 511.740 M 453 514.772 C 453 516.157, 461.156 524.177, 461.855 523.478 C 462.146 523.187, 460.273 520.868, 457.692 518.323 C 455.111 515.779, 453 514.181, 453 514.772 M 534 520.389 C 534 520.827, 538.950 526.192, 545 532.313 C 551.050 538.434, 556 542.914, 556 542.269 C 556 541.222, 550.663 535.639, 538.105 523.547 C 535.847 521.373, 534 519.952, 534 520.389 M 463 524.996 C 463 525.690, 465.475 528.636, 468.500 531.543 C 471.525 534.449, 474 536.416, 474 535.914 C 474 535.412, 471.525 532.466, 468.500 529.368 C 465.475 526.270, 463 524.302, 463 524.996 M 475 537.468 C 475 537.726, 480.400 543.439, 487 550.165 C 493.600 556.890, 499 561.947, 499 561.402 C 499 560.348, 476.605 537, 475.595 537 C 475.268 537, 475 537.211, 475 537.468 M 557 543.540 C 557 544.129, 562.992 550.034, 567.601 553.986 C 569.339 555.477, 568.898 554.725, 566.500 552.109 C 558.449 543.326, 557 542.019, 557 543.540 M 739 543.401 C 739 543.622, 740.462 544.737, 742.250 545.878 C 744.038 547.020, 746.400 548.527, 747.500 549.227 C 748.600 549.927, 751.327 552.075, 753.560 554 C 755.793 555.925, 758.943 558.575, 760.560 559.888 C 762.177 561.202, 764.513 563.193, 765.750 564.313 C 766.987 565.432, 768 565.867, 768 565.279 C 768 564.691, 766.831 563.150, 765.402 561.855 C 763.973 560.560, 762.073 558.712, 761.180 557.750 C 760.286 556.788, 759.146 556, 758.645 556 C 758.144 556, 757.006 555.212, 756.116 554.250 C 751.778 549.558, 739 541.459, 739 543.401 M 500 562.620 C 500 563.197, 502.137 565.708, 504.750 568.200 C 507.363 570.693, 518.163 581.578, 528.750 592.389 C 539.337 603.201, 548 611.542, 548 610.925 C 548 610.307, 546.763 608.589, 545.250 607.107 C 543.737 605.624, 539.040 600.831, 534.810 596.455 C 518.723 579.811, 500 561.613, 500 562.620 M 1001.652 577.468 C 993.593 585.425, 987 592.435, 987 593.045 C 987 594.029, 994.828 586.382, 1011.966 568.654 C 1022.630 557.622, 1016.086 563.215, 1001.652 577.468 M 582.193 567.803 C 583.462 569.554, 592.897 578.542, 600 584.767 L 603.500 587.834 603.500 623.167 L 603.500 658.500 601.357 658.806 C 599.488 659.072, 590.058 652.607, 586.500 648.621 C 584.933 646.864, 582 644.698, 582 645.296 C 582 647.217, 597.121 660.343, 600.500 661.355 C 605.122 662.740, 605.223 662.102, 605.473 629.868 C 605.603 613.165, 605.511 596.470, 605.270 592.768 L 604.831 586.036 599.665 581.944 C 596.824 579.693, 591.742 575.185, 588.371 571.926 C 582.320 566.075, 579.650 564.294, 582.193 567.803 M 774 570.916 C 774 572.055, 781.921 578.413, 782.552 577.781 C 783.245 577.088, 779.439 573, 778.101 573 C 777.461 573, 776.678 572.325, 776.362 571.500 C 775.735 569.866, 774 569.437, 774 570.916 M 784 578.568 C 784 578.982, 785.462 580.637, 787.250 582.244 C 808.248 601.128, 822.312 612.925, 823.184 612.387 C 823.935 611.922, 818.036 606.370, 810.863 600.791 C 808.948 599.301, 806.057 596.890, 804.440 595.433 C 802.823 593.976, 799.925 591.362, 798 589.623 C 791.360 583.628, 784 577.816, 784 578.568 M 549 612.779 C 549 613.207, 551.925 616.457, 555.500 620 C 559.075 623.543, 562 625.915, 562 625.271 C 562 624.178, 550.501 612, 549.469 612 C 549.211 612, 549 612.350, 549 612.779 M 824 613.885 C 824 614.372, 825.084 615.480, 826.409 616.348 C 827.734 617.217, 829.965 618.956, 831.367 620.213 C 832.768 621.471, 836.050 624.300, 838.659 626.500 C 841.268 628.700, 844.112 631.175, 844.980 632 C 845.847 632.825, 849.019 635.504, 852.028 637.954 C 855.038 640.404, 858.205 643.104, 859.066 643.954 C 859.927 644.804, 863.274 647.750, 866.502 650.500 C 869.731 653.250, 876.031 658.650, 880.501 662.500 C 884.972 666.350, 891.048 671.525, 894.004 674 C 896.960 676.475, 901.431 680.231, 903.939 682.347 C 909.262 686.835, 914.852 691.478, 919.178 695 C 920.866 696.375, 923.204 698.410, 924.374 699.522 C 928.010 702.979, 933 706.188, 933 705.068 C 933 704.481, 932.663 703.992, 932.250 703.983 C 931.837 703.974, 929.457 702.061, 926.960 699.733 C 924.462 697.405, 920.862 694.308, 918.960 692.852 C 917.057 691.396, 914.600 689.366, 913.500 688.343 C 912.400 687.319, 909.475 684.927, 907 683.026 C 901.742 678.988, 898.823 676.533, 894.804 672.772 C 893.201 671.271, 889.784 668.346, 887.211 666.272 C 884.637 664.197, 881.552 661.600, 880.355 660.500 C 879.158 659.400, 876.226 656.847, 873.839 654.827 C 871.453 652.807, 867.700 649.524, 865.500 647.531 C 860.354 642.870, 854.657 637.998, 849 633.420 C 844.108 629.462, 836.164 622.671, 829.498 616.750 C 825.199 612.932, 824 612.307, 824 613.885 M 563 625.721 C 563 627.131, 579.818 644.516, 580.511 643.822 C 580.810 643.524, 576.992 639.091, 572.027 633.973 C 567.062 628.854, 563 625.141, 563 625.721 M 665.469 851.142 C 665.662 940.989, 666.144 1016.422, 666.541 1018.772 C 666.938 1021.122, 667.730 1023.333, 668.301 1023.686 C 668.989 1024.111, 669.045 1023.681, 668.467 1022.414 C 667.987 1021.361, 667.273 945.875, 666.880 854.666 C 666.487 763.457, 665.930 688.597, 665.642 688.309 C 665.354 688.021, 665.276 761.296, 665.469 851.142 M 261 707.925 C 261 708.407, 263.363 709.367, 266.250 710.060 C 271.844 711.402, 272.010 711.407, 271.981 710.250 C 271.947 708.910, 261 706.593, 261 707.925 M 935.528 708.868 C 941.942 714.942, 956.929 728, 957.486 728 C 958.882 728, 954.129 723.039, 945.207 715.182 C 940.096 710.682, 935.384 707, 934.735 707 C 934.086 707, 934.443 707.840, 935.528 708.868 M 228.744 709.164 C 227.228 709.718, 226.213 710.536, 226.489 710.981 C 227.009 711.823, 234.313 710.021, 235.600 708.733 C 236.651 707.683, 232 707.975, 228.744 709.164 M 280 713.036 C 280 713.590, 281.012 714.434, 282.250 714.912 C 290.485 718.094, 294.113 720.023, 299.927 724.312 C 303.542 726.979, 306.860 729.799, 307.300 730.580 C 308.288 732.334, 310.020 732.445, 309.944 730.750 C 309.878 729.268, 301.359 722.424, 295 718.743 C 288.826 715.169, 280 711.811, 280 713.036 M 1391 719.893 C 1397.787 725.380, 1399 726.129, 1398.992 724.826 C 1398.988 724.097, 1397.076 722.375, 1394.742 721 C 1389.258 717.768, 1387.861 717.355, 1391 719.893 M 1400 725.520 C 1400 725.860, 1403.942 730.045, 1408.760 734.820 C 1424.386 750.305, 1431.735 763.662, 1435.542 783.500 C 1437.524 793.826, 1437.072 812.880, 1434.642 821.500 C 1432.741 828.242, 1426.599 842.487, 1423.685 846.910 C 1422.385 848.884, 1420.631 851.625, 1419.789 853 C 1416.526 858.325, 1406.485 868.159, 1399.840 872.536 C 1392.051 877.668, 1378.191 884.968, 1376.200 884.987 C 1375.486 884.994, 1373.676 885.633, 1372.179 886.407 C 1368.544 888.287, 1352.478 891, 1344.982 891 C 1339.219 891, 1321.684 887.846, 1317.500 886.056 C 1306.599 881.394, 1298.992 877.342, 1294.155 873.619 C 1282.884 864.946, 1273.038 852.656, 1265.762 838.177 C 1264.003 834.675, 1262.393 832.320, 1262.186 832.943 C 1261.693 834.421, 1263.613 838.168, 1271.730 851.570 C 1277.005 860.280, 1289.009 872.845, 1297.152 878.180 C 1318.243 891.999, 1343.212 896.189, 1367.561 889.995 C 1376.120 887.818, 1388 883.042, 1388 881.777 C 1388 881.350, 1388.700 881, 1389.555 881 C 1392.424 881, 1406.438 871.163, 1412.634 864.800 C 1428.996 847.997, 1438.361 826.295, 1439.520 802.500 C 1440.088 790.823, 1436.751 774.333, 1431.883 764.764 C 1431.397 763.809, 1431 762.316, 1431 761.447 C 1431 760.578, 1429.875 758.392, 1428.500 756.589 C 1427.125 754.786, 1426 752.861, 1426 752.311 C 1426 751.760, 1425.100 750.495, 1424 749.500 C 1422.900 748.505, 1422 747.280, 1422 746.778 C 1422 746.277, 1420.429 744.209, 1418.509 742.183 C 1416.588 740.157, 1415.013 738.163, 1415.009 737.750 C 1415.004 737.337, 1414.325 737, 1413.500 737 C 1412.675 737, 1412 736.494, 1412 735.876 C 1412 735.258, 1409.909 732.895, 1407.354 730.626 C 1402.323 726.159, 1400 724.546, 1400 725.520 M 311 732.537 C 311 732.833, 313.813 736.439, 317.250 740.550 C 322.704 747.074, 325.808 752.121, 333.419 766.843 C 334.370 768.682, 335.319 770.014, 335.529 769.804 C 336.649 768.684, 328.234 750.734, 324.107 745.438 C 317.332 736.744, 311 730.512, 311 732.537 M 968.895 737.774 C 1000.288 765.883, 1004.943 770.820, 1010.747 782.165 L 1014.500 789.500 1014.473 803 C 1014.448 815.950, 1014.322 816.765, 1011.386 823 C 1005.153 836.239, 996.788 846.492, 982.017 859 C 979.094 861.475, 976.083 864.106, 975.325 864.848 C 974.568 865.589, 970.918 868.739, 967.215 871.848 C 963.512 874.956, 959.137 878.690, 957.491 880.144 C 955.846 881.598, 948.650 887.958, 941.500 894.278 C 934.350 900.597, 926.386 907.508, 923.802 909.634 C 921.218 911.760, 914.215 917.775, 908.238 923 C 902.262 928.225, 895.192 934.300, 892.528 936.500 C 889.863 938.700, 883.127 944.550, 877.557 949.500 C 860.741 964.446, 838.241 984.086, 829.625 991.339 C 825.156 995.101, 819.186 1000.389, 816.358 1003.089 C 813.530 1005.790, 810.755 1008, 810.191 1008 C 809.628 1008, 809.017 1008.399, 808.833 1008.886 C 808.650 1009.374, 805.125 1012.578, 801 1016.007 C 796.875 1019.437, 793.275 1022.535, 793 1022.893 C 792.725 1023.252, 789.800 1025.781, 786.500 1028.515 C 783.200 1031.249, 777.320 1036.189, 773.434 1039.493 C 769.548 1042.797, 763.986 1047.524, 761.074 1049.998 C 758.162 1052.471, 754.142 1055.585, 752.140 1056.917 C 750.138 1058.249, 747.323 1060.131, 745.885 1061.100 C 744.446 1062.068, 740.075 1063.831, 736.169 1065.017 C 730.280 1066.806, 727.144 1067.116, 717.785 1066.837 C 706.946 1066.513, 706.195 1066.345, 698.767 1062.581 C 690.339 1058.310, 686.736 1055.236, 680.873 1047.317 C 676.053 1040.807, 670 1029.867, 670 1027.667 C 670 1026.750, 669.520 1026, 668.933 1026 C 666.792 1026, 672.876 1039.530, 677.827 1045.781 C 679.572 1047.985, 681 1050.113, 681 1050.511 C 681 1050.909, 682.722 1052.869, 684.826 1054.867 C 697.445 1066.847, 704.680 1069.972, 719.846 1069.989 C 732.310 1070.004, 739.871 1067.720, 751.709 1060.366 C 754.418 1058.683, 765.482 1049.632, 767.500 1047.448 C 768.050 1046.853, 770.975 1044.391, 774 1041.976 C 777.025 1039.562, 781.337 1035.992, 783.582 1034.043 C 785.827 1032.094, 788.752 1029.643, 790.082 1028.595 C 791.412 1027.547, 794.320 1025.072, 796.545 1023.095 C 800.271 1019.784, 807.909 1013.169, 814 1007.978 C 821.298 1001.758, 827.872 996.060, 831.939 992.428 C 834.448 990.189, 840.100 985.277, 844.500 981.513 C 848.900 977.748, 855.029 972.381, 858.120 969.584 C 861.212 966.788, 865.934 962.700, 868.613 960.500 C 871.293 958.300, 875.514 954.516, 877.993 952.091 C 880.472 949.667, 884.786 945.806, 887.579 943.512 C 890.373 941.218, 893.558 938.477, 894.658 937.421 C 895.757 936.364, 897.762 934.600, 899.113 933.500 C 905.615 928.204, 913.892 921.167, 917.500 917.867 C 919.700 915.854, 924.875 911.403, 929 907.974 C 933.125 904.546, 939.875 898.687, 944 894.955 C 948.125 891.224, 953.750 886.277, 956.500 883.962 C 963.325 878.219, 974.022 868.842, 975.932 866.930 C 976.794 866.066, 981.351 862.179, 986.058 858.291 C 990.764 854.403, 996.614 848.996, 999.058 846.276 C 1003.342 841.506, 1013 826.690, 1013 824.887 C 1013 824.404, 1013.963 821.225, 1015.140 817.823 C 1016.982 812.503, 1017.201 810.226, 1016.709 801.540 C 1015.826 785.945, 1011.275 775.833, 999.816 764 C 989.609 753.460, 965.110 731.975, 963.354 732.024 C 962.884 732.037, 965.378 734.624, 968.895 737.774 M 337 770.915 C 337 771.574, 380.307 772.014, 464.295 772.207 C 606.951 772.535, 595.769 771.905, 597.945 779.741 C 598.519 781.808, 598.991 792.837, 598.994 804.250 L 599 825 469.155 825 C 346.745 825, 339.222 825.100, 337.773 826.750 C 336.928 827.712, 334.449 831.875, 332.265 836 C 323.838 851.913, 318.819 859.138, 311.390 866.049 C 298.189 878.329, 281.978 885.883, 261.078 889.494 C 250.870 891.257, 243.110 890.952, 232 888.351 C 223.915 886.459, 223.248 886.212, 213.790 881.602 C 198.745 874.270, 183.337 860.117, 176.663 847.500 C 172.092 838.858, 168.108 829.985, 166.928 825.814 C 166.198 823.237, 165.237 821.353, 164.793 821.628 C 163.655 822.331, 164.565 826.541, 166.430 829.204 C 167.294 830.437, 168 832.247, 168 833.228 C 168 835.416, 176.054 851, 177.186 851 C 177.633 851, 178 851.455, 178 852.010 C 178 853.836, 185.226 863.414, 189.909 867.796 C 196.922 874.358, 210.812 883.639, 218.500 886.900 C 221.609 888.219, 230.128 890.867, 234 891.719 C 235.925 892.143, 243.575 892.452, 251 892.407 C 262.714 892.335, 265.755 891.954, 273.987 889.522 C 279.205 887.981, 284.155 886.382, 284.987 885.968 C 285.819 885.554, 287.625 884.695, 289 884.059 C 299.118 879.378, 307.297 873.712, 314.392 866.469 C 323 857.683, 328.095 850.121, 335.489 835.161 C 337.435 831.222, 339.584 827.957, 340.264 827.904 C 340.944 827.852, 399.625 827.739, 470.667 827.654 C 541.708 827.569, 600.157 827.176, 600.552 826.781 C 601.396 825.938, 601.262 798.634, 600.349 785.186 C 599.550 773.420, 598.483 771.894, 590.394 770.948 C 580.618 769.804, 337 769.773, 337 770.915 M 1083.616 770.812 C 1082.993 771.821, 1082.591 825.924, 1083.202 826.536 C 1083.446 826.779, 1122.639 826.993, 1170.297 827.011 C 1217.956 827.029, 1257.636 827.307, 1258.475 827.629 C 1259.314 827.951, 1260 828.841, 1260 829.607 C 1260 830.373, 1260.450 831, 1261 831 C 1262.628 831, 1262.142 828.438, 1260.177 826.661 C 1258.518 825.159, 1250.570 824.988, 1171.427 824.756 L 1084.500 824.500 1084.218 800.500 C 1084.063 787.300, 1084.184 775.487, 1084.487 774.250 L 1085.038 772 1171.460 772 C 1227.996 772, 1258.096 771.654, 1258.500 771 C 1258.910 770.336, 1229.697 770, 1171.618 770 C 1123.493 770, 1083.892 770.366, 1083.616 770.812 M 162.233 781.750 C 161.845 782.712, 161.548 790.250, 161.573 798.500 C 161.609 810.495, 161.958 814.201, 163.314 817 C 164.910 820.292, 164.966 820.321, 164.255 817.500 C 163.840 815.850, 163.500 806.737, 163.500 797.250 C 163.500 787.763, 163.373 780, 163.219 780 C 163.064 780, 162.620 780.788, 162.233 781.750 M 977.750 948.930 C 975.688 951.055, 974 953.235, 974 953.775 C 974 954.315, 972.987 955.437, 971.750 956.269 C 970.513 957.101, 969.779 958.072, 970.119 958.427 C 970.460 958.781, 973.439 956.277, 976.740 952.862 L 982.742 946.652 985.621 948.912 C 987.204 950.155, 998.175 960.538, 1010 971.986 C 1021.825 983.434, 1033.922 994.983, 1036.882 997.651 C 1039.843 1000.318, 1044.144 1004.300, 1046.441 1006.500 C 1048.738 1008.700, 1053.516 1013.155, 1057.058 1016.401 C 1060.601 1019.647, 1074.525 1033.158, 1088 1046.425 C 1135.001 1092.704, 1143.989 1101.345, 1144.545 1100.788 C 1145.151 1100.183, 1134.230 1089.154, 1086.576 1042.250 C 1069.672 1025.612, 1055.532 1012, 1055.153 1012 C 1054.381 1012, 1047.779 1005.747, 1014.500 973.498 C 985.038 944.947, 985.089 944.994, 983.144 945.034 C 982.240 945.052, 979.813 946.806, 977.750 948.930 M 599.683 951.650 C 599.325 952.008, 600.175 953.360, 601.572 954.654 L 604.111 957.007 603.748 986.254 C 603.496 1006.629, 602.992 1016.713, 602.086 1019.500 C 601.030 1022.752, 591.086 1033.230, 548.941 1075.500 C 496.655 1127.943, 492.833 1131.864, 488.290 1137.734 C 485.373 1141.503, 485.477 1144.429, 488.921 1155.500 C 490.564 1160.783, 491.244 1166.186, 491.692 1177.522 C 492.333 1193.765, 491.400 1202.085, 487.921 1211.142 C 479.574 1232.872, 467.219 1246.638, 447.500 1256.179 C 426.999 1266.098, 410.399 1268.150, 389 1263.412 C 367.241 1258.593, 345.123 1241.648, 335.293 1222.265 C 332.168 1216.104, 331.017 1214.490, 331.416 1216.834 C 331.728 1218.668, 332.874 1221.419, 333.962 1222.947 C 335.051 1224.475, 335.666 1226, 335.331 1226.336 C 334.594 1227.073, 339.393 1233.755, 344.784 1239.500 C 363.494 1259.436, 383.353 1268.282, 409.500 1268.326 C 418.876 1268.342, 423.225 1267.864, 429.390 1266.138 C 442.995 1262.330, 460.234 1253.216, 469.311 1245.034 C 472.363 1242.283, 482 1230.429, 482 1229.426 C 482 1229.086, 482.826 1227.614, 483.836 1226.154 C 486.625 1222.120, 490.889 1210.657, 492.576 1202.655 C 495.087 1190.743, 493.915 1161.761, 490.513 1151.657 C 488.146 1144.625, 488.122 1141.752, 490.403 1138.628 C 491.556 1137.048, 517.250 1110.825, 547.500 1080.354 C 577.750 1049.882, 603.164 1023.500, 603.977 1021.726 C 606.080 1017.131, 606.215 955.175, 604.128 952.656 C 602.709 950.944, 600.817 950.516, 599.683 951.650 M 581.742 966.167 C 578.025 970.100, 575.148 973.482, 575.349 973.682 C 575.770 974.103, 590 960.375, 590 959.548 C 590 957.978, 587.862 959.691, 581.742 966.167 M 952.742 984.508 C 953.330 985.612, 956.441 989.044, 959.655 992.135 C 962.870 995.226, 969.100 1001.532, 973.500 1006.149 C 1023.992 1059.127, 1073.058 1108.370, 1102.042 1135.154 C 1105.506 1138.355, 1106.472 1141.627, 1105.055 1145.354 C 1103.545 1149.326, 1103.817 1150.944, 1105.500 1148 C 1106.286 1146.625, 1106.945 1143.878, 1106.965 1141.896 C 1106.997 1138.551, 1105.905 1137.223, 1091.753 1123.396 C 1065.846 1098.086, 1019.328 1051.290, 1001.854 1032.961 C 982.885 1013.064, 956.432 986.230, 953.586 984 C 951.805 982.604, 951.747 982.639, 952.742 984.508 M 545.373 1002.665 C 541.318 1006.881, 538 1010.673, 538 1011.091 C 538 1011.509, 540.587 1009.099, 543.750 1005.735 C 546.913 1002.372, 550.625 998.594, 552 997.341 C 553.375 996.088, 554.105 995.049, 553.623 995.032 C 553.140 995.014, 549.428 998.449, 545.373 1002.665 M 513.287 1035.471 C 510.531 1038.481, 508.045 1040.711, 507.762 1040.428 C 507.479 1040.145, 506.981 1040.608, 506.655 1041.457 C 505.418 1044.681, 508.576 1042.784, 513.658 1037.250 C 518.314 1032.181, 519.815 1030, 518.649 1030 C 518.457 1030, 516.044 1032.462, 513.287 1035.471 M 484.189 1065.047 C 472.535 1076.598, 463 1086.589, 463 1087.249 C 463 1087.909, 472.763 1078.685, 484.695 1066.753 C 496.628 1054.820, 506.163 1044.830, 505.884 1044.551 C 505.606 1044.272, 495.843 1053.496, 484.189 1065.047 M 815.250 1082.675 C 812.913 1084.036, 811 1085.566, 811 1086.075 C 811 1086.584, 810.377 1087, 809.615 1087 C 808.853 1087, 807.493 1088.125, 806.592 1089.500 C 805.691 1090.875, 805.086 1092, 805.247 1092 C 805.408 1092, 808.230 1089.980, 811.520 1087.511 C 818.747 1082.085, 820.572 1081.851, 821.358 1086.250 C 821.678 1088.037, 822.218 1127.295, 822.559 1173.490 C 822.900 1219.684, 823.390 1257.822, 823.648 1258.240 C 823.907 1258.658, 824.889 1259, 825.832 1259 C 827.809 1259, 840.477 1263.767, 848.804 1267.645 C 858.973 1272.380, 874.411 1286.572, 881.082 1297.317 C 891.678 1314.382, 896.275 1342.919, 891.583 1362.500 C 889.539 1371.030, 883.004 1386.866, 878.738 1393.622 C 875.290 1399.085, 863.963 1411.021, 857.613 1415.883 C 828.024 1438.540, 791.149 1442.767, 759 1427.189 C 753.775 1424.657, 747.475 1421.236, 745 1419.588 C 739.150 1415.691, 729.511 1406.038, 724.068 1398.627 C 717.318 1389.435, 709.930 1372.732, 708.421 1363.250 C 707.715 1358.814, 706 1357.373, 706 1361.217 C 706 1363.123, 706.694 1365.483, 709.760 1374 C 710.057 1374.825, 710.456 1376.292, 710.646 1377.261 C 711.033 1379.236, 720.805 1398.209, 721.840 1398.995 C 722.206 1399.273, 724.471 1402.088, 726.874 1405.250 C 729.277 1408.412, 731.608 1411, 732.054 1411 C 732.500 1411, 733.119 1411.787, 733.430 1412.750 C 733.741 1413.713, 735.234 1415.278, 736.747 1416.229 C 738.261 1417.180, 743.325 1420.457, 748 1423.510 C 757.821 1429.925, 760.109 1431.005, 773 1435.313 C 782.135 1438.367, 783.133 1438.489, 799 1438.494 C 814.896 1438.500, 815.866 1438.381, 825.500 1435.256 C 836.127 1431.808, 850.001 1424.561, 858.401 1418.070 C 864.942 1413.017, 875.778 1401.783, 879.691 1396 C 883.545 1390.304, 889.789 1377.021, 891.677 1370.500 C 899.305 1344.154, 895.114 1314.533, 880.740 1293.209 C 877.172 1287.916, 864.479 1275.326, 860.750 1273.382 C 859.237 1272.594, 858 1271.587, 858 1271.145 C 858 1270.703, 855.188 1268.976, 851.750 1267.306 C 834.814 1259.081, 827.783 1256.398, 826.020 1257.488 C 825.459 1257.834, 825.022 1257.304, 825.048 1256.309 C 825.075 1255.314, 824.876 1216.460, 824.606 1169.966 C 824.289 1115.447, 823.748 1084.468, 823.082 1082.716 C 821.842 1079.453, 820.792 1079.448, 815.250 1082.675 M 412 1092.963 C 410.869 1093.722, 411.484 1093.977, 414.500 1094 C 416.700 1094.017, 421.096 1094.642, 424.269 1095.389 C 427.770 1096.213, 430.267 1096.377, 430.619 1095.807 C 431.552 1094.298, 430.452 1093.829, 425.323 1093.548 C 422.670 1093.402, 418.925 1092.985, 417 1092.620 C 415.075 1092.256, 412.825 1092.410, 412 1092.963 M 1200.531 1092.951 C 1200.206 1093.476, 1201.866 1094.404, 1204.220 1095.013 C 1206.574 1095.621, 1209.287 1096.348, 1210.250 1096.627 C 1211.213 1096.906, 1212 1096.643, 1212 1096.043 C 1212 1094.733, 1207.207 1092.754, 1205.937 1093.539 C 1205.444 1093.843, 1204.159 1093.620, 1203.081 1093.044 C 1201.853 1092.386, 1200.901 1092.352, 1200.531 1092.951 M 432.413 1096.141 C 432.116 1096.621, 432.464 1097.172, 433.187 1097.366 C 433.909 1097.559, 436.075 1098.194, 438 1098.777 C 444.091 1100.620, 447.892 1101.169, 449.978 1100.507 C 453.566 1099.368, 452.131 1098.079, 447.250 1098.056 C 440.692 1098.024, 438 1097.688, 438 1096.902 C 438 1095.848, 433.014 1095.169, 432.413 1096.141 M 1213.509 1095.824 C 1213.176 1096.158, 1215.244 1097.464, 1218.106 1098.727 C 1223.155 1100.955, 1225.445 1101.045, 1223.332 1098.932 C 1222.764 1098.364, 1221.331 1097.825, 1220.149 1097.736 C 1218.967 1097.647, 1218 1097.273, 1218 1096.904 C 1218 1095.978, 1214.256 1095.078, 1213.509 1095.824 M 1225.590 1100.854 C 1225.255 1101.396, 1227.572 1103.113, 1230.737 1104.669 C 1241.462 1109.944, 1260.327 1131.054, 1264.990 1143 C 1265.741 1144.925, 1266.951 1147.388, 1267.678 1148.473 C 1268.960 1150.385, 1269 1150.374, 1269 1148.108 C 1269 1145.095, 1261.801 1131.563, 1257 1125.552 C 1251.468 1118.625, 1238.810 1107.063, 1234.500 1104.999 C 1231.750 1103.682, 1228.757 1101.989, 1227.849 1101.237 C 1226.832 1100.394, 1225.965 1100.247, 1225.590 1100.854 M 776.167 1113.645 C 775.433 1114.442, 774.421 1116.532, 773.917 1118.290 C 772.647 1122.718, 772.729 1254.967, 774 1253 C 774.601 1252.070, 774.975 1226.058, 774.985 1184.579 C 774.998 1124.606, 775.166 1117.474, 776.603 1115.887 C 777.484 1114.913, 778.047 1113.684, 777.853 1113.156 C 777.659 1112.629, 776.900 1112.849, 776.167 1113.645 M 1269.012 1152.050 C 1269.018 1152.848, 1269.694 1155.975, 1270.513 1159 C 1273.312 1169.339, 1273.536 1183.309, 1271.098 1195.549 C 1268.535 1208.419, 1268.777 1207.725, 1262.446 1220.403 C 1258.408 1228.489, 1256.032 1231.771, 1249.500 1238.286 C 1242.745 1245.024, 1226.634 1257, 1224.325 1257 C 1223.943 1257, 1221.785 1257.894, 1219.527 1258.987 C 1206.604 1265.243, 1183.900 1267.538, 1167.872 1264.209 C 1157.464 1262.048, 1153.380 1260.443, 1145.231 1255.316 C 1142.332 1253.492, 1139.503 1252, 1138.942 1252 C 1137.508 1252, 1120.021 1234.268, 1117 1229.752 C 1115.625 1227.696, 1114.162 1226.011, 1113.750 1226.007 C 1112.369 1225.994, 1113.010 1227.475, 1115.766 1230.666 C 1117.270 1232.407, 1119.625 1235.298, 1121 1237.091 C 1125.376 1242.795, 1131.617 1248.665, 1137.647 1252.749 C 1146.344 1258.637, 1156.093 1263.772, 1160.817 1264.954 C 1163.118 1265.529, 1166.835 1266.460, 1169.078 1267.023 C 1173.954 1268.245, 1192.675 1268.581, 1199 1267.559 C 1208.583 1266.010, 1227.073 1259.100, 1233.327 1254.728 C 1241.048 1249.332, 1253.438 1238.387, 1257.179 1233.659 C 1261.623 1228.041, 1268.785 1213.949, 1269.458 1209.500 C 1269.541 1208.950, 1270.159 1207.201, 1270.832 1205.614 C 1271.504 1204.026, 1272.295 1201.101, 1272.590 1199.114 C 1272.884 1197.126, 1273.545 1193.925, 1274.057 1192 C 1275.692 1185.860, 1275.146 1170.703, 1272.951 1161.290 C 1271.082 1153.273, 1268.982 1148.347, 1269.012 1152.050 M 324.476 1167.313 C 323.381 1174.610, 324.331 1196.737, 325.801 1198.203 C 326.869 1199.268, 326.959 1198.693, 326.301 1195 C 325.861 1192.525, 325.552 1184.313, 325.615 1176.750 C 325.679 1169.188, 325.594 1163, 325.427 1163 C 325.259 1163, 324.831 1164.941, 324.476 1167.313 M 326.006 1201.550 C 326.010 1202.622, 326.685 1204.789, 327.506 1206.364 C 328.328 1207.940, 329 1209.852, 329 1210.614 C 329 1211.376, 329.450 1212, 330 1212 C 331.266 1212, 331.294 1212.244, 329.367 1206.428 C 327.506 1200.813, 325.997 1198.622, 326.006 1201.550 M 1107.018 1214.124 C 1106.995 1216.198, 1112.267 1225.700, 1112.707 1224.378 C 1112.889 1223.834, 1111.687 1220.938, 1110.037 1217.944 C 1108.386 1214.950, 1107.028 1213.231, 1107.018 1214.124 M 713.068 1305.904 C 711.931 1307.502, 711 1309.331, 711 1309.968 C 711 1310.606, 709.868 1313.602, 708.485 1316.626 C 706.645 1320.649, 706.234 1322.577, 706.955 1323.812 C 707.874 1325.389, 707.941 1325.387, 707.970 1323.785 C 708.011 1321.434, 710.768 1313.486, 713.531 1307.750 C 716.156 1302.301, 716.020 1301.759, 713.068 1305.904 M 705.385 1342 C 705.385 1348.875, 705.545 1351.688, 705.740 1348.250 C 705.936 1344.813, 705.936 1339.188, 705.740 1335.750 C 705.545 1332.313, 705.385 1335.125, 705.385 1342" stroke="none" fill="#27da6f" fill-rule="evenodd"/><path d="M 786.356 161.767 C 786.616 162.188, 784.280 162.546, 781.165 162.561 C 778.049 162.577, 774.375 163.224, 773 163.999 C 771.625 164.774, 770.050 165.445, 769.500 165.490 C 766.810 165.711, 760.124 168.392, 760.549 169.079 C 760.815 169.510, 760.506 170.187, 759.862 170.585 C 759.131 171.037, 758.959 170.876, 759.405 170.155 C 759.797 169.520, 759.849 169, 759.519 169 C 758.474 169, 751 173.017, 751 173.579 C 751 173.876, 751.450 173.840, 752 173.500 C 753.628 172.494, 753.140 173.642, 751.308 175.128 C 750.158 176.060, 749.857 176.099, 750.367 175.250 C 751.395 173.538, 750.431 173.682, 747.215 175.721 C 741.413 179.398, 737.088 183.336, 737.690 184.394 C 738.037 185.002, 737.964 185.178, 737.529 184.785 C 736.292 183.669, 733.012 185.867, 733.605 187.414 C 733.897 188.175, 733.586 189.138, 732.914 189.553 C 732.065 190.078, 731.941 189.879, 732.507 188.905 C 733.972 186.382, 727.828 192.381, 723.864 197.342 C 721.737 200.006, 720.294 202.706, 720.658 203.342 C 721.023 203.979, 720.951 204.165, 720.500 203.756 C 719.540 202.886, 716.650 206.625, 717.376 207.800 C 717.647 208.237, 717.405 209.249, 716.840 210.048 C 716.001 211.232, 715.915 211.177, 716.374 209.750 C 717.721 205.563, 715.622 208.632, 711.927 216.250 C 708.648 223.013, 708.023 225.221, 708.460 228.500 C 708.808 231.113, 708.704 231.819, 708.159 230.536 C 707.379 228.703, 707.285 228.736, 706.741 231.036 C 703.744 243.699, 703.211 269.792, 705.822 276 C 706.433 277.453, 706.936 277.872, 707.023 277 C 707.105 276.175, 707.584 276.850, 708.089 278.500 C 708.593 280.150, 708.743 282.738, 708.423 284.250 C 707.997 286.262, 708.234 287, 709.304 287 C 710.108 287, 711.022 288.012, 711.334 289.250 C 711.892 291.468, 711.878 291.472, 710.316 289.500 C 708.926 287.746, 708.809 287.725, 709.365 289.332 C 709.714 290.339, 710 291.603, 710 292.141 C 710 292.678, 710.431 292.852, 710.957 292.526 C 711.484 292.201, 712.609 293.277, 713.457 294.918 C 715.249 298.383, 715.398 299.364, 714 298.500 C 712.503 297.575, 712.795 299.353, 714.502 301.559 C 715.983 303.471, 715.996 303.470, 715.409 301.500 C 714.911 299.826, 715.152 299.908, 716.885 302 C 719.382 305.015, 719.653 306.780, 717.325 304.872 C 715.922 303.723, 715.954 303.987, 717.523 306.500 C 720.009 310.485, 720.447 310.894, 719.665 308.500 C 719.238 307.194, 720.051 307.702, 722.006 309.962 C 723.817 312.056, 724.786 314.098, 724.459 315.128 C 724.162 316.065, 724.382 317.118, 724.948 317.468 C 725.584 317.861, 725.730 317.416, 725.328 316.302 C 724.817 314.882, 725.243 315.014, 727.340 316.924 C 729.958 319.311, 731.049 321.766, 728.900 320.438 C 727.125 319.341, 729.601 323.440, 731.695 325.065 C 733.269 326.286, 733.255 326.179, 731.589 324.227 C 730.539 322.995, 729.959 321.708, 730.302 321.365 C 730.644 321.023, 734.025 323.613, 737.814 327.121 C 744.140 332.978, 761.355 343.693, 769.620 346.918 C 771.336 347.587, 773.249 349.251, 773.870 350.615 C 774.674 352.379, 775 372.523, 775 420.462 L 775 487.830 778 490.662 C 781.014 493.507, 782.082 495.768, 779.750 494.367 C 778.944 493.883, 779.001 494.233, 779.912 495.355 C 781 496.697, 781.503 496.804, 782.109 495.824 C 782.709 494.853, 783.439 495.044, 785.197 496.633 C 787.262 498.498, 797.873 505.917, 802.168 508.498 C 803.086 509.049, 806.813 511.633, 810.450 514.239 C 814.088 516.846, 818.160 519.253, 819.500 519.589 L 821.935 520.201 822.218 435.150 C 822.414 376.133, 822.829 349.770, 823.576 349.024 C 824.168 348.432, 827.768 346.823, 831.576 345.448 C 847.611 339.658, 864.411 326.191, 877.275 308.814 C 881.220 303.485, 888.424 288.770, 891.625 279.500 C 894.112 272.296, 894.393 270.107, 894.444 257.500 C 894.475 249.800, 894.097 242.195, 893.604 240.601 C 892.952 238.491, 893.020 237.894, 893.854 238.410 C 894.540 238.834, 895 238.449, 895 237.452 C 895 236.473, 894.449 235.997, 893.665 236.298 C 892.740 236.653, 891.945 235.227, 891.078 231.655 C 889.594 225.546, 887.170 218.733, 884.985 214.531 C 882.507 209.766, 878.183 203.231, 877.041 202.525 C 876.468 202.171, 876 201.207, 876 200.382 C 876 199.503, 876.478 199.177, 877.155 199.595 C 877.854 200.028, 878.038 199.871, 877.622 199.198 C 877.245 198.587, 876.348 198.313, 875.628 198.589 C 874.883 198.875, 872.218 196.598, 869.434 193.295 C 866.746 190.108, 863.971 187.139, 863.268 186.697 C 860.344 184.862, 856.548 180.839, 858.250 181.381 C 860.762 182.180, 860.411 181.497, 857.250 179.440 C 854.857 177.883, 854.678 177.868, 855.872 179.325 C 857.933 181.839, 856.021 181.317, 851.198 178.048 C 848.831 176.444, 846.356 174.939, 845.698 174.703 C 845.039 174.467, 844.798 173.951, 845.163 173.557 C 845.528 173.163, 847.103 173.634, 848.663 174.604 C 850.223 175.573, 851.050 175.876, 850.500 175.276 C 849.377 174.050, 840.482 169, 839.447 169 C 839.079 169, 839.637 169.787, 840.686 170.750 C 841.736 171.713, 842.123 172.221, 841.547 171.880 C 840.971 171.540, 838.813 170.717, 836.750 170.053 C 834.564 169.349, 833 168.203, 833 167.306 C 833 166.259, 832.360 165.934, 831 166.290 C 829.855 166.589, 828.993 166.318, 828.985 165.656 C 828.974 164.882, 828.700 164.924, 828.155 165.784 C 827.685 166.524, 826.597 166.783, 825.586 166.395 C 824.378 165.931, 824.195 165.497, 824.999 165 C 826.817 163.877, 817.598 161.930, 813.932 162.664 C 811.606 163.129, 810.891 162.985, 811.404 162.156 C 811.930 161.304, 808.672 161, 799 161 C 791.785 161, 786.095 161.345, 786.356 161.767 M 1175.738 339.692 C 1174.769 339.945, 1174.166 340.460, 1174.399 340.837 C 1174.632 341.213, 1172.205 341.557, 1169.005 341.601 C 1162.616 341.688, 1156.652 343.628, 1157.677 345.286 C 1158.079 345.938, 1157.704 346.100, 1156.692 345.712 C 1154.368 344.820, 1149.146 346.859, 1147.929 349.133 C 1147.363 350.191, 1146.485 350.800, 1145.979 350.487 C 1145.049 349.912, 1139 352.597, 1139 353.585 C 1139 353.878, 1139.450 353.840, 1140 353.500 C 1140.550 353.160, 1141 353.389, 1141 354.008 C 1141 354.692, 1140.187 354.877, 1138.930 354.478 C 1137.362 353.980, 1136.727 354.328, 1136.313 355.910 C 1136.013 357.060, 1135.343 358, 1134.824 358 C 1134.306 358, 1134.224 357.447, 1134.641 356.772 C 1135.059 356.096, 1133.060 357.517, 1130.200 359.928 C 1127.340 362.340, 1125.014 364.805, 1125.032 365.407 C 1125.049 366.008, 1125.720 365.633, 1126.521 364.573 C 1127.323 363.513, 1128.207 362.874, 1128.486 363.152 C 1128.764 363.431, 1127.796 364.748, 1126.335 366.079 C 1124.873 367.411, 1124.002 367.938, 1124.398 367.250 C 1124.794 366.563, 1124.657 366, 1124.094 366 C 1122.703 366, 1120.896 369.544, 1121.785 370.529 C 1122.178 370.964, 1122.003 371.037, 1121.395 370.691 C 1120.088 369.946, 1115.547 374.458, 1116.329 375.724 C 1117.067 376.917, 1115.357 379.500, 1113.829 379.500 C 1112.436 379.500, 1106.391 388.725, 1107.233 389.566 C 1107.529 389.862, 1108.806 387.967, 1110.070 385.355 C 1111.334 382.744, 1112.523 381.068, 1112.710 381.631 C 1113.197 383.091, 1107.989 392.111, 1107.009 391.506 C 1106.561 391.229, 1105.734 392.239, 1105.170 393.751 C 1104.606 395.263, 1103.212 398.969, 1102.073 401.986 C 1099.661 408.370, 1099.669 408.322, 1101.084 407.448 C 1101.776 407.020, 1102.039 407.631, 1101.810 409.139 C 1101.613 410.440, 1100.863 411.375, 1100.141 411.221 C 1099.166 411.015, 1099.007 411.754, 1099.521 414.097 C 1100.003 416.292, 1099.877 417.042, 1099.107 416.566 C 1098.320 416.080, 1098 419.514, 1098 428.441 C 1098 436.966, 1098.356 441, 1099.108 441 C 1099.803 441, 1099.973 441.972, 1099.563 443.606 C 1099.132 445.321, 1099.396 446.604, 1100.334 447.356 C 1101.119 447.985, 1102.046 449.850, 1102.395 451.500 C 1103.011 454.405, 1102.978 454.437, 1101.381 452.500 C 1099.924 450.733, 1099.805 450.714, 1100.365 452.332 C 1100.714 453.339, 1101 454.352, 1101 454.582 C 1101 454.812, 1101.675 455, 1102.500 455 C 1103.325 455, 1104 455.477, 1104 456.059 C 1104 456.641, 1103.550 456.840, 1103 456.500 C 1101.644 455.662, 1101.862 457.783, 1103.567 462 L 1104.982 465.500 1104.500 462 L 1104.018 458.500 1105.433 462 C 1107.325 466.680, 1107.344 471.469, 1105.477 473.019 C 1104.185 474.092, 1104.060 473.997, 1104.651 472.391 C 1105.034 471.351, 1103.806 472.300, 1101.923 474.500 C 1100.041 476.700, 1096.700 480.232, 1094.500 482.348 C 1092.300 484.464, 1090.498 486.897, 1090.495 487.753 C 1090.493 488.610, 1089.818 489.418, 1088.995 489.549 C 1086.907 489.881, 1074.851 501.806, 1074.554 503.835 C 1074.419 504.751, 1073.789 505.500, 1073.152 505.500 C 1071.324 505.500, 1063.955 513.118, 1064.668 514.271 C 1065.057 514.901, 1064.817 515.005, 1064.059 514.536 C 1062.577 513.621, 1057.190 519.070, 1057.792 520.876 C 1058.010 521.529, 1057.770 521.936, 1057.260 521.781 C 1056.750 521.627, 1054.458 523.186, 1052.167 525.247 C 1048.209 528.807, 1046.658 530.947, 1049.155 529.405 C 1049.876 528.959, 1050.037 529.131, 1049.585 529.862 C 1049.187 530.506, 1048.494 530.805, 1048.044 530.527 C 1047.595 530.249, 1046.613 530.778, 1045.863 531.703 C 1044.690 533.149, 1044.709 533.261, 1046 532.500 C 1047.307 531.730, 1047.318 531.840, 1046.088 533.355 C 1045.312 534.312, 1044.412 534.672, 1044.088 534.156 C 1043.765 533.639, 1042.636 534.367, 1041.579 535.773 C 1040.523 537.179, 1040.230 537.976, 1040.929 537.544 C 1041.956 536.909, 1041.957 537.213, 1040.932 539.127 C 1040.072 540.733, 1039.520 541.060, 1039.214 540.142 C 1038.923 539.270, 1036.314 541.219, 1031.881 545.618 C 1025.562 551.888, 1022.573 556.124, 1026.750 552.890 C 1028.175 551.786, 1028.146 551.950, 1026.595 553.767 C 1024.643 556.055, 1023.394 556.790, 1024.500 555 C 1024.840 554.450, 1024.733 554, 1024.262 554 C 1022.785 554, 1015.741 561.773, 1016.340 562.742 C 1016.654 563.249, 1014.569 565.877, 1011.709 568.582 C 1006.739 573.280, 1006.685 573.305, 1010.503 569.128 C 1013.146 566.237, 1013.764 565.133, 1012.328 565.871 C 1009.120 567.519, 1006.017 571.880, 1006.729 573.737 C 1007.196 574.953, 1006.924 575.185, 1005.622 574.685 C 1004.539 574.269, 1004.138 574.414, 1004.546 575.074 C 1005.401 576.458, 1001.976 580.205, 1000.407 579.603 C 999.737 579.345, 998.358 580.082, 997.344 581.239 C 996.330 582.397, 996.063 583.015, 996.750 582.613 C 998.886 581.364, 998.138 582.711, 994.632 586.429 C 991.315 589.946, 989.165 591.194, 990.633 588.750 C 991.143 587.901, 990.842 587.940, 989.692 588.872 C 987.860 590.358, 987.372 591.506, 989 590.500 C 990.529 589.555, 990.189 591.598, 988.597 592.919 C 987.648 593.707, 987.081 593.742, 986.843 593.028 C 986.477 591.931, 969.988 609.225, 970.015 610.677 C 970.024 611.130, 970.508 610.825, 971.091 610 C 972.034 608.667, 972.107 608.667, 971.743 610 C 971.518 610.825, 970.873 611.500, 970.311 611.500 C 969.749 611.500, 966.235 614.357, 962.502 617.849 C 956.970 623.024, 955.637 624.875, 955.292 627.856 C 954.889 631.345, 955.256 631.868, 963.185 639.123 C 979.338 653.902, 988.068 661, 990.092 661 C 992.635 661, 996.127 657.626, 1078.500 575.583 C 1114.800 539.428, 1145.490 509.451, 1146.700 508.967 C 1148.869 508.100, 1150.585 508.443, 1165.500 512.726 C 1170.103 514.048, 1175.459 514.455, 1188.500 514.475 C 1209.168 514.505, 1211.429 514.147, 1224.070 508.839 C 1240.558 501.916, 1258.249 486.866, 1265.026 474 C 1273.833 457.280, 1277.130 446.078, 1277.714 430.890 C 1278.128 420.143, 1277.930 418.480, 1275.046 408.500 C 1269.962 390.907, 1262.001 376.070, 1253.080 367.563 C 1251.386 365.948, 1250 363.837, 1250 362.872 C 1250 361.907, 1249.555 360.843, 1249.011 360.507 C 1248.445 360.157, 1248.277 360.558, 1248.618 361.448 C 1248.946 362.302, 1248.771 363, 1248.229 363 C 1246.773 363, 1244.738 360.233, 1245.403 359.157 C 1245.719 358.645, 1245.195 357.613, 1244.239 356.863 C 1242.665 355.630, 1242.630 355.666, 1243.872 357.250 C 1245.329 359.108, 1244.416 359.549, 1242.122 358.096 C 1241.364 357.616, 1241.053 356.723, 1241.431 356.112 C 1241.809 355.500, 1241.679 355, 1241.142 355 C 1240.606 355, 1240.017 355.413, 1239.833 355.919 C 1239.650 356.424, 1238.150 355.697, 1236.500 354.305 C 1234.850 352.912, 1234.287 352.034, 1235.250 352.355 C 1237.986 353.265, 1237.305 352.298, 1234.075 350.687 C 1231.573 349.439, 1231.229 349.434, 1231.697 350.652 C 1232.079 351.649, 1231.159 351.436, 1228.623 349.940 C 1226.632 348.765, 1225.225 347.445, 1225.496 347.007 C 1225.767 346.568, 1225.293 345.943, 1224.442 345.616 C 1223.557 345.276, 1223.157 345.445, 1223.507 346.011 C 1224.284 347.268, 1220.984 347.275, 1219 346.021 C 1218.175 345.500, 1217.500 344.514, 1217.500 343.831 C 1217.500 342.212, 1209.664 340.509, 1209.160 342.019 C 1208.951 342.648, 1208.178 342.347, 1207.325 341.303 C 1206.515 340.311, 1206.137 340.063, 1206.485 340.750 C 1206.902 341.573, 1206.330 341.995, 1204.809 341.985 C 1203.163 341.974, 1202.883 341.727, 1203.834 341.124 C 1204.898 340.449, 1204.831 340.149, 1203.502 339.639 C 1201.646 338.927, 1178.502 338.971, 1175.738 339.692 M 393.668 342.733 C 390.844 343.026, 389.981 343.508, 390.387 344.565 C 390.702 345.386, 390.344 346, 389.552 346 C 388.790 346, 387.940 345.438, 387.662 344.750 C 387.274 343.789, 387.140 343.802, 387.079 344.809 C 387.036 345.529, 386.544 345.836, 385.987 345.492 C 384.279 344.436, 374 347.897, 374 349.528 C 374 350.338, 373.298 351, 372.441 351 C 371.491 351, 371.169 350.536, 371.617 349.810 C 372.022 349.156, 369.011 350.477, 364.926 352.745 C 360.592 355.152, 357.639 357.416, 357.833 358.184 C 358.017 358.908, 357.845 359.178, 357.452 358.785 C 356.371 357.705, 352.843 359.936, 353.627 361.205 C 354.038 361.870, 353.851 362.026, 353.156 361.596 C 350.374 359.877, 329.806 384.258, 331.595 387.154 C 332.003 387.815, 331.873 388.040, 331.291 387.680 C 330.232 387.026, 323.946 399.563, 324.070 402.080 C 324.112 402.923, 324.489 402.688, 325 401.500 C 325.687 399.902, 325.874 399.835, 325.930 401.168 C 326.032 403.584, 324.921 406.069, 323.994 405.497 C 322.225 404.403, 320.564 415.941, 320.660 428.651 C 320.760 441.823, 321.402 445.551, 323.110 442.857 C 323.700 441.926, 323.969 442.441, 323.969 444.500 C 323.969 446.898, 323.755 447.199, 322.900 446 C 322.094 444.869, 321.980 445.353, 322.435 447.971 C 322.767 449.880, 323.705 451.815, 324.519 452.271 C 325.334 452.726, 325.993 454.090, 325.985 455.300 C 325.972 457.135, 325.791 457.251, 324.890 456 C 323.993 454.752, 323.911 454.808, 324.406 456.332 C 324.733 457.339, 325 458.563, 325 459.050 C 325 459.538, 325.675 459.678, 326.500 459.362 C 327.378 459.025, 328.003 459.349, 328.006 460.143 C 328.010 460.889, 328.698 462.815, 329.536 464.422 C 330.570 466.405, 330.718 467.556, 329.996 468.002 C 329.411 468.364, 329.235 469.449, 329.605 470.414 C 330.096 471.693, 330.484 471.835, 331.038 470.938 C 331.556 470.101, 332.309 470.696, 333.399 472.805 C 335.595 477.051, 335.370 477.999, 332.879 475 C 331.005 472.743, 331.024 472.889, 333.075 476.500 C 335.715 481.148, 336.576 482.217, 335.691 479.750 C 335.345 478.788, 335.499 478, 336.031 478 C 336.564 478, 337 478.369, 337 478.820 C 337 479.271, 338.605 481.515, 340.567 483.807 C 342.610 486.194, 343.826 488.473, 343.412 489.142 C 342.979 489.843, 343.124 490.041, 343.777 489.638 C 344.374 489.269, 347.032 491.040, 349.682 493.574 C 364.758 507.992, 379.942 513.888, 404 514.666 C 418.611 515.139, 420.074 515.011, 429.500 512.439 C 435 510.938, 441.637 509.507, 444.250 509.259 C 448.830 508.823, 449.569 509.271, 449.130 512.214 C 449.072 512.607, 449.772 512.641, 450.686 512.290 C 451.932 511.812, 452.190 512.063, 451.717 513.294 C 451.371 514.197, 451.518 515.202, 452.044 515.527 C 452.570 515.852, 453 515.586, 453 514.937 C 453 514.056, 453.382 514.072, 454.500 515 C 456.311 516.503, 456.510 518.412, 454.750 517.398 C 454.063 517.002, 454.591 517.875, 455.924 519.339 C 457.258 520.802, 458.565 522, 458.829 522 C 459.094 522, 458.495 521.100, 457.500 520 C 454.958 517.191, 457.172 517.490, 459.826 520.314 C 462.209 522.851, 462.724 524.553, 460.750 523.367 C 459.997 522.915, 460.082 523.332, 460.963 524.418 C 461.950 525.632, 462.558 525.826, 462.829 525.013 C 463.070 524.290, 464.371 525.055, 466.077 526.923 C 467.692 528.691, 468.677 530.679, 468.354 531.519 C 468.042 532.334, 468.311 533, 468.952 533 C 469.593 533, 469.840 532.550, 469.500 532 C 469.160 531.450, 469.333 531, 469.884 531 C 471.360 531, 473.998 535.132, 474.015 537.473 C 474.027 539.015, 474.239 539.171, 474.904 538.122 C 475.815 536.683, 478 537.386, 478 539.118 C 478 539.668, 477.555 539.843, 477.011 539.507 C 476.420 539.142, 476.293 539.600, 476.695 540.648 C 477.103 541.711, 477.523 541.931, 477.764 541.207 C 478.240 539.781, 482 541.456, 482 543.094 C 482 543.657, 481.505 543.812, 480.900 543.438 C 480.127 542.961, 480.138 543.389, 480.935 544.879 C 482.237 547.310, 483.221 547.739, 482.362 545.500 C 481.536 543.349, 483.256 543.651, 485.278 546.011 C 487.183 548.236, 487.540 549.452, 486.011 548.507 C 485.434 548.150, 485.284 548.576, 485.651 549.532 C 486.050 550.572, 486.521 550.775, 486.946 550.088 C 487.662 548.928, 499 559.438, 499 561.262 C 499 561.839, 497.988 561.473, 496.750 560.449 C 495.512 559.426, 501.470 565.656, 509.988 574.294 C 518.506 582.932, 525.695 590, 525.963 590 C 526.231 590, 523.086 586.573, 518.975 582.384 C 514.864 578.195, 512.066 574.933, 512.758 575.136 C 514.470 575.639, 543 604.196, 543 605.408 C 543 605.939, 541.538 605.052, 539.750 603.437 L 536.500 600.500 539.392 603.703 C 540.982 605.464, 542.557 606.831, 542.892 606.740 C 544.270 606.366, 548 609.181, 548 610.594 C 548 611.518, 547.508 611.844, 546.750 611.421 C 546.063 611.038, 548.638 613.937, 552.473 617.862 C 556.308 621.788, 559.669 625, 559.942 625 C 560.214 625, 557.777 622.312, 554.526 619.026 C 551.275 615.741, 548.882 612.785, 549.209 612.458 C 550.135 611.531, 561.998 623.890, 562.015 625.799 C 562.027 627.050, 562.245 627.163, 562.839 626.226 C 563.459 625.249, 564.055 625.403, 565.399 626.889 C 566.363 627.953, 567.255 629.529, 567.381 630.391 C 567.696 632.536, 572.082 637.067, 573.184 636.386 C 574.240 635.734, 581.134 642.974, 580.474 644.042 C 580.225 644.444, 580.778 645.387, 581.703 646.137 C 583.036 647.217, 583.219 647.226, 582.587 646.176 C 581.927 645.080, 582.152 645.078, 583.895 646.167 C 586.107 647.548, 586.909 649.641, 584.750 648.399 C 584.063 648.003, 583.851 648.065, 584.279 648.535 C 584.707 649.006, 585.668 649.481, 586.414 649.590 C 587.159 649.700, 590.345 651.887, 593.492 654.450 C 597.149 657.429, 599.987 659.001, 601.357 658.806 L 603.500 658.500 603.500 623.167 L 603.500 587.834 600 584.786 C 591.308 577.218, 580.978 566.844, 581.421 566.128 C 582.046 565.116, 571.632 554.791, 570.394 555.196 C 569.306 555.551, 564 551.587, 564 550.419 C 564 549.983, 565.462 550.947, 567.250 552.561 L 570.500 555.496 567.054 551.748 C 563.696 548.096, 562.251 546.979, 563.500 549 C 563.840 549.550, 563.641 550, 563.059 550 C 562.477 550, 561.944 549.550, 561.875 549 C 561.806 548.450, 561.694 547.572, 561.625 547.050 C 561.556 546.528, 560.871 545.515, 560.103 544.800 C 558.951 543.728, 558.844 543.742, 559.492 544.880 C 560.028 545.819, 559.835 546.111, 558.889 545.794 C 558.125 545.537, 557.495 544.596, 557.488 543.702 C 557.482 542.808, 556.893 541.497, 556.179 540.788 C 555.118 539.735, 555.010 539.864, 555.586 541.500 C 556.036 542.777, 554.603 541.881, 551.625 539.022 C 549.060 536.560, 547.162 534.020, 547.408 533.379 C 547.654 532.738, 546.654 531.153, 545.185 529.856 C 542.643 527.613, 542.606 527.608, 544.412 529.750 C 545.456 530.987, 545.860 532, 545.310 532 C 543.827 532, 540.718 528.265, 541.350 527.243 C 541.650 526.757, 537.310 521.891, 531.704 516.430 C 526.098 510.968, 524.209 509.365, 527.506 512.866 C 530.803 516.367, 532.600 518.762, 531.500 518.189 C 530.400 517.616, 527.025 514.576, 524 511.433 C 520.975 508.290, 519.063 506.033, 519.750 506.418 C 522.385 507.894, 520.774 505.591, 514.865 499.438 C 511.491 495.924, 508.341 493.289, 507.865 493.583 C 507.389 493.877, 506.993 493.304, 506.985 492.309 C 506.973 490.913, 506.773 490.810, 506.110 491.857 C 505.510 492.803, 505.043 492.878, 504.566 492.107 C 504.190 491.498, 504.123 490.610, 504.417 490.134 C 505.077 489.066, 501.475 485.687, 499.344 485.374 C 498.486 485.248, 496.933 484.231, 495.892 483.114 C 493.780 480.848, 493.387 479.503, 495.155 480.595 C 495.893 481.052, 496.037 480.868, 495.553 480.086 C 495.138 479.414, 494.223 479.084, 493.520 479.354 C 492.817 479.624, 490.837 478.396, 489.121 476.625 C 485.240 472.621, 485.130 469.618, 488.396 456.859 C 491.822 443.472, 493.361 430.834, 492.664 421.795 C 492.295 417.019, 492.438 414, 493.031 414 C 493.564 414, 493.964 412.988, 493.921 411.750 C 493.878 410.512, 493.614 410.065, 493.336 410.756 C 492.541 412.728, 491 411.148, 491 408.362 C 491 406.267, 489.201 400.791, 485.625 392 C 484.353 388.874, 476.339 376.965, 472.500 372.497 C 470.300 369.937, 465.453 365.375, 461.728 362.360 C 458.004 359.346, 455.162 356.546, 455.414 356.140 C 455.665 355.733, 454.887 354.788, 453.685 354.039 C 451.692 352.798, 451.621 352.825, 452.872 354.339 C 454.341 356.117, 453.385 356.530, 451.122 355.096 C 450.364 354.616, 450.007 353.797, 450.329 353.277 C 450.651 352.756, 449.246 351.566, 447.207 350.632 L 443.500 348.935 446 350.945 C 449.258 353.565, 448.082 353.532, 442.952 350.858 C 440.406 349.531, 439.283 348.443, 440.001 348 C 441.686 346.958, 433.943 345.208, 430.127 345.768 C 427.830 346.105, 427.003 345.868, 427.210 344.931 C 427.392 344.111, 426.008 343.343, 423.500 342.870 C 419.422 342.101, 400.603 342.015, 393.668 342.733 M 772.378 374 C 772.378 380.325, 772.541 382.913, 772.739 379.750 C 772.937 376.587, 772.937 371.413, 772.739 368.250 C 772.541 365.087, 772.378 367.675, 772.378 374 M 773.431 452.500 C 773.432 465.700, 773.574 470.962, 773.747 464.193 C 773.921 457.424, 773.920 446.624, 773.746 440.193 C 773.572 433.762, 773.431 439.300, 773.431 452.500 M 508 494.699 C 508 495.317, 509.350 496.958, 511 498.347 C 512.650 499.735, 514 501.302, 514 501.828 C 514 502.786, 516.990 504.343, 517.620 503.713 C 517.804 503.530, 515.714 501.173, 512.977 498.477 C 510.240 495.781, 508 494.081, 508 494.699 M 715.638 539.500 C 715.955 540.325, 715.753 541, 715.190 541 C 714.627 541, 714.005 540.516, 713.808 539.925 C 713.592 539.276, 712.371 539.120, 710.732 539.531 C 709.201 539.915, 708.297 540.671, 708.661 541.261 C 709.054 541.896, 708.823 542.009, 708.078 541.548 C 706.398 540.510, 697.804 543.874, 698.648 545.240 C 699.020 545.842, 698.841 546.020, 698.238 545.647 C 697.650 545.283, 696.118 545.393, 694.834 545.891 C 691.537 547.171, 679.872 557.983, 680.570 559.113 C 680.888 559.628, 680.609 559.926, 679.950 559.775 C 679.291 559.624, 676.783 562.341, 674.376 565.814 C 670.082 572.010, 668.889 574.804, 671.130 573.420 C 671.822 572.992, 672.064 573.260, 671.755 574.111 C 671.477 574.875, 670.760 575.393, 670.160 575.262 C 668.410 574.879, 666.566 582.919, 666.666 590.500 C 666.726 595.026, 666.520 596.440, 666.083 594.500 C 664.435 587.178, 664.012 608.773, 664.234 688.897 C 664.426 758.322, 664.563 765.785, 665 730.500 C 665.497 690.378, 665.557 689.240, 665.904 713.500 C 666.108 727.800, 666.559 802.725, 666.905 880 C 667.264 959.992, 667.923 1021.324, 668.437 1022.414 C 669.088 1023.793, 669.013 1024.126, 668.170 1023.605 C 667.526 1023.207, 667 1021.709, 667 1020.274 C 667 1018.840, 666.730 1017.936, 666.401 1018.266 C 666.071 1018.596, 666.106 1020.668, 666.478 1022.871 C 666.967 1025.766, 667.550 1026.726, 668.578 1026.332 C 669.478 1025.986, 670 1026.437, 670 1027.560 C 670 1029.852, 675.958 1040.678, 680.873 1047.317 C 686.736 1055.236, 690.339 1058.310, 698.767 1062.581 C 706.195 1066.345, 706.946 1066.513, 717.785 1066.837 C 727.144 1067.116, 730.280 1066.806, 736.169 1065.017 C 740.075 1063.831, 744.446 1062.068, 745.885 1061.100 C 747.323 1060.131, 750.138 1058.249, 752.140 1056.917 C 754.142 1055.585, 758.162 1052.471, 761.074 1049.998 C 763.986 1047.524, 769.548 1042.797, 773.434 1039.493 C 777.320 1036.189, 783.200 1031.249, 786.500 1028.515 C 789.800 1025.781, 792.725 1023.252, 793 1022.893 C 793.275 1022.535, 796.875 1019.437, 801 1016.007 C 805.125 1012.578, 808.650 1009.374, 808.833 1008.886 C 809.017 1008.399, 809.628 1008, 810.191 1008 C 810.755 1008, 813.530 1005.790, 816.358 1003.089 C 819.186 1000.389, 825.156 995.101, 829.625 991.339 C 838.241 984.086, 860.741 964.446, 877.557 949.500 C 883.127 944.550, 889.863 938.700, 892.528 936.500 C 895.192 934.300, 902.262 928.225, 908.238 923 C 914.215 917.775, 921.218 911.760, 923.802 909.634 C 926.386 907.508, 934.350 900.597, 941.500 894.278 C 948.650 887.958, 955.846 881.598, 957.491 880.144 C 959.137 878.690, 963.512 874.956, 967.215 871.848 C 970.918 868.739, 974.568 865.589, 975.325 864.848 C 976.083 864.106, 979.094 861.475, 982.017 859 C 996.788 846.492, 1005.153 836.239, 1011.386 823 C 1014.322 816.765, 1014.448 815.950, 1014.473 803 L 1014.500 789.500 1010.747 782.165 C 1008.683 778.131, 1005.330 772.799, 1003.295 770.316 C 999.847 766.107, 983.380 750.564, 969.154 738.091 C 965.761 735.116, 963.215 732.452, 963.496 732.170 C 963.778 731.889, 965.230 732.748, 966.724 734.079 C 968.217 735.411, 968.891 735.779, 968.220 734.897 C 967.549 734.016, 964.187 731.115, 960.750 728.451 C 957.312 725.787, 955.357 724.596, 956.405 725.804 C 960.411 730.423, 956.449 727.664, 947.163 719.368 C 941.848 714.620, 936.600 709.832, 935.500 708.729 L 933.500 706.722 935.500 707.420 C 936.982 707.938, 937.210 707.826, 936.381 706.990 C 935.765 706.369, 934.415 705.720, 933.381 705.548 C 932.346 705.375, 931.591 704.795, 931.703 704.259 C 931.814 703.723, 930.464 701.982, 928.703 700.392 L 925.500 697.500 928.437 700.750 C 930.052 702.538, 930.952 703.999, 930.437 703.999 C 928.768 703.997, 923.796 699.139, 924.424 698.123 C 924.759 697.581, 924.506 696.813, 923.862 696.415 C 923.131 695.963, 922.959 696.124, 923.405 696.845 C 924.567 698.726, 922.551 698.162, 920.166 695.940 C 918.950 694.808, 918.186 693.509, 918.467 693.054 C 918.748 692.599, 918.195 691.613, 917.239 690.863 C 915.665 689.630, 915.630 689.666, 916.872 691.250 C 918.720 693.606, 916.854 693.475, 914.061 691.053 C 912.827 689.982, 912.106 688.637, 912.460 688.065 C 912.822 687.479, 912.529 687.244, 911.792 687.526 C 911.070 687.803, 908.234 685.969, 905.490 683.449 C 900.868 679.206, 900.874 678.255, 905.500 681.865 C 907.212 683.201, 907.189 683.088, 905.340 681.081 C 904.152 679.791, 902.339 678.683, 901.312 678.618 C 899.397 678.497, 894 674.748, 894 673.538 C 894 673.167, 895.350 673.825, 897 675 C 901.262 678.035, 900.728 676.793, 896.329 673.437 C 894.310 671.897, 892.986 671.169, 893.388 671.819 C 895.158 674.683, 891.802 672.346, 882.484 664.227 C 876.976 659.427, 871.200 654.506, 869.650 653.290 C 868.100 652.075, 867.118 650.617, 867.468 650.052 C 867.820 649.482, 867.522 649.246, 866.802 649.522 C 866.086 649.797, 863.700 648.316, 861.500 646.231 C 858.359 643.255, 847.876 634.472, 846.175 633.390 C 845.996 633.276, 845.748 632.489, 845.623 631.640 C 845.227 628.939, 841.800 625.929, 839.832 626.553 C 838.824 626.873, 838 626.680, 838 626.124 C 838 625.568, 836.641 624.310, 834.980 623.329 C 833.319 622.348, 832.164 621.015, 832.413 620.367 C 832.662 619.718, 831.891 618.358, 830.700 617.344 C 828.824 615.747, 828.716 615.734, 829.890 617.250 C 831.807 619.725, 830.025 619.357, 826.623 616.575 C 824.764 615.055, 824.025 613.768, 824.537 612.941 C 825.082 612.058, 824.864 611.838, 823.833 612.234 C 822.408 612.781, 814.757 606.698, 796.622 590.604 C 792.839 587.247, 789.294 584.213, 788.744 583.862 C 788.194 583.511, 788.013 582.789, 788.341 582.257 C 788.913 581.331, 786.048 578.183, 783.095 576.494 C 782.154 575.956, 781.926 576.071, 782.405 576.845 C 783.644 578.851, 781.922 578.106, 777.837 574.871 C 775.404 572.944, 774.097 571.189, 774.436 570.305 C 774.835 569.267, 774.468 569.034, 773.112 569.464 C 771.412 570.004, 769.428 567.849, 769.802 565.869 C 769.867 565.522, 768.934 564.397, 767.728 563.369 C 765.814 561.738, 765.710 561.726, 766.910 563.274 C 769.264 566.312, 767.648 565.998, 763.826 562.676 C 761.816 560.929, 757.876 557.556, 755.070 555.181 C 752.264 552.805, 750.195 550.493, 750.473 550.044 C 750.751 549.594, 750.195 548.613, 749.239 547.863 C 747.665 546.630, 747.630 546.666, 748.872 548.250 C 750.048 549.749, 750.030 550, 748.745 550 C 747.920 550, 746.660 549.295, 745.945 548.434 C 745.230 547.573, 743.361 546.204, 741.790 545.391 C 740.220 544.579, 739.187 543.506, 739.496 543.006 C 740.405 541.535, 727.293 538, 720.926 538 C 716.125 538, 715.167 538.272, 715.638 539.500 M 500 562.568 C 500 563.121, 502.700 566.203, 506 569.418 C 509.300 572.632, 512 574.852, 512 574.350 C 512 573.848, 509.300 570.766, 506 567.500 C 502.700 564.234, 500 562.015, 500 562.568 M 239.725 706.843 C 237.099 707.204, 235.074 707.900, 235.225 708.390 C 235.582 709.545, 227.147 712.047, 226.489 710.981 C 226.213 710.536, 226.553 709.912, 227.244 709.595 C 227.935 709.278, 227.375 709.300, 226 709.644 C 224.625 709.988, 223.187 710.758, 222.804 711.356 C 222.422 711.953, 221.821 712.154, 221.469 711.803 C 220.564 710.897, 214.893 713.018, 215.517 714.028 C 215.801 714.487, 215.506 715.187, 214.862 715.585 C 214.077 716.070, 213.961 715.872, 214.510 714.985 C 215.112 714.010, 214.866 713.837, 213.582 714.330 C 212.622 714.699, 211.397 715, 210.859 715 C 210.322 715, 210.157 715.445, 210.493 715.989 C 210.856 716.576, 210.407 716.710, 209.388 716.319 C 208.132 715.836, 207.891 716.015, 208.490 716.985 C 209.029 717.856, 208.922 718.070, 208.177 717.609 C 206.971 716.864, 196.753 722.927, 195.438 725.167 C 195.008 725.900, 195.634 725.643, 196.828 724.595 C 198.023 723.547, 199 723.162, 199 723.738 C 199 724.741, 196.870 726.014, 194.282 726.558 C 193.612 726.699, 191.362 728.504, 189.282 730.569 C 187.202 732.635, 186.287 733.747, 187.250 733.040 C 189.664 731.267, 189.460 733.273, 187 735.500 C 185.466 736.888, 184.993 736.982, 184.968 735.905 C 184.946 734.915, 184.512 735.061, 183.500 736.397 C 182.710 737.441, 182.344 738.748, 182.687 739.302 C 183.029 739.856, 182.850 740.025, 182.288 739.678 C 180.823 738.773, 177.781 742.490, 177.439 745.604 C 177.279 747.060, 176.665 748.735, 176.074 749.326 C 174.540 750.860, 174.701 748.736, 176.250 746.998 C 177.296 745.826, 177.241 745.790, 175.918 746.781 C 175.048 747.432, 173.104 750.336, 171.598 753.233 C 170.091 756.130, 169.565 757.626, 170.429 756.559 C 172.424 754.094, 172.445 755.240, 170.474 759.050 C 168.803 762.282, 167.694 763.029, 168.691 760.250 C 169.036 759.288, 169.008 758.776, 168.628 759.114 C 167.490 760.127, 166.016 766.108, 167.064 765.460 C 168.404 764.632, 168.221 766.261, 166.539 770.135 C 165.449 772.646, 165.046 772.992, 164.950 771.500 C 164.879 770.400, 164.195 771.750, 163.430 774.500 C 161.825 780.266, 161.712 781.296, 162.750 780.655 C 163.162 780.400, 163.500 787.911, 163.500 797.345 C 163.500 806.780, 163.874 815.850, 164.331 817.500 C 164.946 819.721, 164.885 820.111, 164.096 819 C 163.219 817.765, 163.028 817.916, 163.015 819.857 C 163.005 821.395, 163.456 822.039, 164.312 821.710 C 165.186 821.375, 166.064 822.761, 166.939 825.853 C 168.163 830.180, 173.170 841.245, 176.507 847 C 177.304 848.375, 177.712 850.400, 177.413 851.500 C 177.064 852.784, 177.176 853.062, 177.728 852.276 C 178.330 851.416, 179.897 852.758, 182.982 856.776 C 190.502 866.569, 202.070 875.890, 213.790 881.602 C 223.248 886.212, 223.915 886.459, 232 888.351 C 243.110 890.952, 250.870 891.257, 261.078 889.494 C 291.176 884.295, 312.405 870.551, 325.944 847.500 C 327.236 845.300, 330.080 840.125, 332.265 836 C 334.449 831.875, 336.928 827.712, 337.773 826.750 C 339.222 825.100, 346.745 825, 469.155 825 L 599 825 598.994 804.250 C 598.991 792.837, 598.519 781.808, 597.945 779.741 C 595.769 771.905, 606.962 772.535, 464.204 772.207 C 351.565 771.948, 336.885 771.741, 337.393 770.417 C 337.772 769.432, 337.438 769.019, 336.417 769.210 C 335.348 769.410, 333.098 766.167, 329.183 758.782 C 326.057 752.887, 320.800 744.793, 317.500 740.795 C 314.200 736.797, 311.439 733.071, 311.365 732.513 C 311.291 731.956, 311.172 731.050, 311.100 730.500 C 311.028 729.950, 310.518 730.175, 309.966 731 C 309.088 732.312, 308.794 732.281, 307.624 730.755 C 306.889 729.795, 303.377 726.862, 299.821 724.237 C 294.101 720.015, 290.472 718.089, 282.250 714.912 C 281.012 714.434, 279.993 713.246, 279.985 712.271 C 279.972 710.770, 279.825 710.728, 279.024 711.995 C 278.193 713.310, 277.924 713.297, 276.789 711.885 C 275.444 710.210, 271.848 708.543, 272.262 709.786 C 272.393 710.179, 272.150 710.663, 271.722 710.862 C 270.524 711.418, 261.602 708.974, 260.944 707.909 C 260.197 706.700, 245.961 705.985, 239.725 706.843 M 1338.725 706.907 C 1336.099 707.233, 1333.989 707.950, 1334.034 708.500 C 1334.080 709.050, 1333.079 709.793, 1331.809 710.150 C 1328.152 711.180, 1325.822 711.096, 1326.525 709.960 C 1327.571 708.268, 1321.664 710.118, 1320.282 711.916 C 1319.231 713.282, 1319.050 713.294, 1318.962 712 C 1318.892 710.979, 1318.585 711.138, 1318 712.500 C 1317.527 713.600, 1317.109 713.938, 1317.070 713.250 C 1317.032 712.563, 1316.564 712, 1316.031 712 C 1315.499 712, 1315.299 712.616, 1315.588 713.369 C 1315.900 714.181, 1315.277 714.956, 1314.057 715.275 C 1312.925 715.571, 1312 715.405, 1312 714.906 C 1312 714.408, 1312.525 714, 1313.167 714 C 1313.808 714, 1314.098 713.764, 1313.810 713.476 C 1312.809 712.476, 1310 714.224, 1309.985 715.857 C 1309.971 717.283, 1309.841 717.302, 1309 716 C 1308.172 714.718, 1308.028 714.754, 1308.015 716.250 C 1308.007 717.212, 1307.523 718, 1306.941 718 C 1306.359 718, 1306.165 717.542, 1306.510 716.983 C 1306.856 716.424, 1305.552 716.723, 1303.612 717.648 C 1301.673 718.573, 1300.289 719.658, 1300.537 720.060 C 1300.785 720.462, 1300.293 721.057, 1299.442 721.384 C 1298.492 721.748, 1298.151 721.564, 1298.558 720.906 C 1299.581 719.251, 1293.539 722.640, 1291.927 724.626 C 1291.025 725.737, 1290.960 726.108, 1291.750 725.633 C 1292.438 725.220, 1293 725.332, 1293 725.882 C 1293 727.445, 1290.666 728.497, 1290.213 727.138 C 1289.969 726.408, 1287.951 727.627, 1285.154 730.195 C 1278.640 736.175, 1270.767 745.756, 1272.021 746.174 C 1272.665 746.388, 1272.476 747.290, 1271.532 748.512 C 1270.291 750.117, 1270.112 750.163, 1270.605 748.750 C 1272.044 744.615, 1269.878 747.586, 1266.095 754.933 C 1263.632 759.717, 1262.245 763.586, 1262.600 764.683 C 1263.051 766.074, 1262.958 766.176, 1262.204 765.118 C 1261.412 764.007, 1261.087 764.152, 1260.545 765.859 C 1260.174 767.027, 1260.148 768.431, 1260.487 768.980 C 1260.847 769.562, 1260.441 769.723, 1259.511 769.366 C 1258.478 768.969, 1258.020 769.237, 1258.209 770.127 C 1258.454 771.281, 1244.665 771.541, 1171.768 771.756 L 1085.035 772.011 1084.486 774.256 C 1084.184 775.490, 1084.063 787.300, 1084.218 800.500 L 1084.500 824.500 1171.427 824.756 C 1250.570 824.988, 1258.518 825.159, 1260.177 826.661 C 1262.125 828.423, 1262.632 831, 1261.031 831 C 1260.499 831, 1260.336 831.713, 1260.671 832.584 C 1261.095 833.691, 1261.494 833.819, 1261.994 833.010 C 1262.429 832.307, 1263.553 833.645, 1264.855 836.415 C 1267.435 841.904, 1267.519 842.674, 1265.339 840.872 C 1263.822 839.619, 1263.798 839.691, 1265.055 841.710 C 1265.933 843.119, 1266.679 843.520, 1267.115 842.814 C 1267.525 842.151, 1268.438 842.946, 1269.398 844.803 C 1274.305 854.292, 1284.579 866.251, 1294.155 873.619 C 1298.992 877.342, 1306.599 881.394, 1317.500 886.056 C 1321.684 887.846, 1339.219 891, 1344.982 891 C 1352.478 891, 1368.544 888.287, 1372.179 886.407 C 1373.676 885.633, 1375.486 884.994, 1376.200 884.987 C 1378.191 884.968, 1392.051 877.668, 1399.840 872.536 C 1406.485 868.159, 1416.526 858.325, 1419.789 853 C 1420.631 851.625, 1422.385 848.884, 1423.685 846.910 C 1426.599 842.487, 1432.741 828.242, 1434.642 821.500 C 1437.072 812.880, 1437.524 793.826, 1435.542 783.500 C 1433.795 774.399, 1431.298 766.459, 1428.359 760.669 C 1425.782 755.589, 1418.395 744.796, 1414.929 741.044 C 1413.109 739.074, 1412.226 737.425, 1412.874 737.209 C 1413.500 737, 1413.728 736.370, 1413.381 735.808 C 1412.960 735.127, 1412.524 735.153, 1412.071 735.884 C 1411.652 736.563, 1409.218 734.975, 1405.696 731.723 C 1400.421 726.852, 1398.295 723.920, 1401.250 725.588 C 1402.040 726.034, 1401.994 725.779, 1401.125 724.897 C 1400.011 723.765, 1399.659 723.749, 1399.271 724.811 C 1398.900 725.827, 1398.372 725.741, 1396.920 724.427 C 1395.890 723.495, 1395.285 722.348, 1395.576 721.877 C 1396.146 720.954, 1387.294 714.949, 1385.554 715.079 C 1384.974 715.122, 1385.063 715.385, 1385.750 715.662 C 1386.438 715.940, 1387 716.565, 1387 717.052 C 1387 717.539, 1386.325 717.678, 1385.500 717.362 C 1384.675 717.045, 1384 716.207, 1384 715.500 C 1384 714.793, 1383.302 713.946, 1382.448 713.618 C 1381.558 713.277, 1381.157 713.445, 1381.507 714.011 C 1382.324 715.333, 1380.666 715.261, 1377.547 713.839 C 1376.146 713.201, 1375 712.076, 1375 711.339 C 1375 710.603, 1374.438 709.994, 1373.750 709.986 C 1373.063 709.979, 1371.375 709.715, 1370 709.400 C 1368.040 708.950, 1367.824 709.058, 1369 709.898 C 1370.267 710.803, 1370.189 710.970, 1368.500 710.971 C 1365.067 710.974, 1362 709.820, 1362 708.526 C 1362 706.426, 1349.564 705.561, 1338.725 706.907 M 1082.436 797.500 C 1082.436 811.800, 1082.577 817.511, 1082.748 810.191 C 1082.919 802.871, 1082.918 791.171, 1082.747 784.191 C 1082.575 777.211, 1082.435 783.200, 1082.436 797.500 M 665.470 879 C 665.470 913.375, 665.596 927.438, 665.749 910.250 C 665.903 893.063, 665.903 864.938, 665.749 847.750 C 665.596 830.563, 665.470 844.625, 665.470 879 M 976.572 953.010 C 973.420 956.315, 970.477 958.795, 970.033 958.521 C 968.911 957.827, 966.693 960.695, 967.430 961.887 C 967.762 962.423, 967.506 963.187, 966.862 963.585 C 966.061 964.080, 965.959 963.865, 966.537 962.905 C 967.259 961.707, 967.127 961.708, 965.645 962.912 C 964.665 963.707, 964.328 964.585, 964.874 964.922 C 965.412 965.254, 964.543 967.263, 962.921 969.438 C 959.739 973.706, 958.977 973.567, 961.697 969.215 C 964.338 964.990, 962.643 966.882, 957.432 973.973 C 953.315 979.577, 950.602 985.982, 952.965 984.522 C 954.344 983.669, 966.318 995.676, 965.465 997.057 C 964.973 997.853, 965.098 998.057, 965.810 997.618 C 966.980 996.894, 974.479 1004.252, 1002.329 1033.456 C 1011.223 1042.781, 1031.100 1063.158, 1046.500 1078.738 C 1061.900 1094.318, 1074.405 1107.447, 1074.289 1107.915 C 1074.173 1108.382, 1074.689 1108.705, 1075.436 1108.632 C 1077.059 1108.474, 1103.199 1133.869, 1102.529 1134.953 C 1102.273 1135.367, 1102.749 1136.559, 1103.587 1137.603 C 1105.004 1139.367, 1105.026 1139.325, 1103.910 1137 C 1102.709 1134.501, 1102.710 1134.501, 1104.854 1136.405 C 1106.316 1137.703, 1106.989 1139.456, 1106.965 1141.905 C 1106.929 1145.493, 1104.183 1151.970, 1103.956 1149 C 1103.894 1148.175, 1103.373 1148.790, 1102.799 1150.366 C 1101.993 1152.582, 1102.067 1153.428, 1103.128 1154.100 C 1104.230 1154.798, 1104.178 1154.972, 1102.867 1154.985 C 1101.968 1154.993, 1100.962 1156.013, 1100.630 1157.250 C 1099.744 1160.559, 1099.898 1161.706, 1101 1160 C 1101.759 1158.825, 1101.973 1159.078, 1101.985 1161.168 C 1102.005 1164.652, 1101.021 1167.131, 1099.895 1166.435 C 1099.390 1166.123, 1099 1170.538, 1099 1176.581 C 1099 1184.479, 1099.362 1187.570, 1100.381 1188.390 C 1102.018 1189.705, 1103.599 1198.488, 1102.024 1197.515 C 1101.461 1197.167, 1100.948 1195.896, 1100.884 1194.691 C 1100.799 1193.081, 1100.649 1192.950, 1100.321 1194.198 C 1099.757 1196.339, 1101.783 1200.252, 1103.050 1199.469 C 1103.573 1199.146, 1104 1199.610, 1104 1200.500 C 1104 1201.481, 1103.539 1201.833, 1102.830 1201.395 C 1102.032 1200.902, 1101.873 1201.227, 1102.330 1202.418 C 1102.699 1203.378, 1103.007 1204.914, 1103.015 1205.832 C 1103.027 1207.128, 1103.219 1207.202, 1103.877 1206.165 C 1104.536 1205.125, 1104.838 1205.235, 1105.248 1206.665 C 1105.537 1207.674, 1106.126 1209.361, 1106.556 1210.414 C 1107.109 1211.763, 1106.994 1212.115, 1106.170 1211.605 C 1104.756 1210.731, 1104.670 1211.943, 1106 1214 C 1106.862 1215.333, 1106.973 1215.333, 1107.003 1214 C 1107.021 1213.175, 1108.378 1214.934, 1110.018 1217.910 C 1113.099 1223.500, 1113.723 1225.565, 1112.011 1224.507 C 1111.445 1224.157, 1111.276 1224.557, 1111.616 1225.442 C 1111.943 1226.293, 1112.625 1226.732, 1113.133 1226.418 C 1114.389 1225.641, 1118.054 1230.178, 1117.482 1231.802 C 1117.229 1232.518, 1117.402 1232.869, 1117.866 1232.583 C 1119.231 1231.739, 1123.118 1236.528, 1122.460 1238.243 C 1122.132 1239.098, 1122.339 1240.092, 1122.920 1240.451 C 1123.594 1240.867, 1123.729 1240.450, 1123.293 1239.302 C 1122.917 1238.311, 1126.157 1240.763, 1130.492 1244.750 C 1134.828 1248.737, 1138.732 1252, 1139.168 1252 C 1139.604 1252, 1142.332 1253.492, 1145.231 1255.316 C 1153.380 1260.443, 1157.464 1262.048, 1167.872 1264.209 C 1183.900 1267.538, 1206.604 1265.243, 1219.527 1258.987 C 1221.785 1257.894, 1223.943 1257, 1224.325 1257 C 1226.634 1257, 1242.745 1245.024, 1249.500 1238.286 C 1255.893 1231.909, 1258.448 1228.418, 1262.219 1220.903 C 1264.815 1215.732, 1267.202 1210.613, 1267.523 1209.528 C 1267.962 1208.048, 1268.309 1207.882, 1268.915 1208.862 C 1269.547 1209.885, 1269.858 1209.814, 1270.349 1208.532 C 1270.716 1207.576, 1270.566 1207.150, 1269.989 1207.507 C 1268.570 1208.384, 1268.739 1206.545, 1271.105 1195.409 C 1273.487 1184.190, 1273.243 1169.017, 1270.519 1159 C 1268.792 1152.649, 1268.631 1150.654, 1269.907 1151.442 C 1270.405 1151.751, 1270.568 1151.064, 1270.268 1149.917 C 1269.915 1148.567, 1269.470 1148.240, 1269.006 1148.990 C 1268.571 1149.694, 1267.448 1148.357, 1266.145 1145.585 C 1264.965 1143.075, 1264 1140.777, 1264 1140.479 C 1264 1140.180, 1261.892 1136.687, 1259.317 1132.718 C 1252.929 1122.874, 1238.054 1108.268, 1230.768 1104.685 C 1227.619 1103.137, 1225.087 1101.562, 1225.140 1101.185 C 1225.399 1099.353, 1224.883 1098.637, 1224.144 1099.801 C 1222.916 1101.738, 1217.977 1099.323, 1218.673 1097.126 C 1219.077 1095.852, 1218.979 1095.793, 1218.219 1096.857 C 1217.181 1098.310, 1212.568 1097.508, 1213.480 1096.033 C 1213.760 1095.580, 1213.339 1094.960, 1212.545 1094.656 C 1211.547 1094.273, 1211.287 1094.584, 1211.702 1095.666 C 1212.153 1096.840, 1211.828 1097.092, 1210.401 1096.675 C 1209.356 1096.369, 1206.574 1095.621, 1204.220 1095.013 C 1201.866 1094.404, 1200.209 1093.470, 1200.539 1092.936 C 1200.918 1092.324, 1199.048 1092.212, 1195.471 1092.632 C 1191.145 1093.141, 1189.593 1092.967, 1188.917 1091.899 C 1188.213 1090.789, 1188.027 1090.774, 1188.015 1091.830 C 1188.003 1092.868, 1186.600 1093.009, 1181.613 1092.475 C 1174.477 1091.711, 1168.933 1092.542, 1169.275 1094.324 C 1169.405 1095.004, 1168.024 1095.619, 1166 1095.782 C 1163.368 1095.994, 1162.872 1095.812, 1164 1095.047 C 1165.295 1094.170, 1165.266 1094.029, 1163.789 1094.015 C 1162.848 1094.007, 1161.140 1095.006, 1159.994 1096.237 C 1158.355 1097.996, 1157.734 1098.187, 1157.083 1097.134 C 1156.410 1096.046, 1155.364 1096.188, 1151.519 1097.889 C 1148.914 1099.041, 1146.420 1099.760, 1145.977 1099.486 C 1145.533 1099.212, 1144.967 1099.553, 1144.718 1100.244 C 1144.263 1101.505, 1135.354 1093.051, 1088 1046.425 C 1074.525 1033.158, 1060.601 1019.647, 1057.058 1016.401 C 1053.516 1013.155, 1048.738 1008.700, 1046.441 1006.500 C 1044.144 1004.300, 1039.843 1000.318, 1036.882 997.651 C 1033.922 994.983, 1021.825 983.434, 1010 971.986 C 990.059 952.681, 983.862 947, 982.744 947 C 982.502 947, 979.725 949.704, 976.572 953.010 M 598 952.393 C 598 953.159, 597.261 954.069, 596.359 954.416 C 594.920 954.968, 594.889 954.827, 596.109 953.273 C 597.399 951.629, 597.354 951.606, 595.500 952.953 C 591.295 956.007, 589.081 958.322, 589.586 959.140 C 590.201 960.134, 575.974 974.307, 575.169 973.503 C 574.870 973.203, 576.172 971.636, 578.063 970.020 C 579.953 968.404, 581.031 967.063, 580.458 967.041 C 579.885 967.018, 577.429 969.025, 575 971.500 C 572.571 973.975, 571.090 976, 571.708 976 C 572.327 976, 573.060 975.438, 573.338 974.750 C 573.615 974.063, 573.878 973.984, 573.921 974.576 C 573.964 975.167, 572.850 976.732, 571.444 978.052 C 569.190 980.170, 568.971 980.220, 569.590 978.476 C 570.032 977.228, 568.609 978.113, 565.726 980.879 C 563.216 983.287, 561.364 985.784, 561.610 986.427 C 561.857 987.070, 560.921 988.665, 559.529 989.972 C 558.138 991.279, 557 991.806, 557 991.143 C 557 990.480, 557.675 989.678, 558.500 989.362 C 559.325 989.045, 560 988.281, 560 987.664 C 560 987.047, 555.950 990.573, 551 995.500 C 546.050 1000.427, 542 1004.918, 542.001 1005.479 C 542.001 1006.041, 543.576 1004.731, 545.501 1002.568 C 547.425 1000.406, 549 999.015, 549 999.478 C 549 1001.013, 538.094 1011.782, 537.706 1010.630 C 537.127 1008.913, 533.918 1011.922, 534.237 1013.883 C 534.382 1014.773, 534.012 1015.412, 533.414 1015.305 C 532.817 1015.197, 529.667 1017.848, 526.414 1021.194 C 523.162 1024.541, 521.063 1026.965, 521.750 1026.581 C 523.457 1025.627, 523.336 1027.476, 521.597 1028.919 C 520.608 1029.740, 520.087 1029.762, 519.831 1028.993 C 519.631 1028.393, 518.125 1029.385, 516.484 1031.198 C 513.704 1034.267, 513.688 1034.327, 516.250 1032.072 C 517.763 1030.741, 518.996 1030.067, 518.991 1030.576 C 518.978 1031.985, 511.859 1039.192, 511.166 1038.499 C 510.831 1038.165, 511.220 1037.431, 512.029 1036.869 C 513.314 1035.977, 513.311 1035.900, 512 1036.262 C 511.175 1036.490, 510.500 1037.537, 510.500 1038.588 C 510.500 1041.273, 509.183 1043, 507.137 1043 C 506.178 1043, 503.842 1044.688, 501.946 1046.750 L 498.500 1050.500 502.250 1047.054 C 504.313 1045.158, 506 1044.046, 506 1044.581 C 506 1045.117, 500.682 1050.830, 494.183 1057.277 C 483.347 1068.026, 479.736 1071.028, 481.588 1067.750 C 481.976 1067.063, 480.428 1068.279, 478.147 1070.453 C 475.866 1072.627, 474 1074.628, 474 1074.899 C 474 1075.170, 475.575 1073.866, 477.500 1072 C 479.425 1070.134, 481 1069.043, 481 1069.575 C 481 1070.107, 476.888 1074.582, 471.863 1079.521 C 466.838 1084.459, 463.022 1087.651, 463.384 1086.614 C 463.746 1085.577, 461.782 1087.135, 459.021 1090.076 C 453.951 1095.477, 452.608 1097.394, 455.663 1094.872 C 457.088 1093.696, 457.254 1093.714, 456.824 1095 C 456.549 1095.825, 455.238 1096.500, 453.912 1096.500 C 452.213 1096.500, 451.582 1096.995, 451.776 1098.174 C 452.256 1101.080, 447.559 1101.550, 439.801 1099.374 C 438.735 1099.075, 438.305 1098.264, 438.645 1097.199 C 439.058 1095.910, 438.958 1095.823, 438.231 1096.837 C 437.067 1098.465, 432.400 1097.944, 432.750 1096.226 C 433.036 1094.825, 431.391 1094.558, 430.578 1095.873 C 430.282 1096.353, 427.442 1096.136, 424.269 1095.389 C 421.096 1094.642, 416.700 1094.017, 414.500 1094 C 411.545 1093.977, 410.892 1093.716, 412 1093 C 413.915 1091.762, 394.380 1091.762, 391.500 1093 C 390.400 1093.473, 390.089 1093.891, 390.809 1093.930 C 391.529 1093.968, 391.840 1094.450, 391.500 1095 C 390.707 1096.283, 387 1096.309, 387 1095.031 C 387 1094.499, 386.339 1094.316, 385.532 1094.626 C 384.724 1094.936, 384.162 1095.683, 384.282 1096.285 C 384.402 1096.888, 383.659 1097.564, 382.632 1097.787 C 381.558 1098.020, 381.027 1097.766, 381.383 1097.189 C 381.756 1096.585, 381.173 1096.404, 379.917 1096.732 C 378.481 1097.107, 378.211 1097.513, 379.051 1098.031 C 379.919 1098.568, 379.675 1099.104, 378.201 1099.893 C 375.330 1101.429, 374.526 1101.276, 376.019 1099.477 C 377.076 1098.204, 377.014 1098.057, 375.641 1098.584 C 374.739 1098.931, 374 1099.793, 374 1100.500 C 374 1101.207, 373.261 1102.069, 372.359 1102.416 C 370.926 1102.965, 370.895 1102.832, 372.109 1101.368 C 373.409 1099.800, 373.288 1099.800, 370.250 1101.371 C 368.462 1102.295, 367 1103.291, 367 1103.585 C 367 1103.878, 367.520 1103.797, 368.155 1103.405 C 368.876 1102.959, 369.037 1103.131, 368.585 1103.862 C 368.187 1104.506, 367.444 1104.774, 366.933 1104.458 C 365.724 1103.711, 361.500 1106.674, 361.500 1108.269 C 361.500 1108.946, 360.541 1109.549, 359.368 1109.608 C 356.592 1109.748, 348.872 1115.959, 349.690 1117.394 C 350.037 1118.002, 349.952 1118.166, 349.502 1117.759 C 348.370 1116.733, 346 1118.880, 346 1120.931 C 346 1121.859, 345.288 1123.491, 344.418 1124.559 C 343.068 1126.216, 342.917 1126.244, 343.387 1124.750 C 344.286 1121.891, 343.288 1122.721, 339.894 1127.654 C 338.133 1130.214, 337.211 1131.988, 337.846 1131.595 C 339.513 1130.565, 339.264 1132.294, 337.418 1134.559 C 336.068 1136.216, 335.917 1136.244, 336.387 1134.750 C 337.465 1131.321, 335.993 1133.083, 333.463 1138.250 C 331.172 1142.926, 331.125 1143.227, 333.029 1141 L 335.167 1138.500 333.400 1141.696 C 332.428 1143.453, 331.313 1144.693, 330.921 1144.451 C 330.530 1144.209, 329.912 1144.788, 329.548 1145.737 C 329.183 1146.686, 329.290 1147.597, 329.784 1147.761 C 330.813 1148.104, 328.904 1155, 327.780 1155 C 327.378 1155, 327.501 1153.813, 328.053 1152.361 C 328.605 1150.910, 328.863 1149.530, 328.628 1149.294 C 328.392 1149.059, 327.652 1150.525, 326.983 1152.552 C 326.019 1155.472, 326.025 1156.397, 327.011 1157.007 C 327.696 1157.430, 327.917 1158.325, 327.503 1158.995 C 326.924 1159.932, 326.552 1159.900, 325.890 1158.857 C 325.206 1157.777, 325.027 1157.832, 325.015 1159.125 C 325.007 1160.019, 324.781 1162.269, 324.514 1164.125 C 324.117 1166.874, 324.179 1167.036, 324.848 1165 C 325.349 1163.475, 325.636 1167.958, 325.584 1176.500 C 325.538 1184.200, 325.848 1192.446, 326.274 1194.824 C 326.789 1197.702, 326.705 1198.936, 326.024 1198.515 C 325.461 1198.167, 325 1198.584, 325 1199.441 C 325 1200.298, 325.501 1200.887, 326.114 1200.750 C 327.645 1200.406, 331.333 1211.176, 329.972 1212.017 C 329.283 1212.443, 329.261 1213.466, 329.905 1215.078 C 330.751 1217.194, 330.884 1217.248, 330.956 1215.500 C 331.001 1214.400, 332.995 1217.444, 335.388 1222.265 C 344.947 1241.525, 367.164 1258.576, 389 1263.412 C 410.399 1268.150, 426.999 1266.098, 447.500 1256.179 C 467.219 1246.638, 479.574 1232.872, 487.921 1211.142 C 491.400 1202.085, 492.333 1193.765, 491.692 1177.522 C 491.244 1166.186, 490.564 1160.783, 488.921 1155.500 C 485.477 1144.429, 485.373 1141.503, 488.290 1137.734 C 492.833 1131.864, 496.655 1127.943, 548.941 1075.500 C 591.086 1033.230, 601.030 1022.752, 602.086 1019.500 C 602.991 1016.714, 603.496 1006.639, 603.748 986.305 L 604.110 957.110 601.805 954.805 C 600.537 953.537, 599.612 952.163, 599.750 951.750 C 599.888 951.337, 599.550 951, 599 951 C 598.450 951, 598 951.627, 598 952.393 M 815 1084.992 C 813.550 1086.121, 811.660 1086.714, 810.500 1086.404 C 809.147 1086.042, 808.912 1086.157, 809.774 1086.758 C 811.079 1087.670, 809.642 1089.490, 806 1091.540 C 804.707 1092.267, 804.689 1092.150, 805.872 1090.692 C 806.799 1089.550, 806.872 1089, 806.098 1089 C 805.467 1089, 804.539 1090.081, 804.037 1091.403 C 803.534 1092.724, 802.533 1094.161, 801.812 1094.595 C 800.940 1095.119, 801.004 1094.761, 802 1093.528 C 803.404 1091.791, 803.360 1091.747, 801.306 1092.842 C 800.099 1093.485, 798.792 1094.528, 798.401 1095.160 C 797.962 1095.870, 798.132 1096.036, 798.845 1095.595 C 799.480 1095.203, 799.981 1095.246, 799.958 1095.691 C 799.934 1096.136, 798.247 1097.559, 796.208 1098.854 L 792.500 1101.208 795 1098.446 L 797.500 1095.683 794.289 1098.001 C 792.523 1099.275, 791.355 1100.766, 791.694 1101.314 C 792.032 1101.861, 791.880 1102.044, 791.355 1101.719 C 790.495 1101.188, 786.459 1104.004, 780.242 1109.472 C 779.009 1110.557, 778 1112.189, 778 1113.100 C 778 1114.010, 777.325 1115.315, 776.500 1116 C 775.194 1117.084, 774.998 1125.936, 774.985 1184.372 C 774.975 1225.985, 774.601 1252.070, 774 1253 C 773.249 1254.163, 773.001 1253.825, 772.897 1251.500 L 772.763 1248.500 772.090 1251.500 C 771.719 1253.150, 771.833 1254.789, 772.343 1255.143 C 772.853 1255.496, 772.252 1256.330, 771.008 1256.996 C 769.238 1257.943, 768.583 1257.943, 767.998 1256.996 C 767.463 1256.131, 767.055 1256.102, 766.566 1256.893 C 766.190 1257.502, 766.246 1258.007, 766.691 1258.015 C 767.758 1258.036, 764.757 1259.965, 763.628 1259.985 C 763.148 1259.993, 763.324 1259.315, 764.019 1258.477 C 765.076 1257.204, 765.014 1257.057, 763.641 1257.584 C 762.739 1257.931, 762 1258.769, 762 1259.446 C 762 1260.124, 760.763 1261.214, 759.250 1261.867 L 756.500 1263.055 759 1261.016 L 761.500 1258.978 757 1260.935 C 754.525 1262.012, 752.355 1263.592, 752.177 1264.446 C 751.999 1265.301, 751.410 1266, 750.868 1266 C 750.326 1266, 750.213 1265.464, 750.618 1264.809 C 751.488 1263.401, 744.888 1267.310, 740.250 1270.950 C 738.463 1272.352, 737 1274.089, 737 1274.809 C 737 1275.529, 736.555 1275.843, 736.011 1275.507 C 735.423 1275.144, 735.291 1275.595, 735.685 1276.622 C 736.191 1277.940, 735.955 1278.197, 734.686 1277.710 C 733.772 1277.359, 733.131 1277.393, 733.262 1277.786 C 733.393 1278.179, 733.184 1278.500, 732.798 1278.500 C 731.221 1278.500, 723.995 1286.545, 724.467 1287.776 C 724.748 1288.506, 724.581 1288.859, 724.098 1288.561 C 723.614 1288.262, 722.425 1289.251, 721.455 1290.759 L 719.690 1293.500 722.034 1291.500 L 724.378 1289.500 722.121 1292.750 C 720.103 1295.655, 717.956 1297.499, 719.500 1295 C 720.902 1292.731, 719.095 1294.206, 717.511 1296.623 C 716.566 1298.066, 716.348 1298.903, 717.026 1298.484 C 717.832 1297.986, 718.084 1298.203, 717.755 1299.111 C 717.477 1299.875, 716.806 1300.408, 716.264 1300.296 C 715.722 1300.184, 714.741 1301.273, 714.084 1302.715 C 713.038 1305.010, 713.077 1305.181, 714.393 1304.089 C 715.384 1303.267, 715.103 1304.487, 713.569 1307.671 C 710.752 1313.520, 708.006 1321.443, 707.985 1323.785 C 707.972 1325.258, 707.832 1325.288, 707 1324 C 705.829 1322.188, 705.963 1320.266, 705.701 1342.623 C 705.561 1354.504, 705.829 1359.619, 706.576 1359.333 C 707.186 1359.099, 708.132 1361.208, 708.763 1364.210 C 709.374 1367.119, 710.193 1370.804, 710.582 1372.399 C 711.129 1374.640, 710.995 1375.115, 709.990 1374.494 C 709.108 1373.949, 708.933 1374.083, 709.446 1374.912 C 709.861 1375.584, 710.473 1375.860, 710.807 1375.527 C 711.140 1375.193, 713.286 1378.928, 715.576 1383.827 C 720.450 1394.253, 726.027 1402.152, 734.441 1410.545 C 741.856 1417.943, 746.715 1421.236, 759 1427.189 C 787.791 1441.140, 818.685 1439.484, 848 1422.418 C 858.515 1416.297, 872.978 1402.748, 878.738 1393.622 C 883.004 1386.866, 889.539 1371.030, 891.583 1362.500 C 896.437 1342.241, 891.612 1313.937, 880.260 1296.088 C 878.366 1293.111, 872.696 1286.612, 867.659 1281.646 C 862.621 1276.679, 859.288 1272.913, 860.250 1273.276 C 862.687 1274.197, 862.441 1273.306, 859.879 1271.935 C 858.389 1271.138, 857.961 1271.127, 858.438 1271.900 C 858.812 1272.505, 858.668 1273, 858.118 1273 C 857.568 1273, 856.837 1272.545, 856.493 1271.989 C 855.216 1269.923, 829.432 1259, 825.832 1259 C 824.889 1259, 823.907 1258.658, 823.648 1258.240 C 823.390 1257.822, 822.900 1219.684, 822.559 1173.490 C 822.218 1127.295, 821.678 1088.037, 821.358 1086.250 C 820.682 1082.466, 818.736 1082.081, 815 1084.992 M 704.374 1341.500 C 704.376 1347.550, 704.541 1349.896, 704.740 1346.713 C 704.939 1343.531, 704.937 1338.581, 704.736 1335.713 C 704.535 1332.846, 704.372 1335.450, 704.374 1341.500" stroke="none" fill="#04eb44" fill-rule="evenodd"/></svg>