<svg xmlns="http://www.w3.org/2000/svg" width="1600" height="1600" viewBox="0 0 1600 1600" version="1.1"><path d="M 775.941 162.712 C 773.499 163.408, 770.600 164.355, 769.500 164.815 C 764.171 167.049, 757.129 170.557, 753.750 172.663 C 739.157 181.758, 738.213 183.673, 752.344 175.514 C 758.907 171.724, 764.104 169.514, 768.728 168.544 C 772.453 167.763, 777.961 166.421, 780.968 165.562 C 790.363 162.878, 814.098 163.669, 821.500 166.912 C 822.600 167.394, 825.750 168.546, 828.500 169.472 C 834.003 171.325, 834.518 171.537, 844.215 175.950 C 861.391 183.767, 884.815 210.461, 888.573 226.500 C 888.959 228.150, 889.622 229.950, 890.045 230.500 C 891.629 232.558, 893 243.735, 893 254.596 C 893 266.047, 891.478 276.168, 888.279 286 C 885.968 293.102, 878.130 307.377, 872.809 314.174 C 862.416 327.453, 844.269 342.646, 836.482 344.590 C 834.842 344.999, 831.250 346.388, 828.500 347.676 L 823.500 350.018 828.143 349.589 C 830.696 349.353, 835.421 347.905, 838.643 346.370 C 841.864 344.835, 845.306 343.449, 846.292 343.290 C 847.278 343.130, 849.050 342.100, 850.231 341 C 851.411 339.900, 852.967 339, 853.689 339 C 854.410 339, 855 338.580, 855 338.067 C 855 337.554, 855.819 336.875, 856.820 336.557 C 859.598 335.675, 875.528 319.209, 880.121 312.472 C 890.340 297.483, 895.532 283.441, 896.967 266.914 C 898.016 254.832, 897.514 242.498, 895.889 240.426 C 895.426 239.835, 895.236 238.373, 895.466 237.176 C 895.697 235.979, 895.461 235, 894.943 235 C 894.424 235, 894.086 234.662, 894.190 234.250 C 894.488 233.077, 892.923 226.812, 891.504 223.500 C 890.797 221.850, 889.506 218.607, 888.635 216.292 C 886.911 211.715, 878.179 199, 876.760 199 C 876.277 199, 876.102 198.645, 876.370 198.210 C 876.638 197.776, 875.652 196.607, 874.179 195.612 C 872.706 194.617, 869.948 191.774, 868.051 189.294 C 866.153 186.814, 863.453 184.062, 862.051 183.178 C 860.648 182.295, 858.182 180.323, 856.571 178.796 C 854.960 177.270, 852.776 175.746, 851.718 175.410 C 850.660 175.075, 848.202 173.720, 846.257 172.400 C 844.312 171.080, 841.482 170, 839.967 170 C 838.453 170, 836.966 169.353, 836.662 168.562 C 836.078 167.041, 829.255 164.724, 827.873 165.578 C 827.425 165.855, 825.646 165.351, 823.919 164.458 C 822.193 163.565, 821.081 163.322, 821.449 163.917 C 821.817 164.513, 821.641 165, 821.059 165 C 820.477 165, 820 164.270, 820 163.378 C 820 162.079, 819.713 161.993, 818.560 162.951 C 817.069 164.187, 812.921 164.064, 811.944 162.755 C 810.923 161.387, 780.716 161.351, 775.941 162.712 M 739.257 182.375 C 732.730 188.284, 722 199.640, 722 200.640 C 722 201.333, 721.212 202.359, 720.250 202.920 C 719.288 203.481, 719.009 203.953, 719.631 203.970 C 720.254 203.986, 722.023 202.348, 723.563 200.328 C 726.907 195.945, 738.592 184.303, 740.180 183.773 C 740.796 183.568, 741.120 182.916, 740.900 182.325 C 740.619 181.571, 740.129 181.586, 739.257 182.375 M 703.168 267.385 C 702.934 271.397, 705.167 283, 706.173 283 C 706.628 283, 707 283.748, 707 284.662 C 707 287.314, 710.284 297, 711.183 297 C 711.632 297, 712 297.507, 712 298.126 C 712 298.746, 713.320 301.851, 714.934 305.026 C 716.547 308.201, 717.560 311.141, 717.184 311.560 C 716.808 311.978, 717.049 312.005, 717.721 311.619 C 718.500 311.172, 719.171 311.835, 719.577 313.452 C 719.927 314.846, 720.616 315.737, 721.109 315.433 C 721.601 315.129, 722.459 316.076, 723.015 317.538 C 723.885 319.827, 733.530 330.092, 735.399 330.718 C 735.756 330.838, 737.543 332.075, 739.369 333.468 C 741.195 334.861, 743.209 336, 743.844 336 C 744.480 336, 745 336.348, 745 336.773 C 745 337.198, 746.688 338.434, 748.750 339.520 C 750.813 340.606, 753.094 342.058, 753.820 342.746 C 754.546 343.434, 756.233 344.271, 757.570 344.607 C 758.906 344.942, 760 345.693, 760 346.275 C 760 346.857, 760.284 347.049, 760.631 346.702 C 760.979 346.355, 762.204 346.730, 763.354 347.535 C 765.749 349.213, 769 349.480, 769 348 C 769 347.450, 768.570 347, 768.043 347 C 766.460 347, 751.819 339.658, 747.049 336.473 C 740.592 332.160, 727.315 318.648, 722.020 311 C 720.687 309.075, 719.350 307.275, 719.048 307 C 716.333 304.524, 708.686 287.392, 706.996 280 C 706.304 276.975, 705.381 274.044, 704.944 273.487 C 704.507 272.930, 703.966 270.680, 703.743 268.487 C 703.447 265.590, 703.290 265.289, 703.168 267.385 M 1166 341.090 C 1166 341.468, 1164.313 342.093, 1162.250 342.478 C 1160.188 342.864, 1157.957 343.627, 1157.294 344.176 C 1156.630 344.724, 1155.618 344.882, 1155.044 344.527 C 1154.470 344.172, 1154 344.350, 1154 344.922 C 1154 345.494, 1152.875 346.244, 1151.500 346.589 C 1150.125 346.934, 1149 347.574, 1149 348.011 C 1149 348.447, 1147.660 349.271, 1146.022 349.842 C 1144.385 350.413, 1142.022 351.843, 1140.772 353.019 L 1138.500 355.157 1141.500 353.849 C 1143.150 353.129, 1144.725 352.273, 1145 351.945 C 1146.041 350.705, 1163.682 344.162, 1167.745 343.508 C 1173.153 342.639, 1173.997 341.335, 1169.492 340.809 C 1167.571 340.585, 1166 340.711, 1166 341.090 M 395.773 342.482 C 392.623 343.159, 389.852 343.519, 389.616 343.283 C 389.379 343.046, 387.907 343.514, 386.343 344.322 C 384.779 345.131, 382.150 345.945, 380.500 346.133 C 378.850 346.321, 375.180 347.718, 372.345 349.237 C 369.510 350.757, 366.446 352, 365.536 352 C 364.626 352, 364.121 352.387, 364.414 352.860 C 364.706 353.334, 363.184 354.515, 361.032 355.486 C 358.879 356.456, 356.880 357.869, 356.590 358.625 C 356.300 359.381, 355.462 360, 354.728 360 C 353.494 360, 349.240 364.058, 346.056 368.273 C 344.904 369.798, 344.936 369.962, 346.281 369.446 C 347.142 369.115, 348.082 368.229, 348.371 367.475 C 348.660 366.721, 350.383 365.341, 352.199 364.408 C 354.014 363.474, 356.625 361.852, 358 360.802 C 368.447 352.826, 383.192 347.197, 396.500 346.105 C 413.423 344.715, 424.831 345.448, 434.112 348.521 C 438.725 350.048, 442.725 351.620, 443 352.014 C 443.275 352.408, 444.625 353.066, 446 353.477 C 449.161 354.421, 457.753 359.548, 460.886 362.359 L 463.271 364.500 462.075 362.202 C 461.417 360.938, 459.781 359.487, 458.439 358.977 C 457.098 358.467, 456 357.643, 456 357.146 C 456 356.649, 454.650 355.683, 453 355 C 451.350 354.317, 450 353.391, 450 352.943 C 450 352.496, 448.449 351.569, 446.553 350.883 C 444.658 350.198, 443.375 349.203, 443.702 348.673 C 444.064 348.088, 443.256 347.970, 441.649 348.373 C 440.192 348.739, 439 348.641, 439 348.156 C 439 347.670, 436.300 346.700, 433 346 C 429.700 345.300, 427 344.426, 427 344.059 C 427 343.692, 425.128 343.281, 422.841 343.146 C 420.554 343.011, 417.966 342.547, 417.091 342.115 C 414.629 340.899, 402.139 341.114, 395.773 342.482 M 1226 349.496 C 1226 349.725, 1229.247 351.808, 1233.215 354.126 C 1237.184 356.443, 1241.479 359.388, 1242.761 360.670 C 1244.042 361.951, 1245.379 363, 1245.731 363 C 1246.083 363, 1247.413 363.978, 1248.686 365.174 C 1249.958 366.370, 1251 366.873, 1251 366.292 C 1251 364.552, 1242.884 356.982, 1238.766 354.881 C 1236.656 353.804, 1235.204 352.479, 1235.539 351.937 C 1235.874 351.394, 1235.778 351.015, 1235.324 351.094 C 1233.319 351.442, 1230.923 350.934, 1231.344 350.250 C 1231.597 349.837, 1230.499 349.406, 1228.903 349.290 C 1227.306 349.175, 1226 349.268, 1226 349.496 M 1253 369.282 C 1256.828 372.390, 1266.208 385.837, 1267.462 390.013 C 1267.872 391.381, 1268.866 393.542, 1269.670 394.815 C 1270.474 396.089, 1271.752 399.914, 1272.510 403.315 C 1273.268 406.717, 1274.636 412.200, 1275.551 415.500 C 1279.397 429.368, 1275.192 454.328, 1266.368 470 C 1260.935 479.650, 1245.450 497.097, 1238.203 501.733 C 1235.129 503.700, 1229.213 506.848, 1225.057 508.730 C 1220.901 510.612, 1215.925 512.900, 1214 513.815 C 1211.197 515.148, 1206.567 515.549, 1190.750 515.830 C 1179.888 516.023, 1171 516.565, 1171 517.036 C 1171 518.189, 1205.840 518.068, 1206.554 516.912 C 1207.423 515.507, 1209.213 515.832, 1208.412 517.250 C 1207.869 518.213, 1207.998 518.231, 1208.975 517.328 C 1209.673 516.684, 1210.870 516.396, 1211.635 516.690 C 1212.400 516.984, 1213.582 516.802, 1214.263 516.287 C 1214.943 515.772, 1218.313 514.526, 1221.750 513.517 C 1225.188 512.509, 1228 511.400, 1228 511.054 C 1228 510.709, 1228.878 510.359, 1229.951 510.279 C 1231.025 510.198, 1233.162 509.259, 1234.701 508.194 C 1236.241 507.128, 1239.750 505.006, 1242.500 503.480 C 1247.885 500.491, 1261.465 487.260, 1262.502 483.993 C 1262.850 482.897, 1263.493 482, 1263.931 482 C 1264.600 482, 1270.083 471.087, 1270.588 468.750 C 1270.677 468.337, 1270.844 467.887, 1270.958 467.750 C 1271.073 467.613, 1271.282 466.446, 1271.423 465.158 C 1271.564 463.870, 1272.113 462.520, 1272.644 462.158 C 1274.538 460.866, 1280.114 444.053, 1280.224 439.300 C 1280.464 429.002, 1278.388 410, 1277.023 410 C 1276.611 410, 1275.700 407.300, 1275 404 C 1274.300 400.700, 1273.380 398, 1272.957 398 C 1272.534 398, 1272.423 397.100, 1272.710 396 C 1273.003 394.882, 1272.741 394, 1272.117 394 C 1271.502 394, 1271 393.127, 1271 392.059 C 1271 390.991, 1270.602 389.872, 1270.116 389.572 C 1269.630 389.271, 1268.230 386.882, 1267.006 384.263 C 1265.782 381.643, 1264.184 378.825, 1263.456 378 C 1257.901 371.706, 1253.955 368.005, 1252.828 368.032 C 1251.813 368.056, 1251.853 368.351, 1253 369.282 M 493.185 428.691 C 493.083 436.496, 493.337 443.092, 493.750 443.349 C 494.163 443.605, 494.381 439.469, 494.235 434.158 C 493.745 416.338, 493.371 414.393, 493.185 428.691 M 332.040 473.216 C 331.970 474.474, 335.343 481, 336.064 481 C 336.445 481, 337.270 482.238, 337.897 483.750 C 338.991 486.387, 347.723 495.309, 353.313 499.500 C 354.780 500.600, 357.222 502.525, 358.740 503.778 C 362.938 507.244, 363.046 507.311, 370.026 510.718 C 373.615 512.471, 378.565 514.173, 381.026 514.500 L 385.500 515.096 379.500 512.530 C 360.333 504.332, 351.135 497.704, 340.411 484.365 C 338.260 481.689, 336.228 479.275, 335.895 479 C 335.563 478.725, 334.568 477.150, 333.685 475.500 C 332.802 473.850, 332.062 472.822, 332.040 473.216 M 1086.871 490.481 C 1083.225 493.466, 1079.890 495.592, 1079.461 495.204 C 1079.031 494.817, 1078.987 495.037, 1079.363 495.693 C 1080.193 497.141, 1071.078 506.166, 1069.667 505.294 C 1069.130 504.962, 1068.992 505.178, 1069.360 505.773 C 1069.728 506.369, 1069.116 507.146, 1068 507.500 C 1066.884 507.854, 1066.176 508.475, 1066.426 508.880 C 1066.676 509.284, 1065.703 510.489, 1064.265 511.558 C 1062.827 512.626, 1061.166 514.083, 1060.575 514.797 C 1057.189 518.881, 1044.755 531, 1043.952 531 C 1043.428 531, 1043 531.357, 1043 531.793 C 1043 533.148, 1021.167 555.497, 1019.796 555.545 C 1019.083 555.570, 1018.608 556.120, 1018.740 556.766 C 1018.872 557.412, 1018.078 558.423, 1016.975 559.013 C 1015.873 559.603, 1013.893 561.754, 1012.575 563.793 C 1009.487 568.571, 978.047 600.587, 976.799 600.225 C 976.278 600.074, 976.116 600.379, 976.440 600.903 C 976.764 601.427, 976.146 602.136, 975.066 602.479 C 973.986 602.822, 972.824 603.979, 972.484 605.051 C 972.144 606.123, 971.221 607, 970.433 607 C 969.645 607, 969 607.576, 969 608.279 C 969 608.983, 968.100 610.207, 967 611 C 965.900 611.793, 965 613.003, 965 613.689 C 965 614.375, 963.899 615.513, 962.553 616.218 C 961.208 616.923, 960.175 617.725, 960.258 618 C 960.591 619.103, 956.577 622.857, 955.667 622.294 C 955.130 621.962, 954.981 622.160, 955.334 622.732 C 955.688 623.305, 955.222 624.387, 954.297 625.137 C 952.852 626.309, 952.734 626.290, 953.455 625 C 954.113 623.822, 954.020 623.752, 953.021 624.675 C 950.244 627.241, 952.805 632.764, 961.196 642.306 C 965.642 647.363, 969.892 651.645, 970.640 651.823 C 971.388 652.001, 972 652.538, 972 653.016 C 972 653.494, 975.256 656.433, 979.235 659.546 C 985.914 664.772, 986.789 665.171, 990.633 664.738 C 992.923 664.480, 995.552 663.646, 996.475 662.884 C 999.577 660.326, 1023.611 636, 1023.052 635.985 C 1022.749 635.976, 1023.133 635.568, 1023.908 635.078 C 1025.519 634.058, 1098.427 561.420, 1116.500 542.829 C 1131.671 527.223, 1145.268 511.253, 1138.492 517 C 1136.870 518.375, 1134.859 520.181, 1134.022 521.014 C 1133.185 521.847, 1129.083 525.552, 1124.906 529.247 C 1116.246 536.909, 993.676 659.503, 993.167 661.012 C 992.983 661.555, 991.685 662, 990.283 662 C 988.488 662, 985.028 659.546, 978.616 653.728 C 973.602 649.178, 967.700 644.120, 965.500 642.488 C 963.300 640.856, 959.792 637.913, 957.704 635.947 C 952.655 631.194, 953.149 630.092, 966.210 616.975 C 971.947 611.214, 977.346 605.459, 978.209 604.186 C 980.936 600.164, 1008.219 571.966, 1047 533.088 C 1082.858 497.141, 1094.733 484.968, 1093.887 485.027 C 1093.674 485.041, 1090.517 487.496, 1086.871 490.481 M 502 488.724 C 502 489.194, 505.030 492.486, 508.734 496.039 C 516.317 503.314, 515.289 501.342, 507.250 493.192 C 504.363 490.265, 502 488.254, 502 488.724 M 544.500 531.467 C 559.350 546.111, 577.079 563.359, 583.899 569.796 C 590.718 576.233, 597.018 582.338, 597.899 583.362 C 598.779 584.385, 600.169 585.922, 600.987 586.777 C 602.951 588.830, 603.841 599.253, 603.929 621.250 C 603.973 632.369, 604.374 639, 605 639 C 605.616 639, 606.034 633.524, 606.089 624.750 C 606.138 616.913, 606.251 606.470, 606.339 601.545 C 606.441 595.896, 606.025 591.674, 605.214 590.110 C 604.506 588.747, 604.164 587.016, 604.452 586.264 C 604.752 585.482, 604.531 585.172, 603.936 585.539 C 603.364 585.893, 600.954 584.229, 598.581 581.841 C 586.348 569.533, 555.590 539.808, 550.112 535 C 546.665 531.975, 541.517 527.061, 538.672 524.081 C 529.850 514.836, 521.176 506.686, 519 505.594 C 518.175 505.180, 529.650 516.823, 544.500 531.467 M 797.187 508.500 C 798.382 509.875, 799.932 511, 800.631 511 C 801.329 511, 802.260 511.563, 802.700 512.250 C 804.016 514.307, 809.975 518.134, 810.936 517.540 C 811.427 517.236, 812.057 517.553, 812.336 518.244 C 812.739 519.245, 812.858 519.243, 812.921 518.234 C 812.964 517.537, 811.313 516.187, 809.250 515.234 C 807.188 514.280, 805.275 513.275, 805 513 C 803.621 511.621, 796.045 506, 795.565 506 C 795.262 506, 795.991 507.125, 797.187 508.500 M 437.500 511.616 C 436.400 511.884, 434.600 512.497, 433.500 512.978 C 432.400 513.460, 430.825 514.099, 430 514.398 C 429.175 514.698, 430.750 514.668, 433.500 514.333 C 436.250 513.997, 438.725 513.433, 439 513.079 C 439.275 512.725, 441.300 512.450, 443.500 512.468 C 447.182 512.497, 448.096 513.129, 455 520.408 C 459.125 524.758, 462.393 528.679, 462.262 529.122 C 462.131 529.565, 462.767 529.643, 463.676 529.294 C 464.618 528.933, 465.073 529.073, 464.735 529.620 C 464.409 530.147, 465.438 531.450, 467.023 532.515 C 468.607 533.580, 470.451 535.475, 471.121 536.726 C 471.790 537.977, 472.937 539, 473.669 539 C 474.401 539, 475 539.649, 475 540.443 C 475 541.237, 475.897 542.515, 476.994 543.283 C 478.090 544.051, 478.853 544.864, 478.688 545.090 C 478.523 545.315, 481.676 548.742, 485.694 552.705 C 489.712 556.668, 493 559.637, 493 559.305 C 493 558.972, 494.275 560.455, 495.834 562.600 C 497.393 564.745, 501.556 569.348, 505.084 572.829 C 508.613 576.310, 515.325 583.007, 520 587.711 C 596.652 664.838, 598.504 666.505, 603.784 663.155 C 605.944 661.784, 604.191 659.241, 601.448 659.765 C 599.793 660.082, 597.818 659.336, 595.376 657.473 C 591.764 654.718, 533.370 596.476, 478.552 540.952 L 449.605 511.632 444.552 511.380 C 441.774 511.241, 438.600 511.348, 437.500 511.616 M 399 517.063 C 399 517.750, 401.852 518.027, 407.045 517.845 C 418.427 517.446, 419.357 516.034, 408.250 516.015 C 402.374 516.006, 399 516.388, 399 517.063 M 706.500 540.331 C 698.002 543.724, 693 546.148, 693 546.874 C 693 547.256, 691.619 548.385, 689.931 549.382 C 688.243 550.379, 684.980 553.247, 682.681 555.754 C 680.381 558.262, 677.905 560.918, 677.179 561.657 C 676.452 562.396, 676.227 562.992, 676.679 562.983 C 677.130 562.974, 679.246 561.194, 681.381 559.029 C 691.391 548.871, 708.245 541, 719.986 541 C 724.650 541, 739.576 545.217, 741.450 547.064 C 741.973 547.579, 743.144 548, 744.054 548 C 744.964 548, 746.896 549.101, 748.349 550.447 C 749.801 551.793, 751.618 553.256, 752.385 553.697 C 753.153 554.139, 757.034 557.425, 761.010 561 C 764.986 564.575, 770.301 568.971, 772.822 570.769 C 775.343 572.567, 777.757 574.592, 778.187 575.269 C 778.617 575.946, 778.976 576.047, 778.985 575.494 C 779 574.459, 769.792 565.451, 764.169 561 C 762.432 559.625, 758.871 556.608, 756.255 554.296 C 753.640 551.984, 750.375 549.509, 749 548.796 C 747.625 548.083, 745.905 546.938, 745.179 546.250 C 744.452 545.563, 743.246 545, 742.500 545 C 741.754 545, 740.372 544.230, 739.431 543.288 C 738.489 542.346, 737.220 541.489, 736.609 541.383 C 735.999 541.277, 734.150 540.928, 732.500 540.606 C 728.953 539.915, 722.264 539.129, 716 538.667 C 713.147 538.457, 709.670 539.066, 706.500 540.331 M 662.233 661.500 C 662.215 688.450, 662.551 709.375, 662.980 708 C 664.006 704.715, 664.072 623.967, 663.054 617.500 C 662.612 614.690, 662.252 633.962, 662.233 661.500 M 868.527 652.604 C 871.292 655.297, 875.280 658.850, 877.390 660.500 C 879.499 662.150, 881.962 664.226, 882.863 665.114 C 883.763 666.002, 885.625 667.274, 887 667.939 C 890.037 669.410, 885.072 664.753, 874 655.746 C 863.943 647.565, 862.505 646.739, 868.527 652.604 M 919 693.832 C 919 694.782, 937.878 711.874, 945.750 718.051 C 948.638 720.316, 951 721.843, 951 721.443 C 951 720.590, 946.805 716.606, 941.939 712.836 C 937.345 709.278, 926.322 699.810, 920.881 694.750 C 919.847 693.788, 919 693.374, 919 693.832 M 243.383 706.189 C 243.105 706.639, 241.893 706.767, 240.689 706.473 C 236.981 705.567, 224.565 708.734, 213.215 713.480 C 207.050 716.058, 202.875 718.554, 198.107 722.513 C 190.879 728.516, 189.324 730.150, 187.510 733.655 C 186.415 735.770, 185.065 737.831, 184.510 738.235 C 183.845 738.718, 183.842 738.967, 184.500 738.962 C 185.050 738.957, 188.875 735.997, 193 732.384 C 201.551 724.893, 208.705 719.945, 214.500 717.513 C 226.095 712.648, 242.134 709, 251.929 709 C 257.978 709, 261.020 709.390, 272.500 711.639 C 274.150 711.962, 276.063 712.251, 276.750 712.280 C 277.438 712.309, 278 712.636, 278 713.007 C 278 713.377, 279.800 714.274, 282 715 C 284.200 715.726, 286 716.608, 286 716.959 C 286 717.311, 287.571 718.166, 289.491 718.860 C 292.945 720.110, 301.738 725.627, 305.392 728.838 C 307.208 730.434, 307.228 730.410, 305.894 728.239 C 305.130 726.995, 303.819 725.760, 302.981 725.494 C 302.143 725.228, 299.976 723.658, 298.167 722.005 C 296.357 720.352, 294.229 719, 293.438 719 C 292.647 719, 292 718.608, 292 718.130 C 292 717.651, 289.938 716.683, 287.419 715.977 C 284.899 715.272, 282.230 714.087, 281.487 713.344 C 278.695 710.552, 244.639 704.158, 243.383 706.189 M 1330.787 706.926 C 1327.096 707.925, 1323.833 708.500, 1323.537 708.204 C 1323.242 707.909, 1323 708.135, 1323 708.708 C 1323 709.281, 1321.578 710.034, 1319.840 710.382 C 1312.895 711.771, 1318.193 711.750, 1330 710.342 C 1337.243 709.478, 1345.864 709.088, 1350.500 709.413 C 1354.900 709.722, 1361.425 710.185, 1365 710.442 C 1368.575 710.698, 1370.600 710.672, 1369.500 710.385 C 1368.400 710.097, 1365.534 708.965, 1363.131 707.870 C 1360.728 706.774, 1358.154 706.110, 1357.413 706.395 C 1356.671 706.680, 1355.840 706.550, 1355.566 706.107 C 1354.578 704.508, 1337.658 705.068, 1330.787 706.926 M 1373.036 712.391 C 1373.841 713.156, 1379.600 716.418, 1385.833 719.639 C 1394.973 724.362, 1398.975 727.193, 1406.514 734.268 C 1411.655 739.093, 1417.917 745.776, 1420.431 749.120 C 1422.944 752.463, 1425 754.809, 1425 754.334 C 1425 752.547, 1421.006 746.118, 1417.572 742.379 C 1415.613 740.246, 1414.007 737.938, 1414.005 737.250 C 1414.002 736.563, 1413.558 736, 1413.018 736 C 1412.477 736, 1409.890 733.925, 1407.268 731.388 C 1404.645 728.852, 1400.925 725.689, 1399 724.360 C 1389.591 717.863, 1385.574 715.544, 1383.166 715.222 C 1381.720 715.028, 1380.254 714.411, 1379.907 713.849 C 1379.560 713.288, 1379.102 712.899, 1378.888 712.985 C 1378.675 713.071, 1377.233 712.659, 1375.685 712.070 C 1371.930 710.643, 1371.278 710.721, 1373.036 712.391 M 1314 712.881 C 1314 713.366, 1311.975 714.272, 1309.500 714.896 C 1307.025 715.519, 1305 716.472, 1305 717.014 C 1305 717.556, 1304.352 718, 1303.559 718 C 1302.766 718, 1301.866 718.408, 1301.558 718.907 C 1300.817 720.104, 1308.073 717.983, 1310 716.439 C 1310.825 715.778, 1312.513 714.928, 1313.750 714.551 C 1315.990 713.868, 1316.905 712, 1315 712 C 1314.450 712, 1314 712.397, 1314 712.881 M 662.400 732.500 C 662.401 740.750, 662.556 743.992, 662.744 739.704 C 662.932 735.417, 662.931 728.667, 662.742 724.704 C 662.552 720.742, 662.399 724.250, 662.400 732.500 M 1290.362 726.500 C 1290.045 727.325, 1289.181 728, 1288.441 728 C 1286.945 728, 1280 734.776, 1280 736.235 C 1280 736.746, 1281.765 735.326, 1283.922 733.082 C 1286.078 730.837, 1288.259 729, 1288.767 729 C 1289.274 729, 1290.505 728.100, 1291.500 727 C 1292.579 725.808, 1292.831 725, 1292.124 725 C 1291.471 725, 1290.678 725.675, 1290.362 726.500 M 979.500 747.424 C 993.882 761.164, 996.798 764.084, 1001.912 769.873 C 1004.888 773.243, 1007.813 775.993, 1008.412 775.985 C 1009.119 775.975, 1009.149 775.712, 1008.497 775.235 C 1007.946 774.831, 1005.567 771.962, 1003.210 768.859 C 999.137 763.497, 986.882 751.659, 981.847 748.223 C 980.556 747.342, 979.143 746.037, 978.707 745.323 C 978.271 744.609, 976.921 743.500, 975.707 742.859 C 974.493 742.217, 976.200 744.272, 979.500 747.424 M 1430.188 767.294 C 1434.894 778.828, 1436.099 793.583, 1434.058 814.671 C 1433.091 824.667, 1428.425 837.919, 1423.265 845.325 C 1421.744 847.508, 1420.050 850.015, 1419.500 850.897 C 1417.110 854.728, 1407.664 865.439, 1403.906 868.579 C 1401.651 870.462, 1397.375 873.458, 1394.403 875.235 C 1391.431 877.013, 1389 878.812, 1389 879.234 C 1389 879.655, 1388.438 880.002, 1387.750 880.004 C 1387.063 880.006, 1383.800 881.354, 1380.500 883 C 1377.200 884.646, 1373.825 886.009, 1373 886.030 C 1372.175 886.051, 1369.700 886.978, 1367.500 888.090 C 1364.773 889.469, 1364.296 889.957, 1366 889.624 C 1367.375 889.356, 1370.188 888.831, 1372.250 888.457 C 1374.313 888.083, 1376 887.351, 1376 886.830 C 1376 886.308, 1376.473 886.174, 1377.050 886.531 C 1377.628 886.888, 1379.547 886.494, 1381.315 885.655 C 1383.083 884.816, 1385.761 883.661, 1387.265 883.089 C 1388.769 882.517, 1390 881.588, 1390 881.025 C 1390 880.461, 1390.397 880.113, 1390.881 880.250 C 1392.439 880.692, 1408.238 869.742, 1411.930 865.662 C 1419.361 857.449, 1420.224 856.398, 1422.729 852.500 C 1424.142 850.300, 1425.586 848.275, 1425.937 848 C 1426.975 847.187, 1431.746 837.020, 1434.513 829.727 C 1436.272 825.090, 1437.394 819.411, 1438.071 811.727 C 1439.485 795.663, 1439.367 793.936, 1435.363 772.209 C 1435.131 770.949, 1434.505 770.188, 1433.971 770.518 C 1433.437 770.848, 1433 770.506, 1433 769.758 C 1433 767.657, 1430.641 763.091, 1429.282 762.561 C 1428.516 762.263, 1428.852 764.020, 1430.188 767.294 M 163.625 780.125 C 163.281 781.844, 163 785.867, 163 789.066 C 163 792.265, 162.570 795.148, 162.044 795.473 C 160.998 796.119, 161.020 806, 162.066 806 C 162.421 806, 162.969 809.402, 163.283 813.560 C 163.598 817.718, 164.334 821.697, 164.919 822.402 C 165.504 823.107, 165.686 823.981, 165.323 824.344 C 164.960 824.706, 165.187 826.015, 165.827 827.252 C 166.466 828.488, 168.146 833.100, 169.560 837.500 C 171.694 844.144, 176.713 853.979, 179 856 C 179.311 856.275, 181.289 858.879, 183.395 861.786 C 189.091 869.651, 207.615 883.844, 213.087 884.536 C 214.807 884.754, 216.820 885.436, 217.563 886.052 C 218.305 886.668, 219.351 886.901, 219.887 886.570 C 220.423 886.238, 221.128 886.399, 221.454 886.926 C 221.780 887.453, 224.174 888.193, 226.773 888.570 C 229.373 888.946, 231.898 889.486, 232.383 889.769 C 234.895 891.231, 257.167 892.106, 258.735 890.805 C 259.441 890.219, 261.815 889.980, 264.009 890.274 C 266.204 890.569, 268.215 890.462, 268.477 890.037 C 268.740 889.611, 271.103 888.974, 273.728 888.621 C 282.430 887.449, 284.428 886.898, 290.489 884.002 C 299.943 879.485, 308.185 873.756, 314.855 867.065 C 320.814 861.088, 328 851.125, 328 848.841 C 328 848.225, 328.685 847.220, 329.521 846.608 C 330.358 845.996, 331.285 844.156, 331.582 842.519 C 331.879 840.882, 332.657 839.202, 333.311 838.787 C 333.965 838.371, 334.050 838.017, 333.500 838 C 332.930 837.983, 332.980 837.653, 333.615 837.235 C 335.220 836.177, 336.254 832.275, 335.115 831.571 C 334.584 831.243, 332.491 834.242, 330.464 838.237 C 321.657 855.595, 302.133 874.812, 285.708 882.290 C 274.631 887.334, 267.927 888.500, 250 888.500 C 225.226 888.500, 216.456 885.614, 198.779 871.645 C 194.503 868.265, 191.003 865.186, 191.002 864.802 C 191.001 864.417, 189.988 862.991, 188.750 861.632 C 181.353 853.506, 178.217 848.791, 172.615 837.372 C 168.356 828.688, 166.953 824.525, 165.641 816.685 C 163.821 805.802, 163.391 781.495, 165 780.500 C 166.231 779.739, 166.329 777, 165.125 777 C 164.644 777, 163.969 778.406, 163.625 780.125 M 1009.484 779.750 C 1014.287 789.678, 1015.978 808.831, 1012.898 818.416 C 1011.557 822.590, 1007.575 829.749, 1003.118 836 C 998.288 842.774, 972.528 866.980, 951.500 884.503 C 947.650 887.711, 942.217 892.398, 939.426 894.918 C 936.636 897.438, 931.461 902.054, 927.926 905.175 C 924.392 908.297, 919.641 912.572, 917.368 914.675 C 915.095 916.779, 911.296 920.075, 908.924 922 C 901.754 927.820, 888.867 938.955, 882.426 944.897 C 879.085 947.979, 874.810 951.681, 872.926 953.124 C 871.042 954.567, 866.575 958.336, 863 961.500 C 859.425 964.663, 853.372 970.008, 849.550 973.376 C 845.727 976.744, 841.647 980.400, 840.483 981.500 C 839.320 982.600, 836.153 985.300, 833.446 987.500 C 830.739 989.700, 827.618 992.308, 826.512 993.296 C 823.664 995.840, 822.383 996.925, 814.500 1003.476 C 810.650 1006.676, 806.780 1010.015, 805.900 1010.897 C 802.467 1014.336, 797.320 1018.728, 796.281 1019.104 C 795.360 1019.438, 773.742 1038.069, 763.576 1047.290 C 759.035 1051.408, 744.348 1062, 743.178 1062 C 742.622 1062, 742.017 1062.445, 741.833 1062.988 C 741.650 1063.531, 739.136 1064.808, 736.247 1065.824 C 733.358 1066.841, 730.658 1068.029, 730.247 1068.465 C 728.929 1069.862, 739.353 1067.878, 743.695 1065.906 C 746.002 1064.858, 748.365 1064, 748.945 1064 C 749.525 1064, 750 1063.622, 750 1063.161 C 750 1062.699, 751.013 1061.858, 752.250 1061.293 C 754.468 1060.279, 772.005 1046.338, 775.082 1043.143 C 775.952 1042.239, 778.185 1040.375, 780.046 1039 C 783.231 1036.645, 786.139 1034.120, 802 1019.929 C 805.575 1016.730, 812.325 1010.881, 817 1006.930 C 832.180 994.103, 835.915 990.745, 835.706 990.117 C 835.593 989.778, 835.872 989.417, 836.326 989.316 C 836.780 989.214, 837.958 988.202, 838.943 987.066 C 839.928 985.930, 841.184 985, 841.733 985 C 842.282 985, 845.307 982.525, 848.456 979.500 C 851.604 976.475, 854.361 974, 854.582 974 C 854.994 974, 859.066 970.687, 861.956 968 C 862.844 967.175, 866.479 964.027, 870.035 961.004 C 873.591 957.980, 877.653 954.380, 879.061 953.004 C 883.002 949.152, 893.519 940.068, 897.079 937.442 C 898.834 936.147, 901.054 934.281, 902.012 933.294 C 902.970 932.307, 905.722 929.842, 908.127 927.815 C 910.532 925.788, 917.219 920.163, 922.987 915.315 C 928.754 910.467, 934.190 905.825, 935.067 905 C 942.420 898.079, 954.895 887.028, 968 875.825 C 981.919 863.926, 984.474 861.586, 994.522 851.530 C 1006.483 839.560, 1012.890 830.378, 1014.519 822.873 C 1014.922 821.018, 1015.643 819.249, 1016.123 818.943 C 1017.467 818.083, 1018.478 801, 1017.184 801 C 1016.596 801, 1016.319 799.987, 1016.568 798.750 C 1016.817 797.513, 1016.627 795.600, 1016.144 794.500 C 1015.662 793.400, 1014.732 790.261, 1014.077 787.524 C 1013.422 784.787, 1012.523 782.312, 1012.078 782.024 C 1011.633 781.736, 1010.954 780.487, 1010.567 779.250 C 1010.181 778.013, 1009.480 777, 1009.009 777 C 1008.538 777, 1008.752 778.237, 1009.484 779.750 M 663.499 917.500 C 662.256 958.036, 662.216 1010.886, 663.426 1013.500 C 663.935 1014.600, 664.453 1016.850, 664.578 1018.500 C 665.106 1025.503, 666.165 1028.955, 670.216 1036.886 C 674.792 1045.843, 684.922 1058.583, 689.325 1060.919 C 690.796 1061.699, 692 1062.738, 692 1063.228 C 692 1063.718, 692.419 1063.859, 692.931 1063.543 C 693.443 1063.226, 694.144 1063.425, 694.490 1063.984 C 694.835 1064.543, 695.991 1065, 697.059 1065 C 698.127 1065, 699 1065.408, 699 1065.906 C 699 1066.405, 699.970 1066.559, 701.156 1066.249 C 702.634 1065.862, 703.088 1066.049, 702.597 1066.842 C 702.204 1067.479, 702.332 1068, 702.882 1068 C 705.289 1068, 704.652 1066.194, 701.707 1064.671 C 693.618 1060.488, 689.817 1057.284, 683.323 1049.175 C 680.382 1045.504, 677.575 1042.004, 677.086 1041.397 C 674.520 1038.218, 669.855 1027.548, 667.949 1020.500 C 665.876 1012.833, 665.759 1009.860, 665.133 949 L 664.480 885.500 663.499 917.500 M 973.495 953.352 C 963.622 963.729, 957.207 970.997, 957.904 971.015 C 958.232 971.024, 958.049 971.361, 957.498 971.765 C 956.948 972.169, 955.842 973.850, 955.042 975.500 C 954.241 977.150, 952.935 979.288, 952.138 980.250 C 951.342 981.212, 951.126 982, 951.658 982 C 952.746 982, 958 976.774, 958 975.692 C 958 974.361, 972.230 957.476, 977.336 952.750 C 982.478 947.990, 984 947.134, 984 949 C 984 949.550, 984.695 950, 985.544 950 C 986.392 950, 989.577 952.510, 992.620 955.578 C 995.663 958.645, 997.606 960.108, 996.936 958.828 C 995.454 955.994, 988.526 949, 987.201 949 C 986.675 949, 985.685 948.325, 985 947.500 C 982.756 944.796, 980.584 945.900, 973.495 953.352 M 594 953.680 C 591.261 955.597, 589.640 956.867, 587.584 958.702 C 586.844 959.364, 585.887 959.589, 585.459 959.202 C 585.030 958.816, 585.022 959.093, 585.440 959.817 C 585.943 960.687, 585.499 961.318, 584.134 961.675 C 582.997 961.973, 581.806 963.036, 581.488 964.038 C 581.170 965.041, 579.616 966.680, 578.036 967.680 C 576.455 968.681, 575.112 969.825, 575.050 970.222 C 574.855 971.482, 569.002 977.490, 568.960 976.473 C 568.938 975.938, 568.249 976.737, 567.428 978.250 C 566.607 979.763, 565.264 981, 564.443 981 C 563.622 981, 562.537 982.086, 562.033 983.414 C 561.528 984.742, 560.189 986.123, 559.057 986.482 C 557.926 986.841, 557 987.599, 557 988.166 C 557 988.733, 555.650 990.459, 554 992 C 552.350 993.541, 551 994.590, 551 994.330 C 551 994.070, 550.325 994.532, 549.500 995.357 C 548.675 996.182, 548 997.317, 548 997.879 C 548 998.441, 547.415 999.260, 546.700 999.700 C 545.985 1000.140, 544.354 1001.998, 543.076 1003.829 C 540.617 1007.350, 539.846 1008.156, 530.229 1017.250 C 526.885 1020.413, 524.337 1023, 524.568 1023 C 524.798 1023, 524.022 1024.110, 522.843 1025.466 C 521.663 1026.822, 520.204 1027.650, 519.599 1027.306 C 518.995 1026.961, 518.842 1027.056, 519.259 1027.516 C 519.895 1028.216, 506.344 1041.962, 496.107 1051 C 494.549 1052.375, 493.465 1053.838, 493.697 1054.250 C 493.928 1054.662, 493.720 1055, 493.234 1055 C 492.747 1055, 489.917 1058.037, 486.945 1061.750 C 483.973 1065.463, 477.283 1072.775, 472.078 1078 C 466.873 1083.225, 460.606 1089.750, 458.151 1092.500 C 455.696 1095.250, 452.745 1098.047, 451.594 1098.715 C 449.817 1099.745, 449.764 1099.934, 451.247 1099.965 C 453.410 1100.008, 458.824 1095.270, 470.492 1083.120 C 475.446 1077.961, 490.221 1062.886, 503.324 1049.620 C 516.427 1036.354, 531.277 1021.025, 536.324 1015.554 C 552.531 997.989, 593.396 957.025, 596.670 955.062 C 599.235 953.525, 600.157 953.394, 601.503 954.379 C 602.986 955.463, 603.185 958.955, 603.333 986.548 C 603.452 1008.505, 603.162 1018.087, 602.338 1019.519 C 601.366 1021.209, 567.696 1055.126, 541.500 1080.804 C 528.099 1093.940, 495.095 1128.536, 490.905 1133.840 C 486.226 1139.763, 485.620 1143.871, 488.322 1151.353 C 489.498 1154.611, 489.798 1154.881, 490.263 1153.103 C 490.565 1151.946, 490.405 1151, 489.906 1151 C 489.408 1151, 489 1148.690, 489 1145.867 C 489 1141.858, 489.471 1140.326, 491.153 1138.867 C 492.337 1137.840, 492.970 1137, 492.558 1137 C 492.147 1137, 493.766 1135.376, 496.155 1133.391 C 504.286 1126.636, 602.053 1027.798, 603.726 1024.642 C 604.642 1022.914, 605.640 1020.825, 605.945 1020 C 606.250 1019.175, 606.499 1005.770, 606.497 990.211 C 606.494 969.663, 606.173 961.725, 605.321 961.199 C 604.676 960.800, 604.003 958.680, 603.824 956.487 C 603.518 952.723, 603.304 952.484, 600 952.215 C 597.881 952.043, 595.514 952.621, 594 953.680 M 1001 962.955 C 1001 963.573, 1002.738 965.749, 1004.863 967.790 C 1006.988 969.830, 1011.713 974.365, 1015.363 977.867 C 1019.013 981.369, 1022 983.583, 1022 982.786 C 1022 981.990, 1018.709 978.224, 1014.686 974.419 C 1003.444 963.783, 1001 961.736, 1001 962.955 M 954.022 986.750 C 954.035 987.163, 956.516 989.971, 959.537 992.991 C 962.558 996.011, 964.820 999.026, 964.565 999.690 C 964.304 1000.372, 964.669 1000.681, 965.403 1000.399 C 966.119 1000.124, 967.456 1001.047, 968.375 1002.450 C 969.294 1003.852, 969.698 1005.007, 969.273 1005.015 C 968.848 1005.023, 969.621 1005.597, 970.991 1006.290 C 972.361 1006.983, 973.629 1008.311, 973.808 1009.241 C 974.209 1011.322, 979.981 1017.596, 981.172 1017.244 C 981.648 1017.103, 982.551 1018.115, 983.179 1019.494 C 983.807 1020.872, 984.924 1022, 985.661 1022 C 986.397 1022, 987 1022.482, 987 1023.071 C 987 1024.483, 989.555 1027, 990.988 1027 C 991.609 1027, 991.833 1027.461, 991.485 1028.025 C 991.136 1028.588, 991.269 1028.926, 991.780 1028.775 C 993.051 1028.398, 1001 1036.667, 1000.167 1037.499 C 999.800 1037.866, 999.950 1038.028, 1000.500 1037.858 C 1001.050 1037.688, 1002.803 1038.776, 1004.396 1040.275 C 1005.989 1041.774, 1006.993 1043, 1006.628 1043 C 1006.263 1043, 1008.924 1045.813, 1012.542 1049.250 C 1016.160 1052.688, 1035.901 1072.150, 1056.411 1092.500 C 1076.920 1112.850, 1094.781 1130.135, 1096.100 1130.911 C 1098.389 1132.256, 1098.431 1132.234, 1097 1130.427 C 1096.175 1129.385, 1080.650 1113.621, 1062.500 1095.396 C 1044.350 1077.171, 1018.929 1051.289, 1006.010 1037.880 C 980.240 1011.134, 955.286 986, 954.501 986 C 954.225 986, 954.010 986.337, 954.022 986.750 M 1034.017 994.460 C 1034.833 995.538, 1039.540 1000.263, 1044.478 1004.960 C 1049.416 1009.657, 1055.716 1015.919, 1058.478 1018.875 C 1061.240 1021.832, 1064.371 1024.982, 1065.435 1025.875 C 1066.499 1026.769, 1075.162 1034.857, 1084.685 1043.848 C 1094.208 1052.839, 1102 1059.756, 1102 1059.218 C 1102 1058.196, 1099.637 1055.721, 1086.040 1042.500 C 1081.515 1038.100, 1075.830 1031.868, 1073.406 1028.651 C 1070.983 1025.434, 1069 1023.133, 1069 1023.537 C 1069 1023.942, 1067.814 1023.086, 1066.364 1021.636 C 1064.914 1020.186, 1063.339 1019, 1062.864 1019 C 1062.389 1019, 1062 1018.401, 1062 1017.669 C 1062 1016.937, 1060.890 1015.744, 1059.534 1015.018 C 1058.178 1014.292, 1057.350 1013.204, 1057.694 1012.599 C 1058.039 1011.995, 1057.954 1011.832, 1057.505 1012.239 C 1056.797 1012.880, 1050.548 1008.178, 1043.274 1001.533 C 1042.050 1000.415, 1040.219 998.825, 1039.206 998 C 1038.192 997.175, 1036.276 995.600, 1034.949 994.500 C 1032.615 992.567, 1032.584 992.566, 1034.017 994.460 M 388.500 1092.695 C 384.100 1094.104, 379.262 1096.130, 377.750 1097.197 C 376.238 1098.263, 375 1098.848, 375 1098.497 C 375 1098.145, 374.293 1098.564, 373.429 1099.429 C 372.564 1100.293, 371.214 1101, 370.429 1101 C 369.643 1101, 369 1101.353, 369 1101.784 C 369 1102.216, 367.538 1103.419, 365.750 1104.459 C 363.962 1105.499, 362.275 1106.660, 362 1107.040 C 361.725 1107.420, 359.587 1108.701, 357.250 1109.886 C 354.913 1111.071, 353 1112.405, 353 1112.851 C 353 1113.297, 351.876 1114.264, 350.502 1114.999 C 349.127 1115.735, 348.207 1116.540, 348.455 1116.789 C 348.704 1117.037, 347.360 1119.324, 345.469 1121.870 C 340.550 1128.492, 340.621 1128.390, 339.265 1130.764 C 338.215 1132.601, 338.258 1132.838, 339.552 1132.342 C 340.389 1132.021, 341.765 1130.422, 342.609 1128.790 C 344.801 1124.549, 348.542 1120.587, 354.932 1115.734 C 357.994 1113.408, 360.725 1111.273, 361 1110.989 C 362.322 1109.624, 372.629 1103, 373.430 1103 C 373.932 1103, 375.053 1102.364, 375.921 1101.587 C 377.539 1100.139, 384.498 1097.961, 396 1095.302 C 400.844 1094.183, 405.430 1093.961, 414 1094.432 C 426.411 1095.115, 429.619 1095.640, 440.774 1098.815 C 444.774 1099.954, 447.809 1100.501, 447.518 1100.030 C 447.228 1099.559, 445.192 1098.870, 442.995 1098.499 C 440.798 1098.128, 439 1097.446, 439 1096.984 C 439 1096.522, 436.525 1095.590, 433.500 1094.913 C 430.475 1094.236, 428 1093.365, 428 1092.979 C 428 1091.575, 416.430 1090.002, 406.583 1090.066 C 398.641 1090.119, 394.801 1090.677, 388.500 1092.695 M 1167.313 1092.206 C 1166.464 1093.144, 1163.801 1094.207, 1161.395 1094.568 C 1158.989 1094.929, 1157.234 1095.569, 1157.495 1095.991 C 1157.755 1096.413, 1160.788 1096.132, 1164.234 1095.366 C 1174.179 1093.157, 1195.279 1092.542, 1203.250 1094.230 C 1206.963 1095.016, 1210 1095.336, 1210 1094.941 C 1210 1094.546, 1208.313 1093.907, 1206.250 1093.522 C 1204.188 1093.136, 1201.967 1092.380, 1201.315 1091.842 C 1200.663 1091.304, 1193.093 1090.781, 1184.493 1090.682 C 1170.877 1090.523, 1168.656 1090.720, 1167.313 1092.206 M 1215.713 1096.620 C 1215.372 1096.961, 1218.109 1098.760, 1221.796 1100.617 C 1228.804 1104.147, 1230.539 1104.681, 1229.491 1102.986 C 1228.723 1101.743, 1220.789 1097.518, 1219.750 1097.798 C 1219.338 1097.909, 1219 1097.550, 1219 1097 C 1219 1095.901, 1216.698 1095.635, 1215.713 1096.620 M 1246.320 1117.250 C 1249.175 1120.138, 1252.297 1123.625, 1253.259 1125 C 1258.623 1132.668, 1263 1139.497, 1263 1140.199 C 1263 1140.639, 1263.414 1141, 1263.921 1141 C 1264.427 1141, 1263.758 1138.962, 1262.434 1136.472 C 1260.037 1131.964, 1259.081 1130.599, 1255.750 1126.928 C 1254.787 1125.868, 1254 1124.629, 1254 1124.177 C 1254 1123.048, 1243.133 1112, 1242.023 1112 C 1241.532 1112, 1243.466 1114.362, 1246.320 1117.250 M 1268 1151.095 C 1268 1151.697, 1268.962 1155.355, 1270.137 1159.225 C 1272.013 1165.403, 1272.208 1167.858, 1271.731 1179.380 C 1271.230 1191.481, 1268.953 1204.732, 1266.074 1212.306 C 1262.610 1221.415, 1245.473 1242.154, 1234.400 1250.634 C 1230.616 1253.532, 1217.400 1260.057, 1210.236 1262.563 C 1206.220 1263.968, 1205.344 1264.613, 1206.539 1265.282 C 1207.518 1265.830, 1208.642 1265.712, 1209.540 1264.967 C 1210.329 1264.312, 1211.641 1264.032, 1212.455 1264.344 C 1213.270 1264.657, 1214.168 1264.538, 1214.451 1264.079 C 1214.734 1263.621, 1216.999 1262.734, 1219.483 1262.109 C 1221.967 1261.483, 1224 1260.528, 1224 1259.986 C 1224 1259.444, 1224.338 1259.071, 1224.750 1259.159 C 1225.940 1259.411, 1229.244 1257.885, 1232.500 1255.582 C 1234.150 1254.414, 1236.825 1252.793, 1238.444 1251.980 C 1241.864 1250.261, 1260.420 1231.795, 1262.497 1228.044 C 1266.030 1221.665, 1271 1210.595, 1271 1209.105 C 1271 1208.200, 1271.933 1204.094, 1273.074 1199.980 C 1274.214 1195.866, 1275.210 1190.025, 1275.287 1187 C 1275.503 1178.480, 1273.893 1162.574, 1272.742 1161.851 C 1272.174 1161.494, 1271.985 1160.481, 1272.323 1159.601 C 1272.661 1158.720, 1272.559 1158, 1272.096 1158 C 1271.634 1158, 1270.968 1156.200, 1270.616 1154 C 1270.264 1151.800, 1269.532 1150, 1268.988 1150 C 1268.445 1150, 1268 1150.493, 1268 1151.095 M 491.811 1159.505 C 491.476 1160.052, 491.205 1169.050, 491.207 1179.500 C 491.212 1196.407, 490.972 1199.216, 489.024 1205 C 482.786 1223.529, 471.732 1238.473, 454.500 1251.677 C 448.177 1256.522, 439.243 1260.574, 429.545 1262.996 C 421.691 1264.957, 418.740 1265.177, 405.545 1264.782 C 392.347 1264.387, 389.518 1263.989, 382.500 1261.539 C 368.597 1256.684, 357.327 1249.501, 349.285 1240.371 C 338.866 1228.540, 336.581 1226.239, 337.997 1229 C 339.131 1231.210, 343.034 1235.996, 350.229 1244 C 351.466 1245.375, 352.399 1246.751, 352.303 1247.057 C 352.207 1247.364, 353.675 1248.447, 355.564 1249.465 C 357.454 1250.482, 359 1251.639, 359 1252.036 C 359 1252.433, 360.350 1253.317, 362 1254 C 363.650 1254.683, 365 1255.665, 365 1256.180 C 365 1256.696, 365.450 1256.840, 366 1256.500 C 366.550 1256.160, 367 1256.350, 367 1256.922 C 367 1257.494, 368.125 1258.244, 369.500 1258.589 C 370.875 1258.934, 372 1259.568, 372 1259.997 C 372 1260.427, 375.038 1261.588, 378.750 1262.577 C 382.462 1263.567, 385.789 1264.803, 386.143 1265.324 C 386.496 1265.845, 388.028 1265.959, 389.548 1265.577 C 391.295 1265.139, 392.581 1265.322, 393.046 1266.075 C 394.738 1268.813, 430.117 1267.736, 432.028 1264.888 C 432.318 1264.456, 434.134 1263.940, 436.064 1263.742 C 437.994 1263.544, 440.119 1263.044, 440.787 1262.632 C 441.454 1262.219, 442 1262.134, 442 1262.443 C 442 1262.751, 443.681 1262.103, 445.735 1261.002 C 447.790 1259.901, 449.824 1259, 450.257 1259 C 451.435 1259, 458.845 1254.094, 464.500 1249.570 C 490.126 1229.067, 500.741 1196.659, 493.182 1162.005 C 492.763 1160.084, 492.146 1158.959, 491.811 1159.505 M 324.642 1175.297 C 323.969 1184.861, 324.731 1197, 326.002 1197 C 326.397 1197, 326.674 1190.025, 326.618 1181.500 C 326.562 1172.975, 326.242 1166, 325.906 1166 C 325.570 1166, 325.001 1170.184, 324.642 1175.297 M 330 1213.535 C 330 1213.830, 330.717 1215.165, 331.594 1216.503 C 332.471 1217.841, 332.997 1219.509, 332.764 1220.209 C 332.530 1220.909, 332.898 1222.041, 333.580 1222.723 C 334.263 1223.406, 335.025 1224.535, 335.274 1225.232 C 335.523 1225.929, 336.074 1226.177, 336.499 1225.781 C 336.923 1225.386, 336.603 1224.036, 335.787 1222.781 C 334.971 1221.527, 333.750 1218.813, 333.074 1216.750 C 332.398 1214.688, 331.430 1213, 330.922 1213 C 330.415 1213, 330 1213.241, 330 1213.535 M 1119.071 1236.180 C 1120.335 1238.592, 1130.953 1249.384, 1131.508 1248.821 C 1131.682 1248.644, 1128.681 1245.206, 1124.839 1241.180 C 1120.998 1237.154, 1118.402 1234.904, 1119.071 1236.180 M 1139.441 1254.505 C 1140.509 1255.327, 1141.971 1256, 1142.691 1256 C 1143.411 1256, 1144 1256.431, 1144 1256.959 C 1144 1257.486, 1146.250 1258.717, 1149 1259.694 C 1151.750 1260.670, 1154 1261.814, 1154 1262.235 C 1154 1262.656, 1154.450 1263, 1155 1263 C 1157.427 1263, 1155.666 1261.048, 1152.250 1259.951 C 1150.188 1259.289, 1147.825 1258.174, 1147 1257.473 C 1146.175 1256.772, 1143.700 1255.481, 1141.500 1254.604 C 1138.162 1253.273, 1137.821 1253.257, 1139.441 1254.505 M 762.250 1257.247 C 760.462 1257.820, 759 1258.660, 759 1259.113 C 759 1259.566, 758.325 1259.678, 757.500 1259.362 C 756.675 1259.045, 756 1259.284, 756 1259.893 C 756 1260.502, 755.212 1261.002, 754.250 1261.004 C 752.463 1261.009, 746.178 1264.905, 742.160 1268.500 C 733.645 1276.118, 722.115 1288.062, 721.547 1289.853 C 721.172 1291.034, 720.476 1292, 720 1292 C 719.524 1292, 718.818 1293.013, 718.430 1294.250 C 718.042 1295.487, 716.887 1297.573, 715.862 1298.885 C 713.869 1301.438, 713.480 1303, 714.839 1303 C 715.301 1303, 716.171 1301.919, 716.773 1300.598 C 720.585 1292.231, 739.942 1272.476, 748.667 1268.047 C 755.652 1264.501, 767.037 1257.749, 767.619 1256.807 C 768.258 1255.773, 766.358 1255.929, 762.250 1257.247 M 829.179 1257.757 C 827.752 1258.251, 832.256 1261, 834.492 1261 C 835.187 1261, 836.279 1261.631, 836.919 1262.402 C 837.558 1263.173, 839.292 1264.107, 840.770 1264.478 C 842.249 1264.850, 847.518 1267.555, 852.479 1270.490 C 861.826 1276.020, 870.867 1284.298, 878.033 1293.890 C 881.979 1299.172, 889 1312.593, 889 1314.855 C 889 1315.485, 889.417 1316, 889.927 1316 C 890.436 1316, 891.046 1316.563, 891.281 1317.250 C 891.516 1317.938, 891.518 1317.375, 891.285 1316 C 890.383 1310.675, 881.050 1291.970, 878.894 1291.167 C 878.403 1290.983, 878 1290.160, 878 1289.338 C 878 1287.421, 871.399 1281.005, 862.222 1274 C 858.259 1270.975, 855.012 1268.162, 855.008 1267.750 C 855.004 1267.338, 854.357 1267, 853.571 1267 C 852.786 1267, 851.436 1266.293, 850.571 1265.429 C 849.707 1264.564, 848.993 1264.227, 848.985 1264.679 C 848.976 1265.130, 848.639 1265.026, 848.235 1264.447 C 847.831 1263.867, 843.900 1262.361, 839.500 1261.099 C 835.100 1259.838, 831.275 1258.467, 831 1258.053 C 830.725 1257.639, 829.906 1257.506, 829.179 1257.757 M 709.161 1313.203 C 705.666 1320.354, 704.014 1325.996, 704.006 1330.809 C 704.003 1332.629, 703.599 1333.870, 703.110 1333.568 C 701.916 1332.830, 701.678 1352.901, 702.864 1354.359 C 703.374 1354.986, 704.052 1357.975, 704.370 1361 C 705.056 1367.513, 705.959 1371, 706.958 1371 C 707.357 1371, 708.244 1372.871, 708.929 1375.159 C 709.615 1377.446, 711.267 1381.046, 712.600 1383.159 C 713.934 1385.271, 714.682 1387.007, 714.263 1387.015 C 713.843 1387.024, 714.019 1387.361, 714.653 1387.765 C 715.287 1388.169, 716.943 1391.073, 718.334 1394.218 C 720.793 1399.782, 721.605 1401.055, 725.250 1405.072 C 726.212 1406.132, 727 1407.350, 727 1407.778 C 727 1408.206, 727.900 1409.326, 729 1410.268 C 730.100 1411.210, 731 1411.778, 731 1411.530 C 731 1411.282, 732.738 1412.749, 734.861 1414.790 C 736.985 1416.830, 739.438 1418.950, 740.312 1419.500 C 741.186 1420.050, 744.638 1422.412, 747.982 1424.750 C 751.327 1427.088, 754.432 1429, 754.882 1429 C 755.333 1429, 757.794 1430.112, 760.351 1431.472 C 762.908 1432.831, 765 1433.763, 765 1433.542 C 765 1433.321, 766.462 1433.604, 768.250 1434.171 C 770.038 1434.739, 772.288 1435.185, 773.250 1435.164 C 774.212 1435.142, 775 1435.511, 775 1435.983 C 775 1437.254, 787.518 1438.369, 789.477 1437.273 C 790.717 1436.579, 789.052 1436.036, 783.111 1435.196 C 778.686 1434.570, 774.264 1433.635, 773.283 1433.118 C 772.302 1432.601, 769.277 1431.393, 766.560 1430.433 C 761.397 1428.611, 748.187 1421.289, 740.416 1415.942 C 735.439 1412.518, 724.233 1399.553, 722.247 1394.922 C 721.558 1393.315, 720.582 1392, 720.079 1392 C 716.600 1392, 708.597 1368.948, 706.301 1352.314 C 704.833 1341.677, 704.788 1339.072, 705.949 1331.814 C 706.681 1327.241, 708.578 1319.949, 710.166 1315.610 C 711.754 1311.270, 712.870 1307.536, 712.646 1307.313 C 712.422 1307.089, 710.854 1309.739, 709.161 1313.203 M 892.600 1332 C 892.843 1349.617, 891.545 1365.384, 889.627 1368.122 C 888.732 1369.400, 888 1371.088, 888 1371.873 C 888 1372.659, 885.995 1377.396, 883.544 1382.401 C 878.510 1392.680, 864.787 1409.031, 854.416 1417.107 C 843.858 1425.329, 823.161 1434.143, 811.250 1435.490 C 807.813 1435.878, 805 1436.668, 805 1437.245 C 805 1438.523, 820.102 1437.446, 820.943 1436.107 C 821.249 1435.620, 823.169 1434.999, 825.208 1434.727 C 829.926 1434.096, 839 1430.857, 839 1429.802 C 839 1429.361, 839.475 1429, 840.055 1429 C 841.847 1429, 849.878 1425.057, 855.318 1421.505 C 860.306 1418.249, 872.645 1406.818, 878.151 1400.352 C 886.451 1390.606, 895.445 1366.489, 896.296 1351.699 C 896.753 1343.753, 895.220 1327.909, 893.905 1326.997 C 893.507 1326.720, 893.014 1325.145, 892.811 1323.497 C 892.607 1321.849, 892.513 1325.675, 892.600 1332" stroke="none" fill="#aacae0" fill-rule="evenodd"/><path d="M 804.750 161.743 C 808.737 161.932, 812 162.422, 812 162.831 C 812 163.906, 817.766 164.187, 818.411 163.144 C 819.128 161.984, 811.261 160.950, 803.610 161.199 L 797.500 161.397 804.750 161.743 M 780.500 165.625 C 777.750 166.444, 772.453 167.756, 768.728 168.539 C 764.114 169.510, 758.894 171.732, 752.344 175.514 C 742.429 181.238, 738.691 182.448, 746.232 177.492 C 748.579 175.949, 751.625 173.937, 753 173.021 C 754.375 172.104, 757.634 170.296, 760.243 169.003 C 766.695 165.805, 765.627 165.391, 758.759 168.428 C 749.448 172.546, 729.727 187.060, 731.302 188.635 C 731.725 189.058, 733.125 188.300, 734.414 186.952 C 735.703 185.603, 737.712 183.717, 738.879 182.760 C 740.646 181.310, 741 181.268, 741 182.510 C 741 183.329, 740.597 184, 740.104 184 C 738.923 184, 727.138 195.642, 723.527 200.376 C 721.967 202.421, 720.119 203.876, 719.421 203.608 C 716.189 202.368, 705.624 225.428, 702.999 239.451 C 700.161 254.609, 701.823 278.122, 706.536 289.500 C 710.099 298.100, 713.851 305.715, 716.857 310.446 C 720.752 316.576, 721.042 315.435, 717.196 309.111 C 715.655 306.575, 713.768 302.925, 713.003 301 C 712.239 299.075, 711.322 297.275, 710.966 297 C 710.031 296.277, 707 286.971, 707 284.822 C 707 283.820, 706.614 283, 706.141 283 C 705.043 283, 702.621 269.005, 703.275 266.437 C 703.546 265.372, 703.820 266.386, 703.884 268.691 C 703.948 270.996, 704.374 273.113, 704.831 273.395 C 705.288 273.678, 706.237 276.517, 706.940 279.704 C 707.644 282.892, 709.108 287.525, 710.195 290 C 713.378 297.249, 717.920 305.971, 719.048 307 C 719.350 307.275, 720.687 309.075, 722.020 311 C 727.315 318.648, 740.592 332.160, 747.049 336.473 C 751.819 339.658, 766.460 347, 768.043 347 C 768.570 347, 769 347.450, 769 348 C 769 349.480, 765.749 349.213, 763.354 347.535 C 762.204 346.730, 760.979 346.355, 760.631 346.702 C 760.284 347.049, 760 346.857, 760 346.275 C 760 345.693, 758.906 344.942, 757.570 344.607 C 756.233 344.271, 754.546 343.434, 753.820 342.746 C 753.094 342.058, 750.813 340.606, 748.750 339.520 C 746.688 338.434, 745 337.198, 745 336.773 C 745 336.348, 744.428 336, 743.728 336 C 743.028 336, 740.728 334.576, 738.617 332.836 C 735.712 330.441, 735.107 330.198, 736.129 331.836 C 736.873 333.026, 737.738 334, 738.052 334 C 738.366 334, 739.526 334.841, 740.630 335.870 C 744.746 339.705, 764.522 350, 767.772 350 C 772.041 350, 772 349.299, 772 421.513 L 772 490.626 774.990 493.490 C 778.124 496.493, 780.292 496.331, 777.893 493.274 C 776.619 491.651, 776.653 491.620, 778.296 492.910 C 779.283 493.686, 779.866 494.906, 779.591 495.622 C 779.317 496.338, 780.309 497.863, 781.796 499.011 C 800.978 513.820, 821.070 526.263, 822.879 524.454 C 823.221 524.113, 823.725 485.099, 824 437.756 L 824.500 351.678 828 350.369 L 831.500 349.059 827.500 349.605 L 823.500 350.151 828.500 347.742 C 831.250 346.417, 834.842 344.999, 836.482 344.590 C 844.269 342.646, 862.416 327.453, 872.809 314.174 C 878.130 307.377, 885.968 293.102, 888.279 286 C 891.478 276.168, 893 266.047, 893 254.596 C 893 243.735, 891.629 232.558, 890.045 230.500 C 889.622 229.950, 888.959 228.150, 888.573 226.500 C 887.292 221.034, 883.140 213.361, 877.145 205.380 C 866.259 190.891, 855.070 180.890, 844.215 175.950 C 834.518 171.537, 834.003 171.325, 828.500 169.472 C 825.750 168.546, 822.600 167.394, 821.500 166.912 C 814.222 163.723, 789.489 162.946, 780.500 165.625 M 726.519 192.250 C 723.469 195.638, 719 201.757, 719 202.544 C 719 203.997, 721.185 202.643, 721.908 200.743 C 722.379 199.502, 724.618 196.690, 726.882 194.493 C 729.146 192.297, 730.999 190.162, 730.999 189.750 C 731.001 188.188, 729.344 189.112, 726.519 192.250 M 1169.500 339.930 L 1166.500 340.763 1169.809 340.882 C 1174.273 341.041, 1172.998 342.664, 1167.745 343.508 C 1163.682 344.162, 1146.041 350.705, 1145 351.945 C 1144.725 352.273, 1143.150 353.129, 1141.500 353.849 L 1138.500 355.157 1140.772 353.019 C 1142.022 351.843, 1144.385 350.413, 1146.022 349.842 C 1147.660 349.271, 1149 348.447, 1149 348.011 C 1149 347.574, 1150.178 346.921, 1151.618 346.560 C 1153.058 346.198, 1153.972 345.639, 1153.650 345.316 C 1152.805 344.471, 1142.432 349.794, 1136 354.373 C 1132.975 356.526, 1126.359 362.536, 1121.297 367.729 C 1111.633 377.643, 1106.864 385.621, 1100.511 402.500 C 1095.180 416.664, 1095.138 444.889, 1100.425 459.500 C 1101.818 463.350, 1102.967 467.526, 1102.979 468.779 C 1103.004 471.437, 1097.380 478.869, 1091.057 484.535 C 1082.958 491.792, 1066.665 508.249, 1068.610 507.209 C 1069.664 506.645, 1073.220 503.442, 1076.513 500.092 C 1079.806 496.742, 1085.200 491.885, 1088.500 489.299 L 1094.500 484.596 1089.500 490.046 C 1086.750 493.043, 1067.625 512.412, 1047 533.088 C 1008.219 571.966, 980.936 600.164, 978.209 604.186 C 977.346 605.459, 971.947 611.214, 966.210 616.975 C 953.149 630.092, 952.655 631.194, 957.704 635.947 C 959.792 637.913, 963.300 640.856, 965.500 642.488 C 967.700 644.120, 973.602 649.178, 978.616 653.728 C 985.028 659.546, 988.488 662, 990.283 662 C 991.685 662, 992.983 661.555, 993.167 661.012 C 993.676 659.503, 1116.246 536.909, 1124.906 529.247 C 1129.083 525.552, 1133.185 521.847, 1134.022 521.014 C 1134.859 520.181, 1136.856 518.375, 1138.460 517 L 1141.376 514.500 1139.438 517.156 C 1138.372 518.617, 1135.530 522.217, 1133.123 525.156 C 1130.556 528.290, 1132.224 526.881, 1137.155 521.750 C 1144.563 514.042, 1147.090 512.345, 1150.324 512.906 C 1150.778 512.985, 1150.864 512.588, 1150.515 512.025 C 1150.130 511.402, 1151.180 511.012, 1153.191 511.032 C 1156.056 511.059, 1156.279 511.232, 1154.851 512.318 C 1153.446 513.387, 1154.463 513.906, 1161.760 515.839 C 1166.909 517.203, 1170.552 517.724, 1170.908 517.149 C 1171.240 516.613, 1180.084 516.034, 1191 515.833 C 1206.557 515.547, 1211.208 515.138, 1214 513.813 C 1215.925 512.899, 1220.901 510.612, 1225.057 508.730 C 1229.213 506.848, 1235.129 503.700, 1238.203 501.733 C 1245.450 497.097, 1260.935 479.650, 1266.368 470 C 1275.192 454.328, 1279.397 429.368, 1275.551 415.500 C 1274.636 412.200, 1273.268 406.717, 1272.510 403.315 C 1271.752 399.914, 1270.474 396.089, 1269.670 394.815 C 1268.866 393.542, 1267.872 391.381, 1267.462 390.013 C 1266.208 385.837, 1256.828 372.390, 1253 369.282 C 1251.853 368.351, 1251.813 368.056, 1252.828 368.032 C 1253.955 368.005, 1257.901 371.706, 1263.456 378 C 1264.184 378.825, 1265.782 381.643, 1267.006 384.263 C 1268.230 386.882, 1269.661 389.290, 1270.184 389.614 C 1270.708 389.937, 1269.941 387.843, 1268.480 384.960 C 1261.580 371.345, 1244.861 355.824, 1229 348.310 C 1217.673 342.944, 1215.184 341.959, 1210.500 340.992 C 1203.983 339.647, 1173.374 338.853, 1169.500 339.930 M 427 343.773 C 427 344.273, 429.587 345.258, 432.750 345.961 C 435.913 346.665, 438.819 347.745, 439.208 348.362 C 439.705 349.148, 440.232 349.168, 440.972 348.428 C 441.711 347.689, 440.305 346.849, 436.263 345.616 C 427.215 342.856, 427 342.813, 427 343.773 M 396 346.122 C 383.241 347.176, 368.275 352.958, 358 360.802 C 356.625 361.852, 354.014 363.474, 352.199 364.408 C 350.383 365.341, 348.660 366.721, 348.371 367.475 C 348.082 368.229, 347.142 369.115, 346.281 369.446 C 344.936 369.962, 344.904 369.798, 346.056 368.273 C 349.240 364.058, 353.494 360, 354.728 360 C 355.462 360, 356.300 359.381, 356.590 358.625 C 356.880 357.869, 358.896 356.449, 361.069 355.469 C 363.242 354.489, 364.860 353.527, 364.664 353.330 C 364.038 352.704, 357.142 355.932, 356.305 357.242 C 355.862 357.936, 354.283 359.130, 352.796 359.896 C 350.655 360.999, 341.985 370.180, 336.082 377.595 C 333.103 381.337, 326.714 394.196, 323.876 402.159 C 320.579 411.412, 320.547 411.670, 320.524 429.500 C 320.501 446.415, 320.668 448.042, 323.288 456.493 C 328.547 473.455, 334.338 483.441, 344.985 493.902 C 351.976 500.771, 361.616 507.717, 362.682 506.652 C 363.040 506.293, 362.832 506, 362.218 506 C 361.605 506, 359.950 504.988, 358.542 503.750 C 357.133 502.512, 354.780 500.600, 353.313 499.500 C 347.723 495.309, 338.991 486.387, 337.897 483.750 C 337.270 482.238, 336.445 481, 336.064 481 C 335.175 481, 331.766 473.901, 332.366 473.301 C 332.614 473.052, 333.113 473.781, 333.474 474.919 C 333.835 476.057, 334.664 477.554, 335.316 478.245 C 335.967 478.937, 338.260 481.691, 340.411 484.367 C 351.184 497.763, 360.967 504.789, 379.500 512.441 C 383.933 514.271, 384.847 514.945, 383 515.022 C 380.722 515.118, 380.677 515.199, 382.500 515.938 C 386.113 517.403, 399 518.312, 399 517.101 C 399 516.378, 402.173 516.005, 408.250 516.015 C 414.568 516.026, 417.025 516.337, 416 516.996 C 414.090 518.225, 427.736 517.431, 431.207 516.112 C 432.540 515.605, 436.301 514.850, 439.565 514.433 C 444.925 513.750, 445.213 513.598, 442.540 512.869 C 440.912 512.424, 439.337 512.435, 439.040 512.892 C 438.743 513.349, 436.250 513.979, 433.500 514.294 C 430.750 514.608, 429.400 514.622, 430.500 514.325 C 431.600 514.028, 433.099 513.298, 433.832 512.702 C 434.564 512.107, 438.389 511.593, 442.332 511.560 L 449.500 511.500 478.500 540.886 C 532.290 595.393, 591.733 654.694, 595.323 657.433 C 597.448 659.054, 599.822 660.018, 601.195 659.819 C 602.463 659.635, 604.059 660.163, 604.742 660.992 C 605.745 662.210, 605.954 660.236, 605.830 650.750 C 605.745 644.288, 605.299 639, 604.838 639 C 604.377 639, 603.968 631.013, 603.929 621.250 C 603.830 596.524, 603.046 589.039, 600.241 586.028 C 597.590 583.182, 597.245 581.161, 599.746 583.128 C 602.755 585.493, 603.586 586.440, 604.461 588.500 C 605.245 590.349, 605.342 590.363, 605.739 588.691 C 605.991 587.634, 605.199 586.051, 603.835 584.884 C 602.551 583.785, 589.386 571.099, 574.580 556.693 C 559.774 542.287, 541.579 524.650, 534.147 517.500 C 526.715 510.350, 513.462 497.300, 504.696 488.500 L 488.757 472.501 489.341 466.500 C 489.662 463.200, 490.945 457.800, 492.192 454.500 C 494.283 448.967, 494.461 446.867, 494.480 427.500 L 494.500 406.500 491.084 398 C 489.205 393.325, 487.068 388.790, 486.334 387.921 C 485.600 387.053, 485 386.021, 485 385.629 C 485 384.034, 476.797 374.026, 469.441 366.643 C 460.979 358.152, 450.304 350.527, 445.500 349.543 C 442.855 349.001, 442.944 349.123, 446.250 350.571 C 448.313 351.475, 450 352.561, 450 352.986 C 450 353.410, 451.350 354.317, 453 355 C 454.650 355.683, 456 356.649, 456 357.146 C 456 357.643, 457.098 358.467, 458.439 358.977 C 459.781 359.487, 461.417 360.938, 462.075 362.202 L 463.271 364.500 460.886 362.359 C 457.753 359.548, 449.161 354.421, 446 353.477 C 444.625 353.066, 443.275 352.408, 443 352.014 C 442.725 351.620, 438.739 350.053, 434.142 348.531 C 424.986 345.500, 412.831 344.732, 396 346.122 M 1226 349.456 C 1226 349.707, 1229.247 351.808, 1233.215 354.126 C 1237.184 356.443, 1241.479 359.388, 1242.761 360.670 C 1244.042 361.951, 1245.379 363, 1245.731 363 C 1246.083 363, 1247.413 363.978, 1248.686 365.174 C 1249.958 366.370, 1251 366.873, 1251 366.292 C 1251 364.608, 1242.975 357.043, 1238.670 354.669 C 1229.561 349.645, 1228.441 349.094, 1227.250 349.048 C 1226.563 349.022, 1226 349.205, 1226 349.456 M 493.397 429 C 493.397 436.975, 493.553 440.238, 493.743 436.250 C 493.932 432.262, 493.932 425.738, 493.743 421.750 C 493.553 417.762, 493.397 421.025, 493.397 429 M 1279.214 421 C 1279.205 422.925, 1279.540 426.975, 1279.958 430 L 1280.718 435.500 1280.802 430.500 C 1280.847 427.750, 1280.512 423.700, 1280.057 421.500 L 1279.230 417.500 1279.214 421 M 502 488.724 C 502 489.194, 505.030 492.486, 508.734 496.039 C 516.317 503.314, 515.289 501.342, 507.250 493.192 C 504.363 490.265, 502 488.254, 502 488.724 M 544.500 531.467 C 575.946 562.477, 595.658 581.349, 597.144 581.866 C 597.835 582.106, 597.807 581.508, 597.062 580.116 C 596.439 578.952, 595.608 577.995, 595.215 577.989 C 594.822 577.983, 585.692 569.321, 574.926 558.739 C 564.160 548.158, 552.757 537.250, 549.585 534.500 C 546.414 531.750, 541.497 527.061, 538.659 524.081 C 529.929 514.911, 521.190 506.693, 519 505.594 C 518.175 505.180, 529.650 516.823, 544.500 531.467 M 797.187 508.500 C 798.382 509.875, 799.932 511, 800.631 511 C 801.329 511, 802.260 511.563, 802.700 512.250 C 804.016 514.307, 809.975 518.134, 810.936 517.540 C 811.427 517.236, 812.057 517.553, 812.336 518.244 C 812.739 519.245, 812.858 519.243, 812.921 518.234 C 812.964 517.537, 811.313 516.187, 809.250 515.234 C 807.188 514.280, 805.275 513.275, 805 513 C 803.621 511.621, 796.045 506, 795.565 506 C 795.262 506, 795.991 507.125, 797.187 508.500 M 369.500 511.516 C 373.350 513.386, 377.400 514.895, 378.500 514.868 C 379.782 514.837, 379.401 514.500, 377.436 513.929 C 375.750 513.440, 372.239 511.905, 369.633 510.520 C 367.027 509.134, 364.355 508.026, 363.697 508.057 C 363.039 508.089, 365.650 509.645, 369.500 511.516 M 1051.500 523 C 1047.126 527.400, 1043.852 531, 1044.225 531 C 1044.967 531, 1060 516.183, 1060 515.452 C 1060 514.534, 1059.289 515.165, 1051.500 523 M 1175.655 518.250 C 1175.910 518.663, 1182.466 519, 1190.226 519 C 1197.985 519, 1204.065 518.731, 1203.736 518.403 C 1202.855 517.521, 1175.111 517.370, 1175.655 518.250 M 465 531.608 C 465 532.712, 477.342 545, 478.451 545 C 478.998 545, 478.445 544.299, 477.223 543.443 C 476 542.587, 475 541.237, 475 540.443 C 475 539.649, 474.401 539, 473.669 539 C 472.937 539, 471.784 537.987, 471.107 536.750 C 469.840 534.433, 465 530.358, 465 531.608 M 1031.483 543.082 C 1025.443 549.177, 1018.475 556.281, 1016 558.868 C 1013.525 561.456, 1003.714 571.657, 994.198 581.537 C 972.662 603.897, 973.486 603, 974.475 603 C 975.427 603, 1012 565.831, 1012 564.863 C 1012 564.510, 1018.413 557.742, 1026.250 549.823 C 1034.088 541.904, 1041.118 534.654, 1041.872 533.712 C 1045.066 529.728, 1041.794 532.679, 1031.483 543.082 M 721.765 538.961 C 725.761 539.421, 729.811 540.095, 730.765 540.458 C 732.116 540.972, 732.235 540.851, 731.303 539.912 C 730.632 539.236, 726.682 538.579, 722.303 538.415 L 714.500 538.124 721.765 538.961 M 706.984 543.333 C 698.798 545.757, 687.838 552.476, 681.381 559.029 C 679.246 561.194, 677.130 562.974, 676.679 562.983 C 676.227 562.992, 676.452 562.396, 677.179 561.657 C 677.905 560.918, 680.381 558.262, 682.681 555.754 C 684.980 553.247, 688.229 550.387, 689.899 549.400 C 691.570 548.413, 693.156 547.035, 693.424 546.336 C 694.168 544.398, 684.788 551.446, 679.868 556.524 C 673.357 563.242, 667.753 573.171, 664.644 583.500 C 662.810 589.592, 662.584 592.445, 662.904 605.500 C 663.412 626.267, 663.378 685.669, 662.774 830 C 662.329 936.159, 662.697 956.182, 664.042 899 C 664.216 891.575, 664.680 914.075, 665.072 949 C 665.755 1009.753, 665.879 1012.846, 667.949 1020.500 C 669.855 1027.548, 674.520 1038.218, 677.086 1041.397 C 677.575 1042.004, 680.382 1045.504, 683.323 1049.175 C 689.822 1057.291, 693.620 1060.490, 701.728 1064.681 C 704.228 1065.973, 704.708 1066.647, 703.855 1067.675 C 702.544 1069.254, 701.693 1069.164, 720.500 1069.443 C 728.200 1069.558, 735.400 1069.297, 736.500 1068.863 C 737.639 1068.413, 736.563 1068.333, 734 1068.676 C 728.417 1069.423, 729.336 1068.256, 736.247 1065.824 C 739.136 1064.808, 741.650 1063.531, 741.833 1062.988 C 742.017 1062.445, 742.622 1062, 743.178 1062 C 744.348 1062, 759.035 1051.408, 763.576 1047.290 C 773.742 1038.069, 795.360 1019.438, 796.281 1019.104 C 797.320 1018.728, 802.467 1014.336, 805.900 1010.897 C 806.780 1010.015, 810.650 1006.676, 814.500 1003.476 C 822.383 996.925, 823.664 995.840, 826.512 993.296 C 827.618 992.308, 830.739 989.700, 833.446 987.500 C 836.153 985.300, 839.320 982.600, 840.483 981.500 C 841.647 980.400, 845.727 976.744, 849.550 973.376 C 853.372 970.008, 859.425 964.663, 863 961.500 C 866.575 958.336, 871.042 954.567, 872.926 953.124 C 874.810 951.681, 879.085 947.979, 882.426 944.897 C 888.867 938.955, 901.754 927.820, 908.924 922 C 911.296 920.075, 915.095 916.779, 917.368 914.675 C 919.641 912.572, 924.392 908.297, 927.926 905.175 C 931.461 902.054, 936.636 897.438, 939.426 894.918 C 942.217 892.398, 947.650 887.711, 951.500 884.503 C 972.528 866.980, 998.288 842.774, 1003.118 836 C 1007.575 829.749, 1011.557 822.590, 1012.898 818.416 C 1015.978 808.831, 1014.287 789.678, 1009.484 779.750 C 1008.752 778.237, 1008.538 777, 1009.009 777 C 1009.480 777, 1010.181 778.013, 1010.567 779.250 C 1010.954 780.487, 1011.633 781.736, 1012.078 782.024 C 1012.523 782.312, 1013.424 784.787, 1014.080 787.524 C 1015.796 794.681, 1016.003 795.330, 1016.435 794.893 C 1016.649 794.677, 1016.376 792.047, 1015.830 789.049 C 1014.928 784.102, 1010.326 774.246, 1007.593 771.408 C 1006.992 770.784, 1004.925 768.374, 1003.001 766.052 C 999.190 761.454, 978.155 742.512, 977.541 743.125 C 976.955 743.711, 979.249 746.419, 981.847 748.208 C 986.948 751.721, 999.155 763.521, 1003.210 768.859 C 1005.567 771.962, 1007.946 774.831, 1008.497 775.235 C 1009.149 775.712, 1009.119 775.975, 1008.412 775.985 C 1007.813 775.993, 1004.888 773.243, 1001.912 769.873 C 996.776 764.059, 993.246 760.526, 979.616 747.558 C 976.380 744.479, 974.529 742.266, 975.503 742.639 C 978.184 743.668, 976.993 741.819, 972.224 737.549 C 967.404 733.233, 965.483 733.192, 969.735 737.496 C 971.677 739.462, 971.905 739.976, 970.500 739.223 C 967.687 737.715, 964.681 734.004, 966.260 733.987 C 967.815 733.970, 955.335 722.077, 944.857 713.591 C 938.768 708.660, 922.424 694.462, 921.804 693.565 C 921.422 693.011, 920.747 692.919, 920.306 693.361 C 919.864 693.802, 920.402 694.803, 921.502 695.584 C 922.601 696.365, 925.750 699.009, 928.500 701.460 C 935.142 707.379, 937.826 709.651, 941.939 712.836 C 946.768 716.577, 951 720.588, 951 721.425 C 951 722.526, 939.691 713.407, 929.097 703.763 C 923.819 698.957, 919.494 694.390, 919.486 693.613 C 919.470 691.982, 915.791 688.235, 911.623 685.604 C 910.040 684.605, 904.865 680.327, 900.123 676.099 C 895.380 671.870, 884.877 662.898, 876.782 656.162 C 868.688 649.425, 861.779 643.452, 861.431 642.888 C 859.933 640.464, 845.745 630.039, 844.767 630.644 C 844.129 631.038, 843.981 630.840, 844.403 630.156 C 845.073 629.073, 838.447 622.016, 836.750 622.005 C 835.083 621.994, 836.148 624.111, 838.304 625.093 C 840.641 626.157, 843.695 630, 842.205 630 C 840.733 630, 834.893 623.329, 835.200 621.999 C 835.365 621.282, 828.300 614.668, 819.500 607.300 C 805.984 595.983, 793.051 584.742, 788.597 580.440 C 787.994 579.858, 784.575 576.891, 781 573.849 C 770.124 564.592, 767.898 562.675, 762.595 558 C 753.379 549.875, 748.564 546.268, 744.062 544.119 C 738.969 541.687, 739 541.694, 739 542.922 C 739 543.430, 740.575 544.365, 742.500 545 C 744.425 545.635, 746 546.460, 746 546.833 C 746 547.207, 747.237 548.075, 748.750 548.764 C 750.263 549.453, 753.640 551.926, 756.255 554.258 C 758.871 556.591, 762.432 559.625, 764.169 561 C 769.792 565.451, 779 574.459, 778.985 575.494 C 778.976 576.047, 778.617 575.946, 778.187 575.269 C 777.757 574.592, 775.343 572.567, 772.822 570.769 C 770.301 568.971, 764.986 564.575, 761.010 561 C 757.034 557.425, 753.153 554.139, 752.385 553.697 C 751.618 553.256, 749.801 551.793, 748.349 550.447 C 746.896 549.101, 744.964 548, 744.054 548 C 743.144 548, 741.973 547.579, 741.450 547.064 C 739.458 545.101, 724.572 541.002, 719.622 541.054 C 716.805 541.083, 711.118 542.109, 706.984 543.333 M 606.374 620.500 C 606.376 626.550, 606.541 628.896, 606.740 625.713 C 606.939 622.531, 606.937 617.581, 606.736 614.713 C 606.535 611.846, 606.372 614.450, 606.374 620.500 M 661.395 633.500 C 661.396 641.200, 661.553 644.218, 661.743 640.206 C 661.934 636.195, 661.932 629.895, 661.741 626.206 C 661.549 622.518, 661.393 625.800, 661.395 633.500 M 950.667 627.425 C 949.372 630.800, 950.066 632.113, 956.664 638.774 C 962.936 645.104, 962.968 644.228, 956.715 637.385 C 955.149 635.671, 953.298 632.338, 952.601 629.978 C 951.660 626.790, 951.163 626.134, 950.667 627.425 M 868.527 652.604 C 871.292 655.297, 875.280 658.850, 877.390 660.500 C 879.499 662.150, 881.962 664.226, 882.863 665.114 C 883.763 666.002, 885.625 667.274, 887 667.939 C 890.037 669.410, 885.072 664.753, 874 655.746 C 863.943 647.565, 862.505 646.739, 868.527 652.604 M 251 706.098 C 254.575 706.624, 259.525 707.471, 262 707.980 C 264.475 708.488, 269.094 709.409, 272.263 710.026 C 275.433 710.643, 277.765 711.572, 277.444 712.090 C 277.124 712.608, 276.518 712.820, 276.097 712.560 C 275.676 712.300, 274.020 711.854, 272.416 711.569 C 270.812 711.284, 267.076 710.590, 264.114 710.026 C 252.890 707.889, 239.686 709.199, 224.500 713.955 C 211.395 718.061, 205.241 721.661, 193 732.384 C 188.875 735.997, 185.050 738.957, 184.500 738.962 C 183.833 738.967, 183.833 738.724, 184.500 738.235 C 185.050 737.831, 186.361 735.925, 187.412 734 L 189.325 730.500 185.912 734.065 C 177.489 742.865, 170.766 753.455, 166.276 765 C 163.890 771.135, 163.756 772.483, 163.889 789 C 164.091 813.889, 165.836 823.565, 172.612 837.372 C 178.218 848.793, 181.355 853.509, 188.750 861.632 C 189.988 862.991, 191.001 864.417, 191.002 864.802 C 191.005 865.873, 205.906 877.407, 211.705 880.826 C 214.538 882.496, 220.600 884.906, 225.178 886.181 C 232.338 888.176, 235.804 888.500, 250 888.500 C 267.927 888.500, 274.631 887.334, 285.708 882.290 C 292.570 879.166, 295.502 877.222, 303.463 870.520 C 316.276 859.733, 324.617 849.760, 330.464 838.237 C 332.491 834.242, 334.584 831.243, 335.115 831.571 C 335.647 831.900, 335.782 833.143, 335.416 834.334 C 335.051 835.525, 335.102 836.167, 335.531 835.761 C 335.960 835.355, 336.586 833.330, 336.923 831.261 L 337.534 827.500 469.267 827.246 L 601 826.993 600.882 804.246 C 600.817 791.736, 600.420 780.150, 600 778.500 C 599.580 776.850, 599.183 776.058, 599.118 776.740 C 599.037 777.596, 598.379 777.449, 597 776.268 C 594.622 774.232, 594.434 773, 596.500 773 C 597.325 773, 598 773.450, 598 774 C 598 774.550, 598.505 775, 599.122 775 C 599.876 775, 599.817 774.484, 598.942 773.430 C 598.226 772.567, 596.842 772.069, 595.868 772.324 C 594.893 772.579, 593.936 772.309, 593.742 771.725 C 593.495 770.985, 554.693 770.536, 465.944 770.246 C 395.850 770.018, 338.192 769.531, 337.815 769.165 C 337.438 768.799, 334.797 764, 331.945 758.500 C 325.999 747.032, 319.962 739.056, 310.751 730.500 C 302.857 723.167, 296.783 718.736, 291.500 716.454 C 289.300 715.504, 285.881 713.898, 283.902 712.885 C 277.903 709.814, 262.718 706.227, 253.346 705.667 C 244.797 705.157, 244.719 705.172, 251 706.098 M 1365.550 708.915 C 1366.072 709.419, 1367.625 710.064, 1369 710.348 C 1371.373 710.840, 1369.357 710.738, 1350.500 709.413 C 1345.864 709.088, 1337.243 709.478, 1330 710.342 C 1317.107 711.880, 1314.312 711.824, 1320.140 710.147 C 1322.347 709.512, 1322.788 709.149, 1321.426 709.090 C 1320.285 709.041, 1315.606 710.623, 1311.027 712.608 C 1303.185 716.006, 1298.686 718.638, 1288 726.078 C 1279.449 732.031, 1271.136 742.379, 1264.124 755.797 C 1262.314 759.260, 1260.198 763.310, 1259.423 764.797 C 1258.647 766.283, 1258.010 768.063, 1258.006 768.750 C 1258.001 769.740, 1239.751 770, 1170.107 770 C 1090.883 770, 1082.154 770.156, 1081.607 771.582 C 1080.815 773.646, 1080.815 823.354, 1081.607 825.418 C 1082.154 826.844, 1090.788 827, 1169.036 827 C 1246.631 827, 1256.024 827.167, 1257.429 828.571 C 1258.293 829.436, 1259 830.984, 1259 832.011 C 1259 834.612, 1266.935 849.645, 1271.727 856.124 C 1277.850 864.401, 1286.102 872.160, 1295.268 878.260 C 1304.682 884.524, 1315.387 889.393, 1318.154 888.670 C 1319.171 888.404, 1319.796 888.522, 1319.542 888.932 C 1319.289 889.342, 1322.755 890.466, 1327.245 891.431 C 1338.854 893.926, 1356.416 893.745, 1365 891.041 C 1370.045 889.452, 1370.605 889.110, 1367.500 889.512 L 1363.500 890.030 1367.500 888.049 C 1369.700 886.959, 1372.175 886.051, 1373 886.030 C 1373.825 886.009, 1377.200 884.646, 1380.500 883 C 1383.800 881.354, 1387.063 880.006, 1387.750 880.004 C 1388.438 880.002, 1389 879.655, 1389 879.234 C 1389 878.812, 1391.431 877.013, 1394.403 875.235 C 1397.375 873.458, 1401.651 870.462, 1403.906 868.579 C 1407.664 865.439, 1417.110 854.728, 1419.500 850.897 C 1420.050 850.015, 1421.744 847.508, 1423.265 845.325 C 1428.425 837.919, 1433.091 824.667, 1434.058 814.671 C 1436.099 793.583, 1434.894 778.828, 1430.188 767.294 C 1428.635 763.488, 1428.432 762.229, 1429.433 762.613 C 1430.187 762.902, 1431.054 764.100, 1431.362 765.276 C 1431.669 766.451, 1432.207 767.126, 1432.557 766.777 C 1433.699 765.635, 1425.892 751.066, 1420.325 743.951 C 1417.333 740.128, 1414.686 737, 1414.443 737 C 1413.257 737, 1414.336 738.856, 1417.572 742.379 C 1421.006 746.118, 1425 752.547, 1425 754.334 C 1425 754.809, 1422.944 752.463, 1420.431 749.120 C 1417.917 745.776, 1411.655 739.093, 1406.514 734.268 C 1398.995 727.211, 1394.950 724.347, 1385.833 719.622 C 1379.600 716.392, 1373.927 713.292, 1373.226 712.732 C 1371.225 711.135, 1372.443 710.829, 1375.611 712.134 C 1377.200 712.788, 1378.838 713.250, 1379.250 713.161 C 1379.662 713.073, 1380 713.398, 1380 713.883 C 1380 714.369, 1381.125 714.982, 1382.500 715.245 C 1386.172 715.947, 1385.577 715.313, 1380.311 712.914 C 1371.099 708.718, 1363.094 706.549, 1365.550 708.915 M 278 712.840 C 278 713.302, 279.800 714.274, 282 715 C 284.200 715.726, 286 716.608, 286 716.959 C 286 717.311, 287.571 718.166, 289.491 718.860 C 292.945 720.110, 301.738 725.627, 305.392 728.838 C 307.208 730.434, 307.228 730.410, 305.894 728.239 C 305.130 726.995, 303.819 725.760, 302.981 725.494 C 302.143 725.228, 299.976 723.658, 298.167 722.005 C 296.357 720.352, 294.229 719, 293.438 719 C 292.647 719, 292 718.632, 292 718.183 C 292 717.733, 289.525 716.585, 286.500 715.632 C 283.475 714.678, 281 713.471, 281 712.949 C 281 712.427, 280.325 712, 279.500 712 C 278.675 712, 278 712.378, 278 712.840 M 1314 712.881 C 1314 713.366, 1311.975 714.272, 1309.500 714.896 C 1307.025 715.519, 1305 716.472, 1305 717.014 C 1305 717.556, 1304.352 718, 1303.559 718 C 1302.766 718, 1301.866 718.408, 1301.558 718.907 C 1300.817 720.104, 1308.073 717.983, 1310 716.439 C 1310.825 715.778, 1312.513 714.928, 1313.750 714.551 C 1315.990 713.868, 1316.905 712, 1315 712 C 1314.450 712, 1314 712.397, 1314 712.881 M 1290.362 726.500 C 1290.045 727.325, 1289.181 728, 1288.441 728 C 1286.945 728, 1280 734.776, 1280 736.235 C 1280 736.746, 1281.765 735.326, 1283.922 733.082 C 1286.078 730.837, 1288.259 729, 1288.767 729 C 1289.274 729, 1290.505 728.100, 1291.500 727 C 1292.579 725.808, 1292.831 725, 1292.124 725 C 1291.471 725, 1290.678 725.675, 1290.362 726.500 M 162.038 784.500 C 161.125 792.369, 161.150 796.250, 162.108 795.292 C 162.655 794.745, 162.942 791.418, 162.744 787.898 C 162.547 784.379, 162.229 782.850, 162.038 784.500 M 164.005 823.691 C 164.007 824.686, 165.161 828.200, 166.570 831.500 C 167.978 834.800, 168.841 836.150, 168.488 834.500 C 168.135 832.850, 167.165 830.060, 166.333 828.300 C 165.501 826.540, 165.093 824.659, 165.426 824.119 C 165.760 823.580, 165.575 822.856, 165.016 822.510 C 164.457 822.165, 164.002 822.696, 164.005 823.691 M 975.858 949.250 C 972.779 952.138, 968.064 957.200, 965.380 960.501 C 958.540 968.912, 956.915 971.422, 962.115 965.544 C 971.924 954.458, 980.583 946, 982.122 946 C 983.020 946, 984.315 946.675, 985 947.500 C 985.685 948.325, 986.675 949, 987.201 949 C 988.526 949, 995.454 955.994, 996.936 958.828 C 997.606 960.108, 995.663 958.645, 992.620 955.578 C 989.577 952.510, 986.392 950, 985.544 950 C 984.695 950, 984 949.550, 984 949 C 984 947.134, 982.478 947.990, 977.336 952.750 C 972.230 957.476, 958 974.361, 958 975.692 C 958 976.774, 952.746 982, 951.658 982 C 951.126 982, 951.342 981.212, 952.138 980.250 C 952.935 979.288, 954.241 977.150, 955.042 975.500 C 955.842 973.850, 956.948 972.169, 957.498 971.765 C 958.116 971.312, 958.011 971.025, 957.225 971.015 C 956.524 971.007, 955.516 972.013, 954.984 973.250 C 954.453 974.487, 953.151 976.625, 952.091 978 C 947.995 983.315, 948.255 983.948, 958.984 994.837 C 968.165 1004.154, 972.260 1007.627, 968.903 1003.250 C 967.401 1001.293, 966.752 1000.588, 959.103 992.598 C 956.135 989.498, 953.959 986.707, 954.269 986.397 C 954.950 985.716, 974.313 1004.982, 1006.010 1037.880 C 1018.929 1051.289, 1044.350 1077.171, 1062.500 1095.396 C 1080.650 1113.621, 1096.175 1129.385, 1097 1130.427 C 1098.431 1132.234, 1098.389 1132.256, 1096.097 1130.911 C 1094.775 1130.135, 1077.192 1113.075, 1057.025 1093 C 1021.814 1057.950, 1006.667 1043.430, 1023.500 1060.862 C 1031.510 1069.156, 1084.088 1121.556, 1095.635 1132.750 C 1099.009 1136.022, 1102.053 1139.592, 1102.400 1140.685 C 1102.747 1141.777, 1101.813 1146.683, 1100.326 1151.586 C 1098.020 1159.186, 1097.562 1162.767, 1097.219 1175.877 C 1096.869 1189.231, 1097.078 1192.059, 1098.809 1197.377 C 1099.905 1200.745, 1101.097 1204.850, 1101.458 1206.500 C 1102.397 1210.787, 1106.848 1221.887, 1109.277 1226 C 1112.009 1230.626, 1119.424 1239.669, 1123.908 1243.845 C 1132.383 1251.737, 1140.675 1257.519, 1138.522 1254.036 C 1137.777 1252.829, 1144.964 1255.744, 1147 1257.473 C 1147.825 1258.174, 1150.188 1259.289, 1152.250 1259.951 C 1155.666 1261.048, 1157.427 1263, 1155 1263 C 1154.450 1263, 1154 1262.621, 1154 1262.158 C 1154 1261.695, 1152.220 1260.783, 1150.045 1260.132 C 1147.869 1259.480, 1145.486 1258.343, 1144.748 1257.605 C 1142.888 1255.745, 1138.505 1254.390, 1139.487 1255.978 C 1140.465 1257.562, 1153.154 1263.377, 1161.545 1266.088 C 1167.606 1268.046, 1174.234 1268.359, 1180.500 1266.983 C 1181.050 1266.862, 1183.750 1266.892, 1186.500 1267.050 L 1191.500 1267.336 1185.500 1268 L 1179.500 1268.664 1185.500 1268.788 C 1192.439 1268.932, 1205.804 1267.529, 1206.778 1266.555 C 1207.143 1266.190, 1206.896 1265.554, 1206.228 1265.141 C 1205.477 1264.677, 1207.017 1263.689, 1210.257 1262.556 C 1217.402 1260.056, 1230.620 1253.529, 1234.400 1250.634 C 1245.473 1242.154, 1262.610 1221.415, 1266.074 1212.306 C 1268.953 1204.732, 1271.230 1191.481, 1271.731 1179.380 C 1272.208 1167.858, 1272.013 1165.403, 1270.137 1159.225 C 1267.753 1151.377, 1267.575 1150, 1268.941 1150 C 1269.459 1150, 1270.311 1151.912, 1270.834 1154.250 C 1271.358 1156.588, 1271.834 1157.544, 1271.893 1156.376 C 1272.222 1149.841, 1261.324 1129.475, 1252 1119.200 C 1244.276 1110.688, 1232.059 1101.698, 1222 1097.121 C 1208.563 1091.007, 1190.844 1088.125, 1178 1089.963 C 1175.194 1090.365, 1178.492 1090.638, 1186.760 1090.689 C 1194.212 1090.735, 1200.563 1091.220, 1201.260 1091.796 C 1201.942 1092.360, 1204.188 1093.136, 1206.250 1093.522 C 1208.313 1093.907, 1210 1094.546, 1210 1094.941 C 1210 1095.336, 1206.963 1095.016, 1203.250 1094.230 C 1195.279 1092.542, 1174.179 1093.157, 1164.234 1095.366 C 1160.788 1096.132, 1157.755 1096.413, 1157.495 1095.991 C 1157.234 1095.569, 1159.004 1094.927, 1161.428 1094.563 C 1163.853 1094.199, 1166.378 1093.249, 1167.041 1092.451 C 1167.891 1091.427, 1167.915 1091, 1167.122 1091 C 1166.505 1091, 1166 1091.389, 1166 1091.864 C 1166 1092.339, 1163.974 1093.006, 1161.497 1093.345 C 1155.324 1094.191, 1148.204 1097.844, 1150.099 1099.192 C 1151.184 1099.964, 1151.086 1100.054, 1149.668 1099.594 C 1148.661 1099.267, 1147.178 1099, 1146.372 1099 C 1145.567 1099, 1127.941 1082.039, 1107.204 1061.308 C 1086.467 1040.578, 1070.158 1024.490, 1070.962 1025.558 C 1075.373 1031.415, 1081.500 1038.240, 1087.519 1044.002 C 1098.573 1054.583, 1102 1058.184, 1102 1059.218 C 1102 1059.756, 1094.208 1052.839, 1084.685 1043.848 C 1075.162 1034.857, 1066.499 1026.769, 1065.435 1025.875 C 1064.371 1024.982, 1061.240 1021.832, 1058.478 1018.875 C 1055.716 1015.919, 1049.416 1009.657, 1044.478 1004.960 C 1035.268 996.199, 1029.939 990.350, 1034.949 994.500 C 1036.276 995.600, 1038.181 997.175, 1039.181 998 C 1040.182 998.825, 1042.002 1000.400, 1043.227 1001.500 C 1050.025 1007.605, 1060.568 1016, 1061.439 1016 C 1061.992 1016, 1061.332 1015.233, 1059.973 1014.296 C 1058.613 1013.359, 1057.050 1012.086, 1056.500 1011.468 C 1055.950 1010.850, 1050.100 1005.476, 1043.500 999.526 C 1023.265 981.283, 999.026 958.220, 993.224 951.688 C 991.423 949.660, 989.491 948, 988.932 948 C 988.374 948, 986.950 947.100, 985.770 946 C 984.589 944.900, 983.135 944, 982.539 944 C 981.943 944, 978.936 946.362, 975.858 949.250 M 595.359 952.051 C 593.082 953.178, 590.425 954.978, 589.454 956.050 C 586.975 958.790, 588.141 958.476, 591.594 955.474 C 594.845 952.648, 597.661 951.673, 601.148 952.167 C 603.136 952.448, 603.548 953.158, 603.807 956.750 C 604.196 962.123, 606 962.349, 606 957.026 C 606 953.636, 605.566 952.827, 603.050 951.526 C 599.452 949.665, 600.296 949.608, 595.359 952.051 M 596.619 955.050 C 593.498 956.980, 551.239 999.383, 536.324 1015.552 C 531.277 1021.024, 516.427 1036.354, 503.324 1049.620 C 490.221 1062.886, 475.446 1077.961, 470.492 1083.120 C 458.824 1095.270, 453.410 1100.008, 451.247 1099.965 C 449.764 1099.934, 449.817 1099.745, 451.594 1098.715 C 452.745 1098.047, 455.689 1095.250, 458.134 1092.500 C 460.580 1089.750, 466.443 1083.675, 471.162 1079 C 475.882 1074.325, 482.108 1067.575, 484.998 1064 C 487.888 1060.425, 491.145 1056.713, 492.237 1055.750 C 493.328 1054.787, 493.777 1054, 493.234 1054 C 492.691 1054, 488.256 1058.388, 483.378 1063.750 C 478.501 1069.112, 472.483 1075.574, 470.005 1078.110 C 467.527 1080.645, 462.350 1085.977, 458.500 1089.958 C 449.467 1099.299, 449.023 1099.515, 443.760 1097.123 C 438.453 1094.710, 428 1091.933, 428 1092.936 C 428 1093.346, 430.475 1094.236, 433.500 1094.913 C 436.525 1095.590, 439 1096.522, 439 1096.984 C 439 1097.446, 440.798 1098.128, 442.995 1098.499 C 445.192 1098.870, 447.228 1099.559, 447.518 1100.030 C 447.809 1100.501, 444.774 1099.954, 440.774 1098.815 C 429.619 1095.640, 426.411 1095.115, 414 1094.432 C 405.430 1093.961, 400.844 1094.183, 396 1095.302 C 384.498 1097.961, 377.539 1100.139, 375.921 1101.587 C 375.053 1102.364, 373.932 1103, 373.430 1103 C 372.629 1103, 362.322 1109.624, 361 1110.989 C 360.725 1111.273, 357.994 1113.408, 354.932 1115.734 C 348.490 1120.626, 344.801 1124.551, 342.546 1128.911 C 341.668 1130.610, 340.510 1132.056, 339.974 1132.125 C 339.438 1132.194, 338.572 1132.306, 338.050 1132.375 C 336.505 1132.578, 335.414 1134.119, 331.588 1141.500 C 327.407 1149.566, 323.726 1165.677, 324.278 1173.500 C 324.613 1178.261, 324.639 1178.202, 324.815 1172.250 C 324.917 1168.813, 325.341 1166, 325.758 1166 C 326.175 1166, 326.562 1172.975, 326.618 1181.500 C 326.674 1190.025, 326.333 1197, 325.860 1197 C 325.387 1197, 324.939 1195.088, 324.864 1192.750 C 324.778 1190.082, 324.557 1189.406, 324.270 1190.935 C 323.394 1195.597, 329.164 1217.564, 332.014 1220.414 C 333.606 1222.006, 333.198 1218.644, 331.532 1216.441 C 329.828 1214.188, 329.617 1213, 330.922 1213 C 331.430 1213, 332.394 1214.688, 333.065 1216.750 C 333.736 1218.813, 334.896 1221.388, 335.642 1222.473 C 337.195 1224.729, 337.379 1226, 336.153 1226 C 335.687 1226, 334.784 1224.987, 334.148 1223.750 C 333.011 1221.541, 333.001 1221.546, 333.628 1224 C 334.201 1226.242, 337.904 1231.602, 342 1236.119 C 342.825 1237.029, 345.243 1239.849, 347.374 1242.386 C 349.505 1244.924, 351.699 1247, 352.250 1247 C 352.801 1247, 352.058 1245.763, 350.600 1244.250 C 345.255 1238.706, 339.246 1231.435, 337.997 1229 C 336.581 1226.239, 338.866 1228.540, 349.285 1240.371 C 357.327 1249.501, 368.597 1256.684, 382.500 1261.539 C 389.518 1263.989, 392.347 1264.387, 405.545 1264.782 C 418.740 1265.177, 421.691 1264.957, 429.545 1262.996 C 439.243 1260.574, 448.177 1256.522, 454.500 1251.677 C 471.732 1238.473, 482.786 1223.529, 489.024 1205 C 490.972 1199.216, 491.212 1196.407, 491.207 1179.500 C 491.202 1160.966, 491.788 1155.425, 493.110 1161.500 C 493.697 1164.195, 493.773 1164.246, 493.855 1162 C 493.971 1158.877, 490.222 1150.533, 490.037 1153.500 C 489.823 1156.926, 486.941 1147.858, 486.808 1143.340 C 486.706 1139.866, 487.381 1138.301, 490.905 1133.840 C 495.099 1128.531, 528.127 1093.910, 541.500 1080.806 C 576.566 1046.442, 602.167 1020.234, 602.774 1018.078 C 603.352 1016.025, 603.514 984.271, 603.074 959.285 C 602.980 953.926, 600.776 952.481, 596.619 955.050 M 1001 962.955 C 1001 963.573, 1002.738 965.749, 1004.863 967.790 C 1006.988 969.830, 1011.713 974.365, 1015.363 977.867 C 1019.013 981.369, 1022 983.583, 1022 982.786 C 1022 981.990, 1018.709 978.224, 1014.686 974.419 C 1003.444 963.783, 1001 961.736, 1001 962.955 M 544.597 1000.322 C 543.013 1002.070, 538.968 1006.435, 535.609 1010.022 C 526.140 1020.132, 523.960 1023.047, 530.391 1017 C 540.074 1007.895, 540.663 1007.284, 543.089 1003.829 C 544.375 1001.998, 546.117 999.974, 546.962 999.332 C 547.806 998.689, 548.267 997.934, 547.987 997.654 C 547.707 997.373, 546.181 998.574, 544.597 1000.322 M 510.500 1036.013 C 503.350 1043.154, 497.796 1048.997, 498.159 1048.998 C 498.521 1048.999, 504.801 1043.150, 512.115 1036 C 519.428 1028.850, 524.982 1023.007, 524.456 1023.015 C 523.930 1023.023, 517.650 1028.872, 510.500 1036.013 M 997.759 1035 C 1002.123 1039.400, 1006.002 1043, 1006.379 1043 C 1006.755 1043, 1003.516 1039.400, 999.180 1035 C 994.845 1030.600, 990.966 1027, 990.560 1027 C 990.155 1027, 993.394 1030.600, 997.759 1035 M 817.500 1080.229 C 815.850 1080.818, 814.275 1081.593, 814 1081.951 C 813.725 1082.310, 811.355 1084.124, 808.734 1085.983 C 805.283 1088.429, 804.317 1089.606, 805.234 1090.247 C 806.068 1090.829, 805.789 1090.933, 804.418 1090.551 C 802.199 1089.934, 798.793 1092.802, 798.377 1095.640 C 798.252 1096.489, 797.820 1097.480, 797.416 1097.842 C 797.012 1098.204, 796.964 1097.713, 797.309 1096.750 C 798.012 1094.792, 797.238 1094.546, 795 1096.015 C 794.007 1096.667, 793.857 1097.254, 794.555 1097.750 C 795.242 1098.238, 794.919 1099.172, 793.631 1100.424 C 791.883 1102.123, 791.731 1102.142, 792.327 1100.590 C 793.383 1097.837, 791.543 1098.994, 784.242 1105.671 C 780.534 1109.063, 776.375 1112.734, 775 1113.830 L 772.500 1115.822 772 1184.661 L 771.500 1253.500 766.105 1255.228 C 763.138 1256.178, 760.438 1257.262, 760.105 1257.637 C 759.772 1258.012, 760.329 1258.020, 761.343 1257.655 C 765.422 1256.186, 768.279 1255.740, 767.709 1256.661 C 767.052 1257.725, 756.093 1264.277, 748.667 1268.047 C 739.942 1272.476, 720.585 1292.231, 716.773 1300.598 C 716.171 1301.919, 715.301 1303, 714.839 1303 C 713.480 1303, 713.869 1301.438, 715.862 1298.885 C 716.887 1297.573, 718.042 1295.487, 718.430 1294.250 C 718.818 1293.013, 719.524 1292, 720 1292 C 720.476 1292, 721.172 1291.034, 721.547 1289.853 C 722.319 1287.420, 739.291 1270, 740.890 1270 C 741.462 1270, 742.469 1268.987, 743.127 1267.750 C 744.590 1265.002, 734.730 1273.236, 728.204 1280.213 C 721.824 1287.034, 714.852 1297.444, 711.605 1305 C 710.068 1308.575, 708.172 1312.963, 707.392 1314.750 C 705.067 1320.075, 706.552 1318.436, 709.487 1312.437 C 710.984 1309.378, 712.398 1307.065, 712.631 1307.297 C 712.863 1307.530, 711.754 1311.270, 710.166 1315.610 C 708.578 1319.949, 706.681 1327.241, 705.949 1331.814 C 704.788 1339.072, 704.833 1341.677, 706.301 1352.314 C 708.597 1368.948, 716.600 1392, 720.079 1392 C 720.582 1392, 721.558 1393.315, 722.247 1394.922 C 724.233 1399.553, 735.439 1412.518, 740.416 1415.942 C 748.187 1421.289, 761.397 1428.611, 766.560 1430.433 C 769.277 1431.393, 772.302 1432.601, 773.283 1433.118 C 774.264 1433.635, 778.656 1434.566, 783.043 1435.186 C 787.430 1435.807, 790.813 1436.521, 790.560 1436.773 C 790.308 1437.025, 788.616 1437.621, 786.801 1438.098 C 784.545 1438.689, 785.875 1438.783, 791 1438.393 C 795.125 1438.079, 799.175 1437.868, 800 1437.925 C 800.825 1437.981, 803.750 1438.181, 806.500 1438.370 C 809.250 1438.559, 810.038 1438.525, 808.250 1438.296 C 803.027 1437.626, 804.495 1436.254, 811.250 1435.490 C 823.161 1434.143, 843.858 1425.329, 854.416 1417.107 C 864.787 1409.031, 878.510 1392.680, 883.544 1382.401 C 885.995 1377.396, 888 1372.659, 888 1371.873 C 888 1371.088, 888.732 1369.400, 889.627 1368.122 C 891.541 1365.390, 892.838 1349.679, 892.610 1332 C 892.528 1325.675, 892.611 1321.963, 892.794 1323.750 C 893.105 1326.786, 895 1328.502, 895 1325.747 C 895 1323.145, 891.030 1310.756, 888.428 1305.239 C 884.787 1297.517, 879.041 1288.626, 878.222 1289.445 C 877.857 1289.810, 878.057 1290.422, 878.666 1290.804 C 881.279 1292.445, 890.369 1310.594, 891.285 1316 C 891.518 1317.375, 891.516 1317.938, 891.281 1317.250 C 891.046 1316.563, 890.436 1316, 889.927 1316 C 889.417 1316, 889 1315.485, 889 1314.855 C 889 1312.593, 881.979 1299.172, 878.033 1293.890 C 870.867 1284.298, 861.826 1276.020, 852.479 1270.490 C 847.518 1267.555, 842.249 1264.850, 840.770 1264.478 C 839.292 1264.107, 837.558 1263.173, 836.919 1262.402 C 836.279 1261.631, 835.187 1261, 834.492 1261 C 833.797 1261, 832.034 1260.380, 830.574 1259.623 C 828.512 1258.553, 828.263 1258.113, 829.459 1257.654 C 830.307 1257.329, 831 1257.429, 831 1257.877 C 831 1258.749, 845.951 1263.383, 846.616 1262.717 C 846.834 1262.499, 845.097 1261.752, 842.756 1261.058 C 840.415 1260.363, 836.612 1258.941, 834.305 1257.897 C 831.998 1256.854, 828.735 1256, 827.055 1256 L 824 1256 824 1169.434 C 824 1111.675, 823.656 1082.225, 822.965 1080.934 C 821.801 1078.760, 821.665 1078.742, 817.500 1080.229 M 1215.713 1096.620 C 1215.372 1096.961, 1218.109 1098.760, 1221.796 1100.617 C 1228.804 1104.147, 1230.539 1104.681, 1229.491 1102.986 C 1228.723 1101.743, 1220.789 1097.518, 1219.750 1097.798 C 1219.338 1097.909, 1219 1097.550, 1219 1097 C 1219 1095.901, 1216.698 1095.635, 1215.713 1096.620 M 1246.320 1117.250 C 1249.175 1120.138, 1252.297 1123.625, 1253.259 1125 C 1258.623 1132.668, 1263 1139.497, 1263 1140.199 C 1263 1140.639, 1263.414 1141, 1263.921 1141 C 1264.427 1141, 1263.758 1138.962, 1262.434 1136.472 C 1260.037 1131.964, 1259.081 1130.599, 1255.750 1126.928 C 1254.787 1125.868, 1254 1124.629, 1254 1124.177 C 1254 1123.048, 1243.133 1112, 1242.023 1112 C 1241.532 1112, 1243.466 1114.362, 1246.320 1117.250 M 345.884 1119.750 C 342.067 1123.967, 337.629 1130.962, 338.328 1131.661 C 338.672 1132.005, 339.278 1131.434, 339.676 1130.393 C 340.074 1129.352, 340.766 1128.050, 341.214 1127.500 C 343.726 1124.419, 349.039 1117, 348.733 1117 C 348.536 1117, 347.254 1118.237, 345.884 1119.750 M 1119.071 1236.180 C 1120.335 1238.592, 1130.953 1249.384, 1131.508 1248.821 C 1131.682 1248.644, 1128.681 1245.206, 1124.839 1241.180 C 1120.998 1237.154, 1118.402 1234.904, 1119.071 1236.180 M 855.500 1268.704 C 856.050 1269.212, 859.384 1271.849, 862.909 1274.564 C 866.434 1277.279, 870.290 1280.400, 871.477 1281.500 C 872.665 1282.600, 874.506 1284.113, 875.568 1284.862 C 876.631 1285.612, 874.125 1283.006, 870 1279.072 C 865.875 1275.138, 860.700 1270.988, 858.500 1269.850 C 856.300 1268.711, 854.950 1268.196, 855.500 1268.704 M 707.560 1373.500 C 708.665 1379.265, 718 1397.242, 718 1393.606 C 718 1392.284, 715.585 1388, 714.839 1388 C 714.378 1388, 714.093 1387.662, 714.206 1387.250 C 714.319 1386.838, 713.532 1384.925, 712.457 1383 C 711.382 1381.075, 709.711 1377.475, 708.744 1375 C 707.569 1371.995, 707.176 1371.497, 707.560 1373.500" stroke="none" fill="#f9fafb" fill-rule="evenodd"/></svg>